<svg width="120" height="120" viewBox="0 0 120 120" fill="none" xmlns="http://www.w3.org/2000/svg">
<g id=" Home / Book-open">
<path id="Combined Shape" fill-rule="evenodd" clip-rule="evenodd" d="M65.0001 91.1257C65.0001 92.9427 66.8866 94.199 68.5912 93.5697C74.7952 91.2791 88.7029 86.8748 107.686 85.1898C108.989 85.0742 110 84.0201 110 82.7122C110 73.2577 110 37.3154 110 27.4934C110 26.1127 108.893 25.0109 107.514 25.0784C101.24 25.3859 84.0174 26.8994 66.4924 34.3513C65.5832 34.7379 65.0001 35.6296 65.0001 36.6176C65.0001 44.5485 65.0001 79.3896 65.0001 91.1257Z" fill="white"/>
<path id="Path 41 Copy" opacity="0.3" fill-rule="evenodd" clip-rule="evenodd" d="M54.9999 91.1257C54.9999 92.9427 53.1134 94.199 51.4088 93.5697C45.2048 91.2791 31.2971 86.8748 12.3135 85.1898C11.0107 85.0742 9.99992 84.0201 9.99992 82.7122C9.99992 73.2577 9.99992 37.3154 9.99992 27.4934C9.99992 26.1127 11.1073 25.0109 12.4864 25.0784C18.7597 25.3859 35.9826 26.8994 53.5076 34.3513C54.4168 34.7379 54.9999 35.6296 54.9999 36.6176C54.9999 44.5485 54.9999 79.3896 54.9999 91.1257Z" fill="white"/>
</g>
</svg>
