<svg width="120" height="120" viewBox="0 0 120 120" fill="none" xmlns="http://www.w3.org/2000/svg">
<g id=" General / Fire">
<path id="Path 18" opacity="0.3" fill-rule="evenodd" clip-rule="evenodd" d="M80 35C80 35 67.5 60 55 61.7516C55 61.7516 62.5 32.5 52.5 17.5C52.5 17.5 51.4396 33.5722 40.7249 52.8586C35.7025 61.8991 30 67.9934 30 80C30 97.1434 47.5572 106.003 60.0286 106.003C72.5 106.003 90 100.003 90 79.0024C90 66.0493 80 35 80 35Z" fill="#008BEA"/>
<path id="Path 17" fill-rule="evenodd" clip-rule="evenodd" d="M65 35C65 35 67.5 60 55 61.7516C55 61.7516 62.5 32.5 52.5 17.5C52.5 17.5 51.4396 33.5722 40.7249 52.8586C35.7025 61.8991 30 67.9934 30 80C30 97.1434 47.5572 106.003 60.0286 106.003C72.5 106.003 90 100.003 90 79.0024C90 66.0493 65 35 65 35Z" fill="#008BEA"/>
</g>
</svg>
