<svg width="122" height="121" viewBox="0 0 122 121" fill="none" xmlns="http://www.w3.org/2000/svg">
<path d="M23.404 101.9L23.1837 104.191C21.9059 104.147 20.0333 104.125 18.4268 104.125C16.8202 104.125 16.2237 104.213 16.2237 105.513C16.2237 106.57 16.6643 106.857 17.8099 107.231L20.6909 108.223C23.1142 109.082 23.9107 110.47 23.9107 112.693C23.9107 116.152 22.4127 117.076 18.2726 117.076C16.5174 117.069 14.7678 116.877 13.0529 116.503L13.2512 114.079C16.0712 114.146 17.3049 114.19 18.2726 114.19C20.035 114.19 20.5197 113.947 20.5197 112.713C20.5197 111.634 20.1011 111.37 19.0877 111.039L16.0254 109.96C13.7122 109.122 12.875 107.757 12.875 105.511C12.875 102.03 14.4832 101.303 18.403 101.303C19.9011 101.305 21.7077 101.415 23.404 101.9Z" fill="#E8B418"/>
<path d="M29.1962 111.741C29.2872 112.28 29.3387 112.824 29.3504 113.371V116.791H26.0898V101.369H29.3504V107.734C29.3556 108.398 29.304 109.062 29.1962 109.717H30.213L32.9008 105.928H36.5511L33.7311 109.695C33.4622 110.103 33.1169 110.454 32.7143 110.731V110.775C33.1221 111.098 33.4668 111.494 33.7311 111.942L36.9256 116.787H33.2702L30.2096 111.741H29.1962Z" fill="#E8B418"/>
<path d="M40.7881 101.128C41.427 101.128 41.7354 101.459 41.7354 102.076V103.262C41.7354 103.901 41.427 104.209 40.7881 104.209H39.334C38.6951 104.209 38.3867 103.901 38.3867 103.262V102.076C38.3867 101.459 38.6951 101.128 39.334 101.128H40.7881ZM38.446 116.791V105.931H41.6846V116.791H38.446Z" fill="#E8B418"/>
<path d="M55.3834 111.459C55.3834 115.777 53.9735 117.076 51.2433 117.076C49.9215 117.076 48.6217 116.767 47.6082 116.018C47.675 116.795 47.697 117.574 47.6743 118.353V120.975H44.4375V105.931H47.0812L47.3235 107.518C48.2048 106.438 49.9893 105.653 51.6399 105.653C54.3259 105.64 55.3834 107.782 55.3834 111.459ZM52.0347 111.459C52.0347 108.838 51.5501 108.199 50.3401 108.199C49.3927 108.199 48.6657 108.573 47.6743 109.234V114.212C48.5335 114.432 49.2165 114.652 50.1418 114.652C51.5297 114.654 52.0364 114.169 52.0364 111.459H52.0347Z" fill="#E8B418"/>
<path d="M67.2774 107.539C67.4573 108.04 67.5395 108.571 67.5197 109.103C67.5197 111.592 66.2419 112.584 62.4103 112.584C61.7771 112.585 61.1444 112.548 60.5156 112.474C60.2512 112.936 60.3461 113.66 61.1765 113.773L65.1201 114.236C67.3892 114.5 68.2705 115.514 68.2705 117.475C68.2705 120.295 66.7452 121 62.5662 121C58.0499 121 56.8398 120.184 56.8398 117.761C56.8398 116.66 57.3025 115.999 58.5583 115.404C57.5414 114.456 57.8533 112.692 58.9107 112.055C57.7651 111.526 57.3025 110.579 57.3025 109.125C57.3025 106.591 58.6023 105.622 62.434 105.622C63.6203 105.622 64.571 105.71 65.3149 105.93H68.7738L68.6196 107.362L67.2774 107.539ZM63.3796 116.371L60.6478 116.063C60.1631 116.485 59.9377 116.79 59.9377 117.332C59.9377 118.412 60.4224 118.566 62.5153 118.566C64.6523 118.566 65.159 118.368 65.159 117.38C65.1641 116.592 64.7676 116.526 63.3796 116.371ZM64.5032 109.103C64.5032 108.023 64.0185 107.715 62.4103 107.715C60.802 107.715 60.2953 108.023 60.2953 109.103C60.2953 110.182 60.8037 110.513 62.4103 110.513C64.0168 110.513 64.5032 110.159 64.5032 109.101V109.103Z" fill="#00A4EA"/>
<path d="M77.873 108.64H76.9918C76.0444 108.64 75.1412 108.883 73.6651 109.389V116.79H70.4062V105.93H72.9398L73.2262 107.539C74.6802 106.305 76.2224 105.622 77.6323 105.622H78.2051L77.873 108.64Z" fill="#00A4EA"/>
<path d="M82.1904 101.128C82.8293 101.128 83.1377 101.459 83.1377 102.076V103.262C83.1377 103.901 82.8293 104.209 82.1904 104.209H80.7364C80.0975 104.209 79.7891 103.901 79.7891 103.262V102.076C79.7891 101.459 80.0975 101.128 80.7364 101.128H82.1904ZM79.8552 116.791V105.931H83.0937V116.791H79.8552Z" fill="#00A4EA"/>
<path d="M96.4186 108.64V116.79H93.18V109.652C93.18 108.661 92.9157 108.374 92.1225 108.374C91.2193 108.374 90.3821 108.713 89.0823 109.366L89.1043 116.788H85.8438V105.93H88.4874L88.7298 107.539C90.2279 106.305 91.8141 105.622 93.3766 105.622C95.3577 105.622 96.4186 106.68 96.4186 108.64Z" fill="#00A4EA"/>
<path d="M109.433 116.79H106.855L106.613 115.182C106.098 115.779 105.459 116.256 104.739 116.578C104.019 116.9 103.238 117.06 102.449 117.046C99.6733 117.046 98.5938 114.953 98.5938 111.253C98.5938 106.915 100.026 105.615 102.758 105.615C104.035 105.615 105.291 105.902 106.283 106.585C106.216 105.858 106.172 105.109 106.172 104.315V101.37H109.433V116.79ZM103.751 114.367C104.72 114.367 105.249 114.08 106.174 113.485V108.464C105.381 108.244 104.764 108.045 103.861 108.045C102.473 108.045 101.944 108.508 101.944 111.24C101.944 113.838 102.473 114.367 103.751 114.367Z" fill="#00A4EA"/>
<path d="M116.258 45.5078H87.8849L74.648 59.9506H69.8338L60.9981 51.3286L52.1624 59.9506H47.3481L34.1065 45.5078H5.73828L19.4737 57.61L26.7806 54.861L25.266 62.6759L33.2803 69.5935L39.6234 66.4172L38.2656 73.9567L47.5618 82.0422L55.0301 78.3057L53.4301 87.1746L60.9791 93.8453L68.5613 87.1746L66.9661 78.3057L74.4344 82.0422L83.7259 73.9567L82.3727 66.4172L88.7158 69.5935L96.7254 62.6759L95.2583 53.9779L102.522 57.61L116.258 45.5078Z" fill="#008BEA"/>
<path d="M61.0071 2.79735e-05C55.7315 -0.00642214 50.5142 1.10264 45.6974 3.25447C40.8806 5.4063 36.5732 8.55225 33.0578 12.4859C29.5424 16.4196 26.8985 21.0521 25.2995 26.0796C23.7004 31.107 23.1824 36.4156 23.7795 41.6573H35.7914L49.0331 56.1002H50.5856L60.9976 45.9446L71.4095 56.1002H72.9621L86.2037 41.6573H98.2157C98.8127 36.4164 98.2949 31.1086 96.6964 26.0818C95.098 21.0551 92.4549 16.423 88.9405 12.4895C85.4262 8.55596 81.1199 5.40981 76.3043 3.2574C71.4887 1.10498 66.2724 -0.00508255 60.9976 2.79735e-05H61.0071ZM59.3311 20.5913H52.7696V11.6607C46.8434 13.5545 41.7532 17.4372 38.36 22.6519H59.3264V42.2033L49.9209 51.3761L37.5007 37.8164H27.4021V37.4603C27.4004 35.378 27.5959 33.3003 27.986 31.2549H40.3968L50.2011 41.9707L52.7886 39.4449V29.1943H28.4323C30.2067 22.2299 34.1631 16.0161 39.7228 11.4619C45.2825 6.90772 52.1537 4.25214 59.3311 3.88374V20.5913ZM94.6169 37.8021H84.5135L72.0885 51.3809L62.6831 42.2081V3.89324C68.275 4.17972 73.7069 5.85734 78.4865 8.77401C83.2661 11.6907 87.2422 15.7542 90.0542 20.596H82.1776C78.8473 16.4028 74.3456 13.2942 69.2445 11.6654V39.4544L71.8131 41.9802L81.6363 31.2549H87.3622C87.1913 30.5617 87.0061 29.8685 86.7782 29.1943H74.4624V22.6519H91.1652C93.443 27.2553 94.6228 32.3241 94.6121 37.4603L94.6169 37.8021Z" fill="#C39713"/>
<path d="M116.258 45.5078H87.8852L74.6483 59.9507H69.834L61.0078 51.3381V93.8216L68.5616 87.1746L66.9663 78.3057L74.4346 82.0422L83.7261 73.9567L82.373 66.4172L88.716 69.5935L96.7256 62.6759L95.2585 53.9779L102.523 57.61L116.258 45.5078Z" fill="#00A4EA"/>
<path d="M71.4159 56.1002H72.9684L86.21 41.6573H98.222C98.8189 36.4164 98.3012 31.1086 96.7028 26.0818C95.1043 21.0551 92.4612 16.423 88.9468 12.4895C85.4325 8.55595 81.1262 5.4098 76.3106 3.25739C71.495 1.10497 66.2787 -0.00509296 61.0039 1.75659e-05V45.9446L71.4159 56.1002ZM62.6846 3.87425C68.2765 4.16073 73.7085 5.83835 78.4881 8.75501C83.2677 11.6717 87.2437 15.7352 90.0558 20.5771H82.1792C78.8489 16.3838 74.3472 13.2752 69.2461 11.6464V39.4353L71.8147 41.9612L81.6379 31.2549H87.3638C87.1928 30.5617 87.0077 29.8685 86.7798 29.1943H74.464V22.6518H91.1668C93.4446 27.2553 94.6244 32.3241 94.6137 37.4603V37.7974H84.5151L72.0901 51.3761L62.6846 42.2033V3.87425Z" fill="#E8B418"/>
</svg>
