<svg width="172" height="40" viewBox="0 0 172 40" fill="none" xmlns="http://www.w3.org/2000/svg">
<path d="M67.3143 9.46283L67.0462 12.1988C65.4913 12.1462 63.2126 12.1199 61.2576 12.1199C59.3027 12.1199 58.5768 12.2251 58.5768 13.7773C58.5768 15.0401 59.113 15.3821 60.507 15.8293L64.0127 17.0132C66.9616 18.0392 67.9308 19.6966 67.9308 22.3516C67.9308 26.4819 66.1079 27.5848 61.07 27.5848C58.9342 27.5768 56.8052 27.3476 54.7185 26.9008L54.9598 24.007C58.3912 24.0859 59.8925 24.1385 61.07 24.1385C63.2147 24.1385 63.8044 23.8491 63.8044 22.3759C63.8044 21.0868 63.2951 20.7711 62.0619 20.3765L58.3355 19.0874C55.5207 18.0877 54.502 16.4567 54.502 13.7753C54.502 9.61865 56.459 8.75049 61.2288 8.75049C63.0517 8.75251 65.25 8.88405 67.3143 9.46283Z" fill="#E8B418"/>
<path d="M74.362 21.2145C74.4727 21.8581 74.5354 22.5087 74.5497 23.1613V27.245H70.582V8.82959H74.5497V16.4305C74.5559 17.2236 74.4931 18.0157 74.362 18.7982H75.5993L78.8699 14.2733H83.3118L79.8804 18.7719C79.5531 19.2586 79.133 19.6785 78.6431 20.0084V20.061C79.1393 20.4472 79.5587 20.9199 79.8804 21.4553L83.7676 27.241H79.3195L75.5952 21.2145H74.362Z" fill="#E8B418"/>
<path d="M88.467 8.54199C89.2445 8.54199 89.6198 8.9366 89.6198 9.67322V11.0898C89.6198 11.8527 89.2445 12.221 88.467 12.221H86.6977C85.9202 12.221 85.5449 11.8527 85.5449 11.0898V9.67322C85.5449 8.9366 85.9202 8.54199 86.6977 8.54199H88.467ZM85.6171 27.2448V14.2771H89.5579V27.2448H85.6171Z" fill="#E8B418"/>
<path d="M106.23 20.8785C106.23 26.0348 104.514 27.585 101.192 27.585C99.5834 27.585 98.0017 27.2166 96.7685 26.3222C96.8497 27.2494 96.8765 28.1805 96.8489 29.1108V32.2414H92.9102V14.2773H96.1272L96.422 16.1714C97.4944 14.8824 99.6658 13.9454 101.674 13.9454C104.943 13.9292 106.23 16.4871 106.23 20.8785ZM102.155 20.8785C102.155 17.7479 101.565 16.9849 100.093 16.9849C98.94 16.9849 98.0553 17.4322 96.8489 18.2214V24.165C97.8944 24.428 98.7255 24.6911 99.8514 24.6911C101.54 24.6931 102.157 24.1144 102.157 20.8785H102.155Z" fill="#E8B418"/>
<path d="M120.701 16.1975C120.92 16.7959 121.02 17.4299 120.996 18.0653C120.996 21.0381 119.441 22.2219 114.778 22.2219C114.008 22.2229 113.238 22.179 112.473 22.0904C112.151 22.6429 112.267 23.507 113.277 23.6426L118.076 24.195C120.837 24.5107 121.909 25.7209 121.909 28.0623C121.909 31.4297 120.053 32.2715 114.968 32.2715C109.472 32.2715 108 31.2981 108 28.4043C108 27.0889 108.563 26.2997 110.091 25.5893C108.854 24.4581 109.233 22.3515 110.52 21.5906C109.126 20.9592 108.563 19.8279 108.563 18.0916C108.563 15.0662 110.145 13.9087 114.807 13.9087C116.251 13.9087 117.408 14.0139 118.313 14.277H122.522L122.334 15.987L120.701 16.1975ZM115.958 26.7449L112.634 26.3766C112.044 26.8805 111.77 27.2447 111.77 27.8923C111.77 29.1814 112.359 29.3655 114.906 29.3655C117.507 29.3655 118.123 29.1288 118.123 27.949C118.129 27.0079 117.647 26.929 115.958 26.7449ZM117.325 18.0653C117.325 16.7762 116.735 16.4079 114.778 16.4079C112.821 16.4079 112.205 16.7762 112.205 18.0653C112.205 19.3544 112.823 19.749 114.778 19.749C116.733 19.749 117.325 19.3261 117.325 18.0633V18.0653Z" fill="#00A4EA"/>
<path d="M133.594 17.5129H132.521C131.369 17.5129 130.27 17.8022 128.473 18.4073V27.2447H124.508V14.277H127.591L127.939 16.1975C129.709 14.7242 131.585 13.9087 133.301 13.9087H133.998L133.594 17.5129Z" fill="#00A4EA"/>
<path d="M138.846 8.54199C139.623 8.54199 139.999 8.9366 139.999 9.67322V11.0898C139.999 11.8527 139.623 12.221 138.846 12.221H137.077C136.299 12.221 135.924 11.8527 135.924 11.0898V9.67322C135.924 8.9366 136.299 8.54199 137.077 8.54199H138.846ZM136.004 27.2448V14.2771H139.945V27.2448H136.004Z" fill="#00A4EA"/>
<path d="M156.161 17.5129V27.2447H152.22V18.721C152.22 17.5371 151.898 17.1951 150.933 17.1951C149.834 17.1951 148.815 17.5999 147.234 18.379L147.261 27.2427H143.293V14.277H146.51L146.805 16.1975C148.628 14.7242 150.558 13.9087 152.459 13.9087C154.87 13.9087 156.161 15.1715 156.161 17.5129Z" fill="#00A4EA"/>
<path d="M172 27.2445H168.864L168.569 25.324C167.943 26.0375 167.164 26.6069 166.288 26.9916C165.413 27.3764 164.461 27.567 163.502 27.5501C160.124 27.5501 158.811 25.0508 158.811 20.6331C158.811 15.4525 160.553 13.9004 163.877 13.9004C165.432 13.9004 166.96 14.2424 168.167 15.0579C168.086 14.1898 168.033 13.2953 168.033 12.3482V8.83105H172V27.2445ZM165.086 24.3506C166.265 24.3506 166.909 24.0086 168.035 23.2983V17.3022C167.07 17.0391 166.319 16.8023 165.22 16.8023C163.531 16.8023 162.887 17.3548 162.887 20.6169C162.887 23.7192 163.531 24.3506 165.086 24.3506Z" fill="#00A4EA"/>
<path d="M48.0033 19.397H35.6798L29.9304 25.553H27.8394L24.0017 21.878L20.164 25.553H18.0729L12.3215 19.397H0L5.96587 24.5553L9.13957 23.3836L8.48173 26.7146L11.9627 29.6631L14.7178 28.3092L14.128 31.5228L18.1657 34.9691L21.4095 33.3765L20.7146 37.1568L23.9934 40L27.2867 37.1568L26.5938 33.3765L29.8376 34.9691L33.8733 31.5228L33.2856 28.3092L36.0407 29.6631L39.5196 26.7146L38.8823 23.0072L42.0375 24.5553L48.0033 19.397Z" fill="#008BEA"/>
<path d="M24.0064 1.19232e-05C21.715 -0.00273733 19.4489 0.469984 17.3567 1.38716C15.2646 2.30434 13.3937 3.64525 11.8668 5.32192C10.3399 6.99858 9.19157 8.97312 8.49704 11.116C7.80251 13.2588 7.57753 15.5216 7.83685 17.7557H13.0541L18.8056 23.9118H19.4799L24.0022 19.5831L28.5246 23.9118H29.1989L34.9503 17.7557H40.1676C40.4269 15.5219 40.202 13.2595 39.5078 11.1169C38.8135 8.97437 37.6655 7.00004 36.139 5.32344C34.6126 3.64684 32.7422 2.30584 30.6506 1.38841C28.559 0.47098 26.2933 -0.00216635 24.0022 1.19232e-05H24.0064ZM23.2784 8.77669H20.4285V4.97016C17.8545 5.77739 15.6436 7.4323 14.1698 9.65497H23.2764V17.9885L19.1912 21.8982L13.7965 16.1186H9.41029V15.9668C9.40957 15.0793 9.49449 14.1937 9.66393 13.3219H15.0545L19.3129 17.8893L20.4367 16.8127V12.4436H9.85778C10.6284 9.47514 12.3469 6.82661 14.7617 4.88545C17.1765 2.9443 20.161 1.8124 23.2784 1.65538V8.77669ZM38.6045 16.1125H34.2162L28.8195 21.9002L24.7343 17.9905V1.65943C27.1631 1.78154 29.5224 2.49659 31.5984 3.73977C33.6744 4.98295 35.4014 6.71494 36.6228 8.77872H33.2016C31.7551 6.99141 29.7999 5.66644 27.5842 4.97218V16.8168L28.6999 17.8934L32.9665 13.3219H35.4535C35.3793 13.0264 35.2988 12.731 35.1999 12.4436H29.8506V9.65497H37.1053C38.0947 11.6171 38.6071 13.7776 38.6025 15.9668L38.6045 16.1125Z" fill="#C39713"/>
<path d="M48.0034 19.397H35.6798L29.9305 25.553H27.8394L24.0059 21.882V39.9899L27.2868 37.1568L26.5939 33.3765L29.8377 34.9691L33.8734 31.5228L33.2857 28.3092L36.0407 29.6631L39.5196 26.7146L38.8824 23.0072L42.0375 24.5553L48.0034 19.397Z" fill="#00A4EA"/>
<path d="M28.5263 23.9118H29.2006L34.952 17.7557H40.1693C40.4286 15.5219 40.2037 13.2595 39.5094 11.1169C38.8151 8.97436 37.6671 7.00003 36.1407 5.32343C34.6143 3.64683 32.7439 2.30584 30.6523 1.38841C28.5606 0.470975 26.295 -0.00217079 24.0039 7.48719e-06V19.5831L28.5263 23.9118ZM24.7339 1.65133C27.1627 1.77344 29.5221 2.4885 31.598 3.73168C33.674 4.97486 35.401 6.70685 36.6224 8.77062H33.2012C31.7547 6.98332 29.7995 5.65835 27.5838 4.96409V16.8087L28.6995 17.8853L32.9661 13.3219H35.4531C35.3789 13.0264 35.2984 12.7309 35.1995 12.4436H29.8502V9.65497H37.1049C38.0943 11.6171 38.6067 13.7776 38.6021 15.9668V16.1105H34.2158L28.8191 21.8982L24.7339 17.9885V1.65133Z" fill="#E8B418"/>
</svg>
