<svg width="88" height="88" viewBox="0 0 88 88" fill="none" xmlns="http://www.w3.org/2000/svg">
<g id=" Communication / Mail-heart">
<path id="Combined Shape" opacity="0.3" fill-rule="evenodd" clip-rule="evenodd" d="M22.0007 7.33331C19.9756 7.33331 18.334 8.97494 18.334 11V47.6666C18.334 49.6917 19.9756 51.3333 22.0006 51.3333H66.0007C68.0257 51.3333 69.6673 49.6917 69.6673 47.6666V11C69.6673 8.97494 68.0257 7.33331 66.0007 7.33331H22.0007ZM44.0014 19.0667C45.4802 17.3428 48.2408 14.6667 50.6014 14.6667C54.78 14.6667 57.2014 18.2186 57.2014 22.3667C57.2014 28.9667 44.0014 36.6667 44.0014 36.6667C44.0014 36.6667 30.8014 28.9667 30.8014 22.0739C30.8014 17.9259 33.2229 14.6667 37.4014 14.6667C39.762 14.6667 42.5227 17.3428 44.0014 19.0667Z" fill="#008BEA"/>
<path id="Combined Shape_2" fill-rule="evenodd" clip-rule="evenodd" d="M11 25.5856C11 24.09 12.6943 23.2237 13.9067 24.0993L44 45.8334L74.0933 24.0993C75.3057 23.2237 77 24.09 77 25.5856V62.3334C77 66.3834 73.7168 69.6667 69.6667 69.6667H18.3333C14.2832 69.6667 11 66.3834 11 62.3334V25.5856Z" fill="#008BEA"/>
</g>
</svg>
