<svg width="331" height="176" viewBox="0 0 331 176" fill="none" xmlns="http://www.w3.org/2000/svg">
<g id=" Communication / Mail-heart">
<path id="Combined Shape" opacity="0.3" fill-rule="evenodd" clip-rule="evenodd" d="M76.0026 17.3335C68.1786 17.3335 61.8359 23.6761 61.8359 31.5002V173.167C61.8359 180.991 68.1786 187.333 76.0026 187.333H246.003C253.827 187.333 260.169 180.991 260.169 173.167V31.5002C260.169 23.6761 253.827 17.3335 246.003 17.3335H76.0026ZM160.98 62.6668C166.694 56.0064 177.36 45.6668 186.48 45.6668C202.625 45.6668 211.98 59.3902 211.98 75.4168C211.98 100.917 160.98 130.667 160.98 130.667C160.98 130.667 109.98 100.917 109.98 74.2858C109.98 58.2592 119.336 45.6668 135.48 45.6668C144.601 45.6668 155.267 56.0064 160.98 62.6668Z" fill="#008BEA"/>
<path id="Combined Shape_2" fill-rule="evenodd" clip-rule="evenodd" d="M33.5 87.8535C33.5 82.0751 40.0462 78.728 44.7306 82.1112L161 166.084L277.269 82.1112C281.954 78.728 288.5 82.0751 288.5 87.8535V229.834C288.5 245.482 275.815 258.167 260.167 258.167H61.8333C46.1853 258.167 33.5 245.482 33.5 229.834V87.8535Z" fill="#008BEA"/>
</g>
</svg>
