<svg width="144" height="40" viewBox="0 0 144 40" fill="none" xmlns="http://www.w3.org/2000/svg">
<path d="M9.09706 39.7793V37.1305C9.11207 36.9078 9.08076 36.6843 9.0052 36.475C8.92965 36.2656 8.81159 36.0752 8.65889 35.9165C8.50619 35.7578 8.32236 35.6344 8.11965 35.5544C7.91693 35.4745 7.69998 35.4399 7.48326 35.453C7.19958 35.4339 6.9161 35.4934 6.66243 35.6254C6.40876 35.7575 6.19419 35.9571 6.04113 36.2035C5.90161 35.9645 5.70198 35.7686 5.46328 35.6365C5.22457 35.5044 4.95565 35.441 4.68485 35.453C4.44879 35.4407 4.21372 35.4921 4.00292 35.6021C3.79212 35.712 3.61292 35.8767 3.48308 36.0799V35.559H2.59033V39.7793H3.49166V37.4572C3.47249 37.3129 3.48455 37.166 3.52699 37.027C3.56942 36.8881 3.64118 36.7605 3.73713 36.6533C3.83309 36.5462 3.95087 36.4622 4.08205 36.4073C4.21324 36.3525 4.35459 36.3281 4.496 36.3359C5.0883 36.3359 5.38874 36.7332 5.38874 37.4484V39.7969H6.29007V37.4572C6.27168 37.313 6.2843 37.1665 6.32702 37.0279C6.36974 36.8892 6.44154 36.762 6.53733 36.655C6.63312 36.5481 6.75057 36.4641 6.88139 36.4089C7.01221 36.3538 7.1532 36.3289 7.29441 36.3359C7.90388 36.3359 8.19574 36.7332 8.19574 37.4484V39.7969L9.09706 39.7793ZM22.4324 35.559H20.9646V34.2787H20.0632V35.559H19.2477V36.3977H20.0804V38.3401C20.0804 39.3202 20.4495 39.9029 21.5054 39.9029C21.8998 39.9043 22.2866 39.791 22.6213 39.5762L22.3638 38.7904C22.1244 38.9373 21.8526 39.0193 21.574 39.0288C21.1448 39.0288 20.9817 38.7463 20.9817 38.3225V36.3977H22.441L22.4324 35.559ZM30.0465 35.453C29.8289 35.4464 29.6135 35.5004 29.4231 35.6091C29.2328 35.7179 29.0745 35.8775 28.9649 36.0711V35.559H28.0808V39.7793H28.9735V37.4131C28.9735 36.7156 29.2654 36.3271 29.8319 36.3271C30.0229 36.3244 30.2125 36.3604 30.3899 36.433L30.6646 35.5501C30.4607 35.4751 30.2459 35.4363 30.0293 35.4354L30.0465 35.453ZM18.5353 35.8945C18.0299 35.5854 17.4489 35.4322 16.8614 35.453C15.8227 35.453 15.1446 35.9651 15.1446 36.8039C15.1446 37.4925 15.6424 37.9163 16.5609 38.0488L16.9901 38.1106C17.4794 38.1812 17.7112 38.3136 17.7112 38.552C17.7112 38.8787 17.385 39.0641 16.7755 39.0641C16.2853 39.0787 15.8045 38.9232 15.4107 38.6227L14.9815 39.3378C15.5015 39.7113 16.1243 39.9032 16.7584 39.8852C17.943 39.8852 18.6297 39.3113 18.6297 38.5079C18.6297 37.7044 18.0889 37.3778 17.1961 37.2453L16.7669 37.1835C16.3807 37.1305 16.0716 37.0511 16.0716 36.7686C16.0716 36.486 16.3635 36.2741 16.8528 36.2741C17.305 36.2795 17.7484 36.4042 18.1404 36.6361L18.5353 35.8945ZM42.4462 35.453C42.2286 35.4464 42.0132 35.5004 41.8228 35.6091C41.6325 35.7179 41.4742 35.8775 41.3646 36.0711V35.559H40.4805V39.7793H41.3732V37.4131C41.3732 36.7156 41.6651 36.3271 42.2316 36.3271C42.4226 36.3244 42.6122 36.3604 42.7896 36.433L43.0643 35.5501C42.8604 35.4751 42.6456 35.4363 42.4291 35.4354L42.4462 35.453ZM30.9436 37.6603C30.9329 37.9569 30.9826 38.2525 31.0895 38.5282C31.1963 38.8038 31.3579 39.0536 31.5639 39.2613C31.77 39.4691 32.0159 39.6303 32.286 39.7347C32.5561 39.8391 32.8444 39.8844 33.1325 39.8676C33.6685 39.8956 34.1953 39.7161 34.609 39.3643L34.1798 38.6227C33.8711 38.8647 33.4948 38.9979 33.1067 39.0023C32.7768 38.9749 32.4689 38.8206 32.2444 38.5703C32.02 38.32 31.8954 37.992 31.8954 37.6515C31.8954 37.3109 32.02 36.9829 32.2444 36.7326C32.4689 36.4823 32.7768 36.3281 33.1067 36.3006C33.4948 36.3051 33.8711 36.4382 34.1798 36.6803L34.609 35.9386C34.1953 35.5869 33.6685 35.4073 33.1325 35.4354C32.8444 35.4186 32.5561 35.4638 32.286 35.5682C32.0159 35.6726 31.77 35.8338 31.5639 36.0416C31.3579 36.2494 31.1963 36.4991 31.0895 36.7748C30.9826 37.0505 30.9329 37.3461 30.9436 37.6426V37.6603ZM39.3045 37.6603V35.559H38.4117V36.0711C38.2601 35.8704 38.0643 35.7097 37.8404 35.6023C37.6165 35.4948 37.371 35.4436 37.1241 35.453C36.5549 35.453 36.0091 35.6856 35.6066 36.0995C35.2042 36.5135 34.9781 37.0749 34.9781 37.6603C34.9781 38.2457 35.2042 38.8071 35.6066 39.2211C36.0091 39.635 36.5549 39.8676 37.1241 39.8676C37.371 39.8769 37.6165 39.8258 37.8404 39.7183C38.0643 39.6109 38.2601 39.4502 38.4117 39.2495V39.7616H39.3045V37.6603ZM35.9824 37.6603C35.9966 37.4119 36.0812 37.1732 36.2257 36.9735C36.3701 36.7739 36.5682 36.6221 36.7955 36.5368C37.0228 36.4515 37.2694 36.4365 37.5049 36.4935C37.7404 36.5505 37.9545 36.6771 38.121 36.8578C38.2874 37.0384 38.3988 37.2651 38.4416 37.5101C38.4843 37.755 38.4564 38.0075 38.3614 38.2363C38.2664 38.4652 38.1084 38.6605 37.9069 38.7981C37.7053 38.9358 37.469 39.0099 37.2271 39.0111C37.0572 39.0134 36.8886 38.9794 36.7321 38.9113C36.5755 38.8433 36.4343 38.7427 36.3174 38.6158C36.2005 38.4889 36.1104 38.3385 36.0527 38.1741C35.9951 38.0096 35.9711 37.8347 35.9824 37.6603ZM25.2094 35.453C24.6402 35.4612 24.0975 35.7016 23.7007 36.1214C23.3039 36.5411 23.0854 37.1058 23.0934 37.6912C23.1014 38.2766 23.3351 38.8348 23.7432 39.2429C24.1513 39.6511 24.7003 39.8758 25.2695 39.8676C25.887 39.9002 26.4943 39.6956 26.9734 39.2937L26.5442 38.6138C26.2053 38.8934 25.7854 39.0487 25.351 39.0553C25.0559 39.0814 24.7626 38.9881 24.5333 38.7952C24.3041 38.6022 24.1571 38.325 24.1235 38.0223H27.1708C27.1708 37.9075 27.1708 37.7927 27.1708 37.6691C27.1708 36.3448 26.3725 35.4618 25.2223 35.4618L25.2094 35.453ZM25.2094 36.2741C25.343 36.2712 25.4758 36.2954 25.6003 36.3452C25.7248 36.3951 25.8386 36.4698 25.935 36.5649C26.0315 36.66 26.1088 36.7737 26.1625 36.8996C26.2162 37.0254 26.2453 37.1609 26.2481 37.2983H24.102C24.1176 37.0149 24.2404 36.749 24.4441 36.5576C24.6479 36.3662 24.9164 36.2644 25.1922 36.2741H25.2094ZM47.5752 37.6691V33.8638H46.7168V36.0711C46.5652 35.8704 46.3694 35.7097 46.1455 35.6023C45.9216 35.4948 45.6761 35.4436 45.4292 35.453C44.86 35.453 44.3142 35.6856 43.9117 36.0995C43.5093 36.5135 43.2832 37.0749 43.2832 37.6603C43.2832 38.2457 43.5093 38.8071 43.9117 39.2211C44.3142 39.635 44.86 39.8676 45.4292 39.8676C45.6761 39.8769 45.9216 39.8258 46.1455 39.7183C46.3694 39.6109 46.5652 39.4502 46.7168 39.2495V39.7616H47.5752V37.6691ZM49.0645 39.1657C49.1203 39.165 49.1758 39.1755 49.2276 39.1966C49.2769 39.2172 49.3221 39.2472 49.3607 39.2849C49.3984 39.3229 49.429 39.3678 49.4508 39.4173C49.4726 39.4688 49.4838 39.5244 49.4838 39.5806C49.4838 39.6368 49.4726 39.6924 49.4508 39.744C49.429 39.7934 49.3984 39.8383 49.3607 39.8764C49.3221 39.9141 49.2769 39.944 49.2276 39.9647C49.1763 39.988 49.1207 40 49.0645 40C48.9832 39.9994 48.9037 39.975 48.8353 39.9296C48.7669 39.8843 48.7124 39.8199 48.6783 39.744C48.6568 39.6923 48.6457 39.6368 48.6457 39.5806C48.6457 39.5245 48.6568 39.4689 48.6783 39.4173C48.7001 39.3678 48.7307 39.3229 48.7684 39.2849C48.807 39.2472 48.8522 39.2172 48.9015 39.1966C48.9574 39.1737 49.0173 39.1632 49.0774 39.1657H49.0645ZM49.0645 39.9117C49.1074 39.912 49.1498 39.903 49.189 39.8852C49.2259 39.8683 49.2594 39.8443 49.2877 39.8146C49.3414 39.7544 49.3712 39.6756 49.3712 39.5939C49.3712 39.5121 49.3414 39.4334 49.2877 39.3731C49.2595 39.3433 49.226 39.3194 49.189 39.3025C49.1498 39.2849 49.1074 39.2759 49.0645 39.276C49.0218 39.2763 48.9794 39.2853 48.9401 39.3025C48.9015 39.3188 48.8665 39.3428 48.8371 39.3731C48.7834 39.4334 48.7536 39.5121 48.7536 39.5939C48.7536 39.6756 48.7834 39.7544 48.8371 39.8146C48.8666 39.8449 48.9016 39.8689 48.9401 39.8852C48.9834 39.9044 49.0303 39.9135 49.0774 39.9117H49.0645ZM49.0903 39.3864C49.1304 39.3844 49.1698 39.3969 49.2019 39.4217C49.215 39.4329 49.2254 39.4471 49.2321 39.4633C49.2388 39.4794 49.2417 39.4969 49.2405 39.5144C49.2411 39.5291 49.2388 39.5437 49.2336 39.5574C49.2284 39.5711 49.2206 39.5835 49.2105 39.5939C49.1856 39.6171 49.1539 39.6311 49.1203 39.6336L49.2448 39.7793H49.1461L49.0302 39.6336H48.9916V39.7793H48.91V39.3908L49.0903 39.3864ZM48.9959 39.4614V39.5674H49.0903C49.1071 39.5725 49.125 39.5725 49.1418 39.5674C49.1448 39.5612 49.1464 39.5544 49.1464 39.5475C49.1464 39.5406 49.1448 39.5338 49.1418 39.5277C49.1448 39.5215 49.1464 39.5147 49.1464 39.5078C49.1464 39.5009 49.1448 39.4941 49.1418 39.4879C49.125 39.4828 49.1071 39.4828 49.0903 39.4879L48.9959 39.4614ZM44.2746 37.6691C44.2889 37.4207 44.3734 37.182 44.5179 36.9824C44.6624 36.7828 44.8604 36.631 45.0877 36.5457C45.315 36.4604 45.5616 36.4453 45.7971 36.5023C46.0326 36.5593 46.2468 36.686 46.4132 36.8666C46.5796 37.0472 46.6911 37.274 46.7338 37.5189C46.7765 37.7638 46.7487 38.0163 46.6537 38.2451C46.5587 38.474 46.4007 38.6693 46.1991 38.807C45.9976 38.9446 45.7613 39.0187 45.5193 39.02C45.3494 39.0222 45.1808 38.9882 45.0243 38.9202C44.8677 38.8521 44.7266 38.7515 44.6096 38.6246C44.4927 38.4977 44.4026 38.3474 44.345 38.1829C44.2873 38.0185 44.2634 37.8435 44.2746 37.6691ZM14.1316 37.6691V35.559H13.2389V36.0711C13.0873 35.8704 12.8915 35.7097 12.6676 35.6023C12.4437 35.4948 12.1982 35.4436 11.9513 35.453C11.3821 35.453 10.8363 35.6856 10.4338 36.0995C10.0314 36.5135 9.80525 37.0749 9.80525 37.6603C9.80525 38.2457 10.0314 38.8071 10.4338 39.2211C10.8363 39.635 11.3821 39.8676 11.9513 39.8676C12.1982 39.8769 12.4437 39.8258 12.6676 39.7183C12.8915 39.6109 13.0873 39.4502 13.2389 39.2495V39.7616H14.1316V37.6691ZM10.8096 37.6691C10.8238 37.4207 10.9084 37.182 11.0529 36.9824C11.1973 36.7828 11.3954 36.631 11.6227 36.5457C11.85 36.4604 12.0966 36.4453 12.3321 36.5023C12.5676 36.5593 12.7817 36.686 12.9482 36.8666C13.1146 37.0472 13.226 37.274 13.2687 37.5189C13.3115 37.7638 13.2836 38.0163 13.1886 38.2451C13.0936 38.474 12.9356 38.6693 12.7341 38.807C12.5325 38.9446 12.2962 39.0187 12.0543 39.02C11.8836 39.0234 11.7141 38.9904 11.5566 38.9229C11.399 38.8554 11.2568 38.7549 11.1389 38.6279C11.0211 38.5009 10.9302 38.3501 10.872 38.185C10.8139 38.02 10.7897 37.8443 10.801 37.6691H10.8096Z" fill="white"/>
<path d="M31.7589 3.39893H18.239V28.3898H31.7589V3.39893Z" fill="#FF5F00"/>
<path d="M19.0973 15.8976C19.0948 13.4904 19.6249 11.1143 20.6473 8.949C21.6698 6.78374 23.1579 4.88616 24.9989 3.39995C22.7194 1.5574 19.982 0.411634 17.0993 0.0935917C14.2167 -0.224451 11.3053 0.298064 8.69775 1.60142C6.09021 2.90477 3.89177 4.93638 2.35371 7.46405C0.815643 9.99172 0 12.9135 0 15.8954C0 18.8773 0.815643 21.799 2.35371 24.3267C3.89177 26.8544 6.09021 28.886 8.69775 30.1893C11.3053 31.4927 14.2167 32.0152 17.0993 31.6971C19.982 31.3791 22.7194 30.2333 24.9989 28.3908C23.1584 26.905 21.6707 25.0082 20.6483 22.8437C19.6258 20.6793 19.0955 18.304 19.0973 15.8976Z" fill="#EB001B"/>
<path d="M50.0004 15.8965C50.0003 18.8786 49.1845 21.8005 47.6462 24.3283C46.1078 26.8561 43.9091 28.8876 41.3012 30.1908C38.6933 31.494 35.7816 32.0161 32.8988 31.6976C30.016 31.3791 27.2786 30.2328 24.9993 28.3897C26.839 26.9026 28.3263 25.0052 29.349 22.8407C30.3717 20.6761 30.9031 18.3009 30.9031 15.8943C30.9031 13.4877 30.3717 11.1125 29.349 8.94789C28.3263 6.78332 26.839 4.88593 24.9993 3.39885C27.2786 1.55573 30.016 0.409409 32.8988 0.0909099C35.7816 -0.227589 38.6933 0.294589 41.3012 1.59776C43.9091 2.90092 46.1078 4.9325 47.6462 7.46025C49.1845 9.98801 50.0003 12.9099 50.0004 15.8921V15.8965Z" fill="#F79E1B"/>
<path d="M48.5236 25.7411V25.229H48.7254V25.123H48.2146V25.229H48.4335V25.7411H48.5236ZM49.5151 25.7411V25.123H49.3606L49.1803 25.5645L49 25.123H48.8627V25.7411H48.9743V25.2776L49.1417 25.6793H49.2576L49.425 25.2776V25.7455L49.5151 25.7411Z" fill="#F79E1B"/>
<line x1="66.5002" y1="2.18557e-08" x2="66.5002" y2="40.0002" stroke="#283137"/>
<path d="M108.722 29.7111H103.727L106.852 10.3506H111.847L108.722 29.7111Z" fill="#00579F"/>
<path d="M126.831 10.8243C125.846 10.4325 124.283 10 122.351 10C117.418 10 113.944 12.6362 113.923 16.4051C113.882 19.1859 116.41 20.7304 118.301 21.6575C120.233 22.605 120.89 23.2234 120.89 24.0679C120.871 25.3649 119.328 25.9628 117.89 25.9628C115.896 25.9628 114.827 25.6545 113.203 24.9329L112.545 24.6236L111.846 28.9696C113.018 29.5045 115.177 29.9792 117.418 30C122.659 30 126.072 27.4046 126.112 23.3882C126.132 21.1842 124.797 19.4955 121.919 18.1155C120.172 17.2297 119.102 16.6324 119.102 15.726C119.122 14.902 120.007 14.058 121.979 14.058C123.603 14.0167 124.796 14.4079 125.7 14.7993L126.152 15.0049L126.831 10.8243Z" fill="#00579F"/>
<path d="M133.471 22.8524C133.882 21.7401 135.465 17.4354 135.465 17.4354C135.445 17.4768 135.876 16.3027 136.123 15.5819L136.472 17.2501C136.472 17.2501 137.418 21.8844 137.623 22.8524C136.842 22.8524 134.458 22.8524 133.471 22.8524ZM139.637 10.3506H135.773C134.582 10.3506 133.676 10.7004 133.162 11.9569L125.742 29.7108H130.984C130.984 29.7108 131.847 27.3213 132.032 26.8066C132.607 26.8066 137.706 26.8066 138.446 26.8066C138.589 27.4864 139.042 29.7108 139.042 29.7108H143.667L139.637 10.3506Z" fill="#00579F"/>
<path d="M99.5549 10.3506L94.6628 23.5526L94.1282 20.8751C93.2237 17.7856 90.3871 14.4289 87.2217 12.7598L91.7027 29.6906H96.9852L104.837 10.3506H99.5549Z" fill="#00579F"/>
<path d="M90.1196 10.3506H82.0825L82.0002 10.7418C88.2697 12.3484 92.4219 16.2211 94.1278 20.8759L92.3806 11.978C92.093 10.7415 91.209 10.3914 90.1196 10.3506Z" fill="#FAA61A"/>
</svg>
