<svg width="105" height="26" viewBox="0 0 105 26" fill="none" xmlns="http://www.w3.org/2000/svg">
<path d="M19.2165 1.9605C17.9833 0.588294 15.7541 0 12.9024 0H4.62575C4.04229 0 3.5465 0.414251 3.45515 0.975935L0.0089463 22.3135C-0.0595653 22.7342 0.274153 23.1153 0.711006 23.1153H5.82065L7.10395 15.1691L7.06417 15.4179C7.15552 14.8562 7.64762 14.442 8.23034 14.442H10.6585C15.4285 14.442 19.1635 12.5505 20.2545 7.07894C20.2869 6.91713 20.3149 6.75963 20.3392 6.60572C20.2015 6.53452 20.2015 6.53452 20.3392 6.60572C20.6641 4.58337 20.3369 3.20685 19.2165 1.9605Z" fill="#003087"/>
<path d="M72.0081 12.0502H69.2581C68.9951 12.0502 68.749 12.1775 68.6017 12.3904L64.8077 17.8447L63.2003 12.6033C63.0994 12.2753 62.79 12.0502 62.4393 12.0502H59.7364C59.4101 12.0502 59.1802 12.3638 59.2856 12.6651L62.3133 21.3428L59.4653 25.266C59.2421 25.5738 59.4677 25.9996 59.8543 25.9996H62.6014C62.8614 25.9996 63.1053 25.8751 63.2541 25.6666L72.3993 12.7802C72.6181 12.4717 72.3926 12.0502 72.0081 12.0502ZM53.6229 17.2491C53.3584 18.7753 52.1178 19.8001 50.5347 19.8001C49.7413 19.8001 49.1055 19.5505 48.6974 19.0788C48.293 18.6113 48.1405 17.9446 48.2687 17.2031C48.5147 15.6899 49.7759 14.6327 51.3348 14.6327C52.112 14.6327 52.7426 14.8845 53.1588 15.3606C53.578 15.8403 53.743 16.5105 53.6229 17.2491ZM57.436 12.0502H54.6999C54.4657 12.0502 54.266 12.2163 54.2292 12.4428L54.1091 13.1893L53.9183 12.9189C53.3253 12.0796 52.0044 11.7984 50.6857 11.7984C47.6631 11.7984 45.081 14.0351 44.5786 17.1715C44.3171 18.7364 44.6884 20.2316 45.5975 21.2751C46.4321 22.2338 47.6233 22.633 49.0429 22.633C51.4799 22.633 52.831 21.1054 52.831 21.1054L52.7087 21.8476C52.663 22.1295 52.8862 22.3849 53.1794 22.3849H55.6429C56.0341 22.3849 56.3663 22.108 56.4275 21.7311L57.9067 12.5874C57.9524 12.3055 57.7284 12.0502 57.436 12.0502ZM41.0173 12.1143C40.7049 14.1165 39.1387 14.1165 37.6234 14.1165H36.7614L37.3663 10.3782C37.4023 10.1524 37.602 9.98623 37.8363 9.98623H38.2319C39.2632 9.98623 40.2371 9.98623 40.7395 10.5594C41.0401 10.9025 41.1307 11.4117 41.0173 12.1143ZM40.3579 6.89014H34.6442C34.253 6.89014 33.9208 7.16774 33.8596 7.5446L31.5494 21.8478C31.5037 22.1297 31.7269 22.385 32.0194 22.385H34.7481C35.1385 22.385 35.4708 22.1074 35.5319 21.7313L36.1559 17.8721C36.2163 17.4952 36.5493 17.2176 36.9397 17.2176H38.7475C42.5113 17.2176 44.6837 15.4398 45.251 11.9151C45.5066 10.3746 45.2613 9.16348 44.5224 8.31556C43.7099 7.3835 42.2696 6.89014 40.3579 6.89014Z" fill="#002F86"/>
<path d="M101.413 7.28317L99.0686 21.8481C99.0229 22.13 99.2461 22.3854 99.5386 22.3854H101.897C102.288 22.3854 102.621 22.1078 102.681 21.7309L104.994 7.42773C105.039 7.14581 104.816 6.8905 104.523 6.8905H101.884C101.649 6.8905 101.45 7.05663 101.413 7.28317ZM94.3756 17.2491C94.1112 18.7753 92.8706 19.8001 91.2875 19.8001C90.4941 19.8001 89.8583 19.5505 89.4502 19.0788C89.045 18.6113 88.8932 17.9446 89.0214 17.2031C89.2675 15.6899 90.5287 14.6327 92.0875 14.6327C92.8647 14.6327 93.4953 14.8845 93.9115 15.3606C94.3307 15.8403 94.4957 16.5105 94.3756 17.2491ZM98.1887 12.0502H95.4527C95.2184 12.0502 95.0188 12.2163 94.9819 12.4428L94.8618 13.1893L94.6703 12.9189C94.078 12.0796 92.7571 11.7984 91.4385 11.7984C88.4159 11.7984 85.8338 14.0351 85.3314 17.1715C85.0698 18.7364 85.4411 20.2316 86.3502 21.2751C87.1849 22.2338 88.3761 22.633 89.7957 22.633C92.2326 22.633 93.5837 21.1054 93.5837 21.1054L93.4614 21.8476C93.4157 22.1295 93.6389 22.3849 93.9321 22.3849H96.3956C96.7868 22.3849 97.1191 22.108 97.1802 21.7311L98.6595 12.5874C98.7051 12.3055 98.4812 12.0502 98.1887 12.0502ZM81.7699 12.1143C81.4576 14.1165 79.8914 14.1165 78.376 14.1165H77.5141L78.1189 10.3782C78.1551 10.1524 78.3547 9.98623 78.5889 9.98623H78.9845C80.0159 9.98623 80.9898 9.98623 81.4922 10.5594C81.7928 10.9025 81.8834 11.4117 81.7699 12.1143ZM81.1106 6.89014H75.3969C75.0057 6.89014 74.6735 7.16774 74.6123 7.5446L72.3021 21.8478C72.2564 22.1297 72.4804 22.385 72.7721 22.385H75.7041C75.9774 22.385 76.2102 22.1908 76.2529 21.9276L76.9086 17.8721C76.969 17.4953 77.3019 17.2176 77.6924 17.2176H79.5002C83.2639 17.2176 85.4364 15.4398 86.0037 11.9151C86.2593 10.3746 86.014 9.16348 85.2751 8.31556C84.4625 7.3835 83.0223 6.89014 81.1106 6.89014Z" fill="#009CDE"/>
<path d="M19.2165 1.9605C17.9833 0.588294 15.7541 0 12.9024 0H4.62575C4.04229 0 3.5465 0.414251 3.45515 0.975935L0.0089463 22.3135C-0.0595653 22.7342 0.274153 23.1153 0.711006 23.1153H5.82065L7.10395 15.1691L7.06417 15.4179C7.15552 14.8562 7.64762 14.442 8.23034 14.442H10.6585C15.4285 14.442 19.1635 12.5505 20.2545 7.07894C20.2869 6.91713 20.3149 6.75963 20.3392 6.60572C20.2015 6.53452 20.2015 6.53452 20.3392 6.60572C20.6641 4.58337 20.3369 3.20685 19.2165 1.9605Z" fill="#003087"/>
<path d="M8.48303 6.63233C8.53754 6.29431 8.76002 6.01743 9.05911 5.87718C9.1954 5.8139 9.34716 5.77866 9.50628 5.77866H15.995C16.7634 5.77866 17.4802 5.82756 18.1351 5.9304C18.3229 5.95986 18.5049 5.99369 18.6817 6.03253C18.8585 6.07062 19.0301 6.1138 19.1966 6.16126C19.2799 6.18497 19.3616 6.20948 19.4419 6.23534C19.7639 6.34034 20.0637 6.4626 20.3392 6.60572C20.6641 4.58265 20.3369 3.20685 19.2165 1.9605C17.9826 0.588294 15.7541 0 12.9024 0H4.62501C4.04229 0 3.5465 0.414251 3.45516 0.975935L0.0089468 22.3127C-0.0595648 22.7342 0.274153 23.1146 0.71027 23.1146H5.82065L7.10395 15.1683L8.48303 6.63233Z" fill="#002F86"/>
<path d="M20.3394 6.60547C20.3144 6.76009 20.2871 6.91688 20.2547 7.07869C19.1637 12.5495 15.4287 14.4417 10.6587 14.4417H8.2298C7.64709 14.4417 7.15498 14.856 7.06437 15.4177L5.82084 23.1144L5.46797 25.2978C5.4083 25.6661 5.70003 25.9998 6.08163 25.9998H10.389C10.8988 25.9998 11.3327 25.6373 11.4123 25.1461L11.4543 24.9318L12.2661 19.909L12.3185 19.6314C12.398 19.1402 12.8319 18.7777 13.3417 18.7777H13.9863C18.1589 18.7777 21.4261 17.1228 22.3808 12.3367C22.7794 10.3366 22.5731 8.66666 21.5189 7.49366C21.1992 7.13839 20.8021 6.84496 20.3395 6.60547" fill="#009CDE"/>
<path d="M19.1969 6.16142C19.0304 6.11395 18.8588 6.0708 18.682 6.03268C18.5052 5.99454 18.3225 5.96076 18.1353 5.93128C17.4797 5.82771 16.7636 5.77881 15.9945 5.77881H9.50656C9.3467 5.77881 9.19494 5.81408 9.05939 5.87806C8.75956 6.0183 8.53782 6.29446 8.48331 6.6332L7.10423 15.1692L7.06445 15.4181C7.15507 14.8564 7.64717 14.4421 8.22989 14.4421H10.6587C15.4288 14.4421 19.1638 12.5507 20.2548 7.0791C20.2872 6.91728 20.3145 6.7605 20.3395 6.60587C20.0632 6.46347 19.7642 6.34049 19.4422 6.23621C19.3619 6.21032 19.2802 6.18512 19.1969 6.16142Z" fill="#012069"/>
</svg>
