<svg width="132" height="33" viewBox="0 0 132 33" fill="none" xmlns="http://www.w3.org/2000/svg">
<path d="M34.6939 11.5737H48.0481V14.0792H42.79V28.2031H39.908V14.0792H34.6719L34.6939 11.5737ZM47.4761 16.1634H49.9402V18.4915H49.9842C50.0722 18.1589 50.2262 17.8485 50.4462 17.5381C50.6662 17.2277 50.9302 16.9395 51.2602 16.6956C51.5682 16.4295 51.9202 16.2299 52.3162 16.0747C52.6902 15.9195 53.0862 15.8308 53.4822 15.8308C53.7902 15.8308 54.0102 15.853 54.1202 15.853C54.2302 15.8752 54.3622 15.8974 54.4722 15.8974V18.4472C54.2962 18.4028 54.0982 18.3807 53.9002 18.3585C53.7022 18.3363 53.5262 18.3142 53.3282 18.3142C52.8882 18.3142 52.4702 18.4028 52.0742 18.5802C51.6782 18.7576 51.3482 19.0237 51.0402 19.3563C50.7542 19.711 50.5122 20.1323 50.3362 20.6423C50.1602 21.1522 50.0722 21.7509 50.0722 22.4161V28.1366H47.4321L47.4761 16.1634ZM66.5725 28.2031H63.9764V26.518H63.9324C63.6024 27.1388 63.1184 27.6044 62.4804 27.9813C61.8424 28.3583 61.1824 28.5357 60.5224 28.5357C58.9603 28.5357 57.8163 28.1587 57.1123 27.3605C56.4083 26.5845 56.0563 25.3872 56.0563 23.8129V16.1634H58.6963V23.5469C58.6963 24.6111 58.8943 25.365 59.3123 25.7863C59.7083 26.2297 60.2803 26.4514 61.0064 26.4514C61.5564 26.4514 62.0184 26.3628 62.3924 26.1854C62.7664 26.008 63.0744 25.7863 63.2944 25.498C63.5364 25.2098 63.6904 24.855 63.8004 24.4559C63.9104 24.0568 63.9544 23.6134 63.9544 23.1477V16.1634H66.5945V28.2031H66.5725ZM71.0606 24.3451C71.1486 25.1211 71.4346 25.6532 71.9406 25.9858C72.4466 26.2962 73.0626 26.4514 73.7666 26.4514C74.0086 26.4514 74.2946 26.4293 74.6026 26.3849C74.9106 26.3406 75.2186 26.2741 75.4826 26.1632C75.7686 26.0523 75.9886 25.8971 76.1646 25.6754C76.3407 25.4537 76.4286 25.1876 76.4066 24.855C76.3846 24.5224 76.2747 24.2342 76.0326 24.0125C75.7906 23.7907 75.5046 23.6355 75.1526 23.4803C74.8006 23.3473 74.3826 23.2364 73.9206 23.1477C73.4586 23.0591 72.9966 22.9482 72.5126 22.8373C72.0286 22.7265 71.5446 22.5934 71.0826 22.4382C70.6205 22.283 70.2245 22.0835 69.8505 21.7952C69.4985 21.5292 69.1905 21.1966 68.9925 20.7753C68.7725 20.354 68.6625 19.8662 68.6625 19.2454C68.6625 18.5802 68.8165 18.0481 69.1465 17.6046C69.4545 17.1612 69.8725 16.8064 70.3565 16.5404C70.8405 16.2743 71.3906 16.0747 71.9846 15.9639C72.5786 15.853 73.1506 15.8087 73.6786 15.8087C74.2946 15.8087 74.8886 15.8752 75.4386 16.0082C75.9886 16.1413 76.5167 16.3408 76.9567 16.6512C77.4187 16.9395 77.7927 17.3386 78.0787 17.8042C78.3867 18.2698 78.5627 18.8463 78.6507 19.5115H75.9006C75.7686 18.8685 75.4826 18.4472 75.0426 18.2255C74.5806 18.0037 74.0746 17.8929 73.4806 17.8929C73.3046 17.8929 73.0626 17.915 72.8206 17.9372C72.5566 17.9816 72.3366 18.0259 72.0946 18.1146C71.8746 18.2033 71.6766 18.3363 71.5226 18.4915C71.3686 18.6467 71.2806 18.8685 71.2806 19.1345C71.2806 19.4671 71.3906 19.711 71.6106 19.9106C71.8306 20.1101 72.1166 20.2653 72.4906 20.4205C72.8426 20.5536 73.2606 20.6644 73.7226 20.7531C74.1846 20.8418 74.6686 20.9527 75.1526 21.0635C75.6366 21.1744 76.0986 21.3074 76.5607 21.4626C77.0227 21.6178 77.4407 21.8174 77.7927 22.1056C78.1447 22.3717 78.4527 22.7043 78.6727 23.1034C78.8927 23.5025 79.0027 24.0125 79.0027 24.589C79.0027 25.2985 78.8487 25.8971 78.5187 26.4071C78.1887 26.8949 77.7707 27.3162 77.2647 27.6266C76.7587 27.937 76.1646 28.1587 75.5486 28.3139C74.9106 28.447 74.2946 28.5357 73.6786 28.5357C72.9306 28.5357 72.2266 28.447 71.5886 28.2696C70.9505 28.0922 70.3785 27.8261 69.9165 27.4936C69.4545 27.1388 69.0805 26.7175 68.8165 26.1854C68.5525 25.6754 68.3985 25.0546 68.3765 24.3229H71.0386V24.3451H71.0606ZM79.7507 16.1634H81.7528V12.5271H84.3928V16.1413H86.7688V18.1146H84.3928V24.5446C84.3928 24.8329 84.4148 25.0546 84.4368 25.2763C84.4588 25.4759 84.5248 25.6532 84.5908 25.7863C84.6788 25.9193 84.8108 26.0302 84.9648 26.0967C85.1408 26.1632 85.3608 26.2076 85.6688 26.2076C85.8448 26.2076 86.0428 26.2076 86.2188 26.1854C86.3948 26.1632 86.5928 26.141 86.7688 26.0967V28.1587C86.4828 28.2031 86.1968 28.2252 85.9108 28.2474C85.6248 28.2918 85.3608 28.2918 85.0528 28.2918C84.3488 28.2918 83.7988 28.2252 83.3808 28.0922C82.9628 27.9592 82.6328 27.7596 82.3908 27.5157C82.1488 27.2497 81.9948 26.9392 81.9067 26.5623C81.8187 26.1854 81.7748 25.7198 81.7528 25.232V18.1368H79.7507V16.1191V16.1634ZM88.6169 16.1634H91.1029V17.8042H91.1469C91.5209 17.0947 92.0269 16.6069 92.687 16.2965C93.347 15.986 94.051 15.8308 94.843 15.8308C95.789 15.8308 96.603 15.986 97.307 16.3408C98.0111 16.6734 98.5831 17.1168 99.0451 17.7155C99.5071 18.292 99.8591 18.9793 100.079 19.7554C100.299 20.5314 100.431 21.374 100.431 22.2387C100.431 23.0591 100.321 23.8351 100.123 24.589C99.9031 25.3428 99.5951 26.0302 99.1771 26.6067C98.7591 27.1831 98.2311 27.6488 97.571 28.0035C96.911 28.3583 96.163 28.5357 95.283 28.5357C94.909 28.5357 94.513 28.4913 94.139 28.4248C93.765 28.3583 93.391 28.2474 93.039 28.0922C92.687 27.937 92.3569 27.7374 92.0709 27.4936C91.7629 27.2497 91.5209 26.9614 91.3229 26.651H91.2789V32.6597H88.6389V16.1634H88.6169ZM97.8351 22.1943C97.8351 21.6622 97.7691 21.1301 97.615 20.6201C97.483 20.1101 97.263 19.6667 96.977 19.2676C96.691 18.8685 96.339 18.5581 95.943 18.3142C95.525 18.0703 95.041 17.9594 94.513 17.9594C93.413 17.9594 92.577 18.3363 92.0049 19.1124C91.4549 19.8884 91.1689 20.9305 91.1689 22.2165C91.1689 22.8373 91.2349 23.3916 91.3889 23.9016C91.5429 24.4116 91.7409 24.855 92.0489 25.232C92.3349 25.6089 92.687 25.8971 93.105 26.1189C93.523 26.3406 93.985 26.4514 94.535 26.4514C95.151 26.4514 95.635 26.3184 96.053 26.0745C96.471 25.8306 96.801 25.498 97.087 25.1211C97.351 24.722 97.549 24.2785 97.659 23.7686C97.769 23.2364 97.8351 22.7265 97.8351 22.1943ZM102.477 11.5737H105.117V14.0792H102.477V11.5737ZM102.477 16.1634H105.117V28.2031H102.477V16.1634ZM107.471 11.5737H110.111V28.2031H107.471V11.5737ZM118.163 28.5357C117.217 28.5357 116.359 28.3804 115.611 28.0479C114.863 27.7153 114.247 27.294 113.719 26.7397C113.213 26.1854 112.817 25.498 112.553 24.722C112.289 23.946 112.135 23.0812 112.135 22.1722C112.135 21.2631 112.267 20.4205 112.553 19.6445C112.817 18.8685 113.213 18.2033 113.719 17.6268C114.225 17.0725 114.863 16.629 115.611 16.3186C116.359 16.0082 117.217 15.8308 118.163 15.8308C119.109 15.8308 119.967 15.986 120.715 16.3186C121.463 16.629 122.079 17.0725 122.608 17.6268C123.114 18.1811 123.51 18.8685 123.774 19.6445C124.038 20.4205 124.192 21.2631 124.192 22.1722C124.192 23.1034 124.06 23.946 123.774 24.722C123.488 25.498 123.114 26.1632 122.608 26.7397C122.102 27.294 121.463 27.7374 120.715 28.0479C119.967 28.3583 119.131 28.5357 118.163 28.5357ZM118.163 26.4293C118.735 26.4293 119.263 26.2962 119.681 26.0523C120.121 25.8084 120.451 25.4759 120.737 25.0768C121.023 24.6777 121.221 24.212 121.353 23.7242C121.485 23.2143 121.551 22.7043 121.551 22.1722C121.551 21.6622 121.485 21.1522 121.353 20.6423C121.221 20.1323 121.023 19.6888 120.737 19.2897C120.451 18.8906 120.099 18.5802 119.681 18.3363C119.241 18.0924 118.735 17.9594 118.163 17.9594C117.591 17.9594 117.063 18.0924 116.645 18.3363C116.205 18.5802 115.875 18.9128 115.589 19.2897C115.303 19.6888 115.105 20.1323 114.973 20.6423C114.841 21.1522 114.775 21.6622 114.775 22.1722C114.775 22.7043 114.841 23.2143 114.973 23.7242C115.105 24.2342 115.303 24.6777 115.589 25.0768C115.875 25.4759 116.227 25.8084 116.645 26.0523C117.085 26.3184 117.591 26.4293 118.163 26.4293ZM124.984 16.1634H126.986V12.5271H129.626V16.1413H132.002V18.1146H129.626V24.5446C129.626 24.8329 129.648 25.0546 129.67 25.2763C129.692 25.4759 129.758 25.6532 129.824 25.7863C129.912 25.9193 130.044 26.0302 130.198 26.0967C130.374 26.1632 130.594 26.2076 130.902 26.2076C131.078 26.2076 131.276 26.2076 131.452 26.1854C131.628 26.1632 131.826 26.141 132.002 26.0967V28.1587C131.716 28.2031 131.43 28.2252 131.144 28.2474C130.858 28.2918 130.594 28.2918 130.286 28.2918C129.582 28.2918 129.032 28.2252 128.614 28.0922C128.196 27.9592 127.866 27.7596 127.624 27.5157C127.382 27.2497 127.228 26.9392 127.14 26.5623C127.052 26.1854 127.008 25.7198 126.986 25.232V18.1368H124.984V16.1191V16.1634Z" fill="white"/>
<path d="M31.6146 11.574H19.5364L15.8183 0L12.0782 11.574L0 11.5519L9.76818 18.7136L6.02811 30.2876L15.7963 23.1259L25.5645 30.2876L21.8464 18.7136L31.6146 11.574Z" fill="#00B67A"/>
<path d="M22.6805 21.3297L21.8445 18.7134L15.8164 23.1257L22.6805 21.3297Z" fill="#005128"/>
</svg>
