<svg width="56" height="56" viewBox="0 0 56 56" fill="none" xmlns="http://www.w3.org/2000/svg">
<path fill-rule="evenodd" clip-rule="evenodd" d="M30.5215 34.496L35.6642 29.3532C37.0846 27.9329 37.4367 25.763 36.5384 23.9664L36.247 23.3836C35.3487 21.587 35.7008 19.4172 37.1211 17.9968L43.4977 11.6203C43.9533 11.1647 44.692 11.1647 45.1476 11.6203C45.2363 11.7089 45.3101 11.8113 45.3661 11.9235L47.9421 17.0754C49.9127 21.0166 49.1403 25.7767 46.0244 28.8925L32.0272 42.8898C28.6356 46.2814 23.6189 47.4657 19.0686 45.9489L13.4348 44.071C12.8235 43.8672 12.4931 43.2065 12.6969 42.5952C12.7542 42.4234 12.8507 42.2673 12.9787 42.1392L19.165 35.9529C20.5854 34.5326 22.7553 34.1804 24.5519 35.0787L25.1346 35.3701C26.9313 36.2684 29.1011 35.9163 30.5215 34.496Z" fill="#008BEA"/>
<path opacity="0.3" fill-rule="evenodd" clip-rule="evenodd" d="M33.3964 9.36529L33.8282 4.71864C26.274 4.0167 18.7616 6.65548 13.2916 12.1256C7.82906 17.5881 5.18979 25.0874 5.88184 32.6318L10.529 32.2055C9.96227 26.0273 12.1197 19.8971 16.5914 15.4254C21.0693 10.9475 27.2102 8.79046 33.3964 9.36529ZM32.5649 18.662L33.0114 14.0167C28.1888 13.5531 23.3847 15.2318 19.8912 18.7253C16.4092 22.2073 14.7297 26.9917 15.1783 31.7997L19.8248 31.3662C19.5039 27.9267 20.7017 24.5145 23.1911 22.0251C25.6886 19.5276 29.1149 18.3303 32.5649 18.662Z" fill="#008BEA"/>
</svg>
