<svg width="16" height="16" viewBox="0 0 16 16" fill="none" xmlns="http://www.w3.org/2000/svg">
<path d="M7.66308 0.626688C7.4741 0.985576 7.29092 0.84623 7.29092 0.84623C6.27945 0.352268 5.84642 0.677021 5.84642 0.677021C5.84642 0.677021 6.60424 0.651855 6.93556 1.11688C7.26717 1.58198 6.5905 1.3968 6.5905 1.3968C4.69287 1.056 4.19018 1.36355 4.19018 1.36355C5.73556 1.40484 5.35886 1.80387 5.35886 1.80387C4.84735 1.76207 4.15715 1.97727 4.15715 1.97727C5.12532 1.98516 5.26259 2.2979 5.26259 2.2979C5.26259 2.2979 4.69058 2.10684 4.24786 2.19185C3.80514 2.27759 3.60447 2.71009 3.63729 2.67611C3.67032 2.64275 4.08549 2.51926 4.08549 2.51926C4.56859 2.467 4.51312 2.70301 4.51312 2.70301C4.28068 3.13136 4.14129 2.88676 2.83096 2.76443C1.52099 2.64151 1.72536 3.29791 1.72536 3.29791C1.7717 3.02688 2.32925 2.86895 2.8682 3.08768C3.40715 3.30657 4.15077 3.42883 4.62443 3.27143C5.09842 3.11416 4.93123 2.51926 4.93123 2.51926C4.93123 2.51926 5.46073 2.99186 6.00916 2.66791C6.55722 2.34404 6.00916 1.73194 6.00916 1.73194C7.07757 1.77558 7.80248 2.29179 7.80248 2.29179C7.80248 2.29179 7.7654 1.32072 8.02567 1.32938C8.28595 1.33861 8.18355 2.27458 8.18355 2.27458C8.50862 1.92428 10.0605 1.65325 9.96783 1.74972C9.87446 1.84558 9.52143 2.14305 9.9117 2.6065C10.3021 3.07048 11.1103 2.5278 11.1103 2.5278C11.1103 2.5278 10.618 3.02688 11.3611 3.29791C12.1047 3.56894 13.1643 3.0004 13.6194 2.97404C14.0744 2.94818 14.3813 3.29791 14.3813 3.29791C14.3349 2.73803 13.5449 2.58929 12.7647 2.80807C11.9839 3.02688 11.4727 2.75515 11.4727 2.75515C11.1666 2.23033 12.3835 2.61573 12.3835 2.61573C12.2536 2.01221 10.6554 2.26535 10.6554 2.26535C10.6926 2.08225 11.8821 1.94213 11.8821 1.94213C11.5936 1.80206 10.609 1.75838 10.609 1.75838C10.4974 1.42585 11.8169 1.32072 11.8169 1.32072C10.9341 1.0411 9.08039 1.41723 9.08039 1.41723C8.73177 0.93597 10.1351 0.62992 10.1351 0.62992C9.54943 0.332489 8.72262 1.01467 8.50878 0.901028C8.29494 0.787312 8.02567 0 8.02567 0C8.02567 0 7.81866 0.33018 7.66308 0.626688Z" fill="#D9DFE3"/>
<path d="M12.7711 3.49568C12.7711 3.49568 12.3346 3.47663 12.2464 3.69314C12.1588 3.90968 12.7437 3.8107 12.7541 3.79161C12.7646 3.77249 12.6999 3.92569 13.0992 4.15516C13.0992 4.15516 13.8199 4.75368 13.6742 5.04341C13.6742 5.04341 13.5219 4.91607 13.39 5.02132C13.39 5.02132 13.1737 5.20584 13.1834 5.33622C13.1834 5.33622 12.2836 4.96036 11.9183 5.32021C11.9183 5.32021 12.9096 5.71204 13.2716 6.38075C13.2716 6.38075 13.6823 8.06028 13.4749 8.53989C13.4749 8.53989 12.2974 7.70801 11.5621 8.66719C11.5621 8.66719 12.7169 8.1922 12.8927 9.15592C13.0684 10.1196 13.7908 10.4383 14.1155 10.3025C14.4403 10.1662 14.6703 9.52104 13.9302 9.52104C13.9302 9.52104 14.0208 8.52304 14.0702 8.28975C14.1196 8.05578 14.0654 6.97769 13.9617 6.72686C13.9617 6.72686 14.2007 6.76947 14.2371 6.7017C14.2728 6.63381 14.3181 6.36167 14.2055 6.33196C14.2055 6.33196 14.1471 6.2725 14.2233 6.2725C14.2233 6.2725 14.5124 6.277 14.548 6.09025C14.5845 5.90342 14.5618 5.08386 14.156 4.50208C13.7496 3.92041 13.5195 3.89909 13.5195 3.89909C13.5195 3.89909 13.7365 3.35157 13.5381 3.25394C13.5381 3.25394 13.0732 2.96497 12.7711 3.49568Z" fill="#D9DFE3"/>
<path d="M14.3496 7.01973C14.3496 7.01973 14.7424 7.00742 14.6518 7.49988C14.5618 7.99242 14.3949 8.00081 14.3949 8.00081C14.3949 8.00081 14.6202 7.49153 14.4581 7.47402C14.2954 7.45732 14.0386 7.1645 14.3496 7.01973Z" fill="#D9DFE3"/>
<path d="M12.5412 9.00263C12.5412 9.00263 12.1127 8.73114 11.8195 9.00263C11.5264 9.2747 12.1986 9.5081 12.4327 9.35101C12.4327 9.35101 12.4691 10.6463 11.3005 12.3786C11.3005 12.3786 10.6785 11.8395 10.5116 11.7205C10.3448 11.6016 9.43791 11.3676 9.62305 12.018C9.62305 12.018 9.87997 12.4083 10.1958 11.9494C10.1958 11.9494 10.4711 11.8221 10.8858 12.4038C10.8858 12.4038 10.9942 13.4231 11.0438 13.8477C11.0438 13.8477 11.0437 13.0366 11.4948 12.5272C11.4948 12.5272 11.9184 11.9494 12.099 11.8518L12.4643 12.3276C12.4643 12.3276 12.2707 11.0917 12.7128 10.6334C12.7128 10.6334 13.1097 10.8454 12.8797 11.1175C12.8797 11.1175 12.5866 11.2091 12.6902 11.3647C12.7939 11.5208 13.0988 11.4316 13.0613 11.1983C13.0239 10.9644 13.5786 10.9734 13.6144 11.2915C13.6508 11.6101 13.335 11.8731 13.186 11.886C13.186 11.886 13.9618 11.8647 13.9485 11.3851C13.935 10.9049 13.234 10.6884 13.0613 10.5313C12.8887 10.3743 13.1503 10.4466 13.1503 10.4466C13.1503 10.4466 13.3439 10.4169 13.3844 10.4679C13.4249 10.519 13.4208 10.2003 12.9745 10.2599C12.9745 10.2599 13.0684 9.27863 12.5412 9.00263Z" fill="#D9DFE3"/>
<path d="M10.6849 12.8027C10.612 12.6925 10.4895 12.6662 10.4238 12.6523C10.4055 12.6487 10.3844 12.644 10.3822 12.6407C10.4025 12.6057 10.4427 12.4513 10.3875 12.3492C10.3573 12.2945 10.3054 12.2621 10.2328 12.2536C10.1651 12.2456 10.113 12.2619 10.0727 12.3009C9.98417 12.3874 9.98993 12.5544 9.99087 12.56C9.75884 13.7785 8.08584 14.7782 8.01274 14.8213C7.93961 14.7782 6.26657 13.7786 6.03482 12.5611C6.03515 12.5544 6.04091 12.3874 5.95237 12.3009C5.91211 12.2619 5.85999 12.2456 5.79262 12.2536C5.71973 12.2621 5.66777 12.2945 5.63789 12.3492C5.5827 12.4513 5.62289 12.6057 5.64341 12.6405C5.64104 12.644 5.61994 12.6487 5.60134 12.6523C5.53557 12.6662 5.41338 12.6925 5.34025 12.8027C5.27076 12.9071 5.26164 13.0654 5.3136 13.272C5.31511 13.277 5.48194 13.7691 5.87057 13.7434L5.88639 13.7426L5.87466 13.7324C5.8718 13.7298 5.58953 13.4857 5.63777 13.2411C5.63785 13.2389 5.64819 13.0475 5.75975 13.0475C5.78281 13.0475 5.80934 13.0556 5.8382 13.0716C5.8429 13.0742 5.84797 13.0771 5.85291 13.0801C5.93349 13.1304 5.99411 13.2934 6.06446 13.4823C6.18035 13.7933 6.3242 14.18 6.6431 14.3813C6.63194 14.4356 6.52398 14.9958 6.71909 15.2474C6.77436 15.3194 6.84991 15.3604 6.94282 15.3695L6.96114 15.3716L6.94846 15.3589C6.94654 15.3573 6.74423 15.1527 6.77514 14.9897C6.78658 14.9294 6.82898 14.8812 6.90072 14.8471C6.9017 14.8469 6.98795 14.82 7.10781 14.82C7.26172 14.82 7.48107 14.8645 7.65183 15.0748C7.65207 15.0757 7.65959 15.0824 7.65828 15.0978C7.65661 15.1202 7.63621 15.1596 7.54869 15.2179C7.41894 15.3057 7.20236 15.6641 7.21814 15.8634C7.22346 15.9285 7.2513 15.9739 7.30149 15.9974L7.30697 16L7.3102 15.9957C7.31359 15.9905 7.66769 15.48 8.01274 15.341C8.35772 15.4799 8.71149 15.9905 8.71525 15.9957L8.71843 16L8.72395 15.9974C8.77399 15.9739 8.80203 15.9285 8.80731 15.8634C8.82313 15.6641 8.60651 15.3057 8.47676 15.2179C8.38928 15.1596 8.36876 15.1202 8.36684 15.0978C8.36557 15.0824 8.37338 15.0757 8.37419 15.0743C8.54437 14.8645 8.7634 14.82 8.91731 14.82C9.03741 14.82 9.12354 14.8468 9.12371 14.8468C9.19615 14.8812 9.23886 14.9294 9.25027 14.9897C9.28093 15.1526 9.0789 15.3573 9.0767 15.3589L9.06398 15.3716L9.08234 15.3695C9.17554 15.3604 9.25076 15.3194 9.30631 15.2474C9.50126 14.9958 9.39351 14.4356 9.38231 14.3813C9.7012 14.18 9.8451 13.7933 9.96062 13.4823C10.0313 13.2934 10.092 13.1304 10.1725 13.0801C10.1777 13.0771 10.1822 13.0742 10.1873 13.0716C10.2161 13.0556 10.2423 13.0475 10.2654 13.0475C10.3771 13.0475 10.3876 13.2389 10.3878 13.2417C10.4355 13.4857 10.1533 13.7298 10.1504 13.7324L10.1387 13.7426L10.1549 13.7434C10.1645 13.7445 10.174 13.7447 10.1841 13.7447C10.5519 13.7447 10.7103 13.2769 10.7121 13.2717C10.7633 13.0654 10.7543 12.9071 10.6849 12.8027Z" fill="#D9DFE3"/>
<path d="M3.22616 3.49568C3.22616 3.49568 3.66267 3.47663 3.75056 3.69314C3.83845 3.90968 3.25327 3.8107 3.24317 3.79161C3.23303 3.77249 3.29738 3.92569 2.89811 4.15516C2.89811 4.15516 2.17771 4.75368 2.32311 5.04341C2.32311 5.04341 2.47534 4.91607 2.60734 5.02132C2.60734 5.02132 2.82363 5.20584 2.81349 5.33622C2.81349 5.33622 3.71332 4.96037 4.0789 5.32022C4.0789 5.32022 3.08763 5.71204 2.7256 6.38075C2.7256 6.38075 2.31502 8.06028 2.52268 8.53989C2.52268 8.53989 3.69983 7.70802 4.43491 8.66719C4.43491 8.66719 3.28037 8.1922 3.10459 9.15592C2.92849 10.1196 2.20685 10.4383 1.8821 10.3025C1.55732 10.1662 1.32736 9.52104 2.06715 9.52104C2.06715 9.52104 1.97681 8.52304 1.92705 8.28975C1.87764 8.05578 1.93176 6.97769 2.03554 6.72686C2.03554 6.72686 1.79632 6.76947 1.76021 6.7017C1.72415 6.63381 1.67924 6.36167 1.79185 6.33196C1.79185 6.33196 1.85048 6.2725 1.77396 6.2725C1.77396 6.2725 1.48521 6.277 1.44918 6.09025C1.41317 5.90342 1.43551 5.08386 1.84162 4.50208C2.2474 3.92041 2.47743 3.89909 2.47743 3.89909C2.47743 3.89909 2.26118 3.35157 2.45961 3.25394C2.45961 3.25394 2.92403 2.96497 3.22616 3.49568Z" fill="#D9DFE3"/>
<path d="M1.64767 7.01973C1.64767 7.01973 1.25525 7.00742 1.34552 7.49988C1.43552 7.99242 1.60234 8.00081 1.60234 8.00081C1.60234 8.00081 1.37714 7.49153 1.53941 7.47402C1.7019 7.45732 1.9587 7.1645 1.64767 7.01973Z" fill="#D9DFE3"/>
<path d="M3.43661 9.00263C3.43661 9.00263 3.86506 8.73114 4.15824 9.00263C4.45147 9.2747 3.77926 9.5081 3.54477 9.35101C3.54477 9.35101 3.50876 10.6463 4.67699 12.3786C4.67699 12.3786 5.29938 11.8395 5.4662 11.7205C5.63307 11.6016 6.53976 11.3676 6.3547 12.018C6.3547 12.018 6.09753 12.4083 5.78203 11.9494C5.78203 11.9494 5.50667 11.8221 5.09167 12.4038C5.09167 12.4038 4.98354 13.4231 4.93396 13.8477C4.93396 13.8477 4.93408 13.0366 4.48303 12.5272C4.48303 12.5272 4.05907 11.9494 3.87847 11.8518L3.51318 12.3276C3.51318 12.3276 3.70719 11.0917 3.26496 10.6334C3.26496 10.6334 2.86807 10.8454 3.09809 11.1175C3.09809 11.1175 3.39127 11.2091 3.28761 11.3647C3.18394 11.5208 2.87902 11.4316 2.91647 11.1983C2.95395 10.9644 2.39919 10.9734 2.36309 11.2915C2.32691 11.6101 2.64258 11.8731 2.79154 11.886C2.79154 11.886 2.01567 11.8647 2.02904 11.3851C2.04279 10.9049 2.74355 10.6884 2.91647 10.5313C3.08918 10.3743 2.8276 10.4466 2.8276 10.4466C2.8276 10.4466 2.63363 10.4169 2.59312 10.4679C2.55232 10.519 2.55698 10.2003 3.00333 10.2599C3.00333 10.2599 2.9089 9.27863 3.43661 9.00263Z" fill="#D9DFE3"/>
<path d="M8.74775 3.99996C8.68243 3.87382 8.55333 3.82625 8.51597 3.81505V3.34137L8.51188 3.33783C8.44872 3.27838 8.38634 3.24763 8.32605 3.24763C8.2223 3.24763 8.16482 3.33618 8.16229 3.33979L8.16045 4.05114C8.07006 4.13688 8.02236 4.19965 8.00224 4.22905C7.98217 4.19965 7.93422 4.13688 7.84384 4.05114V3.34672L7.842 3.33979C7.83951 3.33618 7.78199 3.24763 7.67824 3.24763C7.61798 3.24763 7.5556 3.27838 7.49236 3.33783L7.48836 3.34137V3.81505C7.45095 3.82625 7.32186 3.87382 7.25641 3.99996C7.19689 4.1151 7.20768 4.26122 7.29038 4.43785C7.29349 4.44078 7.60556 4.7439 7.98859 4.79155V4.79486L8.00224 4.79366L8.01574 4.79486V4.79155C8.39885 4.7439 8.71072 4.4407 8.71644 4.43431C8.7966 4.26122 8.80739 4.1151 8.74775 3.99996Z" fill="#D9DFE3"/>
<path d="M7.00148 5.04798C7.00148 5.04798 6.2624 4.63999 6.11298 4.56972C5.96361 4.49945 5.82168 4.51334 5.88153 4.75212C5.94129 4.9916 6.07566 5.93346 6.77003 5.61702C6.77003 5.61702 7.30758 5.4552 7.4422 5.36373C7.4422 5.36373 7.49436 5.38485 7.48696 5.57465C7.48696 5.57465 6.94932 7.00193 6.95672 7.43043C6.95672 7.43043 7.65877 8.28801 7.81563 8.64682C7.9724 9.00506 7.62889 10.2214 6.52377 9.77836C6.52377 9.77836 4.94062 8.52018 5.68748 7.45163C5.68748 7.45163 5.97866 7.08613 6.32192 6.95278C6.32192 6.95278 6.66558 6.17217 6.09046 6.04552C5.51554 5.91945 4.83638 5.43507 5.20948 4.79484C5.58287 4.15522 5.7622 3.951 5.7622 3.951C5.7622 3.951 6.01622 3.71937 6.37448 4.02119C6.73275 4.32366 7.41232 4.85099 7.41232 4.85099C7.41232 4.85099 7.54689 5.1535 7.38239 5.21649C7.21822 5.27956 7.00148 5.04798 7.00148 5.04798Z" fill="#D9DFE3"/>
<path d="M7.957 5.27667L7.3356 6.36103C7.3356 6.36103 6.99357 6.9826 7.57633 7.00026C8.15943 7.01862 8.95902 7.13684 8.73746 6.51993L8.10167 5.27667C8.10167 5.27667 8.45817 6.49691 8.29907 6.54713H7.72566C7.72566 6.54713 7.48967 6.56945 7.957 5.27667Z" fill="#D9DFE3"/>
<path d="M7.20348 7.48665C7.04879 7.20472 7.33453 7.09432 7.33453 7.09432H8.69715C8.69715 7.09432 9.00157 7.19999 8.77555 7.48665C8.5618 7.75729 8.00564 8.56181 8.00564 8.56181L7.20348 7.48665Z" fill="#D9DFE3"/>
<path d="M9.26017 10.2986C9.22473 10.1889 9.14248 10.1328 9.01105 10.1328C9.01097 10.1328 9.01073 10.1328 9.01073 10.1328H8.4058L7.98737 9.48532V9.46419L7.98074 9.47474L7.974 9.46419V9.48532L7.55556 10.1328H6.94622C6.81893 10.1328 6.73664 10.1889 6.70116 10.2986C6.64168 10.4845 6.73713 10.7579 6.74976 10.7658C6.76382 10.777 7.01989 11.093 7.18847 11.3022C7.29848 11.44 7.30428 11.9063 7.30432 11.9111L7.30444 11.9241L7.3154 11.9162C7.40035 11.854 7.52396 11.5935 7.52396 11.5759C7.52396 11.5626 7.52478 11.5157 7.53819 11.4699C7.55973 11.3959 7.60069 11.365 7.66066 11.3798C7.80022 11.4134 7.97249 12.0998 7.97412 12.1063L7.98074 12.1058L7.98724 12.1063C7.98888 12.0998 8.16118 11.4134 8.3007 11.3798C8.36059 11.3649 8.40188 11.3959 8.42326 11.4699C8.43662 11.5157 8.43732 11.5626 8.43732 11.5759C8.43732 11.5935 8.56102 11.854 8.64625 11.9162L8.65688 11.9241L8.65696 11.9111C8.65704 11.9063 8.66289 11.44 8.77281 11.3022C8.94144 11.093 9.1975 10.777 9.21132 10.7661C9.22424 10.7579 9.31965 10.4845 9.26017 10.2986Z" fill="#D9DFE3"/>
<path d="M8.99319 5.04798C8.99319 5.04798 9.7326 4.63999 9.88197 4.56972C10.0313 4.49938 10.1729 4.51334 10.113 4.75213C10.0531 4.99153 9.91934 5.93339 9.22464 5.61702C9.22464 5.61702 8.687 5.4552 8.55268 5.36365C8.55268 5.36365 8.50023 5.38486 8.50775 5.57458C8.50775 5.57458 9.04555 7.00193 9.03791 7.43043C9.03791 7.43043 8.3361 8.28794 8.17937 8.64683C8.0226 9.00498 8.36606 10.2215 9.47118 9.77837C9.47118 9.77837 11.0543 8.52018 10.3074 7.45164C10.3074 7.45164 10.0159 7.08613 9.67272 6.95279C9.67272 6.95279 9.32921 6.17217 9.90384 6.04545C10.4787 5.91946 11.1585 5.435 10.7851 4.79477C10.4117 4.15523 10.2327 3.951 10.2327 3.951C10.2327 3.951 9.97841 3.71937 9.62035 4.02119C9.26184 4.32366 8.58231 4.85099 8.58231 4.85099C8.58231 4.85099 8.44811 5.1535 8.61224 5.2165C8.77641 5.27949 8.99319 5.04798 8.99319 5.04798Z" fill="#D9DFE3"/>
</svg>
