<svg width="24" height="24" viewBox="0 0 24 24" fill="none" xmlns="http://www.w3.org/2000/svg">
<path opacity="0.3" d="M12 4.56205L7.76825 9.64018C7.41468 10.0645 6.78412 10.1218 6.35984 9.76822C5.93556 9.41466 5.87824 8.78409 6.2318 8.35982L11.2318 2.35982C11.6316 1.88006 12.3685 1.88006 12.7682 2.35982L17.7682 8.35982C18.1218 8.78409 18.0645 9.41466 17.6402 9.76822C17.2159 10.1218 16.5854 10.0645 16.2318 9.64018L12 4.56205Z" fill="#F9F9F9"/>
<path fill-rule="evenodd" clip-rule="evenodd" d="M3.28174 9C2.63117 9 2.15381 9.61139 2.3116 10.2425L4.43287 18.7276C4.76674 20.0631 5.96669 21 7.3433 21H16.6586C18.0352 21 19.2352 20.0631 19.5691 18.7276L21.6903 10.2425C21.8481 9.61139 21.3708 9 20.7202 9H3.28174ZM12.001 12C11.4487 12 11.001 12.4477 11.001 13V17C11.001 17.5523 11.4487 18 12.001 18C12.5533 18 13.001 17.5523 13.001 17V13C13.001 12.4477 12.5533 12 12.001 12ZM6.25858 13.361C6.11564 12.8276 6.43222 12.2792 6.96569 12.1363C7.49916 11.9934 8.04749 12.3099 8.19043 12.8434L9.22571 16.7071C9.36865 17.2406 9.05207 17.7889 8.5186 17.9319C7.98514 18.0748 7.4368 17.7582 7.29386 17.2247L6.25858 13.361ZM17.0362 12.1363C16.5028 11.9934 15.9544 12.3099 15.8115 12.8434L14.7762 16.7071C14.6333 17.2406 14.9499 17.7889 15.4833 17.9319C16.0168 18.0748 16.5651 17.7582 16.7081 17.2247L17.7434 13.361C17.8863 12.8276 17.5697 12.2792 17.0362 12.1363Z" fill="#F9F9F9"/>
</svg>
