<svg width="20" height="20" viewBox="0 0 20 20" fill="none" xmlns="http://www.w3.org/2000/svg">
<path fill-rule="evenodd" clip-rule="evenodd" d="M9.16667 1.66683H7.91667C7.68655 1.66683 7.5 1.85338 7.5 2.0835V2.91683C7.5 3.14695 7.68655 3.3335 7.91667 3.3335H12.0833C12.3135 3.3335 12.5 3.14695 12.5 2.91683V2.0835C12.5 1.85338 12.3135 1.66683 12.0833 1.66683H10.8333C10.8333 1.20659 10.4602 0.833496 10 0.833496C9.53976 0.833496 9.16667 1.20659 9.16667 1.66683Z" fill="#F9F9F9"/>
<path opacity="0.3" fill-rule="evenodd" clip-rule="evenodd" d="M6.66691 2.5H4.99992C4.07944 2.5 3.33325 3.24619 3.33325 4.16667V17.5C3.33325 18.4205 4.07944 19.1667 4.99992 19.1667H14.9999C15.9204 19.1667 16.6666 18.4205 16.6666 17.5V4.16667C16.6666 3.24619 15.9204 2.5 14.9999 2.5H13.3336V2.91667C13.3336 3.60702 12.7739 4.16667 12.0836 4.16667H7.91691C7.22655 4.16667 6.66691 3.60702 6.66691 2.91667V2.5Z" fill="#F9F9F9"/>
<rect opacity="0.3" x="5.83325" y="7.5" width="1.66667" height="1.66667" rx="0.833333" fill="#F9F9F9"/>
<rect x="5.83325" y="10.8335" width="1.66667" height="1.66667" rx="0.833333" fill="#F9F9F9"/>
<rect x="5.83325" y="14.1665" width="1.66667" height="1.66667" rx="0.833333" fill="#F9F9F9"/>
<rect x="9.16675" y="7.5" width="1.66667" height="1.66667" rx="0.833333" fill="#F9F9F9"/>
<rect x="9.16675" y="10.8335" width="1.66667" height="1.66667" rx="0.833333" fill="#F9F9F9"/>
<rect x="9.16675" y="14.1665" width="1.66667" height="1.66667" rx="0.833333" fill="#F9F9F9"/>
<rect x="12.5" y="7.5" width="1.66667" height="1.66667" rx="0.833333" fill="#F9F9F9"/>
<rect x="12.5" y="10.8335" width="1.66667" height="1.66667" rx="0.833333" fill="#F9F9F9"/>
<rect x="12.5" y="14.1665" width="1.66667" height="1.66667" rx="0.833333" fill="#F9F9F9"/>
</svg>
