<svg width="24" height="24" viewBox="0 0 24 24" fill="none" xmlns="http://www.w3.org/2000/svg">
<path fill-rule="evenodd" clip-rule="evenodd" d="M8.58789 5.73535C8.58789 4.90692 9.25946 4.23535 10.0879 4.23535H20.4997C21.3281 4.23535 21.9997 4.90692 21.9997 5.73535V6.08829C21.9997 6.91672 21.3281 7.58829 20.4997 7.58829H10.0879C9.25946 7.58829 8.58789 6.91672 8.58789 6.08829V5.73535ZM8.58789 11.3236C8.58789 10.4952 9.25946 9.82359 10.0879 9.82359H20.4997C21.3281 9.82359 21.9997 10.4952 21.9997 11.3236V11.6765C21.9997 12.505 21.3281 13.1765 20.4997 13.1765H10.0879C9.25946 13.1765 8.58789 12.505 8.58789 11.6765V11.3236ZM10.0879 15.4118C9.25946 15.4118 8.58789 16.0834 8.58789 16.9118V17.2648C8.58789 18.0932 9.25946 18.7648 10.0879 18.7648H20.4997C21.3281 18.7648 21.9997 18.0932 21.9997 17.2648V16.9118C21.9997 16.0834 21.3281 15.4118 20.4997 15.4118H10.0879Z" fill="#B2BEC7"/>
<path opacity="0.3" fill-rule="evenodd" clip-rule="evenodd" d="M4.67647 7.58829C5.60236 7.58829 6.35294 6.83771 6.35294 5.91182C6.35294 4.98593 5.60236 4.23535 4.67647 4.23535C3.75058 4.23535 3 4.98593 3 5.91182C3 6.83771 3.75058 7.58829 4.67647 7.58829ZM4.67647 13.1765C5.60236 13.1765 6.35294 12.4259 6.35294 11.5001C6.35294 10.5742 5.60236 9.82359 4.67647 9.82359C3.75058 9.82359 3 10.5742 3 11.5001C3 12.4259 3.75058 13.1765 4.67647 13.1765ZM6.35294 17.0883C6.35294 18.0142 5.60236 18.7648 4.67647 18.7648C3.75058 18.7648 3 18.0142 3 17.0883C3 16.1624 3.75058 15.4118 4.67647 15.4118C5.60236 15.4118 6.35294 16.1624 6.35294 17.0883Z" fill="#B2BEC7"/>
</svg>
