<svg width="160" height="160" viewBox="0 0 160 160" fill="none" xmlns="http://www.w3.org/2000/svg">
<g opacity="0.3">
<path opacity="0.3" d="M125.999 153.333C95.3327 153.333 65.3327 153.333 35.3327 153.333C35.3327 153.333 34.666 153.333 34.666 152.667C29.3327 135.333 23.3327 118 17.9993 100.667C14.666 88.6665 10.666 76.6665 6.66602 63.9998C6.66602 63.3332 6.66602 63.3332 7.33268 62.6665C22.666 50.6665 37.9994 39.3332 53.3327 27.3332C61.9994 20.6665 71.3327 13.9998 79.9994 6.6665C80.666 6.6665 80.666 6.6665 81.3327 6.6665C82.666 7.33317 83.3327 7.99984 84.666 9.33317C101.999 22.6665 119.333 35.3332 136.666 48.6665C141.999 52.6665 147.333 56.6665 152.666 60.6665V61.3332C146.666 82.6665 139.999 103.333 133.999 124.667C131.999 134 128.666 143.333 125.999 153.333ZM79.9994 143.333C83.9994 143.333 87.9994 143.333 91.3327 143.333C99.9994 143.333 109.333 143.333 117.999 144C117.999 144 118.666 144 118.666 143.333C125.333 121.333 131.999 99.9998 138.666 77.9998C139.999 73.9998 141.333 69.9998 141.999 66.6665V65.9998C121.333 50.6665 100.666 35.3332 80.666 19.9998H79.9994C77.3327 21.9998 73.9994 23.9998 71.3327 25.9998C65.9994 29.9998 60.666 33.9998 54.666 37.9998C41.9993 47.3332 29.9993 56.6665 17.3327 66.6665C17.3327 66.6665 17.3327 66.6665 17.3327 67.3332C19.3327 73.3332 21.3327 79.3332 23.3327 85.3332C29.3327 104.667 35.3327 123.333 41.3327 142.667C41.3327 143.333 41.3327 143.333 41.9994 143.333C47.3327 143.333 52.666 143.333 57.9994 143.333C65.3327 143.333 72.666 143.333 79.9994 143.333Z" fill="white"/>
</g>
<path d="M76.6662 31.3337C77.9996 32.667 78.6662 34.667 79.9996 36.667C80.6662 34.667 81.3329 32.667 83.3329 30.667V31.3337C83.3329 32.667 83.3329 34.667 83.3329 36.0003C83.9996 39.3337 84.6662 42.0003 86.6662 44.667C87.3329 45.3337 87.3329 46.0003 87.9996 46.667C89.3329 48.667 90.6662 50.667 92.6662 52.667C92.6662 52.667 92.6662 52.667 93.3329 52.667C91.3329 46.667 90.6662 40.667 90.6662 34.0003C91.3329 28.0003 92.6662 22.0003 95.3329 16.0003C95.9996 13.3337 97.9996 10.667 99.9996 8.66699C100.666 8.00033 102 7.33366 103.333 6.66699V7.33366C101.333 12.667 100.666 18.0003 100.666 23.3337C101.333 27.3337 102 31.3337 103.333 35.3337C104.666 38.0003 106 40.667 107.333 42.667C110 46.667 112 51.3337 113.333 56.0003C114 58.667 114 62.0003 113.333 64.667C110.666 76.0003 105.333 86.0003 97.3329 94.0003C94.6662 96.667 91.3329 98.667 87.9996 100.667C85.9996 101.334 84.6662 102 82.6662 102H81.9996C81.9996 102 81.9996 102 82.6662 102C86.6662 99.3337 89.9996 96.0003 91.9996 92.0003C91.9996 91.3337 92.6662 91.3337 92.6662 90.667C95.3329 86.0003 95.9996 82.0003 95.3329 76.667C94.6662 72.0003 92.6662 68.667 89.9996 65.3337C85.3329 60.0003 81.9996 54.667 79.9996 48.667C79.9996 48.667 79.9996 48.667 79.9996 48.0003C78.6662 53.3337 75.9996 58.0003 72.6662 62.0003C71.9996 62.667 71.3329 63.3337 70.6662 64.667C67.9996 68.0003 65.9996 72.0003 65.3329 76.0003C64.6662 80.667 65.3329 84.667 67.3329 88.667C67.9996 90.0003 68.6662 91.3337 69.9996 93.3337C71.9996 96.667 74.6662 99.3337 77.9996 101.334C77.9996 101.334 78.6662 101.334 78.6662 102H77.9996C74.6662 101.334 71.9996 100 69.3329 98.667C65.3329 96.0003 61.9996 92.667 58.6662 89.3337C52.6662 82.0003 48.6662 73.3337 46.6662 64.0003C45.3329 60.0003 45.9996 56.0003 47.3329 52.667C48.6662 49.3337 49.9996 46.0003 51.9996 43.3337C55.3329 38.667 57.3329 33.3337 58.6662 27.3337C59.3329 24.667 59.3329 22.0003 59.3329 19.3337C59.3329 15.3337 58.6662 11.3337 56.6662 8.00033C56.6662 8.00033 56.6662 8.00033 56.6662 7.33366H57.3329C58.6662 8.00033 59.9996 9.33366 61.3329 10.667C63.3329 13.3337 65.3329 16.0003 65.9996 18.667C67.9996 23.3337 68.6662 27.3337 69.3329 32.0003C69.9996 37.3337 69.3329 42.667 67.9996 48.0003C67.9996 49.3337 67.3329 50.0003 67.3329 51.3337V52.0003C67.3329 52.0003 67.9996 52.0003 67.9996 51.3337C69.9996 50.0003 71.3329 48.0003 72.6662 46.0003C73.3329 45.3337 73.9996 44.0003 74.6662 43.3337C76.6662 40.0003 77.9996 36.0003 77.3329 32.0003C76.6662 32.0003 76.6662 31.3337 76.6662 31.3337Z" fill="white"/>
<path d="M44.0013 45.9995C44.0013 47.3328 43.3346 48.6662 43.3346 49.9995C42.668 53.9995 42.668 57.9995 43.3346 61.9995C44.668 72.6662 48.668 81.9995 56.0013 89.3328C57.3346 91.3328 59.3346 92.6662 60.668 94.6662C62.0013 95.9995 63.3346 96.6662 64.0013 97.9995C68.0013 100.666 70.668 104.666 72.668 108.666C73.3346 110 74.0013 110.666 74.668 112C76.0013 114.666 76.668 117.333 76.668 120C76.668 124 76.668 128.666 76.0013 132.666C75.3346 134.666 74.668 136 74.0013 137.333C73.3346 138.666 73.3346 139.333 72.668 140C73.3346 136.666 72.0013 133.333 70.668 130C69.3346 126.666 67.3346 124 64.668 121.333C60.0013 116 54.0013 112 47.3346 108.666C40.668 105.333 35.3346 100.666 30.668 94.6662C28.668 91.9995 27.3346 88.6662 26.668 85.3328C26.668 83.9995 26.668 82.6662 26.668 81.9995C26.668 80.6662 26.668 79.9995 26.668 79.3328C26.668 79.9995 26.668 79.9995 27.3346 80.6662C28.0013 82.6662 29.3346 85.3328 31.3346 86.6662C34.0013 89.3328 36.668 91.3328 39.3346 92.6662H40.0013L39.3346 91.9995C36.668 88.6662 34.668 85.3328 33.3346 81.9995C32.668 79.9995 32.668 78.6662 32.0013 76.6662C32.0013 71.9995 32.0013 67.3328 33.3346 63.3328C34.668 58.6662 36.668 55.3328 39.3346 51.3328C40.668 49.3328 42.0013 47.9995 44.0013 45.9995C44.0013 46.6662 44.0013 46.6662 44.0013 45.9995Z" fill="white"/>
<path d="M119.333 93.3337C120 93.3337 120 92.667 119.333 93.3337C121.333 92.667 122 92.0003 123.333 90.667C124.666 90.0003 126 88.667 127.333 87.3337C130 85.3337 132 82.667 132.666 79.3337C132.666 79.3337 132.666 79.3337 132.666 78.667C133.333 80.0003 133.333 80.667 133.333 81.3337C133.333 84.0003 132.666 86.0003 132 88.667C130.666 92.0003 128.666 95.3337 126 98.0003C122.666 102 118.666 105.334 114 108C113.333 108.667 112 108.667 111.333 109.334C105.333 112.667 99.9998 116 95.3331 121.334C92.6664 124 90.6664 127.334 88.6664 130.667C87.3331 133.334 86.6664 136.667 87.3331 140C87.3331 140 87.3331 140 87.3331 140.667C87.3331 140.667 86.6664 140.667 86.6664 140C85.3331 138 83.9998 136 83.3331 133.334C81.9998 129.334 81.9998 124.667 82.6664 120.667C82.6664 120 82.6664 118.667 82.6664 118C82.6664 116 83.3331 114.667 83.9998 112.667C85.9998 108 88.6664 104 92.6664 100.667C93.9998 100 94.6664 98.667 95.9998 98.0003C97.9998 96.0003 99.9998 94.667 101.333 92.667C102.666 90.667 104 89.3337 106 87.3337C110.666 81.3337 114 74.0003 115.333 66.667C116.666 60.0003 116.666 54.0003 114.666 47.3337V46.667L115.333 47.3337C119.333 51.3337 122.666 56.0003 124 61.3337C125.333 64.667 126 68.0003 126 71.3337C126 73.3337 126 76.0003 126 78.0003C126 80.667 124.666 82.667 124 85.3337C122.666 88.0003 120.666 90.667 119.333 93.3337C119.333 92.667 120 92.667 119.333 93.3337Z" fill="white"/>
<path d="M103.998 126.667C103.998 123.334 106.665 120.667 109.998 120C112.665 120 115.331 121.334 115.998 124C116.665 127.334 115.331 130.667 111.998 132C108.665 134 103.998 130.667 103.998 126.667Z" fill="white"/>
<path d="M85.998 80.6685C85.998 84.0018 83.3314 86.6685 79.998 86.6685C76.6647 86.6685 73.998 84.0018 73.998 80.6685C73.998 77.3351 76.6647 74.6685 79.998 74.6685C83.3314 74.6685 85.998 77.3351 85.998 80.6685Z" fill="white"/>
<path d="M55.998 126C55.998 129.334 53.3314 132 49.998 132C46.6647 132 43.998 129.334 43.998 126C43.998 122.667 46.6647 120 49.998 120C52.6647 120 55.998 122.667 55.998 126Z" fill="white"/>
</svg>
