<svg width="32" height="32" viewBox="0 0 32 32" fill="none" xmlns="http://www.w3.org/2000/svg">
<g id=" Food / Cookie">
<path id="Subtract" fill-rule="evenodd" clip-rule="evenodd" d="M12.5933 27.9094L16 27.9426L19.4068 27.9094L22.2907 26.0833L25.1388 24.2013L26.584 21.0956L27.9693 17.9624L27.5171 14.5632L26.9996 11.1734L24.7936 8.55995L22.5376 5.98995L19.2781 4.99192L16 4.05762L12.722 4.99192L9.46245 5.98995L7.20655 8.55995L5.0005 11.1734L4.48301 14.5632L4.03082 17.9624L5.41605 21.0956L6.86129 24.2013L9.70944 26.0833L12.5933 27.9094ZM13.3123 18.2588C13.3123 19.3793 12.41 20.2876 11.2969 20.2876C10.1838 20.2876 9.28152 19.3793 9.28152 18.2588C9.28152 17.1384 10.1838 16.2301 11.2969 16.2301C12.41 16.2301 13.3123 17.1384 13.3123 18.2588ZM18.0153 12.1726C19.1283 12.1726 20.0307 11.2643 20.0307 10.1439C20.0307 9.02343 19.1283 8.11513 18.0153 8.11513C16.9022 8.11513 15.9999 9.02343 15.9999 10.1439C15.9999 11.2643 16.9022 12.1726 18.0153 12.1726ZM21.374 20.9637C21.374 22.0842 20.4716 22.9925 19.3586 22.9925C18.2455 22.9925 17.3432 22.0842 17.3432 20.9637C17.3432 19.8433 18.2455 18.935 19.3586 18.935C20.4716 18.935 21.374 19.8433 21.374 20.9637Z" fill="#C39713"/>
</g>
</svg>
