<svg width="56" height="56" viewBox="0 0 56 56" fill="none" xmlns="http://www.w3.org/2000/svg">
<g opacity="0.3">
<path opacity="0.3" d="M44.0987 53.6666C33.3654 53.6666 22.8654 53.6666 12.3654 53.6666C12.3654 53.6666 12.132 53.6666 12.132 53.4333C10.2654 47.3666 8.16537 41.2999 6.2987 35.2333C5.13203 31.0333 3.73203 26.8333 2.33203 22.3999C2.33203 22.1666 2.33203 22.1666 2.56536 21.9333C7.93203 17.7333 13.2987 13.7666 18.6654 9.56658C21.6987 7.23325 24.9654 4.89992 27.9987 2.33325C28.232 2.33325 28.232 2.33325 28.4654 2.33325C28.932 2.56659 29.1654 2.79992 29.632 3.26659C35.6987 7.93325 41.7654 12.3666 47.832 17.0333C49.6987 18.4333 51.5654 19.8333 53.432 21.2333V21.4666C51.332 28.9333 48.9987 36.1666 46.8987 43.6333C46.1987 46.8999 45.032 50.1666 44.0987 53.6666ZM27.9987 50.1666C29.3987 50.1666 30.7987 50.1666 31.9654 50.1666C34.9987 50.1666 38.2654 50.1666 41.2987 50.3999C41.2987 50.3999 41.532 50.3999 41.532 50.1666C43.8654 42.4666 46.1987 34.9999 48.532 27.2999C48.9987 25.8999 49.4654 24.4999 49.6987 23.3333V23.0999C42.4654 17.7333 35.232 12.3666 28.232 6.99992H27.9987C27.0654 7.69992 25.8987 8.39992 24.9654 9.09992C23.0987 10.4999 21.232 11.8999 19.132 13.2999C14.6987 16.5666 10.4987 19.8333 6.06536 23.3333C6.06536 23.3333 6.06536 23.3333 6.06536 23.5666C6.76536 25.6666 7.46536 27.7666 8.16537 29.8666C10.2654 36.6333 12.3654 43.1666 14.4654 49.9333C14.4654 50.1666 14.4654 50.1666 14.6987 50.1666C16.5654 50.1666 18.432 50.1666 20.2987 50.1666C22.8654 50.1666 25.432 50.1666 27.9987 50.1666Z" fill="#B2BEC7"/>
</g>
<path d="M37.8004 12.8333C38.267 12.5999 38.7337 12.5999 39.2004 12.3666C40.367 12.3666 41.3004 12.3666 42.467 12.5999C42.2337 12.3666 42.0004 12.1333 41.767 12.1333C41.5337 11.8999 41.3004 11.6666 41.067 11.4333C40.8337 11.1999 40.367 10.9666 40.1337 10.7333C40.1337 10.7333 40.1337 10.7333 39.9004 10.4999C39.2004 10.0333 38.5004 9.33325 37.8004 8.86658C37.567 8.86658 37.3337 8.86659 37.3337 9.09992C34.5337 10.0333 32.2004 11.8999 30.3337 14.2333C30.3337 14.2333 30.3337 14.2333 30.1004 14.4666V14.2333C30.3337 13.5333 30.3337 13.0666 30.3337 12.5999C30.567 11.6666 30.8004 10.7333 31.267 9.79992C31.7337 9.33325 32.2004 9.09992 32.667 8.86658C33.1337 8.63325 33.367 8.39992 33.8337 8.39992C34.5337 8.16658 35.0004 7.93325 35.7004 7.93325C35.0004 7.23325 34.3004 6.76658 33.367 6.06658C31.7337 4.89992 29.867 3.49992 28.2337 2.33325C25.9004 3.96659 23.567 5.83325 21.2337 7.46659C21.9337 7.69992 22.6337 8.16658 23.3337 8.39992C23.8004 8.63325 24.0337 8.86659 24.5004 9.33325C25.2004 10.0333 25.667 10.9666 25.667 12.1333C25.667 12.8333 25.4337 13.7666 25.2004 14.4666C24.7337 15.6333 24.0337 16.7999 23.1004 17.7333C22.4004 18.4333 21.7004 19.1333 20.767 19.8333C17.7337 22.1666 16.1004 25.8999 16.567 29.8666C16.8004 31.4999 17.267 33.1333 18.2004 34.5333C19.1337 35.9333 20.5337 37.0999 22.167 37.7999C22.867 38.0333 23.8004 38.2666 24.5004 38.2666C25.2004 38.2666 26.1337 38.2666 26.8337 38.2666C28.7004 37.7999 30.1004 37.0999 31.267 35.6999C32.4337 34.2999 33.1337 32.4333 32.667 30.5666C32.2004 27.9999 30.567 26.3666 27.767 25.6666C27.5337 25.6666 27.5337 25.6666 27.3004 25.6666C25.9004 25.6666 24.267 26.3666 23.8004 27.9999C23.567 28.4666 23.8004 29.1666 23.8004 29.6333C24.267 30.7999 25.4337 31.4999 27.067 31.2666C27.3004 31.2666 27.5337 31.0333 27.767 31.0333C28.0004 31.4999 27.767 32.1999 27.5337 32.4333C27.3004 32.6666 26.8337 32.8999 26.367 32.8999C25.2004 33.1333 24.0337 32.8999 22.867 32.4333C21.467 31.7332 20.767 30.5666 20.767 28.9333C20.767 27.9999 21.0004 27.2999 21.7004 26.3666C23.1004 24.4999 24.7337 23.5666 27.067 23.5666C28.7004 23.5666 30.1004 23.7999 31.7337 24.4999C34.5337 25.8999 36.4004 28.9333 35.9337 32.1999C35.7004 33.8333 35.0004 35.4666 33.6004 36.6333C32.667 37.3333 31.967 38.0333 31.0337 38.7333C28.9337 40.1333 26.6004 41.2999 24.0337 42.2332C23.567 42.4666 23.3337 42.4666 22.867 42.6999C21.467 43.3999 20.3004 44.3333 19.1337 45.4999C18.2004 46.4333 17.5004 47.3666 17.0337 48.7666C16.567 49.6999 16.567 50.6333 16.567 51.5666C16.567 52.2666 16.567 52.7332 16.567 53.4333V53.6666C23.3337 53.6666 30.3337 53.6666 37.1004 53.6666C37.1004 53.6666 37.1004 53.6666 36.867 53.6666C36.167 53.4333 35.2337 53.1999 34.5337 52.7332C33.6004 52.2666 32.667 51.7999 31.7337 51.3333C30.567 50.6333 29.867 49.4666 29.6337 48.2999C29.4004 47.5999 29.6337 46.6666 30.1004 46.1999C30.567 45.9666 30.8004 45.4999 31.267 45.2666C31.7337 44.7999 32.4337 44.3332 32.9004 43.8666C34.5337 42.2332 35.9337 40.5999 37.1004 38.7333C38.0337 37.3333 38.7337 35.6999 39.2004 33.8333C39.667 32.1999 39.667 30.7999 39.4337 29.1666C38.7337 24.9666 35.7004 21.4666 31.967 19.8333H31.7337C31.7337 19.3666 31.967 18.8999 32.2004 18.4333C33.8337 15.3999 35.7004 13.7666 37.8004 12.8333ZM24.5004 46.1999C24.267 46.8999 24.0337 47.8332 23.567 48.5332C23.3337 48.7666 23.1004 49.2333 22.867 49.4666C22.4004 49.9333 21.7004 50.3999 21.0004 50.8666C21.0004 50.8666 20.767 51.0999 20.5337 50.8666C20.5337 50.6332 20.5337 50.6333 20.5337 50.3999C20.5337 49.6999 21.0004 48.7666 21.467 48.2999C22.167 47.1333 23.1004 46.4333 24.5004 46.1999C24.5004 45.9666 24.5004 45.9666 24.5004 46.1999Z" fill="#B2BEC7"/>
</svg>
