<svg width="24" height="24" viewBox="0 0 24 24" fill="none" xmlns="http://www.w3.org/2000/svg">
<path d="M9.85611 10.3628C9.20061 10.3628 8.68311 10.9378 8.68311 11.6393C8.68311 12.3408 9.21211 12.9158 9.85611 12.9158C10.5116 12.9158 11.0291 12.3408 11.0291 11.6393C11.0406 10.9378 10.5116 10.3628 9.85611 10.3628ZM14.0536 10.3628C13.3981 10.3628 12.8806 10.9378 12.8806 11.6393C12.8806 12.3408 13.4096 12.9158 14.0536 12.9158C14.7091 12.9158 15.2266 12.3408 15.2266 11.6393C15.2266 10.9378 14.7091 10.3628 14.0536 10.3628Z" fill="#7289DA"/>
<path d="M19.6425 0.714355H4.2325C2.933 0.714355 1.875 1.77236 1.875 3.08336V18.6314C1.875 19.9424 2.933 21.0004 4.2325 21.0004H17.2735L16.664 18.8729L18.136 20.2414L19.5275 21.5294L22 23.7144V3.08336C22 1.77236 20.942 0.714355 19.6425 0.714355ZM15.2035 15.7334C15.2035 15.7334 14.7895 15.2389 14.4445 14.8019C15.951 14.3764 16.526 13.4334 16.526 13.4334C16.0545 13.7439 15.606 13.9624 15.2035 14.1119C14.6285 14.3534 14.0765 14.5144 13.536 14.6064C12.432 14.8134 11.42 14.7559 10.5575 14.5949C9.902 14.4684 9.3385 14.2844 8.867 14.1004C8.6025 13.9969 8.315 13.8704 8.0275 13.7094C7.993 13.6864 7.9585 13.6749 7.924 13.6519C7.901 13.6404 7.8895 13.6289 7.878 13.6174C7.671 13.5024 7.556 13.4219 7.556 13.4219C7.556 13.4219 8.108 14.3419 9.5685 14.7789C9.2235 15.2159 8.798 15.7334 8.798 15.7334C6.2565 15.6529 5.2905 13.9854 5.2905 13.9854C5.2905 10.2824 6.9465 7.28086 6.9465 7.28086C8.6025 6.03886 10.178 6.07336 10.178 6.07336L10.293 6.21136C8.223 6.80936 7.2685 7.71786 7.2685 7.71786C7.2685 7.71786 7.5215 7.57986 7.947 7.38436C9.1775 6.84386 10.155 6.69436 10.5575 6.65986C10.6265 6.64836 10.684 6.63686 10.753 6.63686C11.4545 6.54486 12.248 6.52186 13.076 6.61386C14.1685 6.74036 15.3415 7.06236 16.5375 7.71786C16.5375 7.71786 15.629 6.85536 13.674 6.25736L13.835 6.07336C13.835 6.07336 15.4105 6.03886 17.0665 7.28086C17.0665 7.28086 18.7225 10.2824 18.7225 13.9854C18.7225 13.9854 17.745 15.6529 15.2035 15.7334Z" fill="#7289DA"/>
</svg>
