<svg width="24" height="24" viewBox="0 0 24 24" fill="none" xmlns="http://www.w3.org/2000/svg">
<path fill-rule="evenodd" clip-rule="evenodd" d="M15 15V6L13.8474 5.6158C12.6238 5.20793 11.3424 5 10.0527 5H6.45939C5.02935 5 3.79811 6.00938 3.51765 7.41165L2.76845 11.1576C2.38107 13.0946 3.93886 14.8707 5.90975 14.7393L9.49998 14.5L9.17902 18.0306C9.08288 19.0882 9.91558 20 10.9775 20C11.6118 20 12.1997 19.6672 12.526 19.1232L15 15Z" fill="white"/>
<path opacity="0.3" d="M22 15C22 15.5523 21.5523 16 21 16H18C17.4477 16 17 15.5523 17 15V6C17 5.44771 17.4477 5 18 5H21C21.5523 5 22 5.44772 22 6V15Z" fill="white"/>
</svg>
