<svg width="57" height="58" viewBox="0 0 57 58" fill="none" xmlns="http://www.w3.org/2000/svg">
<path fill-rule="evenodd" clip-rule="evenodd" d="M11.875 33.75C14.4984 33.75 16.625 31.6234 16.625 29C16.625 26.3766 14.4984 24.25 11.875 24.25C9.25165 24.25 7.125 26.3766 7.125 29C7.125 31.6234 9.25165 33.75 11.875 33.75Z" fill="#C39713"/>
<path fill-rule="evenodd" clip-rule="evenodd" d="M28.5 33.75C31.1234 33.75 33.25 31.6234 33.25 29C33.25 26.3766 31.1234 24.25 28.5 24.25C25.8766 24.25 23.75 26.3766 23.75 29C23.75 31.6234 25.8766 33.75 28.5 33.75Z" fill="#C39713"/>
<path fill-rule="evenodd" clip-rule="evenodd" d="M45.125 33.75C47.7484 33.75 49.875 31.6234 49.875 29C49.875 26.3766 47.7484 24.25 45.125 24.25C42.5016 24.25 40.375 26.3766 40.375 29C40.375 31.6234 42.5016 33.75 45.125 33.75Z" fill="#C39713"/>
</svg>
