<svg width="24" height="24" viewBox="0 0 24 24" fill="none" xmlns="http://www.w3.org/2000/svg">
<path d="M12.4873 21.6451L12.0003 20.2146L11.5132 21.6451H10.0289L11.2118 22.566L10.7821 24L12.0003 23.1446L13.2184 24L12.7887 22.566L13.9711 21.6451H12.4873Z" fill="#8C9EAB"/>
<path d="M12.4873 1.43048L12.0003 0L11.5132 1.43048H10.0289L11.2118 2.35134L10.7821 3.78536L12.0003 2.92992L13.2184 3.78536L12.7887 2.35134L13.9711 1.43048H12.4873Z" fill="#8C9EAB"/>
<path d="M22.5162 11.5377L22.0292 10.1072L21.5421 11.5377H20.0578L21.2407 12.4586L20.8111 13.8926L22.0292 13.0372L23.2473 13.8926L22.8176 12.4586L24 11.5377H22.5162Z" fill="#8C9EAB"/>
<path d="M2.45838 11.5377L1.97133 10.1072L1.48429 11.5377H0L1.1829 12.4586L0.753213 13.8926L1.97133 13.0372L3.18946 13.8926L2.75977 12.4586L3.94217 11.5377H2.45838Z" fill="#8C9EAB"/>
<path d="M17.5018 20.2909L17.0147 18.8604L16.5277 20.2909H15.0434L16.2263 21.2118L15.7966 22.6458L17.0147 21.7904L18.2328 22.6458L17.8032 21.2118L18.9856 20.2909H17.5018Z" fill="#8C9EAB"/>
<path d="M7.47285 2.78453L6.9858 1.35405L6.49876 2.78453H5.01447L6.19737 3.70539L5.76768 5.13941L6.9858 4.28397L8.20393 5.13941L7.77424 3.70539L8.95663 2.78453H7.47285Z" fill="#8C9EAB"/>
<path d="M21.1726 6.48395L20.6855 5.05347L20.1985 6.48395H18.7142L19.8971 7.40481L19.4674 8.83883L20.6855 7.98339L21.9036 8.83883L21.474 7.40481L22.6563 6.48395H21.1726Z" fill="#8C9EAB"/>
<path d="M3.80195 16.5913L3.3149 15.1609L2.82786 16.5913H1.34357L2.52647 17.5122L2.09678 18.9462L3.3149 18.0908L4.53303 18.9462L4.10333 17.5122L5.28573 16.5913H3.80195Z" fill="#8C9EAB"/>
<path d="M21.1726 16.5913L20.6856 15.1609L20.1985 16.5913H18.7142L19.8971 17.5122L19.4674 18.9462L20.6856 18.0908L21.9037 18.9462L21.474 17.5122L22.6564 16.5913H21.1726Z" fill="#8C9EAB"/>
<path d="M3.80202 6.4841L3.31498 5.05362L2.82793 6.4841H1.34364L2.52655 7.40496L2.09686 8.83898L3.31498 7.98354L4.5331 8.83898L4.10341 7.40496L5.28581 6.4841H3.80202Z" fill="#8C9EAB"/>
<path d="M17.5017 2.78438L17.0146 1.3539L16.5276 2.78438H15.0433L16.2262 3.70523L15.7965 5.13926L17.0146 4.28382L18.2328 5.13926L17.8031 3.70523L18.9855 2.78438H17.5017Z" fill="#8C9EAB"/>
<path d="M7.47279 20.2909L6.98574 18.8604L6.4987 20.2909H5.01441L6.19732 21.2118L5.76762 22.6458L6.98574 21.7904L8.20387 22.6458L7.77418 21.2118L8.95658 20.2909H7.47279Z" fill="#8C9EAB"/>
</svg>
