<svg width="32" height="32" viewBox="0 0 32 32" fill="none" xmlns="http://www.w3.org/2000/svg">
<g id=" Shopping / Euro">
<path id="Combined Shape" opacity="0.3" fill-rule="evenodd" clip-rule="evenodd" d="M6.41203 14.6667C5.91644 14.6667 5.59411 14.1451 5.81574 13.7019L6.48241 12.3685C6.59533 12.1427 6.82618 12 7.07869 12H20.2546C20.7502 12 21.0726 12.5215 20.8509 12.9648L20.1843 14.2981C20.0713 14.524 19.8405 14.6667 19.588 14.6667H6.41203ZM18.9213 17.3333C19.4169 17.3333 19.7392 17.8549 19.5176 18.2981L18.8509 19.6315C18.738 19.8573 18.5072 20 18.2546 20H6.41202C5.91644 20 5.59411 19.4785 5.81574 19.0352L6.48241 17.7019C6.59533 17.476 6.82618 17.3333 7.07869 17.3333H18.9213Z" fill="#008BEA"/>
<path id="C" fill-rule="evenodd" clip-rule="evenodd" d="M23.1587 10.1574C22.636 9.44803 21.9547 8.93004 21.1147 8.60337C20.2747 8.2767 19.4533 8.11337 18.6507 8.11337C17.624 8.11337 16.6907 8.30004 15.8507 8.67337C15.0107 9.04671 14.2873 9.56003 13.6807 10.2134C13.074 10.8667 12.6073 11.632 12.2807 12.5094C11.954 13.3867 11.7907 14.3387 11.7907 15.3654C11.7907 16.448 11.9493 17.4374 12.2667 18.3334C12.584 19.2294 13.0367 19.9994 13.6247 20.6434C14.2127 21.2874 14.9173 21.7867 15.7387 22.1414C16.56 22.496 17.484 22.6734 18.5107 22.6734C19.5747 22.6734 20.5173 22.4634 21.3387 22.0434C22.16 21.6234 22.8227 21.068 23.3267 20.3774L26.1547 22.3654C25.2773 23.4667 24.204 24.3207 22.9347 24.9274C21.6653 25.534 20.1813 25.8374 18.4827 25.8374C16.9333 25.8374 15.51 25.5807 14.2127 25.0674C12.9153 24.554 11.8 23.8354 10.8667 22.9114C9.93333 21.9874 9.20534 20.886 8.68267 19.6074C8.16 18.3287 7.89867 16.9147 7.89867 15.3654C7.89867 13.7787 8.174 12.346 8.72467 11.0674C9.27534 9.7887 10.0313 8.70138 10.9927 7.80537C11.954 6.90937 13.088 6.21871 14.3947 5.73337C15.7013 5.24804 17.12 5.00537 18.6507 5.00537C19.2853 5.00537 19.948 5.06604 20.6387 5.18737C21.3293 5.30871 21.992 5.49537 22.6267 5.74737C23.2613 5.99937 23.8587 6.31204 24.4187 6.68537C24.9787 7.05871 25.4547 7.5067 25.8467 8.02937L23.1587 10.1574Z" fill="#008BEA"/>
</g>
</svg>
