<svg width="20" height="20" viewBox="0 0 20 20" fill="none" xmlns="http://www.w3.org/2000/svg">
<path fill-rule="evenodd" clip-rule="evenodd" d="M9.9987 0.833008C4.93609 0.833008 0.832031 4.93706 0.832031 9.99967C0.832031 14.4803 4.04676 18.2101 8.29556 19.0084V11.5638H5.83236V8.60098H8.29563V6.41596C8.29563 3.88027 9.78667 2.49959 11.9646 2.49959C13.0077 2.49959 13.9043 2.58024 14.1657 2.61621V5.2661L12.6551 5.26683C11.4707 5.26683 11.2414 5.85145 11.2414 6.70924V8.6009H14.0661L13.6983 11.5637H11.2414V19.0828C15.7162 18.4764 19.1654 14.6408 19.1654 9.99967C19.1654 4.93706 15.0613 0.833008 9.9987 0.833008ZM10.048 19.1662L9.94993 19.1662C9.96617 19.1663 9.98243 19.1663 9.9987 19.1663C10.0151 19.1663 10.0316 19.1663 10.048 19.1662Z" fill="#B2BEC7"/>
</svg>
