<svg width="56" height="56" viewBox="0 0 56 56" fill="none" xmlns="http://www.w3.org/2000/svg">
<path opacity="0.3" fill-rule="evenodd" clip-rule="evenodd" d="M11.3333 2.33325H28.1174C28.472 2.33325 28.8153 2.45894 29.0861 2.68799L41.4687 13.1616C41.8057 13.4466 42 13.8656 42 14.3069V44.5277C42 48.7056 41.9523 48.9999 37.6667 48.9999H11.3333C7.04771 48.9999 7 48.7056 7 44.5277V6.80547C7 2.62754 7.04771 2.33325 11.3333 2.33325ZM16.3333 28.9999C16.3333 28.4476 16.781 27.9999 17.3333 27.9999H36.3333C36.8856 27.9999 37.3333 28.4476 37.3333 28.9999V31.6666C37.3333 32.2189 36.8856 32.6666 36.3333 32.6666H17.3333C16.781 32.6666 16.3333 32.2189 16.3333 31.6666V28.9999ZM17.3333 37.3333C16.781 37.3333 16.3333 37.781 16.3333 38.3333V40.9999C16.3333 41.5522 16.781 41.9999 17.3333 41.9999H27C27.5523 41.9999 28 41.5522 28 40.9999V38.3333C28 37.781 27.5523 37.3333 27 37.3333H17.3333Z" fill="#008BEA"/>
<path fill-rule="evenodd" clip-rule="evenodd" d="M16.0013 7H35.1187C35.4734 7 35.8166 7.12568 36.0874 7.35474L48.47 17.8284C48.807 18.1134 49.0013 18.5323 49.0013 18.9736V49.1945C49.0013 53.3724 48.9536 53.6667 44.668 53.6667H16.0013C11.7157 53.6667 11.668 53.3724 11.668 49.1945V11.4722C11.668 7.29429 11.7157 7 16.0013 7ZM16.3346 29C16.3346 28.4477 16.7824 28 17.3346 28H36.3346C36.8869 28 37.3346 28.4477 37.3346 29V31.6667C37.3346 32.219 36.8869 32.6667 36.3346 32.6667H17.3346C16.7824 32.6667 16.3346 32.219 16.3346 31.6667V29ZM17.3346 37.3333C16.7824 37.3333 16.3346 37.781 16.3346 38.3333V41C16.3346 41.5523 16.7824 42 17.3346 42H27.0013C27.5536 42 28.0013 41.5523 28.0013 41V38.3333C28.0013 37.7811 27.5536 37.3333 27.0013 37.3333H17.3346Z" fill="#008BEA"/>
</svg>
