<svg width="32" height="32" viewBox="0 0 32 32" fill="none" xmlns="http://www.w3.org/2000/svg">
<path opacity="0.3" fill-rule="evenodd" clip-rule="evenodd" d="M21.3333 9.33317C21.3333 9.33317 18 15.9998 14.6667 16.4669C14.6667 16.4669 16.6667 8.6665 14 4.6665C14 4.6665 13.7172 8.95243 10.86 14.0955C9.52065 16.5063 8 18.1314 8 21.3332C8 25.9048 12.6819 28.2674 16.0076 28.2674C19.3333 28.2674 24 26.6673 24 21.0671C24 17.613 21.3333 9.33317 21.3333 9.33317Z" fill="#FF9800"/>
<path fill-rule="evenodd" clip-rule="evenodd" d="M17.3333 9.33317C17.3333 9.33317 18 15.9998 14.6667 16.4669C14.6667 16.4669 16.6667 8.6665 14 4.6665C14 4.6665 13.7172 8.95243 10.86 14.0955C9.52065 16.5063 8 18.1314 8 21.3332C8 25.9048 12.6819 28.2674 16.0076 28.2674C19.3333 28.2674 24 26.6673 24 21.0671C24 17.613 17.3333 9.33317 17.3333 9.33317Z" fill="#FF9800"/>
</svg>
