<svg width="24" height="24" viewBox="0 0 24 24" fill="none" xmlns="http://www.w3.org/2000/svg">
<path d="M11.5158 0.0769754C11.4406 0.115463 11.3138 0.211682 11.2339 0.283847C11.1588 0.356011 10.8111 0.654291 10.4635 0.938138C10.1159 1.2268 9.67897 1.61167 9.48636 1.79449C8.80518 2.43916 8.5609 2.41991 7.64014 1.64054L7.28781 1.34226L7.25492 1.57318C7.24083 1.69827 7.21264 2.18418 7.19385 2.64603C7.14688 3.86801 7.14688 3.87764 6.27309 5.03708C5.89727 5.53742 5.06577 6.74497 5.02819 6.85081C5.01409 6.8893 5.09865 6.93741 5.27717 6.99514C5.69057 7.12504 6.36705 7.47624 6.65831 7.71197C7.14218 8.11128 7.44753 8.71265 7.518 9.43911L7.55088 9.76145L7.38646 9.79512C7.15627 9.83842 6.73347 9.77588 6.41872 9.6556C6.27779 9.60268 5.90197 9.37657 5.58252 9.15526L5 8.75114L5.03288 8.9099C5.12684 9.33808 5.4181 10.18 5.6248 10.6082C5.90197 11.1903 6.36235 11.8302 6.75226 12.1765L7.03883 12.4315L7.13748 12.2872C7.18916 12.2102 7.35358 12.0274 7.49921 11.8783C8.09582 11.2721 8.61258 11.4453 9.07765 12.4171C9.3971 13.0762 9.80111 14.3463 9.80111 14.6831C9.80111 14.8803 9.6038 15.3229 9.49576 15.3614C9.27496 15.4528 8.65955 15.3277 8.30252 15.1257C8.18978 15.0631 8.08643 15.015 8.07703 15.0246C8.04885 15.0535 8.28843 15.804 8.51862 16.4054C8.79579 17.127 9.15752 17.8487 9.55683 18.4741C9.89037 18.9937 10.44 19.7249 10.5011 19.7249C10.5481 19.7249 10.9521 18.5703 11.1024 18.0171C11.342 17.127 11.295 16.2274 10.9004 14.2405C10.5809 12.624 10.3226 11.9793 9.4112 10.5168C8.71123 9.39581 8.46695 8.6453 8.46695 7.64943C8.46695 6.96627 8.54211 6.58621 8.79579 6.02333C9.21389 5.09 10.0031 4.32506 11.0319 3.8632C11.6097 3.60341 11.8024 3.61303 12.4413 3.93056C13.8318 4.61853 14.5458 5.42677 14.8841 6.69686C14.9733 7.03363 14.9874 7.22126 14.9874 7.86592C14.9921 8.53465 14.9733 8.6886 14.8794 9.04461C14.668 9.79993 14.3814 10.4061 13.9257 11.0412C13.2305 12.0082 13.0191 12.6384 12.9486 13.9277C12.8828 15.0776 12.7748 17.8198 12.6855 20.4658C12.6292 22.2026 12.6245 22.8425 12.6667 23.2562C12.7325 23.9586 12.7466 24.0163 12.8406 23.9971C12.9345 23.9778 12.9768 23.8335 13.2587 22.4913C13.6204 20.7545 13.8553 19.9703 14.2264 19.292C14.3908 18.9841 14.6868 18.5655 14.8888 18.3442C14.9686 18.2576 15.025 18.1806 15.0109 18.171C15.0015 18.1614 14.8418 18.1037 14.6539 18.0459C14.2076 17.9112 13.8929 17.6562 13.719 17.2858C13.5875 17.0116 13.5828 16.9875 13.5828 16.237C13.5875 15.3951 13.6439 15.0102 13.8929 14.1923C14.1888 13.2301 14.9921 11.8205 15.3586 11.6281C15.7344 11.4308 16.0726 11.6618 16.5941 12.47C16.7632 12.7298 16.9182 12.9319 16.9417 12.9174C17.0826 12.8308 18.0692 11.0556 18.398 10.3051C18.6423 9.7422 19.0181 8.66936 18.9993 8.602C18.9899 8.57795 18.7409 8.75595 18.445 8.9965C17.4444 9.80955 17.0498 9.98756 16.3216 9.9635C16.1948 9.95869 16.1901 9.94907 16.1901 9.67966C16.1901 9.03499 16.5048 8.29891 16.9887 7.79857C17.3222 7.45218 17.6323 7.22607 18.2054 6.91335L18.5765 6.71129L18.1443 6.10511C17.9094 5.77797 17.5383 5.27282 17.3175 4.98416C16.5283 3.95942 16.4249 3.73331 16.4249 3.05977C16.4249 2.71819 16.3075 1.50102 16.2746 1.46734C16.2652 1.45772 16.0115 1.60686 15.7062 1.79449C15.2505 2.07353 15.1049 2.13607 14.9029 2.15531C14.6069 2.17937 14.4707 2.11682 14.1184 1.79449C13.362 1.0969 11.8728 0 11.6896 0C11.6708 0 11.5957 0.0336767 11.5158 0.0769754Z" fill="#ECEFF1"/>
<path d="M11.3749 6.36009C10.4635 7.40407 10.2756 7.64943 10.2427 7.81781C10.2192 7.96214 10.2474 8.05355 10.4541 8.42881C10.9145 9.28035 11.8446 10.8391 11.8869 10.8343C11.9104 10.8343 12.2439 10.2089 12.6292 9.44392C13.3949 7.90922 13.4137 7.85149 13.1976 7.51472C12.9862 7.1972 11.8963 5.87419 11.8446 5.87419C11.8211 5.87419 11.6097 6.09068 11.3749 6.36009Z" fill="#ECEFF1"/>
</svg>
