<svg width="16" height="16" viewBox="0 0 16 16" fill="none" xmlns="http://www.w3.org/2000/svg">
<path d="M7.67589 0.0513169C7.62578 0.0769754 7.54122 0.141122 7.48798 0.189231C7.43787 0.237341 7.20612 0.436194 6.97436 0.625425C6.7426 0.817864 6.45134 1.07445 6.32294 1.19633C5.86882 1.62611 5.70597 1.61328 5.09213 1.09369L4.85724 0.894839L4.83531 1.04879C4.82592 1.13218 4.80713 1.45612 4.7946 1.76402C4.76328 2.57868 4.76328 2.58509 4.18076 3.35805C3.93021 3.69161 3.37588 4.49665 3.35082 4.56721C3.34143 4.59287 3.3978 4.62494 3.51681 4.66343C3.79241 4.75002 4.2434 4.98416 4.43757 5.14132C4.76015 5.40752 4.96372 5.80844 5.0107 6.29274L5.03262 6.50763L4.92301 6.53008C4.76955 6.55895 4.48768 6.51725 4.27785 6.43707C4.18389 6.40179 3.93334 6.25104 3.72038 6.10351L3.33203 5.83409L3.35395 5.93994C3.41659 6.22539 3.61076 6.78667 3.74857 7.07212C3.93334 7.4602 4.24026 7.88677 4.50021 8.1177L4.69125 8.28769L4.75702 8.19147C4.79147 8.14015 4.90108 8.01827 4.99817 7.91885C5.39591 7.51472 5.74042 7.63019 6.05047 8.27806C6.26343 8.71747 6.53277 9.5642 6.53277 9.78871C6.53277 9.92021 6.40123 10.2153 6.3292 10.2409C6.18201 10.3019 5.77173 10.2185 5.53371 10.0838C5.45855 10.0421 5.38965 10.01 5.38339 10.0164C5.3646 10.0357 5.52432 10.536 5.67778 10.9369C5.86256 11.418 6.10371 11.8991 6.36992 12.3161C6.59228 12.6625 6.9587 13.15 6.99942 13.15C7.03073 13.15 7.30007 12.3802 7.40029 12.0114C7.56002 11.418 7.5287 10.8183 7.26562 9.49363C7.05266 8.41598 6.88041 7.9862 6.27283 7.01118C5.80618 6.26387 5.64333 5.76353 5.64333 5.09962C5.64333 4.64418 5.69344 4.39081 5.86256 4.01555C6.14129 3.39333 6.66744 2.88337 7.35331 2.57547C7.73853 2.40227 7.86694 2.40869 8.29287 2.62037C9.21989 3.07902 9.69593 3.61784 9.92142 4.46457C9.98093 4.68909 9.99032 4.81417 9.99032 5.24395C9.99345 5.68977 9.98093 5.7924 9.91829 6.02974C9.77736 6.53329 9.58631 6.93741 9.28253 7.36077C8.81901 8.00544 8.67808 8.4256 8.6311 9.28516C8.58726 10.0517 8.51523 11.8799 8.45572 13.6439C8.41814 14.8017 8.41501 15.2283 8.44319 15.5041C8.48704 15.9724 8.49644 16.0109 8.55907 15.9981C8.62171 15.9852 8.6499 15.889 8.83781 14.9942C9.07896 13.8363 9.23555 13.3135 9.48296 12.8613C9.59258 12.656 9.78988 12.377 9.92455 12.2295C9.97779 12.1717 10.0154 12.1204 10.006 12.114C9.99972 12.1076 9.89324 12.0691 9.76796 12.0306C9.47044 11.9408 9.2606 11.7708 9.14473 11.5239C9.05703 11.341 9.0539 11.325 9.0539 10.8247C9.05703 10.2634 9.09462 10.0068 9.2606 9.46156C9.45791 8.8201 9.99345 7.88036 10.2377 7.75207C10.4883 7.62057 10.7138 7.77452 11.0614 8.31334C11.1742 8.48654 11.2775 8.62125 11.2932 8.61162C11.3871 8.55389 12.0448 7.3704 12.264 6.87006C12.4269 6.4948 12.6774 5.77957 12.6649 5.73467C12.6586 5.71863 12.4927 5.8373 12.2954 5.99767C11.6283 6.5397 11.3652 6.65837 10.8798 6.64234C10.7952 6.63913 10.7921 6.63271 10.7921 6.45311C10.7921 6.02333 11.0019 5.53261 11.3245 5.19905C11.5468 4.96812 11.7535 4.81738 12.1356 4.6089L12.383 4.4742L12.0949 4.07007C11.9383 3.85198 11.6909 3.51521 11.5437 3.32277C11.0176 2.63962 10.9487 2.48887 10.9487 2.03985C10.9487 1.81213 10.8704 1.00068 10.8484 0.978229C10.8422 0.971815 10.6731 1.07124 10.4695 1.19633C10.1657 1.38235 10.0686 1.42405 9.93395 1.43687C9.73664 1.45291 9.64582 1.41122 9.41093 1.19633C8.90671 0.731266 7.91391 0 7.79177 0C7.77924 0 7.72913 0.0224512 7.67589 0.0513169Z" fill="#F64A4A"/>
<path d="M7.58194 4.24006C6.97436 4.93605 6.84909 5.09962 6.82716 5.21188C6.81151 5.3081 6.8303 5.36903 6.9681 5.6192C7.27502 6.1869 7.89512 7.22607 7.92331 7.22286C7.93897 7.22286 8.16133 6.80591 8.41814 6.29595C8.92863 5.27282 8.94116 5.23433 8.79709 5.00982C8.65616 4.79813 7.92957 3.91612 7.89512 3.91612C7.87946 3.91612 7.73853 4.06045 7.58194 4.24006Z" fill="#F64A4A"/>
</svg>
