<svg width="17" height="16" viewBox="0 0 17 16" fill="none" xmlns="http://www.w3.org/2000/svg">
<path d="M8.16308 0.626688C7.9741 0.985576 7.79092 0.84623 7.79092 0.84623C6.77945 0.352268 6.34642 0.677021 6.34642 0.677021C6.34642 0.677021 7.10424 0.651855 7.43556 1.11688C7.76717 1.58198 7.0905 1.3968 7.0905 1.3968C5.19287 1.056 4.69018 1.36355 4.69018 1.36355C6.23556 1.40484 5.85886 1.80387 5.85886 1.80387C5.34735 1.76207 4.65715 1.97727 4.65715 1.97727C5.62532 1.98516 5.76259 2.2979 5.76259 2.2979C5.76259 2.2979 5.19058 2.10684 4.74786 2.19185C4.30514 2.27759 4.10447 2.71009 4.13729 2.67611C4.17032 2.64275 4.58549 2.51926 4.58549 2.51926C5.06859 2.467 5.01312 2.70301 5.01312 2.70301C4.78068 3.13136 4.64129 2.88676 3.33096 2.76443C2.02099 2.64152 2.22536 3.29791 2.22536 3.29791C2.2717 3.02688 2.82925 2.86895 3.3682 3.08768C3.90715 3.30657 4.65077 3.42883 5.12443 3.27143C5.59842 3.11416 5.43123 2.51926 5.43123 2.51926C5.43123 2.51926 5.96073 2.99186 6.50916 2.66791C7.05722 2.34404 6.50916 1.73194 6.50916 1.73194C7.57757 1.77558 8.30247 2.29179 8.30247 2.29179C8.30247 2.29179 8.2654 1.32072 8.52567 1.32938C8.78595 1.33861 8.68355 2.27458 8.68355 2.27458C9.00862 1.92428 10.5605 1.65325 10.4678 1.74972C10.3745 1.84558 10.0214 2.14305 10.4117 2.6065C10.8021 3.07048 11.6103 2.5278 11.6103 2.5278C11.6103 2.5278 11.118 3.02688 11.8611 3.29791C12.6047 3.56894 13.6643 3.0004 14.1194 2.97404C14.5744 2.94818 14.8813 3.29791 14.8813 3.29791C14.8349 2.73803 14.0449 2.58929 13.2647 2.80807C12.4839 3.02688 11.9727 2.75515 11.9727 2.75515C11.6666 2.23033 12.8835 2.61573 12.8835 2.61573C12.7536 2.01221 11.1554 2.26535 11.1554 2.26535C11.1926 2.08225 12.3821 1.94213 12.3821 1.94213C12.0936 1.80206 11.109 1.75838 11.109 1.75838C10.9974 1.42585 12.3169 1.32072 12.3169 1.32072C11.4341 1.0411 9.58039 1.41723 9.58039 1.41723C9.23177 0.93597 10.6351 0.62992 10.6351 0.62992C10.0494 0.332489 9.22262 1.01467 9.00878 0.901028C8.79494 0.787312 8.52567 0 8.52567 0C8.52567 0 8.31866 0.33018 8.16308 0.626688Z" fill="#008BEA"/>
<path d="M13.2711 3.49568C13.2711 3.49568 12.8346 3.47663 12.7464 3.69314C12.6588 3.90968 13.2437 3.8107 13.2541 3.79161C13.2646 3.77249 13.1999 3.92569 13.5992 4.15516C13.5992 4.15516 14.3199 4.75367 14.1742 5.04341C14.1742 5.04341 14.0219 4.91607 13.89 5.02132C13.89 5.02132 13.6737 5.20584 13.6834 5.33622C13.6834 5.33622 12.7836 4.96036 12.4183 5.32021C12.4183 5.32021 13.4096 5.71204 13.7716 6.38075C13.7716 6.38075 14.1823 8.06028 13.9749 8.53989C13.9749 8.53989 12.7974 7.70801 12.0621 8.66719C12.0621 8.66719 13.2169 8.1922 13.3927 9.15592C13.5684 10.1196 14.2908 10.4383 14.6156 10.3025C14.9403 10.1662 15.1703 9.52104 14.4302 9.52104C14.4302 9.52104 14.5208 8.52304 14.5702 8.28975C14.6196 8.05578 14.5654 6.97769 14.4617 6.72686C14.4617 6.72686 14.7007 6.76947 14.7371 6.7017C14.7728 6.63381 14.8181 6.36167 14.7055 6.33196C14.7055 6.33196 14.6471 6.2725 14.7233 6.2725C14.7233 6.2725 15.0124 6.277 15.048 6.09025C15.0845 5.90342 15.0618 5.08386 14.656 4.50208C14.2496 3.92041 14.0195 3.89909 14.0195 3.89909C14.0195 3.89909 14.2365 3.35157 14.0381 3.25394C14.0381 3.25394 13.5732 2.96497 13.2711 3.49568Z" fill="#008BEA"/>
<path d="M14.8496 7.01973C14.8496 7.01973 15.2424 7.00742 15.1518 7.49988C15.0618 7.99242 14.8949 8.00081 14.8949 8.00081C14.8949 8.00081 15.1202 7.49153 14.9581 7.47402C14.7954 7.45732 14.5386 7.16451 14.8496 7.01973Z" fill="#008BEA"/>
<path d="M13.0412 9.00263C13.0412 9.00263 12.6127 8.73114 12.3195 9.00263C12.0264 9.2747 12.6986 9.5081 12.9327 9.35101C12.9327 9.35101 12.9691 10.6463 11.8005 12.3786C11.8005 12.3786 11.1785 11.8395 11.0116 11.7205C10.8448 11.6016 9.93791 11.3677 10.123 12.018C10.123 12.018 10.38 12.4083 10.6958 11.9494C10.6958 11.9494 10.9711 11.8221 11.3858 12.4038C11.3858 12.4038 11.4942 13.4231 11.5438 13.8477C11.5438 13.8477 11.5437 13.0366 11.9948 12.5272C11.9948 12.5272 12.4184 11.9494 12.599 11.8518L12.9643 12.3276C12.9643 12.3276 12.7707 11.0917 13.2128 10.6334C13.2128 10.6334 13.6097 10.8454 13.3797 11.1175C13.3797 11.1175 13.0866 11.2091 13.1902 11.3647C13.2939 11.5208 13.5988 11.4316 13.5613 11.1983C13.5239 10.9644 14.0786 10.9734 14.1144 11.2915C14.1508 11.6101 13.835 11.8731 13.686 11.886C13.686 11.886 14.4618 11.8647 14.4485 11.3851C14.435 10.9049 13.734 10.6884 13.5613 10.5313C13.3887 10.3743 13.6503 10.4466 13.6503 10.4466C13.6503 10.4466 13.8439 10.4169 13.8844 10.4679C13.9249 10.519 13.9208 10.2003 13.4745 10.2599C13.4745 10.2599 13.5684 9.27863 13.0412 9.00263Z" fill="#008BEA"/>
<path d="M11.1849 12.8027C11.112 12.6925 10.9895 12.6662 10.9238 12.6523C10.9055 12.6487 10.8844 12.644 10.8822 12.6407C10.9025 12.6057 10.9427 12.4513 10.8875 12.3492C10.8573 12.2945 10.8054 12.2621 10.7328 12.2536C10.6651 12.2456 10.613 12.2619 10.5727 12.3009C10.4842 12.3874 10.4899 12.5544 10.4909 12.56C10.2588 13.7785 8.58584 14.7782 8.51274 14.8213C8.43961 14.7782 6.76657 13.7786 6.53482 12.5611C6.53515 12.5544 6.54091 12.3874 6.45237 12.3009C6.41211 12.2619 6.35999 12.2456 6.29262 12.2536C6.21973 12.2621 6.16777 12.2945 6.13789 12.3492C6.0827 12.4513 6.12289 12.6057 6.14341 12.6405C6.14104 12.644 6.11994 12.6487 6.10134 12.6523C6.03557 12.6662 5.91338 12.6925 5.84025 12.8027C5.77076 12.9071 5.76164 13.0654 5.8136 13.272C5.81511 13.277 5.98194 13.7691 6.37057 13.7434L6.38639 13.7426L6.37466 13.7324C6.3718 13.7298 6.08953 13.4857 6.13777 13.2411C6.13785 13.2389 6.14819 13.0475 6.25975 13.0475C6.28281 13.0475 6.30934 13.0556 6.3382 13.0716C6.3429 13.0742 6.34797 13.0771 6.35291 13.0801C6.43349 13.1304 6.49411 13.2934 6.56446 13.4823C6.68035 13.7933 6.8242 14.18 7.1431 14.3813C7.13194 14.4356 7.02398 14.9958 7.21909 15.2474C7.27436 15.3194 7.34991 15.3604 7.44282 15.3695L7.46114 15.3716L7.44846 15.3589C7.44654 15.3573 7.24423 15.1527 7.27514 14.9897C7.28658 14.9294 7.32898 14.8812 7.40072 14.8471C7.4017 14.8469 7.48795 14.82 7.60781 14.82C7.76172 14.82 7.98107 14.8645 8.15183 15.0748C8.15207 15.0757 8.15959 15.0824 8.15828 15.0978C8.15661 15.1202 8.13621 15.1596 8.04869 15.2179C7.91894 15.3057 7.70236 15.6641 7.71814 15.8634C7.72346 15.9285 7.7513 15.9739 7.80149 15.9974L7.80697 16L7.8102 15.9957C7.81359 15.9905 8.16769 15.48 8.51274 15.341C8.85772 15.4799 9.21149 15.9905 9.21525 15.9957L9.21843 16L9.22395 15.9974C9.27399 15.9739 9.30203 15.9285 9.30731 15.8634C9.32313 15.6641 9.10651 15.3057 8.97676 15.2179C8.88928 15.1596 8.86876 15.1202 8.86684 15.0978C8.86557 15.0824 8.87338 15.0757 8.87419 15.0743C9.04437 14.8645 9.2634 14.82 9.41731 14.82C9.53741 14.82 9.62354 14.8468 9.62371 14.8468C9.69615 14.8812 9.73886 14.9294 9.75027 14.9897C9.78093 15.1526 9.5789 15.3573 9.5767 15.3589L9.56398 15.3716L9.58234 15.3695C9.67554 15.3604 9.75076 15.3194 9.80631 15.2474C10.0013 14.9958 9.89351 14.4356 9.88231 14.3813C10.2012 14.18 10.3451 13.7933 10.4606 13.4823C10.5313 13.2934 10.592 13.1304 10.6725 13.0801C10.6777 13.0771 10.6822 13.0742 10.6873 13.0716C10.7161 13.0556 10.7423 13.0475 10.7654 13.0475C10.8771 13.0475 10.8876 13.2389 10.8878 13.2417C10.9355 13.4857 10.6533 13.7298 10.6504 13.7324L10.6387 13.7426L10.6549 13.7434C10.6645 13.7445 10.674 13.7447 10.6841 13.7447C11.0519 13.7447 11.2103 13.2769 11.2121 13.2717C11.2633 13.0654 11.2543 12.9071 11.1849 12.8027Z" fill="#008BEA"/>
<path d="M3.72616 3.49568C3.72616 3.49568 4.16267 3.47663 4.25056 3.69314C4.33845 3.90968 3.75327 3.8107 3.74317 3.79161C3.73303 3.77249 3.79738 3.92569 3.39811 4.15516C3.39811 4.15516 2.67771 4.75367 2.82311 5.04341C2.82311 5.04341 2.97534 4.91607 3.10734 5.02132C3.10734 5.02132 3.32363 5.20584 3.31349 5.33622C3.31349 5.33622 4.21332 4.96037 4.5789 5.32022C4.5789 5.32022 3.58763 5.71204 3.2256 6.38075C3.2256 6.38075 2.81502 8.06028 3.02268 8.53989C3.02268 8.53989 4.19983 7.70802 4.93491 8.66719C4.93491 8.66719 3.78037 8.1922 3.60459 9.15592C3.42849 10.1196 2.70685 10.4383 2.3821 10.3025C2.05732 10.1662 1.82736 9.52104 2.56715 9.52104C2.56715 9.52104 2.47681 8.52304 2.42705 8.28975C2.37764 8.05578 2.43176 6.97769 2.53554 6.72686C2.53554 6.72686 2.29632 6.76947 2.26021 6.7017C2.22415 6.63381 2.17924 6.36167 2.29185 6.33196C2.29185 6.33196 2.35048 6.2725 2.27396 6.2725C2.27396 6.2725 1.98521 6.277 1.94918 6.09025C1.91317 5.90342 1.93551 5.08386 2.34162 4.50208C2.7474 3.92041 2.97743 3.89909 2.97743 3.89909C2.97743 3.89909 2.76118 3.35157 2.95961 3.25394C2.95961 3.25394 3.42403 2.96497 3.72616 3.49568Z" fill="#008BEA"/>
<path d="M2.14767 7.01973C2.14767 7.01973 1.75525 7.00742 1.84552 7.49988C1.93552 7.99242 2.10234 8.00081 2.10234 8.00081C2.10234 8.00081 1.87714 7.49153 2.03941 7.47402C2.2019 7.45732 2.4587 7.16451 2.14767 7.01973Z" fill="#008BEA"/>
<path d="M3.93661 9.00263C3.93661 9.00263 4.36506 8.73114 4.65824 9.00263C4.95147 9.2747 4.27926 9.5081 4.04478 9.35101C4.04478 9.35101 4.00876 10.6463 5.17699 12.3786C5.17699 12.3786 5.79938 11.8395 5.9662 11.7205C6.13307 11.6016 7.03976 11.3677 6.8547 12.018C6.8547 12.018 6.59753 12.4083 6.28203 11.9494C6.28203 11.9494 6.00667 11.8221 5.59167 12.4038C5.59167 12.4038 5.48355 13.4231 5.43396 13.8477C5.43396 13.8477 5.43408 13.0366 4.98303 12.5272C4.98303 12.5272 4.55907 11.9494 4.37847 11.8518L4.01318 12.3276C4.01318 12.3276 4.20719 11.0917 3.76496 10.6334C3.76496 10.6334 3.36807 10.8454 3.59809 11.1175C3.59809 11.1175 3.89127 11.2091 3.78761 11.3647C3.68394 11.5208 3.37902 11.4316 3.41647 11.1983C3.45395 10.9644 2.89919 10.9734 2.86309 11.2915C2.82691 11.6101 3.14258 11.8731 3.29154 11.886C3.29154 11.886 2.51567 11.8647 2.52904 11.3851C2.54279 10.9049 3.24355 10.6884 3.41647 10.5313C3.58918 10.3743 3.3276 10.4466 3.3276 10.4466C3.3276 10.4466 3.13363 10.4169 3.09312 10.4679C3.05232 10.519 3.05698 10.2003 3.50333 10.2599C3.50333 10.2599 3.4089 9.27863 3.93661 9.00263Z" fill="#008BEA"/>
<path d="M9.24775 3.99996C9.18243 3.87382 9.05333 3.82625 9.01597 3.81505V3.34137L9.01188 3.33783C8.94872 3.27838 8.88634 3.24763 8.82605 3.24763C8.7223 3.24763 8.66482 3.33618 8.66229 3.33979L8.66045 4.05114C8.57006 4.13688 8.52236 4.19965 8.50224 4.22905C8.48217 4.19965 8.43422 4.13688 8.34384 4.05114V3.34672L8.342 3.33979C8.33951 3.33618 8.28199 3.24763 8.17824 3.24763C8.11798 3.24763 8.0556 3.27838 7.99236 3.33783L7.98836 3.34137V3.81505C7.95095 3.82625 7.82186 3.87382 7.75641 3.99996C7.69689 4.1151 7.70768 4.26122 7.79038 4.43785C7.79349 4.44078 8.10556 4.7439 8.48859 4.79155V4.79486L8.50224 4.79366L8.51574 4.79486V4.79155C8.89885 4.7439 9.21072 4.4407 9.21644 4.43431C9.2966 4.26122 9.30739 4.1151 9.24775 3.99996Z" fill="#008BEA"/>
<path d="M7.50148 5.04798C7.50148 5.04798 6.7624 4.63999 6.61298 4.56972C6.46361 4.49945 6.32168 4.51334 6.38153 4.75212C6.44129 4.9916 6.57566 5.93346 7.27003 5.61702C7.27003 5.61702 7.80758 5.4552 7.9422 5.36373C7.9422 5.36373 7.99436 5.38485 7.98696 5.57465C7.98696 5.57465 7.44932 7.00193 7.45672 7.43043C7.45672 7.43043 8.15877 8.28801 8.31563 8.64682C8.4724 9.00506 8.12889 10.2214 7.02377 9.77836C7.02377 9.77836 5.44062 8.52018 6.18748 7.45163C6.18748 7.45163 6.47866 7.08613 6.82192 6.95278C6.82192 6.95278 7.16558 6.17217 6.59046 6.04552C6.01554 5.91945 5.33638 5.43507 5.70948 4.79484C6.08287 4.15522 6.2622 3.951 6.2622 3.951C6.2622 3.951 6.51622 3.71937 6.87449 4.02119C7.23275 4.32366 7.91232 4.85099 7.91232 4.85099C7.91232 4.85099 8.04689 5.1535 7.88239 5.21649C7.71822 5.27956 7.50148 5.04798 7.50148 5.04798Z" fill="#008BEA"/>
<path d="M8.457 5.27667L7.8356 6.36103C7.8356 6.36103 7.49357 6.9826 8.07633 7.00026C8.65943 7.01862 9.45902 7.13684 9.23746 6.51993L8.60167 5.27667C8.60167 5.27667 8.95817 6.49691 8.79907 6.54713H8.22566C8.22566 6.54713 7.98967 6.56945 8.457 5.27667Z" fill="#008BEA"/>
<path d="M7.70348 7.48665C7.54879 7.20472 7.83453 7.09432 7.83453 7.09432H9.19715C9.19715 7.09432 9.50157 7.19999 9.27555 7.48665C9.0618 7.75729 8.50564 8.56181 8.50564 8.56181L7.70348 7.48665Z" fill="#008BEA"/>
<path d="M9.76017 10.2986C9.72473 10.1889 9.64248 10.1328 9.51105 10.1328C9.51097 10.1328 9.51073 10.1328 9.51073 10.1328H8.9058L8.48737 9.48532V9.46419L8.48074 9.47474L8.474 9.46419V9.48532L8.05556 10.1328H7.44622C7.31893 10.1328 7.23664 10.1889 7.20116 10.2986C7.14168 10.4845 7.23713 10.7579 7.24976 10.7658C7.26382 10.777 7.51989 11.093 7.68847 11.3022C7.79848 11.44 7.80428 11.9063 7.80432 11.9111L7.80444 11.9241L7.8154 11.9162C7.90035 11.854 8.02396 11.5935 8.02396 11.5759C8.02396 11.5626 8.02478 11.5157 8.03819 11.4699C8.05973 11.3959 8.10069 11.365 8.16066 11.3798C8.30022 11.4134 8.47249 12.0998 8.47412 12.1063L8.48074 12.1058L8.48724 12.1063C8.48888 12.0998 8.66118 11.4134 8.8007 11.3798C8.86059 11.3649 8.90188 11.3959 8.92326 11.4699C8.93662 11.5157 8.93732 11.5626 8.93732 11.5759C8.93732 11.5935 9.06102 11.854 9.14625 11.9162L9.15688 11.9241L9.15696 11.9111C9.15704 11.9063 9.16289 11.44 9.27281 11.3022C9.44144 11.093 9.6975 10.777 9.71132 10.7661C9.72424 10.7579 9.81965 10.4845 9.76017 10.2986Z" fill="#008BEA"/>
<path d="M9.49319 5.04798C9.49319 5.04798 10.2326 4.63999 10.382 4.56972C10.5313 4.49938 10.6729 4.51334 10.613 4.75213C10.5531 4.99153 10.4193 5.93339 9.72464 5.61702C9.72464 5.61702 9.187 5.4552 9.05268 5.36365C9.05268 5.36365 9.00023 5.38486 9.00775 5.57458C9.00775 5.57458 9.54555 7.00193 9.53791 7.43043C9.53791 7.43043 8.8361 8.28794 8.67937 8.64683C8.5226 9.00498 8.86606 10.2215 9.97118 9.77837C9.97118 9.77837 11.5543 8.52018 10.8074 7.45164C10.8074 7.45164 10.5159 7.08613 10.1727 6.95279C10.1727 6.95279 9.82921 6.17217 10.4038 6.04545C10.9787 5.91946 11.6585 5.435 11.2851 4.79477C10.9117 4.15523 10.7327 3.951 10.7327 3.951C10.7327 3.951 10.4784 3.71937 10.1203 4.02119C9.76184 4.32366 9.08231 4.85099 9.08231 4.85099C9.08231 4.85099 8.94811 5.1535 9.11224 5.2165C9.27641 5.27949 9.49319 5.04798 9.49319 5.04798Z" fill="#008BEA"/>
</svg>
