<svg width="24" height="24" viewBox="0 0 24 24" fill="none" xmlns="http://www.w3.org/2000/svg">
<path fill-rule="evenodd" clip-rule="evenodd" d="M16.5429 17.4571L11 11.9142V4C11 3.44772 11.4477 3 12 3C12.5523 3 13 3.44772 13 4V11.0858L17.9571 16.0429L20.1464 13.8536C20.4614 13.5386 21 13.7617 21 14.2071V19.5C21 19.7761 20.7761 20 20.5 20H15.2071C14.7617 20 14.5386 19.4614 14.8536 19.1464L16.5429 17.4571Z" fill="#F9F9F9"/>
<path opacity="0.3" fill-rule="evenodd" clip-rule="evenodd" d="M8.85418 13.1631L10.1461 14.6899L7.24491 17.1447L9.24657 19.1463C9.56155 19.4613 9.33847 19.9999 8.89301 19.9999H3.52905C3.25291 19.9999 3.02905 19.776 3.02905 19.4999V14.1359C3.02905 13.6905 3.56762 13.4674 3.88261 13.7824L5.82579 15.7256L8.85418 13.1631Z" fill="#F9F9F9"/>
</svg>
