<svg width="24" height="24" viewBox="0 0 24 24" fill="none" xmlns="http://www.w3.org/2000/svg">
<g opacity="0.3">
<path d="M5.58325 7.41667C5.58325 9.44172 7.22488 11.0833 9.24992 11.0833C11.275 11.0833 12.9166 9.44172 12.9166 7.41667C12.9166 5.39162 11.275 3.75 9.24992 3.75C7.22488 3.75 5.58325 5.39162 5.58325 7.41667Z" fill="#ECEFF1"/>
<path d="M14.7499 11.0833C14.7499 12.6021 15.9812 13.8333 17.4999 13.8333C19.0187 13.8333 20.2499 12.6021 20.2499 11.0833C20.2499 9.56451 19.0187 8.33329 17.4999 8.33329C15.9812 8.33329 14.7499 9.56451 14.7499 11.0833Z" fill="#ECEFF1"/>
</g>
<path d="M9.23474 12.9165C4.90676 12.9165 1.3559 15.1408 1.0006 19.5158C0.981243 19.7541 1.43699 20.2498 1.66688 20.2498H16.8095C17.4981 20.2498 17.5088 19.6957 17.4981 19.5165C17.2295 15.0186 13.6236 12.9165 9.23474 12.9165Z" fill="#ECEFF1"/>
<path d="M22.5013 20.2498H18.9666C18.9666 18.1865 18.2849 16.2823 17.1344 14.7504C20.2571 14.7845 22.8067 16.3633 22.9986 19.6998C23.0063 19.8342 22.9986 20.2498 22.5013 20.2498Z" fill="#ECEFF1"/>
</svg>
