<svg width="20" height="20" viewBox="0 0 20 20" fill="none" xmlns="http://www.w3.org/2000/svg">
<path fill-rule="evenodd" clip-rule="evenodd" d="M3.4571 6.91487C2.86259 7.27818 2.5 7.9247 2.5 8.62144V15.4998C2.5 16.6043 3.39543 17.4998 4.5 17.4998H15.5C16.6046 17.4998 17.5 16.6043 17.5 15.4998V8.62144C17.5 7.9247 17.1374 7.27818 16.5429 6.91487L10.5214 3.2351C10.2013 3.03947 9.79866 3.03947 9.47855 3.2351L3.4571 6.91487ZM8.5 10.8331C7.94772 10.8331 7.5 11.2808 7.5 11.8331V13.9998C7.5 14.5521 7.94772 14.9998 8.5 14.9998H11.5C12.0523 14.9998 12.5 14.5521 12.5 13.9998V11.8331C12.5 11.2808 12.0523 10.8331 11.5 10.8331H8.5Z" fill="white"/>
</svg>
