<svg width="20" height="20" viewBox="0 0 20 20" fill="none" xmlns="http://www.w3.org/2000/svg">
<path d="M4.45873 16.2939C4.53614 16.3333 4.70632 16.3995 5.18735 16.4388C5.68999 16.4799 6.3516 16.4813 7.38225 16.4813H12.6203C13.651 16.4813 14.3126 16.4799 14.8153 16.4388C15.2963 16.3995 15.4665 16.3333 15.5439 16.2939C15.8674 16.129 16.1305 15.866 16.2954 15.5424C16.3348 15.465 16.401 15.2948 16.4403 14.8138C16.4813 14.3112 16.4828 13.6495 16.4828 12.6189V7.38079C16.4828 6.35014 16.4813 5.68852 16.4403 5.18588C16.401 4.70486 16.3348 4.53468 16.2954 4.45726L17.9454 3.61654C18.3346 4.38051 18.3346 5.3806 18.3346 7.38079V12.6189C18.3346 14.6191 18.3346 15.6192 17.9454 16.3831C17.603 17.0551 17.0566 17.6015 16.3846 17.9439C15.6206 18.3332 14.6205 18.3332 12.6203 18.3332H7.38225C5.38207 18.3332 4.38197 18.3332 3.618 17.9439L4.45873 16.2939Z" fill="#B2BEC7"/>
<path d="M3.618 17.9439C2.946 17.6015 2.39964 17.0551 2.05723 16.3831C1.66797 15.6192 1.66797 14.6191 1.66797 12.6189V7.38079C1.66797 5.3806 1.66797 4.38051 2.05723 3.61654C2.39964 2.94453 2.946 2.39817 3.618 2.05577C4.38197 1.6665 5.38207 1.6665 7.38225 1.6665H12.6203C14.6205 1.6665 15.6206 1.6665 16.3846 2.05577C17.0566 2.39817 17.603 2.94453 17.9454 3.61654L16.2954 4.45726C16.1305 4.1337 15.8674 3.87064 15.5439 3.70578C15.4665 3.66633 15.2963 3.60016 14.8153 3.56086C14.3126 3.5198 13.651 3.51836 12.6203 3.51836H7.38225C6.3516 3.51836 5.68999 3.5198 5.18735 3.56086C4.70632 3.60016 4.53614 3.66633 4.45873 3.70578C4.13517 3.87064 3.8721 4.1337 3.70724 4.45726C3.6678 4.53468 3.60163 4.70486 3.56233 5.18588C3.52126 5.68852 3.51982 6.35014 3.51982 7.38079V12.6189C3.51982 13.6495 3.52126 14.3112 3.56233 14.8138C3.60163 15.2948 3.6678 15.465 3.70724 15.5424C3.8721 15.866 4.13517 16.129 4.45873 16.2939L3.618 17.9439Z" fill="#B2BEC7"/>
<path fill-rule="evenodd" clip-rule="evenodd" d="M5.53703 9.99984C5.53703 7.53428 7.53576 5.53555 10.0013 5.53555C12.4669 5.53555 14.4656 7.53428 14.4656 9.99984C14.4656 12.4654 12.4669 14.4641 10.0013 14.4641C7.53576 14.4641 5.53703 12.4654 5.53703 9.99984ZM10.0013 7.38741C8.55851 7.38741 7.38888 8.55703 7.38888 9.99984C7.38888 11.4426 8.55851 12.6123 10.0013 12.6123C11.4441 12.6123 12.6138 11.4426 12.6138 9.99984C12.6138 8.55703 11.4441 7.38741 10.0013 7.38741Z" fill="#B2BEC7"/>
<path d="M14.6309 6.29613C15.1423 6.29613 15.5569 5.88158 15.5569 5.37021C15.5569 4.85883 15.1423 4.44428 14.6309 4.44428C14.1196 4.44428 13.705 4.85883 13.705 5.37021C13.705 5.88158 14.1196 6.29613 14.6309 6.29613Z" fill="#B2BEC7"/>
</svg>
