<svg width="56" height="56" viewBox="0 0 56 56" fill="none" xmlns="http://www.w3.org/2000/svg">
<g opacity="0.3">
<path opacity="0.3" d="M44.0987 53.6666C33.3654 53.6666 22.8654 53.6666 12.3654 53.6666C12.3654 53.6666 12.132 53.6666 12.132 53.4332C10.2654 47.3666 8.16537 41.2999 6.2987 35.2333C5.13203 31.0333 3.73203 26.8333 2.33203 22.3999C2.33203 22.1666 2.33203 22.1666 2.56536 21.9333C7.93203 17.7333 13.2987 13.7666 18.6654 9.56658C21.6987 7.23325 24.9654 4.89992 27.9987 2.33325C28.232 2.33325 28.232 2.33325 28.4654 2.33325C28.932 2.56659 29.1654 2.79992 29.632 3.26659C35.6987 7.93325 41.7654 12.3666 47.832 17.0333C49.6987 18.4333 51.5654 19.8333 53.432 21.2333V21.4666C51.332 28.9333 48.9987 36.1666 46.8987 43.6333C46.1987 46.8999 45.032 50.1666 44.0987 53.6666ZM27.9987 50.1666C29.3987 50.1666 30.7987 50.1666 31.9654 50.1666C34.9987 50.1666 38.2654 50.1666 41.2987 50.3999C41.2987 50.3999 41.532 50.3999 41.532 50.1666C43.8654 42.4666 46.1987 34.9999 48.532 27.2999C48.9987 25.8999 49.4654 24.4999 49.6987 23.3333V23.0999C42.4654 17.7333 35.232 12.3666 28.232 6.99992H27.9987C27.0654 7.69992 25.8987 8.39992 24.9654 9.09992C23.0987 10.4999 21.232 11.8999 19.132 13.2999C14.6987 16.5666 10.4987 19.8333 6.06536 23.3333C6.06536 23.3333 6.06536 23.3333 6.06536 23.5666C6.76536 25.6666 7.46536 27.7666 8.16536 29.8666C10.2654 36.6333 12.3654 43.1666 14.4654 49.9332C14.4654 50.1666 14.4654 50.1666 14.6987 50.1666C16.5654 50.1666 18.432 50.1666 20.2987 50.1666C22.8654 50.1666 25.432 50.1666 27.9987 50.1666Z" fill="#B2BEC7"/>
</g>
<path d="M43.1654 39.6667C45.4987 38.9667 47.3654 37.5667 49.232 36.1667C51.0987 34.5333 52.4987 32.9 53.6654 30.5667C53.6654 30.8 53.6654 30.8 53.6654 31.0333C53.432 31.9667 53.1987 32.9 52.732 33.8333C50.8654 38.0333 48.0654 41.3 44.332 43.8667C41.532 45.7333 38.4987 46.9 35.232 47.6C32.1987 48.0667 29.1654 48.0667 26.132 47.1333C25.8987 47.1333 25.8987 47.1333 25.6654 47.1333C25.8987 47.3667 25.8987 47.3667 26.132 47.6C27.0654 48.5333 28.4654 49.2333 29.632 49.7C31.4987 50.4 33.3654 51.1 35.232 51.3333C36.632 51.5667 37.7987 51.5667 39.1987 51.5667H39.432C39.1987 51.5667 39.1987 51.5667 39.1987 51.8C38.2654 52.2667 37.332 52.5 36.1654 52.7333C32.432 53.2 28.6987 52.7333 25.1987 51.3333C19.832 49.2333 15.632 45.7333 12.5987 40.6C11.6654 38.9667 10.9654 37.3333 10.4987 35.4667C10.4987 35.4667 10.4987 35.2333 10.2654 35.2333C10.2654 35.4667 10.2654 35.7 10.032 35.9333C9.7987 37.8 9.7987 39.6667 10.032 41.5333C10.2654 43.6333 10.9654 45.5 11.8987 47.1333C12.3654 47.8333 12.832 48.5333 13.0654 49.2333L12.832 49C11.6654 48.3 10.732 47.3667 10.032 46.2C7.93203 43.6333 6.76536 40.8333 6.06536 37.8C5.5987 35.9333 5.5987 34.0667 5.5987 32.2C5.83203 28.4667 6.53203 25.2 8.3987 21.9333C9.56536 19.8333 10.732 17.9667 12.3654 16.3333C12.5987 16.3333 12.832 16.3333 12.832 16.3333H12.5987C11.432 16.8 10.4987 17.2667 9.56536 17.9667C7.23203 19.6 5.13203 21.4667 3.4987 23.8C3.4987 24.0333 3.26536 24.0333 3.03203 24.2667C2.7987 24.7333 2.56536 25.2 2.33203 25.6667C2.33203 25.6667 2.33203 25.6667 2.33203 25.9C2.33203 25.6667 2.33203 25.2 2.56536 24.9667C2.56536 24.5 2.7987 24.0333 2.7987 23.8C3.03203 22.6333 3.73203 21.4667 4.1987 20.3C6.06536 17.0333 8.63203 14.4667 11.432 12.3667C13.7654 10.7333 16.332 9.80001 19.132 9.10001C21.6987 8.63334 24.032 8.40001 26.5987 8.63334C27.7654 8.63334 28.932 8.86668 30.0987 9.10001H30.332L30.0987 8.86668C28.6987 7.70001 27.2987 7.00001 25.6654 6.30001C24.9654 6.06668 24.2654 5.83334 23.5654 5.36668C21.932 4.66668 20.532 4.43334 18.8987 4.43334C18.1987 4.43334 17.4987 4.43334 16.7987 4.43334C16.7987 4.43334 16.7987 4.43334 17.032 4.43334C18.1987 3.96668 19.5987 3.73334 20.9987 3.73334C22.3987 3.73334 24.032 3.50001 25.432 3.73334C29.1654 4.20001 32.6654 5.13334 35.932 7.46668C39.6654 9.80001 42.4654 13.3 44.332 17.5C44.7987 18.4333 45.032 19.3667 45.2654 20.3V20.5333V20.3C45.4987 18.6667 45.4987 17.0333 45.4987 15.4C45.2654 13.3 44.7987 10.9667 43.8654 9.10001C43.3987 8.16668 43.1654 7.23334 42.6987 6.53334L42.932 6.76668C44.5654 8.40001 45.732 10.0333 46.8987 11.9C48.0654 14.2333 48.9987 16.3333 49.4654 18.9C49.932 20.7667 49.932 22.6333 49.932 24.5C49.6987 28.9333 48.2987 33.1333 45.732 36.8667C45.032 37.8 44.332 38.5 43.632 39.4333C43.3987 39.4333 43.1654 39.4333 43.1654 39.6667C43.1654 39.4333 43.1654 39.4333 43.1654 39.6667ZM18.6654 20.7667C18.432 21.2333 17.9654 21.7 17.732 22.1667C14.932 25.4333 14.232 29.1667 14.932 33.3667C15.3987 35.7 16.332 37.8 17.732 39.9C17.732 39.9 17.732 39.9 17.732 40.1333V39.9C17.4987 38.9667 17.2654 38.2667 17.032 37.3333C16.7987 36.1667 16.5654 34.7667 16.7987 33.6C16.7987 33.1333 16.7987 32.9 17.032 32.4333C17.032 32.4333 17.032 32.4333 17.2654 32.6667C17.9654 34.0667 18.6654 35.4667 19.5987 36.6333C21.232 38.7333 23.0987 40.6 25.432 41.7667C27.9987 42.9333 30.5654 43.6333 33.132 43.1667C33.3654 43.1667 33.3654 43.1667 33.5987 43.1667C33.832 43.1667 33.832 43.1667 34.0654 43.1667C32.6654 42.9333 31.2654 42.7 29.8654 42.2333C28.932 41.7667 27.9987 41.5333 27.2987 40.8333C26.832 40.6 26.5987 40.3667 26.3654 39.9C28.6987 40.6 31.2654 40.6 33.5987 40.1333C35.932 39.6667 38.032 38.5 39.8987 36.8667C41.532 35.2333 43.632 31.9667 43.8654 30.8C43.632 31.0333 43.632 31.0333 43.3987 31.2667C42.6987 32.2 41.7654 33.1333 40.832 33.8333C39.8987 34.5333 38.9654 35.2333 38.032 35.7C37.7987 35.7 37.5654 35.9333 37.332 35.9333C37.332 35.9333 37.332 35.9333 37.332 35.7C37.7987 35.2333 38.2654 34.7667 38.4987 34.5333C39.432 33.3667 40.3654 32.2 40.832 30.8C41.9987 28.2333 42.232 25.6667 41.7654 22.8667C41.2987 20.3 40.132 17.9667 38.4987 16.1L38.2654 15.8667C38.2654 16.1 38.2654 16.1 38.2654 16.1C38.4987 16.8 38.9654 17.7333 39.1987 18.4333C39.432 19.3667 39.6654 20.3 39.6654 21.2333C39.6654 21.9333 39.6654 22.8667 39.6654 23.5667C39.6654 23.8 39.6654 23.8 39.6654 24.0333L39.432 23.8C39.1987 22.8667 38.732 22.1667 38.4987 21.4667C36.1654 17.0333 31.2654 13.5333 26.5987 13.0667C25.432 13.0667 24.032 13.0667 22.8654 13.3H22.632C23.0987 13.3 23.5654 13.3 24.032 13.3C26.3654 13.5333 28.232 14.4667 30.0987 16.1C30.332 16.3333 30.332 16.3333 30.5654 16.5667C29.3987 16.3333 29.1654 16.3333 28.6987 16.3333C27.9987 16.3333 27.2987 16.1 26.5987 16.1C24.032 15.8667 21.6987 16.3333 19.3654 17.5C16.0987 19.3667 13.7654 22.1667 12.3654 25.6667C12.3654 25.6667 12.3654 25.6667 12.3654 25.9L12.5987 25.6667C13.532 24.2667 14.6987 22.8667 16.332 21.9333C16.5654 21.4667 17.2654 21 17.9654 20.7667C18.1987 20.7667 18.432 20.7667 18.6654 20.7667Z" fill="#B2BEC7"/>
<path d="M29.1648 20.3C27.5315 19.1333 25.6648 18.6667 23.7982 18.6667C23.7982 18.6667 23.7982 18.6667 24.0315 18.6667C24.4982 18.6667 24.9648 18.4333 25.4315 18.4333C26.1315 18.4333 26.8315 18.4333 27.5315 18.4333C28.6982 18.6667 30.0982 18.9 31.2648 19.6C33.3648 20.7667 34.7648 22.6333 35.4648 24.9667V25.2C35.6982 24.7333 35.6982 23.3333 35.4648 22.4C35.2315 21.4667 34.9982 20.5333 34.2982 19.6C34.9982 20.3 35.6982 21.2333 36.1648 22.4C36.6315 23.5667 36.8648 24.7333 37.0982 25.9C37.0982 27.3 36.8648 28.7 36.3982 30.1C35.9315 31.0333 35.4648 31.7333 34.7648 32.4333L34.5315 32.6667C35.4648 32.4333 36.1648 31.9667 37.0982 31.2667C37.7982 30.5667 38.4982 29.8667 38.7315 28.9333C38.4982 30.5667 37.5648 31.9667 36.3982 33.1333C35.2315 34.3 33.8315 35.2333 32.1982 35.7C30.5648 36.1667 28.9315 36.1667 27.2982 35.7L27.5315 35.9333C28.2315 36.6333 29.1648 36.8667 30.0982 37.1C30.7982 37.3333 31.7315 37.3333 32.4315 37.3333H32.6648C32.1982 37.3333 31.7315 37.5667 31.2648 37.5667C30.7982 37.5667 30.3315 37.5667 29.8648 37.5667C27.2982 37.3333 25.1982 36.4 23.3315 34.5333C22.3982 33.6 21.6982 32.2 21.2315 31.0333C21.2315 31.0333 21.2315 31.0333 21.2315 30.8C20.9982 31.2667 20.9982 32.6667 21.2315 33.6C21.4648 34.5333 21.9315 35.4667 22.3982 36.1667C22.3982 36.1667 22.1648 36.1667 22.1648 35.9333C21.2315 35.2333 20.7648 34.5333 20.2982 33.6C19.8315 32.6667 19.5982 31.5 19.3648 30.3333C19.1315 27.5333 20.0648 25.2 21.9315 23.1C21.9315 23.1 21.9315 22.8667 22.1648 22.8667C21.6982 22.8667 20.5315 23.5667 19.8315 24.5C19.1315 25.2 18.4315 25.9 17.9648 26.8333V26.6C17.9648 26.1333 18.1982 25.6667 18.4315 25.4333C19.1315 23.8 20.2982 22.4 21.6982 21.4667C23.0982 20.5333 24.4982 20.0667 26.1315 19.8333C26.8315 20.0667 27.9982 20.3 29.1648 20.3C29.1648 20.5333 28.9315 20.5333 29.1648 20.3ZM24.7315 25.2C23.7982 26.1333 23.0982 27.3 23.0982 28.9333C23.0982 30.3333 23.5648 31.7333 24.2648 32.6667V32.4333C24.2648 31.9667 24.0315 31.5 24.0315 31.0333C24.0315 30.5667 24.0315 30.3333 24.0315 29.8667C24.0315 29.8667 24.0315 29.6333 24.2648 29.6333C24.2648 29.8667 24.2648 29.8667 24.4982 30.1C25.4315 32.2 27.0648 33.6 29.3982 34.0667C29.8648 34.0667 30.3315 34.0667 30.7982 34.0667C30.3315 34.0667 29.6315 33.8333 29.1648 33.6C28.6982 33.3667 28.2315 33.1333 27.7648 32.6667C28.2315 32.9 28.9315 32.9 29.3982 32.9C29.8648 32.9 30.5648 32.9 31.0315 32.6667C31.4982 32.4333 31.9648 32.2 32.4315 31.9667C32.8982 31.7333 33.3648 31.2667 33.5982 30.8C33.8315 30.3333 34.2982 29.8667 34.2982 29.4C34.0648 29.6333 34.0648 29.6333 33.8315 29.8667C33.3648 30.5667 32.6648 31.0333 31.9648 31.2667C31.9648 31.2667 31.7315 31.5 31.4982 31.2667L31.7315 31.0333C32.1982 30.5667 32.6648 30.1 32.8982 29.6333C33.3648 28.7 33.5982 27.5333 33.3648 26.3667C33.1315 25.2 32.8982 24.2667 32.1982 23.5667C32.1982 23.5667 32.1982 23.5667 31.9648 23.3333C32.1982 23.8 32.4315 24.5 32.4315 24.9667C32.4315 25.4333 32.6648 26.1333 32.4315 26.6C32.1982 26.6 32.1982 26.3667 32.1982 26.3667C31.9648 26.1333 31.9648 25.6667 31.7315 25.4333C31.0315 24.0333 29.8648 23.1 28.4648 22.4C27.5315 22.1667 26.8315 21.9333 25.8982 22.1667H25.6648C26.8315 22.1667 27.7648 22.6333 28.6982 23.5667C27.9982 23.3333 27.2982 23.3333 26.5982 23.3333C25.8982 23.3333 25.1982 23.5667 24.4982 24.0333C23.7982 24.2667 23.3315 24.7333 22.8648 25.4333C22.3982 25.9 21.9315 26.8333 21.6982 27.3C23.3315 25.6667 24.0315 25.2 24.7315 25.2Z" fill="#B2BEC7"/>
</svg>
