<svg width="24" height="24" viewBox="0 0 24 24" fill="none" xmlns="http://www.w3.org/2000/svg">
<path fill-rule="evenodd" clip-rule="evenodd" d="M9 9V18L10.1526 18.3842C11.3762 18.7921 12.6575 19 13.9473 19H17.5406C18.9706 19 20.2019 17.9906 20.4823 16.5883L21.2315 12.8424C21.6189 10.9054 20.0611 9.12926 18.0902 9.26065L14.5 9.5L14.821 5.9694C14.9171 4.91183 14.0844 4 13.0225 4C12.3881 4 11.8003 4.33282 11.4739 4.87677L9 9Z" fill="white"/>
<path opacity="0.3" d="M2 9C2 8.44771 2.44772 8 3 8H6C6.55228 8 7 8.44772 7 9V18C7 18.5523 6.55228 19 6 19H3C2.44772 19 2 18.5523 2 18V9Z" fill="white"/>
</svg>
