<svg width="20" height="20" viewBox="0 0 20 20" fill="none" xmlns="http://www.w3.org/2000/svg">
<path fill-rule="evenodd" clip-rule="evenodd" d="M7.5 7.49967V14.9997L8.4605 15.3198C9.48016 15.6597 10.548 15.833 11.6228 15.833H14.6172C15.8089 15.833 16.8349 14.9919 17.0686 13.8233L17.6929 10.7016C18.0158 9.08754 16.7176 7.60739 15.0752 7.71688L12.0833 7.91634L12.3508 4.97417C12.4309 4.09287 11.737 3.33301 10.8521 3.33301C10.3234 3.33301 9.83359 3.61036 9.56161 4.06365L7.5 7.49967Z" fill="#B2BEC7"/>
<path opacity="0.3" d="M1.66602 7.50033C1.66602 7.04009 2.03911 6.66699 2.49935 6.66699H4.99935C5.45959 6.66699 5.83268 7.04009 5.83268 7.50033V15.0003C5.83268 15.4606 5.45959 15.8337 4.99935 15.8337H2.49935C2.03911 15.8337 1.66602 15.4606 1.66602 15.0003V7.50033Z" fill="#B2BEC7"/>
</svg>
