<svg width="20" height="20" viewBox="0 0 20 20" fill="none" xmlns="http://www.w3.org/2000/svg">
<path fill-rule="evenodd" clip-rule="evenodd" d="M4.5 5C3.39543 5 2.5 5.89543 2.5 7V13.8333C2.5 14.9379 3.39543 15.8333 4.5 15.8333H15.5C16.6046 15.8333 17.5 14.9379 17.5 13.8333V7C17.5 5.89543 16.6046 5 15.5 5H4.5ZM15.967 6.78702C15.8033 6.4831 15.4243 6.36939 15.1204 6.53304L10 9.29015L4.87965 6.53304C4.57573 6.36939 4.19669 6.4831 4.03304 6.78702C3.86939 7.09094 3.9831 7.46998 4.28702 7.63363L9.70369 10.5503C9.88867 10.6499 10.1113 10.6499 10.2963 10.5503L15.713 7.63363C16.0169 7.46998 16.1306 7.09094 15.967 6.78702Z" fill="#B2BEC7"/>
</svg>
