<svg width="24" height="24" viewBox="0 0 24 24" fill="none" xmlns="http://www.w3.org/2000/svg">
<rect x="2" y="3" width="20" height="4" rx="2" fill="white"/>
<path opacity="0.3" fill-rule="evenodd" clip-rule="evenodd" d="M3.5 9.625C2.67157 9.625 2 10.2966 2 11.125V11.875C2 12.7034 2.67157 13.375 3.5 13.375H13C13.8284 13.375 14.5 12.7034 14.5 11.875V11.125C14.5 10.2966 13.8284 9.625 13 9.625H3.5ZM3.5 15.875C2.67157 15.875 2 16.5466 2 17.375V18.125C2 18.9534 2.67157 19.625 3.5 19.625H20.5C21.3284 19.625 22 18.9534 22 18.125V17.375C22 16.5466 21.3284 15.875 20.5 15.875H3.5Z" fill="white"/>
</svg>
