<svg width="56" height="56" viewBox="0 0 56 56" fill="none" xmlns="http://www.w3.org/2000/svg">
<g opacity="0.3">
<path opacity="0.3" d="M44.0987 53.6666C33.3654 53.6666 22.8654 53.6666 12.3654 53.6666C12.3654 53.6666 12.132 53.6666 12.132 53.4332C10.2654 47.3666 8.16537 41.2999 6.2987 35.2333C5.13203 31.0333 3.73203 26.8333 2.33203 22.3999C2.33203 22.1666 2.33203 22.1666 2.56536 21.9333C7.93203 17.7333 13.2987 13.7666 18.6654 9.56658C21.6987 7.23325 24.9654 4.89992 27.9987 2.33325C28.232 2.33325 28.232 2.33325 28.4654 2.33325C28.932 2.56659 29.1654 2.79992 29.632 3.26659C35.6987 7.93325 41.7654 12.3666 47.832 17.0333C49.6987 18.4333 51.5654 19.8333 53.432 21.2333V21.4666C51.332 28.9333 48.9987 36.1666 46.8987 43.6333C46.1987 46.8999 45.032 50.1666 44.0987 53.6666ZM27.9987 50.1666C29.3987 50.1666 30.7987 50.1666 31.9654 50.1666C34.9987 50.1666 38.2654 50.1666 41.2987 50.3999C41.2987 50.3999 41.532 50.3999 41.532 50.1666C43.8654 42.4666 46.1987 34.9999 48.532 27.2999C48.9987 25.8999 49.4654 24.4999 49.6987 23.3333V23.0999C42.4654 17.7333 35.232 12.3666 28.232 6.99992H27.9987C27.0654 7.69992 25.8987 8.39992 24.9654 9.09992C23.0987 10.4999 21.232 11.8999 19.132 13.2999C14.6987 16.5666 10.4987 19.8333 6.06536 23.3333C6.06536 23.3333 6.06536 23.3333 6.06536 23.5666C6.76536 25.6666 7.46536 27.7666 8.16536 29.8666C10.2654 36.6333 12.3654 43.1666 14.4654 49.9332C14.4654 50.1666 14.4654 50.1666 14.6987 50.1666C16.5654 50.1666 18.432 50.1666 20.2987 50.1666C22.8654 50.1666 25.432 50.1666 27.9987 50.1666Z" fill="#B2BEC7"/>
</g>
<path d="M25.6653 5.60015C25.8986 5.60015 25.8986 5.60015 25.8986 5.60015C26.132 5.60015 26.132 5.83348 26.132 6.06681C25.432 6.76681 25.1986 7.70015 24.9653 8.63348C24.9653 8.86681 24.732 9.10015 24.9653 9.56681C24.9653 9.56681 24.9653 9.80015 24.732 9.80015C24.732 9.80015 24.732 9.80015 24.4986 9.80015C23.332 9.56681 22.3986 10.2668 22.1653 11.4335C22.1653 11.9001 22.1653 12.3668 22.3986 12.8335C22.632 13.0668 22.632 13.3001 22.3986 13.5335C22.632 13.5335 22.632 13.5335 22.8653 13.7668C22.8653 13.7668 23.0986 13.7668 23.0986 14.0001V14.2335L22.8653 14.4668C22.3986 14.9335 22.1653 15.6335 21.932 16.3335C21.932 16.5668 21.6986 16.8001 21.6986 16.8001C21.4653 16.8001 20.9986 17.0335 20.7653 17.2668C20.0653 17.7335 19.132 17.9668 18.432 17.9668H18.1986C17.9653 17.9668 17.732 17.9668 17.732 17.9668C17.4986 17.7335 17.032 17.5001 16.5653 17.5001C16.0986 17.5001 15.8653 17.5001 15.3986 17.7335C15.3986 18.4335 14.932 18.9001 14.4653 19.3668C15.1653 19.1335 15.8653 19.1335 16.332 19.1335C16.5653 19.1335 16.7986 19.1335 17.032 18.9001C17.2653 18.9001 17.4986 18.6668 17.4986 18.6668C18.1986 18.6668 18.432 18.6668 18.8986 18.4335C19.5986 18.2001 20.2986 18.2001 20.9986 18.2001C21.232 18.2001 21.4653 18.2001 21.6986 18.2001C21.932 18.2001 21.932 18.2001 22.1653 18.2001C22.1653 18.4335 21.932 18.6668 21.932 19.1335C22.3986 19.3668 22.8653 19.6001 23.332 20.0668C23.5653 20.0668 23.5653 19.8335 23.7986 19.8335C24.032 19.8335 24.2653 19.6001 24.2653 19.8335C24.4986 20.0668 24.4986 20.0668 24.4986 20.3001V20.5335C24.732 20.5335 24.732 20.5335 24.732 20.5335C24.9653 20.5335 25.1986 20.5335 25.432 20.7668C25.6653 20.7668 25.6653 21.0001 25.432 21.2335L25.1986 21.4668L24.9653 21.7001C24.9653 22.1668 25.1986 22.4001 25.432 22.8668L25.6653 23.1001C25.6653 23.3335 25.8986 23.3335 25.8986 23.5668V23.8001C26.132 23.5668 26.3653 23.5668 26.3653 24.0335C26.3653 24.2668 26.5986 24.2668 26.5986 24.5001C26.5986 24.5001 26.5986 24.5001 26.5986 24.2668C26.5986 24.0335 26.832 24.0335 27.0653 24.0335C27.532 24.0335 27.9986 24.0335 28.4653 24.2668C28.4653 24.2668 28.6986 24.2668 28.6986 24.5001C28.4653 24.5001 28.4653 24.7335 28.232 24.7335C27.7653 25.2001 27.7653 25.4335 27.9986 25.9001C28.232 26.6001 28.932 27.3001 29.632 27.5335C30.0986 27.7668 30.7986 28.0001 31.2653 28.2335C31.4986 28.4668 31.4986 28.2335 31.732 28.0001C32.1986 26.3668 32.8986 24.7335 34.2986 23.5668C34.532 23.3335 34.532 23.3335 34.7653 23.1001C34.7653 23.1001 34.7653 23.1001 34.9986 23.1001C34.9986 23.3335 35.232 23.5668 35.232 23.8001C35.4653 24.5001 35.6986 25.4335 35.932 26.3668C35.932 26.8335 35.932 27.0668 35.932 27.5335C35.932 27.7668 35.932 28.2335 35.932 28.4668V28.7001C36.1653 28.7001 36.3986 28.7001 36.632 28.4668C37.0986 28.4668 37.5653 28.2335 38.032 28.2335C38.732 28.2335 39.1986 28.2335 39.8986 28.2335C40.5986 28.2335 41.532 28.2335 42.232 28.4668C42.6986 28.7001 43.1653 28.7001 43.632 28.9335C44.0986 29.1668 44.332 29.4001 44.7986 29.6335C45.032 29.8668 45.2653 29.8668 45.4986 30.1001C45.9653 30.3335 46.432 30.5668 47.132 30.5668C47.132 30.5668 47.132 30.5668 47.3653 30.5668C47.3653 30.5668 47.3653 30.5668 47.132 30.8001C46.6653 31.0335 46.432 31.5001 45.9653 31.5001C45.732 31.5001 45.4986 31.7335 45.2653 31.7335H45.032C44.7986 31.9668 44.332 32.2001 44.0986 32.2001C43.632 32.4335 43.3986 32.2001 42.932 32.2001H42.6986C42.6986 32.4335 42.932 32.4335 42.932 32.6668C43.1653 32.9001 43.1653 33.3668 43.3986 33.8335C43.632 34.5335 43.3986 35.2335 43.1653 35.9335C42.932 36.4001 42.6986 36.8668 42.6986 37.3335C42.4653 38.0335 42.6986 38.9668 43.1653 39.4335C43.3986 39.6668 43.3986 39.6668 43.632 39.9001C43.8653 39.9001 43.8653 39.6668 43.8653 39.6668C43.8653 39.6668 43.8653 39.6668 43.8653 39.4335C43.8653 39.2001 44.0986 39.2001 44.0986 39.4335C44.332 39.6668 44.332 39.9001 44.332 40.1335C44.332 40.1335 44.332 40.1335 44.332 40.3668C44.7986 40.6001 44.7986 40.8335 45.032 41.3001C45.032 41.5335 45.032 41.7668 44.7986 41.7668C44.7986 41.7668 44.7986 41.7668 44.5653 41.7668V42.0001C44.5653 42.4668 44.332 43.1668 44.332 43.6335C44.0986 44.5668 44.332 45.2668 44.332 46.2001C44.332 46.6668 44.5653 46.9001 44.5653 47.3668C44.5653 47.6001 44.7986 47.8335 44.7986 48.0668V48.3001C44.5653 48.5335 44.5653 48.7668 44.332 49.0001C44.332 49.2335 44.0986 49.2335 44.0986 49.4668C44.0986 49.9335 43.8653 50.4001 43.632 50.8668C43.3986 51.1001 43.3986 51.1001 43.3986 51.3335C43.3986 51.5668 43.3986 51.8001 43.3986 52.2668C43.3986 52.5001 43.3986 52.5001 43.1653 52.5001C41.9986 53.2001 40.832 53.4335 39.432 53.2001C38.732 52.9668 38.4986 52.7335 38.4986 52.0335V51.8001C38.4986 51.5668 38.4986 51.5668 38.732 51.3335C39.432 50.4001 40.132 49.2335 40.5986 48.3001C40.832 47.8335 40.832 47.6001 41.0653 47.1335V46.9001C41.0653 46.4335 41.0653 45.7335 41.0653 45.2668C41.0653 44.8001 41.0653 44.3335 41.0653 43.8668V43.6335C40.5986 43.1668 40.3653 42.7001 39.8986 42.0001C39.6653 41.7668 39.432 41.3001 39.432 41.0668C39.432 41.0668 39.432 40.8335 39.1986 40.8335C38.4986 40.6001 38.032 40.3668 37.332 39.9001C36.3986 39.4335 35.6986 38.5001 34.9986 37.8001C34.9986 37.8001 34.9986 37.8001 34.9986 37.5668L34.7653 37.8001C34.0653 38.2668 33.3653 38.7335 32.6653 39.2001C32.1986 39.4335 31.732 39.6668 31.2653 40.1335C30.7986 40.6001 30.0986 40.8335 29.3986 41.0668C28.932 41.0668 28.6986 41.3001 28.232 41.3001C27.9986 41.3001 27.9986 41.3001 27.7653 41.3001C27.7653 41.7668 27.9986 42.4668 28.232 42.9335C28.4653 43.1668 28.4653 43.1668 28.6986 43.1668C28.932 43.1668 28.932 43.4001 28.932 43.6335C28.6986 43.8668 28.6986 44.3335 28.232 44.5668V44.8001C28.232 45.0335 28.232 45.5001 27.9986 45.7335C27.7653 46.2001 27.532 46.6668 27.2986 47.1335C27.0653 47.6001 27.0653 48.0668 27.2986 48.5335C27.532 49.0001 27.532 49.2335 27.7653 49.7001C27.7653 49.9335 27.7653 49.9335 27.9986 50.1668C27.9986 51.1001 27.7653 52.0335 27.532 52.7335C27.2986 53.2001 27.0653 53.4335 26.5986 53.6668C25.8986 53.6668 25.432 53.6668 24.732 53.6668C24.2653 53.6668 23.5653 53.6668 23.0986 53.4335C22.632 53.2001 22.632 53.2001 22.632 52.7335C22.8653 52.2668 23.0986 51.8001 23.332 51.3335C23.7986 50.8668 24.2653 50.1668 24.4986 49.4668C24.732 48.7668 24.732 47.8335 24.4986 47.1335C24.2653 46.6668 24.032 45.9668 23.5653 45.5001C22.8653 44.8001 22.632 43.8668 22.1653 42.9335C22.1653 42.9335 22.1653 42.7001 21.932 42.7001C21.4653 42.4668 21.232 42.0001 20.9986 41.5335C20.7653 41.3001 20.532 41.0668 20.2986 41.0668C19.832 41.0668 19.3653 40.8335 18.8986 40.6001C16.7986 39.2001 15.3986 37.3335 14.6986 35.0001C14.232 33.3668 13.9986 31.9668 13.9986 30.3335C13.9986 29.4001 14.232 28.4668 14.4653 27.5335C14.4653 27.3001 14.6986 27.0668 14.6986 26.6001C14.232 26.8335 13.9986 27.0668 13.7653 27.3001C13.9986 28.0001 13.9986 28.2335 13.7653 28.4668C13.532 28.7001 13.532 28.9335 13.0653 28.9335C12.5986 29.1668 12.132 29.1668 11.6653 29.4001C11.1986 29.4001 10.9653 29.4001 10.732 29.1668C10.4986 28.9335 10.4986 28.9335 10.2653 28.9335H10.032C9.56531 28.7001 9.33197 28.4668 9.09864 28.0001V27.7668C9.09864 27.3001 9.09864 27.0668 9.09864 26.6001V26.3668C9.09864 26.1335 9.09864 25.9001 9.33197 25.6668C9.33197 25.4335 9.56531 25.4335 9.56531 25.2001C9.56531 24.5001 9.79864 23.5668 10.032 22.8668C10.032 22.6335 10.2653 22.4001 10.2653 22.1668C10.4986 21.7001 10.732 21.2335 10.732 20.7668C10.732 20.5335 10.732 20.3001 10.4986 20.0668C11.1986 20.3001 11.6653 20.5335 12.132 21.0001C12.3653 20.7668 12.3653 20.7668 11.8986 20.5335C11.6653 20.0668 11.432 20.0668 10.9653 19.8335C10.732 19.8335 10.4986 19.8335 10.2653 19.8335C9.79864 20.0668 9.33197 20.3001 8.86531 20.3001C8.63197 20.3001 8.39864 20.3001 8.16531 20.0668C7.69864 19.6001 7.46531 19.3668 7.23197 18.9001C6.29864 17.5001 6.29864 16.1001 6.53197 14.7001C6.53197 14.2335 6.76531 14.2335 6.99864 14.4668C7.69864 15.1668 8.16531 15.8668 8.86531 16.5668C8.86531 16.5668 9.09864 16.5668 9.09864 16.8001C9.56531 17.0335 9.79864 17.0335 10.2653 17.2668H10.4986C10.9653 17.5001 11.1986 17.7335 11.6653 17.9668C12.132 18.2001 12.5986 18.4335 13.2986 18.2001C13.7653 17.9668 13.9986 17.5001 13.7653 17.0335C13.7653 16.8001 13.532 16.5668 13.532 16.5668C12.832 16.3335 12.3653 16.1001 11.8986 15.8668C11.6653 15.8668 11.6653 15.8668 11.432 15.4001C11.432 15.1668 11.432 14.9335 11.432 14.7001C11.6653 14.4668 11.6653 14.0001 11.8986 13.7668C12.132 13.3001 12.3653 13.0668 12.5986 12.6001C12.832 12.6001 12.832 12.6001 12.832 12.8335V13.0668C12.832 13.5335 12.832 14.2335 13.0653 14.7001C13.0653 14.9335 13.2986 14.9335 13.2986 15.1668C13.7653 15.1668 13.9986 15.1668 14.232 14.7001C14.232 14.7001 14.232 14.4668 14.4653 14.4668C14.4653 14.4668 14.4653 14.2335 14.6986 14.2335C14.932 14.2335 14.932 14.2335 15.1653 14.2335V14.0001C14.6986 13.3001 14.232 12.8335 13.9986 12.3668C13.7653 12.1335 13.7653 12.1335 13.9986 11.9001C14.4653 11.4335 14.6986 10.7335 14.6986 10.0335C14.6986 9.80015 14.6986 9.33348 14.4653 9.10015C14.4653 8.86681 14.4653 8.86681 14.6986 8.86681C14.932 8.86681 14.932 8.86681 15.1653 9.10015C15.1653 9.10015 15.1653 9.33348 15.3986 9.33348C15.3986 9.10015 15.3986 9.10015 15.3986 8.86681C15.1653 7.23348 13.532 5.60015 11.8986 5.36681C11.8986 5.36681 11.8986 5.36681 11.6653 5.36681V5.13348C12.132 4.90015 12.832 4.43348 13.2986 4.43348C14.6986 4.43348 16.0986 4.66681 17.2653 5.60015C18.1986 6.30015 18.6653 7.00015 18.6653 7.93348C19.5986 7.70015 20.532 7.23348 21.232 6.53348C21.6986 6.30015 21.932 6.06681 22.1653 5.60015C22.3986 5.36681 22.3986 5.13348 22.3986 4.90015C22.3986 4.43348 22.3986 3.96681 22.1653 3.73348C22.1653 3.50015 21.6986 3.26681 21.4653 3.26681C21.4653 3.26681 21.4653 3.26681 21.232 3.26681C20.9986 3.03348 20.9986 2.80015 21.232 2.80015C21.4653 2.56681 21.6986 2.33348 22.1653 2.33348C22.8653 2.10015 23.5653 2.33348 24.2653 2.80015C24.732 3.03348 24.9653 3.26681 25.1986 3.73348C25.432 3.50015 25.432 3.26681 25.1986 3.03348V2.80015V2.56681H25.432L25.6653 2.80015C25.8986 3.50015 26.132 4.20015 25.6653 5.13348C25.8986 5.36681 25.6653 5.36681 25.6653 5.60015ZM10.032 28.4668C10.4986 28.0001 10.732 27.3001 10.4986 26.6001C10.2653 26.6001 10.032 26.8335 9.79864 26.8335C9.56531 26.8335 9.33197 26.8335 9.09864 26.8335C8.86531 27.5335 9.33197 28.0001 10.032 28.4668ZM14.4653 23.3335C14.6986 23.3335 14.6986 23.3335 14.6986 23.1001C14.6986 23.1001 14.6986 22.8668 14.4653 22.8668H14.232C13.7653 22.8668 13.2986 23.1001 13.0653 23.5668L12.832 23.8001C12.832 24.0335 12.832 24.0335 12.832 24.0335C13.0653 24.2668 13.2986 24.2668 13.532 24.0335C14.232 24.2668 14.4653 23.8001 14.4653 23.3335Z" fill="#B2BEC7"/>
</svg>
