<svg width="56" height="56" viewBox="0 0 56 56" fill="none" xmlns="http://www.w3.org/2000/svg">
<g opacity="0.3">
<path opacity="0.3" d="M44.0987 53.6666C33.3654 53.6666 22.8654 53.6666 12.3654 53.6666C12.3654 53.6666 12.132 53.6666 12.132 53.4332C10.2654 47.3666 8.16537 41.2999 6.2987 35.2333C5.13203 31.0333 3.73203 26.8333 2.33203 22.3999C2.33203 22.1666 2.33203 22.1666 2.56536 21.9333C7.93203 17.7333 13.2987 13.7666 18.6654 9.56658C21.6987 7.23325 24.9654 4.89992 27.9987 2.33325C28.232 2.33325 28.232 2.33325 28.4654 2.33325C28.932 2.56659 29.1654 2.79992 29.632 3.26659C35.6987 7.93325 41.7654 12.3666 47.832 17.0333C49.6987 18.4333 51.5654 19.8333 53.432 21.2333V21.4666C51.332 28.9333 48.9987 36.1666 46.8987 43.6333C46.1987 46.8999 45.032 50.1666 44.0987 53.6666ZM27.9987 50.1666C29.3987 50.1666 30.7987 50.1666 31.9654 50.1666C34.9987 50.1666 38.2654 50.1666 41.2987 50.3999C41.2987 50.3999 41.532 50.3999 41.532 50.1666C43.8654 42.4666 46.1987 34.9999 48.532 27.2999C48.9987 25.8999 49.4654 24.4999 49.6987 23.3333V23.0999C42.4654 17.7333 35.232 12.3666 28.232 6.99992H27.9987C27.0654 7.69992 25.8987 8.39992 24.9654 9.09992C23.0987 10.4999 21.232 11.8999 19.132 13.2999C14.6987 16.5666 10.4987 19.8333 6.06536 23.3333C6.06536 23.3333 6.06536 23.3333 6.06536 23.5666C6.76536 25.6666 7.46536 27.7666 8.16536 29.8666C10.2654 36.6333 12.3654 43.1666 14.4654 49.9332C14.4654 50.1666 14.4654 50.1666 14.6987 50.1666C16.5654 50.1666 18.432 50.1666 20.2987 50.1666C22.8654 50.1666 25.432 50.1666 27.9987 50.1666Z" fill="#B2BEC7"/>
</g>
<path d="M31.7336 25.9C31.5003 25.9 31.2669 26.1334 31.0336 25.9C31.0336 25.9 31.0336 25.9 31.0336 25.6667C31.7336 24.9667 32.2003 24.0334 32.4336 22.8667C32.4336 22.8667 32.4336 22.8667 32.4336 22.6334C32.4336 22.4 32.4336 21.9334 31.9669 21.9334C32.2003 21.7 32.4336 21.4667 32.6669 21.2334C33.1336 20.7667 33.3669 20.3 33.6003 19.6V19.3667C33.6003 18.9 33.3669 18.6667 33.1336 18.6667C32.6669 18.6667 32.4336 18.6667 32.2003 18.6667H31.9669C31.9669 18.6667 31.9669 18.4334 32.2003 18.4334C32.6669 17.9667 33.3669 17.5 33.8336 17.2667C34.3003 17.0334 34.7669 16.8 35.0003 16.5667C35.7003 16.3334 36.4003 16.1 37.1003 16.1C38.0336 15.8667 39.2003 16.1 40.1336 16.1C40.6003 16.1 41.0669 16.3334 41.5336 16.5667C41.5336 16.5667 41.5336 16.5667 41.7669 16.5667C41.3003 16.5667 40.8336 16.5667 40.3669 16.8C39.9003 16.8 39.6669 17.0334 39.2003 17.2667C39.2003 17.2667 38.9669 17.2667 38.9669 17.5C38.7336 17.7334 38.9669 17.9667 39.2003 17.9667C39.4336 17.9667 39.6669 17.9667 39.9003 17.9667C41.7669 18.2 43.4003 19.1334 44.5669 20.3C45.0336 20.7667 45.5003 21.4667 45.7336 22.1667C45.9669 22.6334 46.2003 22.8667 46.2003 23.3334V23.5667C45.9669 23.3334 45.7336 23.3334 45.5003 23.1C44.8003 22.6334 43.8669 22.4 42.9336 22.4C42.7003 22.4 42.7003 22.4 42.4669 22.6334C42.2336 22.8667 42.2336 22.8667 42.4669 23.1L42.7003 23.3334C44.1003 24.5 45.2669 25.9 46.2003 27.7667C46.6669 28.4667 46.9003 29.4 47.3669 30.1V30.3334C47.1336 30.1 46.6669 29.8667 46.4336 29.6334C45.2669 28.7 44.1003 28.2334 42.7003 28H42.4669C42.2336 28 42.2336 28 42.0003 28.2334C42.0003 28.4667 42.0003 28.4667 42.0003 28.4667C42.9336 29.8667 43.8669 31.2667 44.3336 32.6667C44.5669 33.3667 44.5669 33.8334 44.5669 34.5334C44.5669 34.5334 44.5669 34.5334 44.5669 34.7667C44.3336 34.5334 44.1003 34.0667 43.8669 33.8334C43.4003 33.1334 42.7003 32.6667 41.7669 32.2H41.5336C41.3003 32.2 41.0669 32.2 41.0669 32.6667C41.0669 32.6667 41.0669 32.6667 41.0669 32.9C41.5336 34.0667 41.7669 35 42.0003 36.1667C42.2336 36.8667 42.2336 37.8 42.2336 38.5V38.7334C42.0003 38.2667 41.7669 38.0334 41.7669 37.5667C41.5336 37.1 41.0669 36.6334 40.6003 36.4L40.3669 36.1667H40.1336V36.4C40.1336 36.4 40.1336 36.4 40.1336 36.6334C40.6003 37.3334 40.8336 38.0334 41.0669 38.7334C41.3003 40.1334 41.3003 41.3 41.0669 42.7V42.9334C40.8336 42.7 40.8336 42.4667 40.6003 42.2334C40.1336 41.5334 39.6669 41.0667 39.2003 40.6C39.2003 40.6 38.9669 40.6 38.9669 40.3667C38.7336 40.3667 38.7336 40.3667 38.7336 40.3667C38.7336 40.3667 38.5003 40.6 38.7336 40.6C39.4336 41.7667 39.9003 42.9334 40.1336 44.3334C40.1336 44.5667 40.1336 44.8 40.1336 45.0334C40.1336 45.0334 40.1336 45.0334 40.1336 45.2667C39.6669 44.5667 38.7336 44.1 38.0336 43.8667C38.0336 44.1 38.0336 44.1 38.0336 44.1C38.7336 46.6667 39.4336 49.4667 40.1336 52.0334C40.1336 52.2667 40.1336 52.7334 39.9003 52.9667H39.6669C33.1336 52.9667 26.6003 52.9667 20.0669 52.9667C19.6003 52.9667 19.1336 52.9667 18.9003 52.9667C18.6669 52.9667 18.4336 52.9667 18.4336 52.7334C18.4336 52.5 18.4336 52.5 18.4336 52.2667C18.4336 51.1 18.4336 50.1667 18.6669 49C18.9003 47.6 19.1336 46.4334 19.6003 45.2667C20.0669 44.1 20.7669 43.1667 21.2336 42C21.9336 41.0667 22.6336 40.1334 23.3336 39.2C24.7336 37.5667 25.9003 35.7 26.6003 33.8334C26.8336 32.9 27.3003 32.2 27.3003 31.2667C27.3003 30.8 27.3003 30.5667 27.0669 30.1V29.8667C27.0669 29.6334 27.0669 29.6334 27.3003 29.6334L27.5336 29.4C28.2336 28.9334 28.9336 28.4667 29.6336 27.7667C30.3336 27.7667 31.0336 27.0667 31.7336 25.9C31.7336 25.9 31.5003 26.1334 31.7336 25.9Z" fill="#B2BEC7"/>
<path d="M30.5661 8.16675C29.1661 8.63341 27.7661 9.10008 26.8328 10.2667C27.0661 10.2667 27.2995 10.2667 27.5328 10.0334C28.2328 9.80008 28.6995 9.80008 29.3995 9.56675C30.3328 9.56675 31.2661 9.33341 32.1995 8.86675C32.6661 8.63341 33.3661 8.40008 33.8328 8.16675C34.2995 7.93341 34.5328 7.93341 34.9995 7.70008C35.6995 7.46675 36.3995 7.00008 37.0995 6.53341C37.5661 6.06675 38.0328 5.60008 38.4995 4.90008C38.7328 4.90008 38.7328 5.13341 38.7328 5.13341C38.7328 5.83341 38.4995 6.53341 38.2661 7.00008C37.7995 7.70008 37.3328 8.40008 36.6328 9.10008C36.6328 9.10008 36.6328 9.33341 36.3995 9.33341H36.6328C37.3328 9.10008 37.7995 8.63341 38.2661 8.40008C39.6661 7.46675 40.8328 6.53341 41.7661 5.36675C41.9995 5.13341 41.9995 4.90008 42.2328 4.90008C42.2328 4.90008 42.2328 4.90008 42.4661 4.66675V4.90008C41.9995 6.30008 41.7661 7.70008 40.8328 8.86675C40.3661 9.56675 39.8995 10.5001 39.1995 11.2001C38.9661 11.4334 38.9661 11.4334 38.7328 11.6667C37.7995 12.6001 36.8661 13.3001 35.6995 14.0001C35.2328 14.2334 34.5328 14.7001 34.0661 14.9334C34.0661 14.9334 34.0661 14.9334 33.8328 14.9334H34.0661C34.5328 14.9334 35.2328 15.1667 35.6995 15.1667H35.9328V15.4001C35.6995 15.6334 35.4661 15.6334 35.2328 15.8667C34.5328 16.3334 33.5995 16.8001 32.6661 17.2667C31.9661 17.5001 31.0328 17.7334 30.3328 17.9667C30.3328 17.9667 30.3328 17.9667 30.0995 17.9667C30.3328 17.9667 30.5661 18.2001 30.5661 18.2001C30.7995 18.4334 30.7995 18.4334 30.5661 18.6667C30.3328 19.1334 29.8661 19.6001 29.1661 19.8334C28.6995 20.0667 27.9995 20.5334 27.5328 20.7667C27.5328 20.7667 27.5328 20.7667 27.2995 20.7667C27.9995 20.7667 28.4661 20.7667 28.9328 20.7667C29.3995 20.7667 30.0995 20.5334 30.5661 20.5334V20.7667C30.3328 21.2334 30.3328 21.4667 30.0995 21.9334C29.6328 22.6334 28.9328 23.1001 28.4661 23.5667C28.4661 23.5667 28.2328 23.8001 27.9995 23.8001C28.6995 23.8001 29.1661 23.5667 29.8661 23.5667C29.8661 24.2667 29.6328 24.9667 28.9328 25.4334C27.9995 26.3667 26.8328 27.0667 25.6661 27.7667H25.8995C26.3661 27.7667 27.0661 27.5334 27.5328 27.5334C27.5328 27.5334 27.5328 27.5334 27.7661 27.5334C27.7661 27.5334 27.9995 27.3001 27.9995 27.5334V27.7667C27.7661 28.0001 27.5328 28.4667 27.2995 28.7001C26.8328 29.1667 26.3661 29.4001 25.8995 29.8667C24.9661 30.5667 24.2661 31.0334 23.0995 31.2667C22.8661 31.2667 22.8661 31.5001 22.6328 31.7334C21.9328 33.8334 20.9995 35.7001 19.5995 37.5667C18.6661 38.7334 17.7328 39.9001 16.7995 40.8334C16.3328 41.3001 15.8661 41.5334 15.3995 41.7667C15.1661 41.7667 14.9328 42.0001 14.6995 42.0001C14.6995 41.7667 14.6995 41.3001 14.6995 41.0667C14.6995 40.6001 14.6995 40.1334 14.4661 39.6667C14.2328 39.2001 13.7661 38.5001 13.2995 38.0334C13.0661 37.8001 12.8328 37.3334 13.0661 36.8667C13.0661 36.6334 13.2995 36.4001 13.5328 36.4001C12.5995 35.7001 12.3661 34.7667 12.5995 33.8334C13.0661 34.5334 13.7661 35.0001 14.4661 35.4667H14.6995C14.9328 35.2334 15.1661 35.0001 15.3995 34.7667C14.4661 34.3001 13.9995 33.6001 13.9995 32.4334C14.9328 32.9001 15.6328 33.1334 16.5661 33.1334C16.5661 32.9001 16.7995 32.6667 16.7995 32.2001C16.3328 31.9667 16.0995 31.7334 15.8661 31.5001C15.8661 31.2667 15.6328 31.2667 15.6328 31.0334C15.8661 31.0334 16.3328 31.0334 16.5661 31.0334C16.7995 31.0334 16.7995 31.0334 17.0328 30.8001C17.2661 30.8001 17.2661 30.5667 17.2661 30.3334C17.2661 29.6334 17.7328 28.9334 17.9661 28.2334V28.0001C17.4995 28.4667 17.0328 28.7001 16.5661 29.1667C16.7995 29.6334 16.3328 30.3334 15.6328 30.8001C14.9328 31.2667 14.2328 31.5001 13.5328 31.5001C13.0661 31.5001 12.8328 31.5001 12.5995 31.2667C12.5995 31.2667 12.3661 31.2667 12.3661 31.0334C12.5995 31.0334 12.5995 31.0334 12.8328 31.0334C13.5328 30.8001 13.9995 30.5667 14.4661 30.1001C14.9328 29.6334 15.1661 29.1667 15.6328 28.7001C16.0995 28.0001 16.5661 27.3001 17.0328 26.3667C17.2661 25.9001 17.4995 25.6667 17.9661 25.2001C18.4328 24.7334 19.1328 24.2667 19.8328 24.0334C19.3661 24.0334 18.6661 23.8001 18.1995 23.8001C17.9661 24.2667 17.7328 24.7334 17.2661 25.2001C16.7995 24.2667 16.3328 23.5667 15.3995 23.1001C15.6328 23.8001 15.6328 24.5001 15.3995 25.4334C15.3995 24.9667 15.1661 24.7334 14.9328 24.5001C14.6995 24.2667 14.4661 24.0334 13.9995 23.8001C13.7661 23.8001 13.7661 23.8001 13.5328 23.8001C13.2995 24.0334 12.8328 24.2667 12.8328 24.7334C12.5995 25.4334 12.5995 26.3667 12.8328 27.0667C13.0661 27.5334 13.2995 28.2334 13.5328 28.7001C13.2995 28.7001 13.0661 28.4667 12.8328 28.2334C11.8995 27.5334 11.4328 26.6001 10.9661 25.6667V25.4334C10.7328 25.4334 10.7328 25.4334 10.7328 25.4334V25.6667C10.7328 26.3667 10.9661 27.0667 11.4328 27.5334C11.4328 27.5334 11.4328 27.5334 11.4328 27.7667C10.4995 27.5334 10.0328 26.8334 9.33281 26.1334C9.33281 26.8334 9.56615 27.3001 10.0328 28.0001C9.79948 28.0001 9.56615 27.7667 9.33281 27.7667C9.09948 27.5334 8.86615 27.5334 8.86615 27.3001C8.63281 27.0667 8.39948 26.8334 8.39948 26.6001C8.39948 27.0667 8.39948 27.5334 8.63281 28.0001C8.39948 27.7667 8.16615 27.7667 7.93281 27.5334C7.69948 27.3001 7.23281 26.8334 6.99948 26.6001C6.99948 26.6001 6.99948 26.3667 6.76615 26.6001C6.76615 26.8334 6.76615 26.8334 6.76615 27.0667C6.76615 27.5334 6.99948 27.7667 7.23281 28.0001C7.23281 28.0001 7.23281 28.0001 7.46615 28.2334C7.23281 28.2334 7.23281 28.2334 7.23281 28.2334C6.76615 28.0001 6.53281 27.7667 6.29948 27.5334L6.06615 27.3001C6.06615 27.0667 5.83281 27.0667 5.59948 27.0667C5.36615 27.0667 5.13281 26.8334 5.13281 26.6001C5.13281 26.1334 5.13281 25.6667 5.13281 24.9667C5.36615 23.1001 6.29948 21.4667 7.46615 20.0667C8.39948 19.1334 9.79948 18.4334 10.9661 18.2001C10.7328 17.9667 10.4995 18.2001 10.4995 18.4334C10.4995 18.6667 10.4995 18.9001 10.4995 19.1334C10.7328 19.1334 10.7328 18.9001 10.7328 18.9001C12.8328 15.6334 15.3995 13.0667 18.6661 10.9667C20.7661 9.56675 23.3328 8.63341 25.8995 8.16675C26.8328 7.93341 27.9995 7.70008 28.9328 7.93341C29.3995 7.93341 29.8661 8.16675 30.5661 8.16675ZM13.9995 20.7667C14.2328 20.7667 14.2328 20.7667 13.9995 20.7667C14.9328 21.2334 15.8661 20.7667 16.3328 20.3001C16.5661 20.0667 16.7995 19.6001 17.0328 19.1334C17.0328 18.9001 17.2661 18.6667 17.2661 18.2001C17.4995 18.2001 17.7328 18.2001 17.7328 18.2001C17.7328 18.2001 17.9661 18.2001 17.9661 17.9667C17.9661 17.7334 17.9661 17.7334 17.7328 17.7334C16.5661 17.7334 15.6328 17.9667 14.6995 18.4334C14.2328 18.4334 13.9995 18.6667 13.7661 18.9001C13.2995 19.3667 13.2995 19.8334 13.2995 20.5334C13.2995 20.7667 13.5328 21.0001 13.5328 21.0001C13.5328 21.0001 13.5328 21.2334 13.7661 21.2334C13.7661 21.2334 13.9995 21.0001 13.9995 21.0001V20.7667ZM9.09948 23.1001C9.09948 22.8667 8.86615 22.6334 8.63281 22.6334C8.16615 22.4001 7.69948 22.1667 7.46615 22.6334C7.23281 22.8667 6.99948 23.1001 6.99948 23.5667V23.8001C7.69948 23.1001 8.39948 23.1001 9.09948 23.1001Z" fill="#B2BEC7"/>
</svg>
