<svg width="56" height="56" viewBox="0 0 56 56" fill="none" xmlns="http://www.w3.org/2000/svg">
<g opacity="0.3">
<path opacity="0.3" d="M44.0987 53.6666C33.3654 53.6666 22.8654 53.6666 12.3654 53.6666C12.3654 53.6666 12.132 53.6666 12.132 53.4332C10.2654 47.3666 8.16537 41.2999 6.2987 35.2333C5.13203 31.0333 3.73203 26.8333 2.33203 22.3999C2.33203 22.1666 2.33203 22.1666 2.56536 21.9333C7.93203 17.7333 13.2987 13.7666 18.6654 9.56658C21.6987 7.23325 24.9654 4.89992 27.9987 2.33325C28.232 2.33325 28.232 2.33325 28.4654 2.33325C28.932 2.56659 29.1654 2.79992 29.632 3.26659C35.6987 7.93325 41.7654 12.3666 47.832 17.0333C49.6987 18.4333 51.5654 19.8333 53.432 21.2333V21.4666C51.332 28.9333 48.9987 36.1666 46.8987 43.6333C46.1987 46.8999 45.032 50.1666 44.0987 53.6666ZM27.9987 50.1666C29.3987 50.1666 30.7987 50.1666 31.9654 50.1666C34.9987 50.1666 38.2654 50.1666 41.2987 50.3999C41.2987 50.3999 41.532 50.3999 41.532 50.1666C43.8654 42.4666 46.1987 34.9999 48.532 27.2999C48.9987 25.8999 49.4654 24.4999 49.6987 23.3333V23.0999C42.4654 17.7333 35.232 12.3666 28.232 6.99992H27.9987C27.0654 7.69992 25.8987 8.39992 24.9654 9.09992C23.0987 10.4999 21.232 11.8999 19.132 13.2999C14.6987 16.5666 10.4987 19.8333 6.06536 23.3333C6.06536 23.3333 6.06536 23.3333 6.06536 23.5666C6.76536 25.6666 7.46536 27.7666 8.16536 29.8666C10.2654 36.6333 12.3654 43.1666 14.4654 49.9332C14.4654 50.1666 14.4654 50.1666 14.6987 50.1666C16.5654 50.1666 18.432 50.1666 20.2987 50.1666C22.8654 50.1666 25.432 50.1666 27.9987 50.1666Z" fill="#B2BEC7"/>
</g>
<path d="M42.4664 46.6666H42.2331C41.2997 46.4333 40.3664 45.7332 39.6664 45.2666C38.0331 44.0999 36.8664 42.9332 35.6997 41.5332C35.4664 41.2999 35.2331 40.8332 34.9997 40.5999C34.9997 41.0666 34.9997 41.2999 34.9997 41.5332C34.9997 42.4666 35.2331 43.3999 35.4664 44.3333C35.4664 44.7999 35.6997 45.2666 35.6997 45.7333C35.9331 46.4333 35.9331 47.1333 36.1664 47.8333C36.6331 48.9999 36.8664 50.3999 37.3331 51.5666C37.7997 52.7333 38.4997 53.6666 39.1997 54.5999L39.4331 54.8333C37.3331 53.6666 35.4664 52.0333 33.8331 50.3999C32.1997 48.5333 31.0331 46.6666 30.0997 44.3333V44.5666C30.0997 45.0333 29.8664 45.7332 29.8664 46.1999C29.6331 47.1332 29.3997 47.8332 29.3997 48.7666C29.1664 50.1666 28.6997 51.7999 28.4664 53.1999C28.4664 53.4332 28.4664 53.6666 28.4664 53.8999V54.1333C28.4664 53.6666 28.2331 53.1999 28.2331 52.7333C27.9997 52.0333 27.9997 51.3332 27.7664 50.8666C27.5331 49.6999 27.2997 48.5332 27.0664 47.5999V47.3666C26.8331 46.6666 26.8331 45.9666 26.5997 45.2666C26.5997 45.0332 26.5997 45.0333 26.5997 44.7999C25.1997 48.0666 23.0997 50.8666 20.5331 53.1999C19.5997 54.1332 18.1997 54.8333 17.2664 55.2999V55.0666C18.6664 53.6666 19.3664 51.7999 20.0664 49.9332C20.0664 49.6999 20.2997 49.2333 20.2997 48.9999C20.5331 47.1333 20.9997 45.7333 20.9997 44.5666C20.9997 43.8666 21.2331 43.1666 21.2331 42.4666C21.2331 41.7666 21.4664 41.2999 21.2331 40.5999C20.5331 41.9999 19.5997 43.1666 18.1997 44.3333C17.0331 45.2666 15.6331 46.1999 13.9997 46.6666C14.2331 46.4333 14.6997 46.1999 14.9331 45.7333C16.0997 44.7999 17.0331 43.3999 17.7331 42.2333C18.6664 40.8333 19.3664 39.1999 20.0664 37.5666C20.0664 37.5666 20.0664 37.3333 20.2997 37.3333H20.0664C18.8997 37.7999 17.7331 38.2666 16.3331 38.4999C13.9997 38.7333 11.8997 38.2666 10.0331 36.6333L9.79974 36.3999C10.2664 36.3999 10.9664 36.3999 11.4331 36.3999C11.8997 36.3999 12.5997 36.3999 13.0664 35.9332C12.8331 35.9332 12.8331 35.9332 12.5997 35.9332C10.4997 35.4666 8.86641 34.2999 7.69974 32.4333C7.46641 32.1999 7.46641 31.9666 7.46641 31.4999C7.23307 29.3999 7.46641 27.5333 8.16641 25.4333C8.39974 24.9666 8.63307 24.4999 8.86641 24.0333C8.86641 24.0333 8.86641 23.7999 9.09974 23.7999C9.09974 24.0333 9.09974 24.0333 9.09974 24.0333C9.09974 24.9666 9.09974 25.8999 9.33307 26.5999C9.56641 27.2999 9.79974 27.9999 10.2664 28.6999C10.4997 28.9333 10.7331 29.1666 10.9664 29.6333V29.3999C10.4997 27.7666 10.4997 26.1333 10.7331 24.7333C10.9664 24.0333 11.1997 22.8666 11.6664 21.9333C11.8997 21.2333 12.3664 20.7666 12.5997 20.0666C12.5997 19.8333 12.8331 19.8333 13.0664 19.5999C14.2331 18.6666 15.6331 17.9666 17.2664 17.7333C17.2664 17.7333 17.4997 17.7333 17.7331 17.7333C17.4997 17.9666 17.2664 17.9666 17.0331 18.1999C15.6331 19.8333 14.6997 21.4666 14.2331 23.5666C13.9997 24.9666 13.7664 26.1333 14.2331 27.5333C14.6997 28.6999 15.1664 29.8666 16.3331 30.3333C17.0331 30.5666 17.4997 30.7999 18.1997 31.0333C19.5997 31.2666 20.9997 31.0333 22.3997 30.7999C22.6331 30.7999 22.6331 30.5666 22.6331 30.5666C22.8664 29.3999 23.0997 28.2333 23.3331 26.8333C23.7997 24.7333 24.0331 22.6333 24.2664 20.5333C24.4997 17.7333 24.4997 14.6999 24.4997 11.8999C24.4997 11.8999 24.4997 11.8999 24.4997 11.6666C20.7664 13.2999 16.7997 14.9333 13.0664 16.5666C17.9664 11.8999 23.0997 6.99992 28.2331 2.33325C33.3664 6.99992 38.4997 11.8999 43.6331 16.5666C42.9331 16.3333 42.2331 16.0999 41.7664 15.8666C41.0664 15.6333 40.3664 15.3999 39.8997 14.9333C39.1997 14.6999 38.4997 14.4666 38.0331 13.9999C37.3331 13.7666 36.6331 13.5333 36.1664 13.2999C35.4664 13.0666 34.7664 12.8333 34.2997 12.3666C33.5997 12.1333 32.8997 11.8999 32.1997 11.4333C32.1997 11.6666 32.1997 11.6666 32.1997 11.8999C32.1997 14.4666 32.1997 17.0333 32.4331 19.5999C32.6664 23.0999 33.3664 26.8333 34.0664 30.3333C34.0664 30.5666 34.2997 30.5666 34.5331 30.7999C35.6997 31.0333 36.8664 31.2666 38.2664 31.2666C39.1997 31.2666 39.8997 31.0333 40.8331 30.5666C41.9997 29.8666 42.6997 28.9333 42.9331 27.5333C43.1664 26.3666 43.1664 24.9666 42.9331 23.7999C42.4664 21.4666 41.2997 19.5999 39.6664 17.9666L39.4331 17.7333H39.6664C41.2997 18.1999 42.4664 18.6666 43.8664 19.5999C44.0997 19.5999 44.0997 19.8333 44.3331 20.0666C44.7997 20.7666 45.2664 21.4666 45.4997 22.1666C45.9664 23.5666 46.1997 24.9666 46.4331 26.3666C46.4331 27.5333 46.4331 28.6999 45.9664 29.6333C45.9664 29.6333 45.9664 29.6333 45.9664 29.8666C46.1997 29.6333 46.4331 29.3999 46.6664 28.9333C47.1331 28.2333 47.3664 27.2999 47.5997 26.5999C47.8331 25.8999 47.8331 25.1999 47.8331 24.4999C47.8331 24.2666 47.8331 24.2666 47.8331 24.0333C47.8331 24.0333 47.8331 24.2666 48.0664 24.2666C48.9997 25.8999 49.4664 27.5333 49.6997 29.3999C49.6997 30.0999 49.6997 31.0333 49.4664 31.7333C49.4664 31.9666 49.2331 32.1999 49.2331 32.1999C48.2997 33.5999 47.3664 34.5333 45.7331 35.2333C45.2664 35.4666 44.5664 35.6999 43.8664 35.9332H43.6331C44.7997 36.3999 45.7331 36.3999 46.8997 36.1666C46.8997 36.1666 46.8997 36.1666 46.6664 36.3999C45.4997 37.5666 44.0997 38.0332 42.4664 38.2666C40.3664 38.4999 38.4997 38.0333 36.6331 37.3333C36.6331 37.3333 36.3997 37.3332 36.3997 37.0999C36.3997 37.3332 36.3997 37.3333 36.6331 37.5666C37.3331 39.1999 38.2664 40.8333 39.1997 42.2333C39.8997 43.6333 40.8331 44.7999 41.9997 45.7333C41.9997 46.1999 42.2331 46.4333 42.4664 46.6666Z" fill="#B2BEC7"/>
</svg>
