<svg width="57" height="56" viewBox="0 0 57 56" fill="none" xmlns="http://www.w3.org/2000/svg">
<g opacity="0.3">
<path opacity="0.3" d="M44.9307 53.6666C34.1974 53.6666 23.6974 53.6666 13.1974 53.6666C13.1974 53.6666 12.9641 53.6666 12.9641 53.4332C11.0974 47.3666 8.9974 41.2999 7.13073 35.2333C5.96406 31.0333 4.56406 26.8333 3.16406 22.3999C3.16406 22.1666 3.16406 22.1666 3.3974 21.9333C8.76406 17.7333 14.1307 13.7666 19.4974 9.56658C22.5307 7.23325 25.7974 4.89992 28.8307 2.33325C29.0641 2.33325 29.0641 2.33325 29.2974 2.33325C29.7641 2.56659 29.9974 2.79992 30.4641 3.26659C36.5307 7.93325 42.5974 12.3666 48.6641 17.0333C50.5307 18.4333 52.3974 19.8333 54.2641 21.2333V21.4666C52.1641 28.9333 49.8307 36.1666 47.7307 43.6333C47.0307 46.8999 45.8641 50.1666 44.9307 53.6666ZM28.8307 50.1666C30.2307 50.1666 31.6307 50.1666 32.7974 50.1666C35.8307 50.1666 39.0974 50.1666 42.1307 50.3999C42.1307 50.3999 42.3641 50.3999 42.3641 50.1666C44.6974 42.4666 47.0307 34.9999 49.3641 27.2999C49.8307 25.8999 50.2974 24.4999 50.5307 23.3333V23.0999C43.2974 17.7333 36.0641 12.3666 29.0641 6.99992H28.8307C27.8974 7.69992 26.7307 8.39992 25.7974 9.09992C23.9307 10.4999 22.0641 11.8999 19.9641 13.2999C15.5307 16.5666 11.3307 19.8333 6.8974 23.3333C6.8974 23.3333 6.8974 23.3333 6.8974 23.5666C7.5974 25.6666 8.2974 27.7666 8.9974 29.8666C11.0974 36.6333 13.1974 43.1666 15.2974 49.9332C15.2974 50.1666 15.2974 50.1666 15.5307 50.1666C17.3974 50.1666 19.2641 50.1666 21.1307 50.1666C23.6974 50.1666 26.2641 50.1666 28.8307 50.1666Z" fill="#B2BEC7"/>
</g>
<path d="M26.4971 43.6333C23.9305 46.9 20.4305 49.4667 16.9305 51.5667C16.6971 51.8 16.4638 51.8 16.2305 52.0333C15.7638 52.7333 15.2971 53.4333 14.8305 53.9C14.8305 54.1333 14.5971 54.1333 14.3638 54.1333C12.9638 53.9 11.7971 53.4333 10.3971 53.2C10.3971 53.2 10.3971 53.2 10.1638 53.2C10.6305 51.5667 10.8638 49.9333 11.3305 48.3C12.2638 48.3 12.9638 48.3 13.6638 48.3C13.8971 48.3 14.1305 48.3 14.3638 48.0667C15.7638 47.6 16.9305 46.6667 18.0971 45.9667C18.7971 45.5 19.7305 45.0333 20.4305 44.5667C21.5971 43.8667 22.5305 43.1667 23.4638 42.2333C23.6971 42 24.1638 41.5333 24.3971 41.3C24.3971 41.3 24.3971 41.0667 24.1638 41.0667C24.1638 40.8333 24.1638 40.8333 24.1638 40.6C24.3971 39.9 24.6305 39.4333 24.8638 38.7333C24.1638 38.0333 23.4638 37.3333 22.7638 36.8667C22.5305 36.6333 22.5305 36.6333 22.5305 36.4C22.5305 35.7 22.2971 35 22.0638 34.3C21.8305 33.8333 21.5971 33.3667 21.3638 32.9C20.6638 31.7333 19.7305 31.0333 18.5638 30.5667C17.3971 30.3333 16.2305 30.8 15.7638 31.7333C15.5305 32.2 15.5305 32.6667 15.2971 33.1333C15.2971 33.3667 15.2971 33.3667 15.2971 33.6C13.1971 32.4333 11.5638 30.8 10.1638 28.9333C8.29712 26.3667 7.36379 23.8 7.13046 20.7667C6.66379 14.7 9.93046 9.8 13.8971 7V7.23333C13.4305 8.86667 13.6638 10.2667 13.8971 11.9C14.3638 14.9333 15.7638 17.5 17.3971 20.0667C18.7971 22.1667 20.6638 23.8 22.7638 25.2C23.9305 25.9 25.3305 26.6 26.9638 27.0667C27.1971 27.0667 27.1971 27.0667 27.4305 27.0667C27.1971 29.6333 27.6638 31.9667 29.0638 34.0667C30.6971 31.9667 31.1638 29.6333 30.6971 27.0667C30.6971 27.0667 30.6971 27.0667 30.9305 27.0667C32.5638 26.8333 34.1971 26.1333 35.5971 24.9667C37.9305 23.3333 39.7971 21.2333 41.4305 18.9C42.5971 17.0333 43.5305 14.9333 43.9971 12.6C44.2305 11.2 44.4638 9.8 44.2305 8.4C44.2305 8.16667 44.2305 7.7 43.9971 7.46667C43.9971 7.46667 43.9971 7.23333 43.9971 7C47.7305 9.56667 50.9971 14.4667 50.7638 20.0667C50.7638 23.3333 49.5971 26.3667 47.7305 28.9333C46.3305 30.8 44.6971 32.4333 42.5971 33.6C42.5971 33.3667 42.5971 33.1333 42.5971 32.9C42.5971 32.6667 42.3638 32.4333 42.3638 32.2C41.8971 31.0333 40.4971 30.3333 39.3305 30.8C38.1638 31.2667 37.2305 31.9667 36.5305 33.1333C36.0638 34.0667 35.8305 34.7667 35.5971 35.7C35.5971 35.9333 35.5971 36.1667 35.3638 36.4C35.3638 36.6333 35.1305 36.8667 34.8971 37.1C34.1971 37.5667 33.4971 38.2667 32.7971 38.7333C32.7971 38.7333 32.7971 38.7333 32.7971 38.9667C33.0305 39.4333 33.0305 39.9 33.2638 40.3667C33.4971 40.6 33.4971 41.0667 33.2638 41.3C33.7305 41.7667 33.9638 42.2333 34.6638 42.7C36.0638 43.8667 37.6971 45.0333 39.5638 45.9667C40.4971 46.4333 41.4305 47.1333 42.3638 47.6C42.8305 47.8333 43.0638 48.0667 43.5305 48.0667C43.5305 48.0667 43.7638 48.0667 43.9971 48.0667C44.6971 48.0667 45.6305 48.0667 46.3305 48.0667C46.3305 48.3 46.5638 48.5333 46.5638 48.7667C46.7971 50.1667 47.2638 51.5667 47.4971 52.7333V52.9667C46.7971 53.2 46.3305 53.2 45.6305 53.4333C44.9305 53.6667 43.9971 53.6667 43.2971 53.9C43.0638 53.9 42.8305 53.9 42.8305 53.6667C42.3638 52.9667 41.8971 52.2667 41.4305 51.5667C41.4305 51.3333 41.1971 51.3333 40.9638 51.3333C37.9305 49.7 35.3638 47.8333 33.0305 45.5C32.3305 44.8 31.8638 44.3333 31.1638 43.6333C31.1638 43.6333 31.1638 43.6333 30.9305 43.8667C30.6971 44.1 30.4638 44.1 30.2305 44.1C29.7638 43.8667 29.2971 43.6333 29.0638 43.6333C28.8305 43.6333 28.8305 43.6333 28.5971 43.6333C28.1305 43.8667 27.8971 43.8667 27.4305 44.1C26.9638 44.1 26.9638 44.1 26.4971 43.6333C26.4971 43.6333 26.7305 43.8667 26.4971 43.6333Z" fill="#B2BEC7"/>
<path d="M30.6987 7.70008C30.6987 7.93341 30.932 7.93341 30.932 7.93341C31.8653 9.56675 33.032 11.2001 34.1987 12.6001C34.6653 13.0667 35.132 13.5334 35.5987 14.0001C35.832 14.2334 36.2987 14.4667 36.532 14.7001C36.7653 14.9334 37.232 14.7001 37.232 14.4667C37.232 14.2334 37.232 13.7667 37.232 13.5334C37.232 12.8334 36.9987 12.3667 36.9987 11.6667C36.9987 11.6667 36.9987 11.6667 36.9987 11.4334C37.232 11.6667 37.232 11.6667 37.232 11.6667C37.6987 12.1334 38.1653 12.6001 38.632 12.8334C38.8653 12.8334 38.8653 13.0667 39.0987 13.0667C39.332 13.0667 39.5653 13.0667 39.5653 12.8334C39.5653 12.6001 39.5653 12.3667 39.5653 11.9001C39.5653 10.2667 38.8653 8.86675 38.3987 7.23341C38.1653 7.00008 37.6987 6.30008 37.4653 5.60008C37.4653 5.60008 37.4653 5.60008 37.4653 5.36675L37.6987 5.60008C38.3987 6.53341 39.332 7.46675 40.2653 8.16675C40.732 8.40008 40.9653 8.63341 41.432 9.10008C41.6653 9.10008 41.6653 9.33341 41.8987 9.33341C42.132 9.33341 42.132 9.33341 42.132 9.10008C42.132 8.63341 42.132 8.40008 42.132 7.93341C41.8987 7.00008 41.432 6.06675 40.9653 5.36675C40.9653 5.36675 40.9653 5.13341 40.732 5.13341C40.9653 5.13341 40.9653 5.13341 40.9653 5.36675C41.1987 5.36675 41.432 5.60008 41.432 5.60008C41.8987 5.83341 42.132 5.83341 42.5987 5.60008C42.832 6.06675 42.832 6.30008 42.832 6.76675C43.0653 7.93341 42.832 9.10008 42.3653 10.0334C41.1987 13.3001 39.332 16.1001 36.532 18.4334C35.3653 19.6001 33.9653 20.3001 32.332 21.0001C29.7653 21.9334 27.1987 21.9334 24.632 20.7667C23.232 19.8334 21.5987 18.6667 20.1987 17.2667C18.0987 15.1667 16.4653 12.6001 15.532 9.80008C14.832 8.40008 14.832 7.00008 15.0653 5.60008C15.0653 5.36675 15.0653 5.36675 15.0653 5.13341C15.532 5.36675 15.9987 5.36675 16.4653 5.13341C16.6987 5.13341 16.932 4.90008 17.1653 4.66675C16.932 5.36675 16.6987 5.60008 16.6987 6.06675C16.232 6.53341 15.9987 7.23341 15.9987 7.93341C15.9987 8.16675 15.9987 8.63341 15.9987 8.86675C15.9987 9.10008 16.232 9.10008 16.232 9.10008C16.4653 9.10008 16.4653 9.10008 16.6987 8.86675C17.1653 8.63341 17.632 8.40008 18.0987 7.93341C19.032 7.23341 19.732 6.30008 20.432 5.60008C20.432 5.60008 20.432 5.36675 20.6653 5.36675C20.6653 5.60008 20.6653 5.60008 20.432 5.83341C19.732 7.23341 19.2653 8.63341 18.7987 10.0334C18.5653 10.9667 18.332 11.6667 18.332 12.6001C18.332 12.8334 18.332 12.8334 18.332 13.0667C18.332 13.3001 18.5653 13.5334 18.7987 13.3001C19.032 13.3001 19.032 13.0667 19.2653 13.0667C19.732 12.8334 20.1987 12.3667 20.432 11.9001L20.6653 11.6667C20.6653 11.9001 20.6653 11.9001 20.6653 11.9001C20.6653 12.8334 20.6653 13.5334 20.6653 14.2334C20.6653 14.4667 20.6653 14.4667 20.6653 14.7001C20.6653 14.9334 20.8987 15.1667 21.132 14.9334C21.5987 14.9334 21.832 14.7001 22.0653 14.4667C22.532 14.0001 22.9987 13.5334 23.4653 12.8334C24.632 11.4334 25.7987 9.80008 26.732 8.16675C26.732 7.93341 26.9653 7.93341 26.9653 7.70008C26.9653 7.70008 26.9653 7.93341 26.732 7.93341C26.032 9.80008 25.332 11.6667 24.8653 13.7667C24.632 14.7001 24.3987 15.8667 24.3987 16.8001C24.3987 17.2667 24.3987 17.7334 24.632 18.2001C25.0987 18.6667 25.332 18.9001 26.032 18.6667C26.4987 18.4334 26.732 17.9667 27.1987 17.7334C27.1987 17.7334 27.1987 17.7334 27.432 17.5001C27.432 17.9667 27.1987 18.4334 27.432 18.9001C27.6653 18.9001 27.8987 18.6667 28.132 18.6667C28.5987 18.2001 28.832 17.9667 29.0653 17.5001L29.2987 17.2667C29.7653 17.7334 29.9987 17.9667 30.4653 18.4334C30.232 18.4334 30.232 18.6667 30.4653 18.6667C30.4653 18.6667 30.6987 18.6667 30.6987 18.9001C30.932 18.4334 30.6987 17.9667 30.6987 17.5001C31.1653 17.9667 31.3987 18.4334 31.8653 18.6667C32.0987 18.6667 32.332 18.6667 32.332 18.6667C32.5653 18.6667 32.7987 18.6667 32.7987 18.4334C32.7987 18.2001 33.032 17.9667 33.032 17.7334C33.2653 16.8001 33.032 15.8667 33.032 14.9334C32.7987 13.3001 32.332 11.9001 31.8653 10.5001C31.3987 9.80008 31.1653 8.63341 30.6987 7.70008Z" fill="#B2BEC7"/>
</svg>
