<svg width="20" height="20" viewBox="0 0 20 20" fill="none" xmlns="http://www.w3.org/2000/svg">
<path opacity="0.3" fill-rule="evenodd" clip-rule="evenodd" d="M9.99935 18.3337C14.6017 18.3337 18.3327 14.6027 18.3327 10.0003C18.3327 5.39795 14.6017 1.66699 9.99935 1.66699C5.39698 1.66699 1.66602 5.39795 1.66602 10.0003C1.66602 14.6027 5.39698 18.3337 9.99935 18.3337Z" fill="#B2BEC7"/>
<path d="M8.82578 11.0071V12.3896H9.87578C11.9933 12.3896 13.6558 10.7621 13.6558 8.66207C13.6558 6.56207 11.9933 4.93457 9.87578 4.93457C7.75828 4.93457 6.11328 6.56207 6.11328 8.66207H7.60078C7.60078 7.33207 8.52828 6.31707 9.87578 6.31707C11.2058 6.31707 12.1683 7.33207 12.1683 8.66207C12.1683 9.99207 11.2058 11.0071 9.87578 11.0071H8.82578Z" fill="#B2BEC7"/>
<path d="M9.99995 13.3329C9.53971 13.3329 9.16661 13.706 9.16661 14.1662C9.16661 14.6265 9.53971 14.9996 9.99995 14.9996C10.4602 14.9996 10.8333 14.6265 10.8333 14.1662C10.8333 13.706 10.4602 13.3329 9.99995 13.3329Z" fill="#B2BEC7"/>
</svg>
