<svg width="20" height="20" viewBox="0 0 20 20" fill="none" xmlns="http://www.w3.org/2000/svg">
<path opacity="0.3" fill-rule="evenodd" clip-rule="evenodd" d="M9.99935 18.3332C14.6017 18.3332 18.3327 14.6022 18.3327 9.99984C18.3327 5.39746 14.6017 1.6665 9.99935 1.6665C5.39698 1.6665 1.66602 5.39746 1.66602 9.99984C1.66602 14.6022 5.39698 18.3332 9.99935 18.3332Z" fill="#F9F9F9"/>
<path d="M8.82578 11.0076V12.3901H9.87578C11.9933 12.3901 13.6558 10.7626 13.6558 8.66256C13.6558 6.56256 11.9933 4.93506 9.87578 4.93506C7.75828 4.93506 6.11328 6.56256 6.11328 8.66256H7.60078C7.60078 7.33256 8.52828 6.31756 9.87578 6.31756C11.2058 6.31756 12.1683 7.33256 12.1683 8.66256C12.1683 9.99256 11.2058 11.0076 9.87578 11.0076H8.82578Z" fill="#F9F9F9"/>
<path d="M9.99995 13.3334C9.53971 13.3334 9.16661 13.7065 9.16661 14.1667C9.16661 14.627 9.53971 15.0001 9.99995 15.0001C10.4602 15.0001 10.8333 14.627 10.8333 14.1667C10.8333 13.7065 10.4602 13.3334 9.99995 13.3334Z" fill="#F9F9F9"/>
</svg>
