<svg width="24" height="24" viewBox="0 0 24 24" fill="none" xmlns="http://www.w3.org/2000/svg">
<path fill-rule="evenodd" clip-rule="evenodd" d="M24 12C24 18.6274 18.6274 24 12 24C5.37258 24 0 18.6274 0 12C0 5.37258 5.37258 0 12 0C18.6274 0 24 5.37258 24 12ZM10.3088 15.4414V13.4506H11.8208C13.736 13.4506 15.122 11.989 15.122 10.0738C15.122 8.15858 13.736 6.69698 11.8208 6.69698C9.88043 6.69698 8.54483 8.15858 8.54483 10.0738H6.40283C6.40283 7.04978 8.77163 4.70618 11.8208 4.70618C14.87 4.70618 17.264 7.04978 17.264 10.0738C17.264 13.0978 14.87 15.4414 11.8208 15.4414H10.3088ZM10.7996 17.9998C10.7996 17.337 11.3369 16.7998 11.9996 16.7998C12.6624 16.7998 13.1996 17.337 13.1996 17.9998C13.1996 18.6625 12.6624 19.1998 11.9996 19.1998C11.3369 19.1998 10.7996 18.6625 10.7996 17.9998Z" fill="#F9F9F9"/>
</svg>
