<svg width="160" height="160" viewBox="0 0 160 160" fill="none" xmlns="http://www.w3.org/2000/svg">
<g opacity="0.3">
<path opacity="0.3" d="M126 153.333C95.3337 153.333 65.3337 153.333 35.3337 153.333C35.3337 153.333 34.667 153.333 34.667 152.666C29.3337 135.333 23.3337 118 18.0003 100.666C14.667 88.6665 10.667 76.6665 6.66699 63.9998C6.66699 63.3332 6.66699 63.3332 7.33366 62.6665C22.667 50.6665 38.0003 39.3332 53.3337 27.3332C62.0003 20.6665 71.3337 13.9998 80.0003 6.6665C80.667 6.6665 80.667 6.6665 81.3337 6.6665C82.667 7.33317 83.3337 7.99984 84.667 9.33317C102 22.6665 119.334 35.3332 136.667 48.6665C142 52.6665 147.334 56.6665 152.667 60.6665V61.3332C146.667 82.6665 140 103.333 134 124.666C132 134 128.667 143.333 126 153.333ZM80.0003 143.333C84.0003 143.333 88.0003 143.333 91.3337 143.333C100 143.333 109.334 143.333 118 144C118 144 118.667 144 118.667 143.333C125.334 121.333 132 99.9998 138.667 77.9998C140 73.9998 141.334 69.9998 142 66.6665V65.9998C121.334 50.6665 100.667 35.3332 80.667 19.9998H80.0003C77.3337 21.9998 74.0003 23.9998 71.3337 25.9998C66.0003 29.9998 60.667 33.9998 54.667 37.9998C42.0003 47.3332 30.0003 56.6665 17.3337 66.6665C17.3337 66.6665 17.3337 66.6665 17.3337 67.3332C19.3337 73.3332 21.3337 79.3332 23.3337 85.3332C29.3337 104.666 35.3337 123.333 41.3337 142.666C41.3337 143.333 41.3337 143.333 42.0003 143.333C47.3337 143.333 52.667 143.333 58.0003 143.333C65.3337 143.333 72.667 143.333 80.0003 143.333Z" fill="white"/>
</g>
<path d="M54.6676 86.6685C53.3343 86.6685 52.001 86.6685 51.3343 86.6685C50.001 86.6685 50.001 86.6685 49.3343 85.3351C48.001 83.3351 47.3343 81.3351 46.001 79.3351C45.3343 78.0018 44.001 76.0018 43.3343 74.6685C43.3343 74.0018 43.3343 74.0018 43.3343 73.3351C43.3343 72.0018 43.3343 70.6685 44.001 68.6685C44.001 66.6685 44.6676 65.3351 44.6676 63.3351C44.6676 62.6685 44.6676 62.6685 44.6676 62.0018C42.6676 62.0018 42.001 62.0018 41.3343 61.3351C40.6676 60.6685 39.3343 60.0018 38.6676 60.0018C36.6676 58.6685 35.3343 57.3351 34.001 55.3351C32.001 52.6685 31.3343 50.0018 32.001 47.3351C32.001 46.0018 32.6676 45.3351 33.3343 44.0018C34.001 42.0018 35.3343 39.3351 36.001 37.3351C36.6676 35.3351 37.3343 32.6685 36.6676 30.6685C36.6676 29.3351 36.001 28.0018 35.3343 26.6685C35.3343 26.6685 35.3343 26.6685 35.3343 26.0018C35.3343 26.0018 36.001 26.0018 36.6676 26.6685C38.001 27.3351 39.3343 28.0018 40.6676 28.6685C42.6676 30.0018 44.001 31.3351 46.001 32.6685C46.6676 33.3351 47.3343 34.0018 47.3343 34.6685C48.001 35.3351 49.3343 36.0018 50.001 37.3351L50.6676 38.0018L51.3343 38.6685C51.3343 38.0018 51.3343 37.3351 51.3343 36.6685C51.3343 36.0018 51.3343 35.3351 52.001 34.6685C52.6676 34.0018 53.3343 34.0018 54.001 34.6685C56.001 36.0018 57.3343 36.6685 59.3343 38.0018C61.3343 38.6685 62.6676 40.0018 64.001 40.6685C65.3343 41.3351 67.3343 42.6685 68.6676 43.3351C71.3343 44.6685 73.3343 46.0018 76.001 47.3351C77.3343 48.0018 78.6676 48.6685 79.3343 49.3351C80.001 49.3351 80.001 49.3351 80.6676 49.3351C82.6676 48.0018 85.3343 46.6685 87.3343 45.3351C89.3343 44.0018 91.3343 42.6685 93.3343 42.0018C95.3343 40.6685 97.3343 40.0018 99.3343 38.6685C101.334 37.3351 103.334 36.6685 105.334 35.3351C106.001 34.6685 106.668 34.6685 107.334 34.0018H108.001C108.668 34.0018 108.668 34.6685 108.668 34.6685C108.668 35.3351 108.668 36.6685 108.668 37.3351V38.0018C108.668 38.0018 109.334 38.0018 109.334 37.3351C110.001 36.6685 110.668 36.0018 111.334 35.3351C112.001 34.6685 112.668 34.0018 112.668 33.3351C114.001 32.0018 114.668 31.3351 116.001 30.0018C116.668 29.3351 117.334 29.3351 117.334 28.6685C118.668 28.0018 120.001 26.6685 121.334 26.0018C122.668 25.3351 123.334 24.6685 124.668 24.6685C124.668 25.3351 124.001 26.0018 124.001 26.6685C123.334 28.0018 123.334 29.3351 123.334 30.6685C123.334 32.6685 123.334 34.0018 124.001 35.3351C125.334 38.0018 126.001 40.0018 126.668 42.0018C127.334 43.3351 128.001 45.3351 128.668 46.6685C129.334 48.0018 128.668 49.3351 128.668 50.0018C128.001 52.0018 127.334 53.3351 126.668 55.3351C126.001 56.6685 124.668 57.3351 123.334 58.6685C122.668 58.6685 122.668 59.3351 122.668 59.3351C121.334 60.6685 119.334 61.3351 117.334 62.6685C117.334 63.3351 117.334 64.0018 117.334 65.3351C118.001 68.0018 118.001 70.6685 118.668 74.0018V74.6685C117.334 77.3351 115.334 80.0018 114.001 82.6685C113.334 84.0018 112.668 84.6685 112.001 86.0018C112.001 86.0018 111.334 86.0018 111.334 86.6685C110.001 86.6685 108.668 86.6685 108.001 86.6685H107.334C107.334 87.3351 108.001 88.0018 108.001 88.6685C108.668 90.6685 109.334 92.6685 109.334 94.6685C109.334 96.6685 110.001 98.0018 109.334 100.002C109.334 103.335 108.001 106.668 106.001 109.335C106.001 110.002 105.334 110.002 105.334 110.668C105.334 112.668 104.668 114.668 104.668 116.002C104.668 118.002 104.001 119.335 104.001 121.335C104.001 122.668 103.334 124.668 103.334 126.002C103.334 127.335 102.668 128.668 102.668 130.002C102.001 132.002 102.001 133.335 101.334 135.335C100.668 136.668 100.668 138.002 100.001 140.002C99.3343 141.335 99.3343 142.668 98.6676 144.002C98.001 145.335 97.3343 146.668 96.6676 148.002C95.3343 150.002 94.001 152.002 92.001 154.002C92.001 154.002 92.001 154.668 91.3343 154.668C91.3343 154.002 91.3343 154.002 92.001 153.335C92.001 152.668 92.6676 151.335 92.6676 150.668C92.6676 148.668 93.3343 146.668 93.3343 145.335C93.3343 144.002 93.3343 143.335 93.3343 142.002C93.3343 140.002 93.3343 138.002 93.3343 136.002C93.3343 135.335 93.3343 134.002 93.3343 133.335C93.3343 131.335 93.3343 129.335 92.6676 127.335C92.6676 126.002 92.001 124.002 92.001 122.668C92.001 121.335 91.3343 120.002 91.3343 118.668C90.6676 119.335 90.001 120.002 89.3343 120.668C89.3343 120.668 89.3343 120.002 88.6676 120.002C88.001 118.668 87.3343 118.002 86.6676 116.668C86.001 118.002 85.3343 118.668 84.6676 120.002C83.3343 118.002 82.001 116.002 81.3343 113.335C80.6676 114.668 80.001 115.335 80.001 116.668C79.3343 118.002 78.6676 118.668 78.001 120.002C77.3343 118.668 76.001 118.002 76.001 116.668C75.3343 118.002 74.6676 119.335 74.001 120.668C73.3343 120.002 72.6676 119.335 72.001 118.668C72.001 118.668 72.001 118.668 72.001 119.335C71.3343 122.002 70.6676 124.668 70.6676 126.668C70.001 130.002 70.001 132.668 70.001 136.002C70.001 138.002 70.001 140.668 70.001 142.668C70.001 144.668 70.001 146.668 70.001 149.335C70.001 151.335 70.6676 152.668 70.6676 154.668C70.6676 155.335 70.6676 155.335 71.3343 156.002C70.001 154.668 68.6676 154.002 68.001 152.668C67.3343 152.002 66.6676 150.668 66.001 150.002C65.3343 148.668 64.6676 147.335 64.001 146.002C63.3343 144.002 62.6676 142.002 62.001 139.335C60.001 134.668 60.001 133.335 59.3343 131.335C58.6676 128.668 58.001 126.002 58.001 124.002C58.001 122.002 57.3343 120.668 57.3343 118.668C57.3343 116.668 56.6676 114.668 56.6676 113.335C56.6676 112.002 56.001 110.002 56.001 108.668C56.001 108.668 56.001 108.002 55.3343 108.002C54.001 106.668 53.3343 105.335 52.6676 103.335C52.001 102.002 52.001 100.002 52.001 98.6685C52.001 94.6685 52.6676 90.6685 54.6676 86.6685ZM91.3343 80.0018C90.6676 80.6685 89.3343 81.3351 88.6676 81.3351C86.6676 82.0018 85.3343 82.6685 83.3343 83.3351C82.6676 83.3351 81.3343 84.0018 80.6676 84.0018C80.001 84.0018 79.3343 84.0018 78.6676 83.3351C77.3343 82.6685 75.3343 82.0018 74.001 81.3351C73.3343 80.6685 72.001 80.6685 71.3343 80.0018C70.6676 80.0018 70.6676 79.3351 70.001 79.3351C69.3343 81.3351 68.001 83.3351 67.3343 85.3351C67.3343 86.0018 67.3343 86.0018 67.3343 86.0018C68.6676 88.0018 70.6676 89.3351 72.001 91.3351C72.6676 92.0018 72.6676 92.0018 73.3343 92.6685C74.001 92.6685 74.001 92.0018 74.001 92.0018L74.6676 91.3351C75.3343 90.6685 76.001 90.6685 76.001 92.0018C76.6676 94.0018 78.001 96.0018 78.6676 97.3351C80.001 97.3351 81.3343 97.3351 82.6676 97.3351C83.3343 96.6685 83.3343 96.0018 83.3343 95.3351C84.001 94.0018 84.6676 92.6685 85.3343 91.3351C85.3343 90.6685 86.001 90.6685 86.001 90.6685C86.6676 90.6685 86.6676 91.3351 87.3343 91.3351C88.001 91.3351 88.001 92.0018 88.6676 92.0018L89.3343 91.3351C91.3343 89.3351 92.6676 87.3351 94.6676 85.3351C94.6676 85.3351 95.3343 84.6685 94.6676 84.6685C93.3343 84.0018 92.001 82.0018 91.3343 80.0018ZM96.6676 76.6685C97.3343 77.3351 98.001 77.3351 98.6676 77.3351C99.3343 77.3351 100.001 77.3351 100.001 78.0018C101.334 78.0018 102.668 78.0018 104.001 78.0018C105.334 77.3351 106.001 76.6685 106.668 75.3351C108.001 72.6685 107.334 70.6685 106.668 68.0018C103.334 71.3351 100.001 74.0018 96.6676 76.6685ZM64.001 76.6685C62.001 75.3351 60.6676 74.0018 58.6676 72.6685C57.3343 71.3351 55.3343 70.0018 54.001 68.6685C53.3343 70.6685 52.6676 72.0018 53.3343 74.0018C54.001 76.6685 56.001 78.6685 58.6676 78.6685C60.6676 78.0018 62.6676 78.0018 64.001 76.6685Z" fill="white"/>
<path d="M94.6654 36.6676C93.9987 34.6676 93.332 33.3343 91.9987 32.001C90.6654 30.6676 89.332 29.3343 87.9987 28.6676C86.6654 28.001 85.332 27.3343 83.9987 27.3343C81.332 26.6676 79.332 26.6676 76.6654 27.3343C75.332 27.3343 74.6654 28.001 73.332 28.001C71.332 28.6676 69.9987 30.001 68.6654 30.6676C67.332 33.3343 65.9987 34.6676 65.9987 36.6676C65.332 36.6676 65.332 36.6676 64.6654 36.6676C62.6654 35.3343 61.332 34.6676 59.332 33.3343C58.6654 32.6676 57.332 32.001 56.6654 31.3343C55.332 30.001 53.332 29.3343 51.9987 28.001C51.332 27.3343 49.9987 27.3343 49.332 26.001C49.9987 24.6676 51.332 24.001 51.9987 22.6676C52.6654 22.001 53.332 21.3343 53.9987 20.6676C54.6654 20.001 55.332 19.3343 56.6654 19.3343H57.332C59.332 18.6676 60.6654 18.001 62.6654 17.3343C64.6654 16.6676 66.6654 16.001 68.6654 15.3343C69.9987 14.6676 71.332 14.6676 72.6654 14.001H73.332C78.6654 14.001 83.332 14.001 88.6654 14.001C89.332 14.001 89.9987 14.001 90.6654 14.6676C91.9987 15.3343 93.9987 16.001 95.332 16.6676C96.6654 17.3343 97.9987 17.3343 99.332 18.001C100.665 18.6676 101.332 18.6676 102.665 19.3343C103.332 20.001 104.665 20.001 105.332 20.6676C105.999 20.6676 105.999 21.3343 105.999 21.3343C107.332 23.3343 109.332 25.3343 110.665 27.3343C109.999 28.001 109.332 28.6676 108.665 29.3343C106.665 30.6676 104.665 32.001 103.332 33.3343C101.332 34.6676 99.332 36.001 97.332 37.3343C96.6654 37.3343 96.6654 38.001 95.9987 38.001C95.9987 37.3343 95.332 37.3343 94.6654 36.6676Z" fill="white"/>
<path d="M113.332 90.0016C114.666 90.0016 115.332 89.335 115.999 88.6683C117.332 86.6683 118.666 84.0016 119.332 82.0016C119.332 82.0016 119.332 81.335 119.999 81.335C121.332 84.6683 122.666 87.335 123.999 90.6683C125.999 95.335 127.999 99.335 129.999 103.335C129.999 104.002 129.999 104.002 129.999 104.668C129.332 106.668 127.999 108.668 126.666 110.668C125.332 112.668 123.999 114.668 122.666 116.668C121.332 118.002 119.999 119.335 119.332 120.668C118.666 121.335 117.332 122.668 116.666 123.335C115.999 124.002 115.332 124.668 113.999 126.002C113.332 126.668 112.666 127.335 111.999 128.002C110.666 129.335 108.666 130.668 106.666 132.002C106.666 132.002 105.999 132.002 105.999 132.668V132.002C107.332 125.335 108.666 118.668 109.999 112.002C109.999 112.002 109.999 111.335 110.666 111.335C112.666 110.002 113.999 108.002 114.666 105.335C115.999 100.668 115.999 96.0016 114.666 91.335C113.332 90.6683 113.332 90.0016 113.332 90.0016Z" fill="white"/>
<path d="M55.3337 132.001C54.667 132.001 54.667 132.001 54.667 131.334C54.0003 130.667 53.3337 130.001 52.0003 129.334C50.0003 127.334 47.3337 125.334 45.3337 123.334C44.667 122.667 44.0003 122.001 43.3337 121.334C42.0003 120.001 41.3337 119.334 40.0003 118.001C39.3337 116.667 38.0003 116.001 37.3337 114.667C35.3337 112.001 33.3337 109.334 32.0003 106.667C31.3337 106.001 30.667 104.667 30.667 103.334C30.667 102.667 30.667 102.667 30.667 102.667C34.0003 96.6675 36.0003 90.6675 38.667 85.3341C39.3337 84.0008 40.0003 82.6675 40.667 81.3341C40.667 81.3341 40.667 81.3341 40.667 80.6675C40.667 80.6675 40.667 81.3341 41.3337 81.3341C42.667 83.3341 44.0003 86.0008 44.667 88.0008C45.3337 88.6675 46.0003 89.3341 46.667 89.3341C46.667 89.3341 46.667 89.3341 46.667 90.0008C45.3337 92.6675 45.3337 96.0008 45.3337 98.6675C45.3337 101.334 46.0003 104.001 47.3337 106.667C48.0003 108.001 48.667 109.334 50.0003 110.001L50.667 110.667C51.3337 113.334 52.0003 116.001 52.0003 119.334C52.667 123.334 53.3337 126.667 54.0003 130.667C54.667 131.334 54.667 131.334 55.3337 132.001Z" fill="white"/>
<path d="M72.6673 122.667C78.0006 125.333 83.334 125.333 88.0007 122.667C88.0007 123.333 88.0007 124 88.0007 124.667C88.0007 126.667 88.0007 128.667 88.0007 130C88.0007 130.667 88.0007 130.667 87.334 130.667C86.0007 131.333 84.6673 132 82.6673 132C80.6673 132 78.0006 132 76.0006 132C75.334 132 75.334 132 74.6673 132C74.0007 132 72.6673 131.333 72.0007 130.667C71.334 130.667 71.334 130 71.334 129.333C71.334 128 71.334 126 71.334 124.667C72.0007 124.667 72.6673 124 72.6673 122.667Z" fill="white"/>
</svg>
