<svg width="57" height="56" viewBox="0 0 57 56" fill="none" xmlns="http://www.w3.org/2000/svg">
<g opacity="0.3">
<path opacity="0.3" d="M44.7667 53.6666C34.0333 53.6666 23.5333 53.6666 13.0333 53.6666C13.0333 53.6666 12.8 53.6666 12.8 53.4332C10.9333 47.3666 8.83333 41.2999 6.96667 35.2333C5.8 31.0333 4.4 26.8333 3 22.3999C3 22.1666 3 22.1666 3.23333 21.9333C8.6 17.7333 13.9667 13.7666 19.3333 9.56658C22.3667 7.23325 25.6333 4.89992 28.6667 2.33325C28.9 2.33325 28.9 2.33325 29.1333 2.33325C29.6 2.56659 29.8333 2.79992 30.3 3.26659C36.3667 7.93325 42.4333 12.3666 48.5 17.0333C50.3667 18.4333 52.2333 19.8333 54.1 21.2333V21.4666C52 28.9333 49.6667 36.1666 47.5667 43.6333C46.8667 46.8999 45.7 50.1666 44.7667 53.6666ZM28.6667 50.1666C30.0667 50.1666 31.4667 50.1666 32.6333 50.1666C35.6667 50.1666 38.9333 50.1666 41.9667 50.3999C41.9667 50.3999 42.2 50.3999 42.2 50.1666C44.5333 42.4666 46.8667 34.9999 49.2 27.2999C49.6667 25.8999 50.1333 24.4999 50.3667 23.3333V23.0999C43.1333 17.7333 35.9 12.3666 28.9 6.99992H28.6667C27.7333 7.69992 26.5667 8.39992 25.6333 9.09992C23.7667 10.4999 21.9 11.8999 19.8 13.2999C15.3667 16.5666 11.1667 19.8333 6.73333 23.3333C6.73333 23.3333 6.73333 23.3333 6.73333 23.5666C7.43333 25.6666 8.13333 27.7666 8.83333 29.8666C10.9333 36.6333 13.0333 43.1666 15.1333 49.9332C15.1333 50.1666 15.1333 50.1666 15.3667 50.1666C17.2333 50.1666 19.1 50.1666 20.9667 50.1666C23.5333 50.1666 26.1 50.1666 28.6667 50.1666Z" fill="#B2BEC7"/>
</g>
<path d="M19.8021 30.3333C19.3354 30.3333 18.8687 30.3333 18.6354 30.3333C18.1687 30.3333 18.1688 30.3333 17.9354 29.8666C17.4688 29.1666 17.2354 28.4666 16.7688 27.7666C16.5354 27.3 16.0687 26.6 15.8354 26.1333C15.8354 25.9 15.8354 25.9 15.8354 25.6666C15.8354 25.2 15.8354 24.7333 16.0687 24.0333C16.0687 23.3333 16.3021 22.8666 16.3021 22.1666C16.3021 21.9333 16.3021 21.9333 16.3021 21.7C15.6021 21.7 15.3687 21.7 15.1354 21.4666C14.9021 21.2333 14.4354 21 14.2021 21C13.5021 20.5333 13.0354 20.0666 12.5687 19.3666C11.8687 18.4333 11.6354 17.5 11.8688 16.5666C11.8688 16.1 12.1021 15.8666 12.3354 15.4C12.5687 14.7 13.0354 13.7666 13.2687 13.0666C13.5021 12.3666 13.7354 11.4333 13.5021 10.7333C13.5021 10.2666 13.2688 9.79997 13.0354 9.3333C13.0354 9.3333 13.0354 9.3333 13.0354 9.09997C13.0354 9.09997 13.2687 9.09997 13.5021 9.3333C13.9687 9.56663 14.4354 9.79997 14.9021 10.0333C15.6021 10.5 16.0688 10.9666 16.7688 11.4333C17.0021 11.6666 17.2354 11.9 17.2354 12.1333C17.4688 12.3666 17.9354 12.6 18.1688 13.0666L18.4021 13.3L18.6354 13.5333C18.6354 13.3 18.6354 13.0666 18.6354 12.8333C18.6354 12.6 18.6354 12.3666 18.8688 12.1333C19.1021 11.9 19.3354 11.9 19.5688 12.1333C20.2688 12.6 20.7354 12.8333 21.4354 13.3C22.1354 13.5333 22.6021 14 23.0688 14.2333C23.5354 14.4666 24.2354 14.9333 24.7021 15.1666C25.6354 15.6333 26.3354 16.1 27.2687 16.5666C27.7354 16.8 28.2021 17.0333 28.4354 17.2666C28.6687 17.2666 28.6688 17.2666 28.9021 17.2666C29.6021 16.8 30.5354 16.3333 31.2354 15.8666C31.9354 15.4 32.6354 14.9333 33.3354 14.7C34.0354 14.2333 34.7354 14 35.4354 13.5333C36.1354 13.0666 36.8354 12.8333 37.5354 12.3666C37.7688 12.1333 38.0021 12.1333 38.2354 11.9H38.4688C38.7021 11.9 38.7021 12.1333 38.7021 12.1333C38.7021 12.3666 38.7021 12.8333 38.7021 13.0666V13.3C38.7021 13.3 38.9354 13.3 38.9354 13.0666C39.1688 12.8333 39.4021 12.6 39.6354 12.3666C39.8688 12.1333 40.1021 11.9 40.1021 11.6666C40.5688 11.2 40.8021 10.9666 41.2688 10.5C41.5021 10.2666 41.7354 10.2666 41.7354 10.0333C42.2021 9.79997 42.6688 9.3333 43.1354 9.09997C43.6021 8.86663 43.8354 8.6333 44.3021 8.6333C44.3021 8.86663 44.0688 9.09997 44.0688 9.3333C43.8354 9.79997 43.8354 10.2666 43.8354 10.7333C43.8354 11.4333 43.8354 11.9 44.0688 12.3666C44.5354 13.3 44.7688 14 45.0021 14.7C45.2354 15.1666 45.4688 15.8666 45.7021 16.3333C45.9354 16.8 45.7021 17.2666 45.7021 17.5C45.4688 18.2 45.2354 18.6666 45.0021 19.3666C44.7688 19.8333 44.3021 20.0666 43.8354 20.5333C43.6021 20.5333 43.6021 20.7666 43.6021 20.7666C43.1354 21.2333 42.4354 21.4666 41.7354 21.9333C41.7354 22.1666 41.7354 22.4 41.7354 22.8666C41.9688 23.8 41.9688 24.7333 42.2021 25.9V26.1333C41.7354 27.0666 41.0354 28 40.5688 28.9333C40.3354 29.4 40.1021 29.6333 39.8688 30.1C39.8688 30.1 39.6354 30.1 39.6354 30.3333C39.1688 30.3333 38.7021 30.3333 38.4688 30.3333H38.2354C38.2354 30.5666 38.4688 30.8 38.4688 31.0333C38.7021 31.7333 38.9354 32.4333 38.9354 33.1333C38.9354 33.8333 39.1688 34.3 38.9354 35C38.9354 36.1666 38.4688 37.3333 37.7688 38.2666C37.7688 38.5 37.5354 38.5 37.5354 38.7333C37.5354 39.4333 37.3021 40.1333 37.3021 40.6C37.3021 41.3 37.0688 41.7666 37.0688 42.4666C37.0688 42.9333 36.8354 43.6333 36.8354 44.1C36.8354 44.5666 36.6021 45.0333 36.6021 45.5C36.3688 46.2 36.3688 46.6666 36.1354 47.3666C35.9021 47.8333 35.9021 48.3 35.6688 49C35.4354 49.4666 35.4354 49.9333 35.2021 50.4C34.9688 50.8666 34.7354 51.3333 34.5021 51.8C34.0354 52.5 33.5688 53.2 32.8688 53.9C32.8688 53.9 32.8688 54.1333 32.6354 54.1333C32.6354 53.9 32.6354 53.9 32.8688 53.6666C32.8688 53.4333 33.1021 52.9666 33.1021 52.7333C33.1021 52.0333 33.3354 51.3333 33.3354 50.8666C33.3354 50.4 33.3354 50.1666 33.3354 49.7C33.3354 49 33.3354 48.3 33.3354 47.6C33.3354 47.3666 33.3354 46.9 33.3354 46.6666C33.3354 45.9666 33.3354 45.2666 33.1021 44.5666C33.1021 44.1 32.8688 43.4 32.8688 42.9333C32.8688 42.4666 32.6354 42 32.6354 41.5333C32.4021 41.7666 32.1688 42 31.9354 42.2333C31.9354 42.2333 31.9354 42 31.7021 42C31.4688 41.5333 31.2354 41.3 31.0021 40.8333C30.7688 41.3 30.5354 41.5333 30.3021 42C29.8354 41.3 29.3688 40.6 29.1354 39.6666C28.9021 40.1333 28.6688 40.3666 28.6688 40.8333C28.4354 41.3 28.2021 41.5333 27.9687 42C27.7354 41.5333 27.2687 41.3 27.2687 40.8333C27.0354 41.3 26.8021 41.7666 26.5688 42.2333C26.3354 42 26.1021 41.7666 25.8688 41.5333C25.8688 41.5333 25.8688 41.5333 25.8688 41.7666C25.6354 42.7 25.4021 43.6333 25.4021 44.3333C25.1688 45.5 25.1688 46.4333 25.1688 47.6C25.1688 48.3 25.1688 49.2333 25.1688 49.9333C25.1688 50.6333 25.1688 51.3333 25.1688 52.2666C25.1688 52.9666 25.4021 53.4333 25.4021 54.1333C25.4021 54.3666 25.4021 54.3666 25.6354 54.6C25.1687 54.1333 24.7021 53.9 24.4687 53.4333C24.2354 53.2 24.0021 52.7333 23.7687 52.5C23.5354 52.0333 23.3021 51.5666 23.0688 51.1C22.8354 50.4 22.6021 49.7 22.3688 48.7666C21.6688 47.1333 21.6687 46.6666 21.4354 45.9666C21.2021 45.0333 20.9688 44.1 20.9688 43.4C20.9688 42.7 20.7354 42.2333 20.7354 41.5333C20.7354 40.8333 20.5021 40.1333 20.5021 39.6666C20.5021 39.2 20.2687 38.5 20.2687 38.0333C20.2687 38.0333 20.2688 37.8 20.0354 37.8C19.5688 37.3333 19.3354 36.8666 19.1021 36.1666C18.8688 35.7 18.8688 35 18.8688 34.5333C18.8688 33.1333 19.1021 31.7333 19.8021 30.3333ZM32.6354 28C32.4021 28.2333 31.9354 28.4666 31.7021 28.4666C31.0021 28.7 30.5354 28.9333 29.8354 29.1666C29.6021 29.1666 29.1354 29.4 28.9021 29.4C28.6688 29.4 28.4354 29.4 28.2021 29.1666C27.7354 28.9333 27.0354 28.7 26.5688 28.4666C26.3354 28.2333 25.8687 28.2333 25.6354 28C25.4021 28 25.4021 27.7666 25.1688 27.7666C24.9354 28.4666 24.4688 29.1666 24.2354 29.8666C24.2354 30.1 24.2354 30.1 24.2354 30.1C24.7021 30.8 25.4021 31.2666 25.8688 31.9666C26.1021 32.2 26.1021 32.2 26.3354 32.4333C26.5688 32.4333 26.5688 32.2 26.5688 32.2L26.8021 31.9666C27.0354 31.7333 27.2687 31.7333 27.2687 32.2C27.5021 32.9 27.9688 33.6 28.2021 34.0666C28.6688 34.0666 29.1354 34.0666 29.6021 34.0666C29.8354 33.8333 29.8354 33.6 29.8354 33.3666C30.0688 32.9 30.3021 32.4333 30.5354 31.9666C30.5354 31.7333 30.7688 31.7333 30.7688 31.7333C31.0021 31.7333 31.0021 31.9666 31.2354 31.9666C31.4688 31.9666 31.4688 32.2 31.7021 32.2L31.9354 31.9666C32.6354 31.2666 33.1021 30.5666 33.8021 29.8666C33.8021 29.8666 34.0354 29.6333 33.8021 29.6333C33.3354 29.4 32.8688 28.7 32.6354 28ZM34.5021 26.8333C34.7354 27.0666 34.9688 27.0666 35.2021 27.0666C35.4354 27.0666 35.6688 27.0666 35.6688 27.3C36.1354 27.3 36.6021 27.3 37.0688 27.3C37.5354 27.0666 37.7688 26.8333 38.0021 26.3666C38.4688 25.4333 38.2354 24.7333 38.0021 23.8C36.8354 24.9666 35.6688 25.9 34.5021 26.8333ZM23.0688 26.8333C22.3688 26.3666 21.9021 25.9 21.2021 25.4333C20.7354 24.9666 20.0354 24.5 19.5688 24.0333C19.3354 24.7333 19.1021 25.2 19.3354 25.9C19.5688 26.8333 20.2688 27.5333 21.2021 27.5333C21.9021 27.3 22.6021 27.3 23.0688 26.8333Z" fill="#B2BEC7"/>
<path d="M33.8003 12.8332C33.5669 12.1332 33.3336 11.6666 32.8669 11.1999C32.4003 10.7332 31.9336 10.2666 31.4669 10.0332C31.0003 9.7999 30.5336 9.56657 30.0669 9.56657C29.1336 9.33324 28.4336 9.33324 27.5003 9.56657C27.0336 9.56657 26.8003 9.7999 26.3336 9.7999C25.6336 10.0332 25.1669 10.4999 24.7003 10.7332C24.2336 11.6666 23.7669 12.1332 23.7669 12.8332C23.5336 12.8332 23.5336 12.8332 23.3003 12.8332C22.6003 12.3666 22.1336 12.1332 21.4336 11.6666C21.2003 11.4332 20.7336 11.1999 20.5003 10.9666C20.0336 10.4999 19.3336 10.2666 18.8669 9.7999C18.6336 9.56657 18.1669 9.56657 17.9336 9.0999C18.1669 8.63324 18.6336 8.3999 18.8669 7.93324C19.1003 7.6999 19.3336 7.46657 19.5669 7.23324C19.8003 6.9999 20.0336 6.76657 20.5003 6.76657H20.7336C21.4336 6.53324 21.9003 6.2999 22.6003 6.06657C23.3003 5.83324 24.0003 5.5999 24.7003 5.36657C25.1669 5.13324 25.6336 5.13324 26.1003 4.8999H26.3336C28.2003 4.8999 29.8336 4.8999 31.7003 4.8999C31.9336 4.8999 32.1669 4.8999 32.4003 5.13324C32.8669 5.36657 33.5669 5.5999 34.0336 5.83324C34.5003 6.06657 34.9669 6.06657 35.4336 6.2999C35.9003 6.53324 36.1336 6.53324 36.6003 6.76657C36.8336 6.9999 37.3003 6.9999 37.5336 7.23324C37.7669 7.23324 37.7669 7.46657 37.7669 7.46657C38.2336 8.16657 38.9336 8.86657 39.4003 9.56657C39.1669 9.7999 38.9336 10.0332 38.7003 10.2666C38.0003 10.7332 37.3003 11.1999 36.8336 11.6666C36.1336 12.1332 35.4336 12.5999 34.7336 13.0666C34.5003 13.0666 34.5003 13.2999 34.2669 13.2999C34.2669 13.0666 34.0336 13.0666 33.8003 12.8332Z" fill="#B2BEC7"/>
<path d="M40.3362 31.4999C40.8029 31.4999 41.0362 31.2666 41.2695 31.0332C41.7362 30.3332 42.2029 29.3999 42.4362 28.6999C42.4362 28.6999 42.4362 28.4666 42.6695 28.4666C43.1362 29.6332 43.6029 30.5666 44.0695 31.7332C44.7695 33.3666 45.4695 34.7666 46.1695 36.1666C46.1695 36.3999 46.1695 36.3999 46.1695 36.6332C45.9362 37.3332 45.4695 38.0332 45.0029 38.7332C44.5362 39.4332 44.0695 40.1332 43.6029 40.8332C43.1362 41.2999 42.6695 41.7666 42.4362 42.2332C42.2029 42.4666 41.7362 42.9332 41.5029 43.1666C41.2695 43.3999 41.0362 43.6332 40.5695 44.0999C40.3362 44.3332 40.1029 44.5666 39.8695 44.7999C39.4029 45.2666 38.7029 45.7332 38.0029 46.1999C38.0029 46.1999 37.7695 46.1999 37.7695 46.4332V46.1999C38.2362 43.8666 38.7029 41.5332 39.1695 39.1999C39.1695 39.1999 39.1695 38.9666 39.4029 38.9666C40.1029 38.4999 40.5695 37.7999 40.8029 36.8666C41.2695 35.2332 41.2695 33.5999 40.8029 31.9666C40.3362 31.7332 40.3362 31.4999 40.3362 31.4999Z" fill="#B2BEC7"/>
<path d="M20.0357 46.1998C19.8023 46.1998 19.8023 46.1998 19.8023 45.9665C19.569 45.7332 19.3357 45.4998 18.869 45.2665C18.169 44.5665 17.2357 43.8665 16.5357 43.1665C16.3023 42.9332 16.069 42.6998 15.8357 42.4665C15.369 41.9998 15.1357 41.7665 14.669 41.2998C14.4357 40.8332 13.969 40.5998 13.7357 40.1332C13.0357 39.1998 12.3357 38.2665 11.869 37.3332C11.6357 37.0998 11.4023 36.6332 11.4023 36.1665C11.4023 35.9332 11.4023 35.9332 11.4023 35.9332C12.569 33.8332 13.269 31.7332 14.2023 29.8665C14.4357 29.3998 14.669 28.9332 14.9023 28.4665C14.9023 28.4665 14.9023 28.4665 14.9023 28.2332C14.9023 28.2332 14.9023 28.4665 15.1357 28.4665C15.6023 29.1665 16.069 30.0998 16.3023 30.7998C16.5357 31.0332 16.769 31.2665 17.0023 31.2665C17.0023 31.2665 17.0023 31.2665 17.0023 31.4998C16.5357 32.4332 16.5357 33.5998 16.5357 34.5332C16.5357 35.4665 16.769 36.3998 17.2357 37.3332C17.469 37.7998 17.7023 38.2665 18.169 38.4998L18.4023 38.7332C18.6357 39.6665 18.869 40.5998 18.869 41.7665C19.1023 43.1665 19.3357 44.3332 19.569 45.7332C19.8023 45.9665 19.8023 45.9665 20.0357 46.1998Z" fill="#B2BEC7"/>
<path d="M26.1034 42.9333C27.9701 43.8667 29.8367 43.8667 31.4701 42.9333C31.4701 43.1667 31.4701 43.4 31.4701 43.6334C31.4701 44.3334 31.4701 45.0334 31.4701 45.5C31.4701 45.7334 31.4701 45.7334 31.2367 45.7334C30.7701 45.9667 30.3034 46.2 29.6034 46.2C28.9034 46.2 27.9701 46.2 27.2701 46.2C27.0367 46.2 27.0367 46.2 26.8034 46.2C26.5701 46.2 26.1034 45.9667 25.8701 45.7334C25.6367 45.7334 25.6367 45.5 25.6367 45.2667C25.6367 44.8 25.6367 44.1 25.6367 43.6334C25.8701 43.6334 26.1034 43.4 26.1034 42.9333Z" fill="#B2BEC7"/>
</svg>
