<svg width="32" height="32" viewBox="0 0 32 32" fill="none" xmlns="http://www.w3.org/2000/svg">
<path opacity="0.3" fill-rule="evenodd" clip-rule="evenodd" d="M8.16667 21.3333C7.33824 21.3333 6.66667 22.0048 6.66667 22.8333V26.4999C6.66667 27.3283 7.33824 27.9999 8.16667 27.9999H10.5C11.3284 27.9999 12 27.3283 12 26.4999V22.8333C12 22.0048 11.3284 21.3333 10.5 21.3333H8.16667ZM21.5 21.3333C20.6716 21.3333 20 22.0048 20 22.8333V26.4999C20 27.3283 20.6716 27.9999 21.5 27.9999H23.8333C24.6618 27.9999 25.3333 27.3283 25.3333 26.4999V22.8333C25.3333 22.0048 24.6618 21.3333 23.8333 21.3333H21.5Z" fill="#4CAF50"/>
<path fill-rule="evenodd" clip-rule="evenodd" d="M6 5.33325C4.89543 5.33325 4 6.22868 4 7.33325V23.3333C4 24.4378 4.89543 25.3333 6 25.3333H26C27.1046 25.3333 28 24.4378 28 23.3333V7.33325C28 6.22868 27.1046 5.33325 26 5.33325H6ZM25.3333 15.3333C25.3333 17.9106 23.244 19.9999 20.6667 19.9999C18.0893 19.9999 16 17.9106 16 15.3333C16 12.7559 18.0893 10.6666 20.6667 10.6666C23.244 10.6666 25.3333 12.7559 25.3333 15.3333ZM20.6667 17.3333C21.7712 17.3333 22.6667 16.4378 22.6667 15.3333C22.6667 14.2287 21.7712 13.3333 20.6667 13.3333C19.5621 13.3333 18.6667 14.2287 18.6667 15.3333C18.6667 16.4378 19.5621 17.3333 20.6667 17.3333ZM9 10.6666C8.44772 10.6666 8 11.1143 8 11.6666V14.9999C8 15.5522 8.44772 15.9999 9 15.9999H9.66667C10.219 15.9999 10.6667 15.5522 10.6667 14.9999V11.6666C10.6667 11.1143 10.219 10.6666 9.66667 10.6666H9Z" fill="#4CAF50"/>
</svg>
