<svg width="57" height="56" viewBox="0 0 57 56" fill="none" xmlns="http://www.w3.org/2000/svg">
<g opacity="0.3">
<path opacity="0.3" d="M44.5987 53.6666C33.8654 53.6666 23.3654 53.6666 12.8654 53.6666C12.8654 53.6666 12.632 53.6666 12.632 53.4332C10.7654 47.3666 8.66537 41.2999 6.7987 35.2333C5.63203 31.0333 4.23203 26.8333 2.83203 22.3999C2.83203 22.1666 2.83203 22.1666 3.06536 21.9333C8.43203 17.7333 13.7987 13.7666 19.1654 9.56658C22.1987 7.23325 25.4654 4.89992 28.4987 2.33325C28.732 2.33325 28.732 2.33325 28.9654 2.33325C29.432 2.56659 29.6654 2.79992 30.132 3.26659C36.1987 7.93325 42.2654 12.3666 48.332 17.0333C50.1987 18.4333 52.0654 19.8333 53.932 21.2333V21.4666C51.832 28.9333 49.4987 36.1666 47.3987 43.6333C46.6987 46.8999 45.532 50.1666 44.5987 53.6666ZM28.4987 50.1666C29.8987 50.1666 31.2987 50.1666 32.4654 50.1666C35.4987 50.1666 38.7654 50.1666 41.7987 50.3999C41.7987 50.3999 42.032 50.3999 42.032 50.1666C44.3654 42.4666 46.6987 34.9999 49.032 27.2999C49.4987 25.8999 49.9654 24.4999 50.1987 23.3333V23.0999C42.9654 17.7333 35.732 12.3666 28.732 6.99992H28.4987C27.5654 7.69992 26.3987 8.39992 25.4654 9.09992C23.5987 10.4999 21.732 11.8999 19.632 13.2999C15.1987 16.5666 10.9987 19.8333 6.56536 23.3333C6.56536 23.3333 6.56536 23.3333 6.56536 23.5666C7.26536 25.6666 7.96536 27.7666 8.66536 29.8666C10.7654 36.6333 12.8654 43.1666 14.9654 49.9332C14.9654 50.1666 14.9654 50.1666 15.1987 50.1666C17.0654 50.1666 18.932 50.1666 20.7987 50.1666C23.3654 50.1666 25.932 50.1666 28.4987 50.1666Z" fill="#B2BEC7"/>
</g>
<path d="M27.3325 10.9666C27.7992 11.4333 28.0325 12.1333 28.4992 12.8333C28.7325 12.1333 28.9658 11.4333 29.6658 10.7333V10.9666C29.6658 11.4333 29.6658 12.1333 29.6658 12.5999C29.8992 13.7666 30.1325 14.6999 30.8325 15.6333C31.0658 15.8666 31.0658 16.0999 31.2992 16.3333C31.7658 17.0333 32.2325 17.7333 32.9325 18.4333C32.9325 18.4333 32.9325 18.4333 33.1658 18.4333C32.4658 16.3333 32.2325 14.2333 32.2325 11.8999C32.4658 9.79992 32.9325 7.69992 33.8658 5.59992C34.0992 4.66659 34.7992 3.73325 35.4992 3.03325C35.7325 2.79992 36.1992 2.56659 36.6658 2.33325V2.56659C35.9658 4.43325 35.7325 6.29992 35.7325 8.16659C35.9658 9.56659 36.1992 10.9666 36.6658 12.3666C37.1325 13.2999 37.5992 14.2333 38.0658 14.9333C38.9992 16.3333 39.6992 17.9666 40.1658 19.5999C40.3992 20.5333 40.3992 21.6999 40.1658 22.6333C39.2325 26.5999 37.3658 30.0999 34.5658 32.8999C33.6325 33.8333 32.4658 34.5333 31.2992 35.2333C30.5992 35.4666 30.1325 35.6999 29.4325 35.6999H29.1992C29.1992 35.6999 29.1992 35.6999 29.4325 35.6999C30.8325 34.7666 31.9992 33.5999 32.6992 32.1999C32.6992 31.9666 32.9325 31.9666 32.9325 31.7333C33.8658 30.0999 34.0992 28.6999 33.8658 26.8333C33.6325 25.1999 32.9325 24.0333 31.9992 22.8666C30.3658 20.9999 29.1992 19.1333 28.4992 17.0333C28.4992 17.0333 28.4992 17.0333 28.4992 16.7999C28.0325 18.6666 27.0992 20.2999 25.9325 21.6999C25.6992 21.9333 25.4658 22.1666 25.2325 22.6333C24.2992 23.7999 23.5992 25.1999 23.3658 26.5999C23.1325 28.2333 23.3658 29.6333 24.0658 31.0333C24.2992 31.4999 24.5325 31.9666 24.9992 32.6666C25.6992 33.8333 26.6325 34.7666 27.7992 35.4666C27.7992 35.4666 28.0325 35.4666 28.0325 35.6999H27.7992C26.6325 35.4666 25.6992 34.9999 24.7658 34.5333C23.3658 33.5999 22.1992 32.4333 21.0325 31.2666C18.9325 28.6999 17.5325 25.6666 16.8325 22.3999C16.3658 20.9999 16.5992 19.5999 17.0658 18.4333C17.5325 17.2666 17.9992 16.0999 18.6992 15.1666C19.8658 13.5333 20.5658 11.6666 21.0325 9.56659C21.2658 8.63325 21.2658 7.69992 21.2658 6.76659C21.2658 5.36659 21.0325 3.96659 20.3325 2.79992C20.3325 2.79992 20.3325 2.79992 20.3325 2.56659H20.5658C21.0325 2.79992 21.4992 3.26659 21.9658 3.73325C22.6658 4.66659 23.3658 5.59992 23.5992 6.53325C24.2992 8.16659 24.5325 9.56659 24.7658 11.1999C24.9992 13.0666 24.7658 14.9333 24.2992 16.7999C24.2992 17.2666 24.0658 17.4999 24.0658 17.9666V18.1999C24.0658 18.1999 24.2992 18.1999 24.2992 17.9666C24.9992 17.4999 25.4658 16.7999 25.9325 16.0999C26.1658 15.8666 26.3992 15.3999 26.6325 15.1666C27.3325 13.9999 27.7992 12.5999 27.5658 11.1999C27.3325 11.1999 27.3325 10.9666 27.3325 10.9666Z" fill="#B2BEC7"/>
<path d="M15.8987 16.0999C15.8987 16.5665 15.6654 17.0332 15.6654 17.4999C15.432 18.8999 15.432 20.2999 15.6654 21.6999C16.132 25.4332 17.532 28.6999 20.0987 31.2665C20.5654 31.9665 21.2654 32.4332 21.732 33.1332C22.1987 33.5999 22.6654 33.8332 22.8987 34.2999C24.2987 35.2332 25.232 36.6332 25.932 38.0332C26.1654 38.4999 26.3987 38.7332 26.632 39.1999C27.0987 40.1332 27.332 41.0665 27.332 41.9999C27.332 43.3999 27.332 45.0332 27.0987 46.4332C26.8654 47.1332 26.632 47.5999 26.3987 48.0665C26.1654 48.5332 26.1654 48.7665 25.932 48.9999C26.1654 47.8332 25.6987 46.6665 25.232 45.4999C24.7654 44.3332 24.0654 43.3999 23.132 42.4665C21.4987 40.5999 19.3987 39.1999 17.0654 38.0332C14.732 36.8665 12.8654 35.2332 11.232 33.1332C10.532 32.1999 10.0654 31.0332 9.83203 29.8665C9.83203 29.3999 9.83203 28.9332 9.83203 28.6999C9.83203 28.2332 9.83203 27.9999 9.83203 27.7665C9.83203 27.9999 9.83203 27.9999 10.0654 28.2332C10.2987 28.9332 10.7654 29.8665 11.4654 30.3332C12.3987 31.2665 13.332 31.9665 14.2654 32.4332H14.4987L14.2654 32.1999C13.332 31.0332 12.632 29.8665 12.1654 28.6999C11.932 27.9999 11.932 27.5332 11.6987 26.8332C11.6987 25.1999 11.6987 23.5665 12.1654 22.1665C12.632 20.5332 13.332 19.3665 14.2654 17.9665C14.732 17.2665 15.1987 16.7999 15.8987 16.0999C15.8987 16.3332 15.8987 16.3332 15.8987 16.0999Z" fill="#B2BEC7"/>
<path d="M42.2639 32.6666C42.4973 32.6666 42.4973 32.4333 42.2639 32.6666C42.9639 32.4333 43.1973 32.1999 43.6639 31.7333C44.1306 31.4999 44.5973 31.0333 45.0639 30.5666C45.9973 29.8666 46.6973 28.9333 46.9306 27.7666C46.9306 27.7666 46.9306 27.7666 46.9306 27.5333C47.1639 27.9999 47.1639 28.2333 47.1639 28.4666C47.1639 29.3999 46.9306 30.0999 46.6973 31.0333C46.2306 32.1999 45.5306 33.3666 44.5973 34.2999C43.4306 35.6999 42.0306 36.8666 40.3973 37.7999C40.1639 38.0333 39.6973 38.0333 39.4639 38.2666C37.3639 39.4333 35.4973 40.5999 33.8639 42.4666C32.9306 43.3999 32.2306 44.5666 31.5306 45.7333C31.0639 46.6666 30.8306 47.8333 31.0639 48.9999C31.0639 48.9999 31.0639 48.9999 31.0639 49.2333C31.0639 49.2333 30.8306 49.2333 30.8306 48.9999C30.3639 48.2999 29.8973 47.5999 29.6639 46.6666C29.1973 45.2666 29.1973 43.6333 29.4306 42.2333C29.4306 41.9999 29.4306 41.5333 29.4306 41.2999C29.4306 40.5999 29.6639 40.1333 29.8973 39.4333C30.5973 37.7999 31.5306 36.3999 32.9306 35.2333C33.3973 34.9999 33.6306 34.5333 34.0973 34.2999C34.7973 33.5999 35.4973 33.1333 35.9639 32.4333C36.4306 31.7333 36.8973 31.2666 37.5973 30.5666C39.2306 28.4666 40.3973 25.8999 40.8639 23.3333C41.3306 20.9999 41.3306 18.8999 40.6306 16.5666V16.3333L40.8639 16.5666C42.2639 17.9666 43.4306 19.5999 43.8973 21.4666C44.3639 22.6333 44.5973 23.7999 44.5973 24.9666C44.5973 25.6666 44.5973 26.5999 44.5973 27.2999C44.5973 28.2333 44.1306 28.9333 43.8973 29.8666C43.4306 30.7999 42.7306 31.7333 42.2639 32.6666C42.2639 32.4333 42.4973 32.4333 42.2639 32.6666Z" fill="#B2BEC7"/>
<path d="M36.8984 44.3333C36.8984 43.1667 37.8318 42.2333 38.9984 42C39.9318 42 40.8651 42.4667 41.0984 43.4C41.3318 44.5667 40.8651 45.7333 39.6984 46.2C38.5318 46.9 36.8984 45.7333 36.8984 44.3333Z" fill="#B2BEC7"/>
<path d="M30.5984 28.2333C30.5984 29.4 29.6651 30.3333 28.4984 30.3333C27.3318 30.3333 26.3984 29.4 26.3984 28.2333C26.3984 27.0666 27.3318 26.1333 28.4984 26.1333C29.6651 26.1333 30.5984 27.0666 30.5984 28.2333Z" fill="#B2BEC7"/>
<path d="M20.0984 44.1C20.0984 45.2667 19.1651 46.2 17.9984 46.2C16.8318 46.2 15.8984 45.2667 15.8984 44.1C15.8984 42.9333 16.8318 42 17.9984 42C18.9318 42 20.0984 42.9333 20.0984 44.1Z" fill="#B2BEC7"/>
</svg>
