<svg width="56" height="56" viewBox="0 0 56 56" fill="none" xmlns="http://www.w3.org/2000/svg">
<path fill-rule="evenodd" clip-rule="evenodd" d="M27.1387 5.99448L9.33203 9.33323V27.7742C9.33203 36.6238 13.8909 44.8492 21.3954 49.5395L26.762 52.8936C27.5187 53.3665 28.4787 53.3665 29.2354 52.8936L34.602 49.5395C42.1065 44.8492 46.6654 36.6238 46.6654 27.7742V9.33323L28.8587 5.99448C28.2903 5.88791 27.7071 5.88791 27.1387 5.99448ZM27.9987 18.6666C24.777 18.6666 22.1654 21.2782 22.1654 24.4999V25.6666C20.8767 25.6666 19.832 26.7112 19.832 27.9999V34.9999C19.832 36.2886 20.8767 37.3332 22.1654 37.3332H33.832C35.1207 37.3332 36.1654 36.2886 36.1654 34.9999V27.9999C36.1654 26.7112 35.1207 25.6666 33.832 25.6666V24.4999C33.832 21.2782 31.2204 18.6666 27.9987 18.6666ZM24.4987 24.4999C24.4987 22.5669 26.0657 20.9999 27.9987 20.9999C29.9317 20.9999 31.4987 22.5669 31.4987 24.4999V25.6666H24.4987V24.4999Z" fill="#008BEA"/>
</svg>
