<svg width="24" height="24" viewBox="0 0 24 24" fill="none" xmlns="http://www.w3.org/2000/svg">
<path fill-rule="evenodd" clip-rule="evenodd" d="M10.2773 2.55415C10.8362 2.45288 11.4119 2.4 12 2.4C17.3019 2.4 21.6 6.69807 21.6 12C21.6 12.5881 21.5471 13.1638 21.4459 13.7227C21.8012 14.474 22 15.3138 22 16.2C22 19.4032 19.4032 22 16.2 22C15.3138 22 14.474 21.8012 13.7227 21.4459C13.1638 21.5471 12.5881 21.6 12 21.6C6.69807 21.6 2.4 17.3019 2.4 12C2.4 11.4119 2.45288 10.8362 2.55415 10.2773C2.19876 9.52603 2 8.68623 2 7.8C2 4.59675 4.59675 2 7.8 2C8.68623 2 9.52603 2.19876 10.2773 2.55415ZM8.59548 10.8517C8.82197 11.2399 9.13507 11.5705 9.51037 11.8177H9.51036C10.0077 12.1432 10.5365 12.4179 11.0887 12.6379C11.7059 12.8956 12.1846 13.1143 12.5249 13.2941C12.8128 13.4354 13.0742 13.6253 13.2976 13.8554C13.4666 14.0349 13.5605 14.2724 13.56 14.5189C13.5672 14.6926 13.533 14.8656 13.4601 15.0234C13.3872 15.1813 13.2778 15.3195 13.1409 15.4266C12.7751 15.6728 12.3376 15.7896 11.8978 15.7583C11.6491 15.7608 11.4009 15.7351 11.158 15.6818C10.9609 15.6385 10.7681 15.5775 10.582 15.4995C10.4191 15.4291 10.1967 15.3234 9.91495 15.1823C9.68815 15.0613 9.4357 14.9963 9.17867 14.9928C8.94773 14.9833 8.72196 15.0629 8.54808 15.2151C8.46525 15.2941 8.40052 15.39 8.35836 15.4964C8.31621 15.6027 8.29763 15.717 8.30391 15.8312C8.29869 16.0477 8.36394 16.2601 8.48983 16.4364C8.6417 16.6288 8.83811 16.7814 9.0621 16.8811C9.93743 17.2602 10.8862 17.4396 11.8396 17.406C12.5333 17.42 13.2238 17.3076 13.8772 17.0743C14.4195 16.8818 14.8917 16.5314 15.2331 16.0682C15.5684 15.5788 15.7382 14.995 15.7179 14.4022C15.731 13.9182 15.6099 13.4401 15.368 13.0207C15.1222 12.6214 14.7911 12.2816 14.3984 12.0255C13.9013 11.7049 13.3739 11.4338 12.8238 11.2163C12.7649 11.1875 12.704 11.1631 12.6415 11.1433C12.0778 10.9101 11.6537 10.723 11.3694 10.5819C11.1157 10.4631 10.8859 10.2988 10.6914 10.0971C10.5278 9.92525 10.4376 9.69644 10.4399 9.4592C10.4319 9.27835 10.4727 9.09868 10.558 8.939C10.6433 8.77931 10.7699 8.64549 10.9247 8.55152C11.291 8.33348 11.7125 8.22589 12.1385 8.24169C12.4656 8.23818 12.7917 8.27864 13.108 8.36197C13.4516 8.46103 13.7878 8.58405 14.1141 8.73011C14.2467 8.79153 14.3908 8.82386 14.5369 8.82494C14.6431 8.8278 14.7486 8.80816 14.8466 8.76732C14.9446 8.72648 15.0329 8.66536 15.1056 8.58798C15.1823 8.50401 15.2418 8.40574 15.2806 8.29878C15.3194 8.19182 15.3367 8.07827 15.3316 7.96462C15.3349 7.74581 15.2585 7.53327 15.1165 7.36676C14.9239 7.1643 14.685 7.01169 14.4203 6.92205C14.1322 6.81621 13.8342 6.73928 13.5309 6.69238C13.1068 6.62282 12.6775 6.58989 12.2478 6.59396C11.5912 6.58998 10.9388 6.69974 10.3196 6.9184C9.75038 7.11064 9.24228 7.45025 8.84698 7.90266C8.46653 8.35318 8.26542 8.92809 8.28208 9.51752C8.26862 9.98196 8.37665 10.4419 8.59548 10.8517Z" fill="#28A8EA"/>
</svg>
