<svg width="20" height="20" viewBox="0 0 20 20" fill="none" xmlns="http://www.w3.org/2000/svg">
<path fill-rule="evenodd" clip-rule="evenodd" d="M8.56569 2.12829C9.03144 2.04391 9.51122 1.99984 10.0013 1.99984C14.4196 1.99984 18.0013 5.58156 18.0013 9.99984C18.0013 10.4899 17.9572 10.9697 17.8728 11.4354C18.169 12.0615 18.3346 12.7613 18.3346 13.4998C18.3346 16.1692 16.1707 18.3332 13.5013 18.3332C12.7628 18.3332 12.0629 18.1675 11.4369 17.8714C10.9712 17.9558 10.4914 17.9998 10.0013 17.9998C5.58302 17.9998 2.0013 14.4181 2.0013 9.99984C2.0013 9.50976 2.04537 9.02997 2.12976 8.56423C1.83361 7.9382 1.66797 7.23836 1.66797 6.49984C1.66797 3.83046 3.83193 1.6665 6.5013 1.6665C7.23983 1.6665 7.93966 1.83214 8.56569 2.12829ZM7.16411 9.0432C7.35286 9.36668 7.61378 9.64217 7.92652 9.8482H7.92651C8.341 10.1194 8.78162 10.3484 9.24177 10.5317C9.75612 10.7464 10.1551 10.9287 10.4386 11.0785C10.6786 11.1963 10.8964 11.3545 11.0826 11.5463C11.2234 11.6959 11.3017 11.8937 11.3012 12.0992C11.3073 12.244 11.2787 12.3881 11.218 12.5196C11.1572 12.6512 11.066 12.7663 10.9519 12.8556C10.6472 13.0608 10.2825 13.1581 9.91607 13.132C9.70881 13.1341 9.50198 13.1127 9.29953 13.0682C9.1353 13.0322 8.97467 12.9813 8.81958 12.9164C8.68381 12.8577 8.49851 12.7696 8.26367 12.652C8.07468 12.5512 7.8643 12.4971 7.65011 12.4941C7.45766 12.4861 7.26952 12.5525 7.12462 12.6794C7.05559 12.7452 7.00165 12.8251 6.96652 12.9137C6.93139 13.0024 6.91591 13.0976 6.92114 13.1928C6.9168 13.3732 6.97117 13.5502 7.07607 13.6971C7.20264 13.8574 7.36631 13.9846 7.55297 14.0677C8.28241 14.3836 9.07309 14.5331 9.86753 14.5051C10.4456 14.5168 11.021 14.4231 11.5656 14.2287C12.0175 14.0683 12.411 13.7763 12.6955 13.3902C12.9748 12.9824 13.1164 12.496 13.0995 12.002C13.1104 11.5986 13.0094 11.2002 12.8079 10.8507C12.6031 10.518 12.3271 10.2347 11.9999 10.0214C11.5856 9.75416 11.1461 9.52828 10.6877 9.34698C10.6386 9.32298 10.5879 9.30267 10.5358 9.28621C10.066 9.09185 9.71265 8.93591 9.4757 8.81838C9.26427 8.71935 9.07276 8.58242 8.91068 8.41436C8.77438 8.27114 8.69922 8.08047 8.70112 7.88277C8.69449 7.73206 8.72849 7.58233 8.79956 7.44926C8.87063 7.3162 8.97615 7.20467 9.10509 7.12636C9.41036 6.94466 9.76162 6.85501 10.1166 6.86818C10.3892 6.86525 10.661 6.89897 10.9246 6.96841C11.2109 7.05096 11.491 7.15348 11.763 7.27519C11.8735 7.32638 11.9936 7.35332 12.1153 7.35422C12.2038 7.3566 12.2917 7.34023 12.3734 7.3062C12.4551 7.27217 12.5286 7.22123 12.5892 7.15675C12.6532 7.08678 12.7027 7.00488 12.735 6.91575C12.7673 6.82662 12.7818 6.73199 12.7775 6.63728C12.7803 6.45495 12.7166 6.27783 12.5983 6.13906C12.4378 5.97035 12.2387 5.84318 12.0181 5.76847C11.778 5.68028 11.5297 5.61617 11.2769 5.57709C10.9236 5.51912 10.5658 5.49168 10.2077 5.49507C9.66051 5.49175 9.11686 5.58322 8.60086 5.76543C8.12653 5.92563 7.70312 6.20864 7.3737 6.58565C7.05666 6.96109 6.88907 7.44018 6.90295 7.93137C6.89174 8.3184 6.98176 8.70165 7.16411 9.0432Z" fill="#B2BEC7"/>
</svg>
