<svg width="56" height="56" viewBox="0 0 56 56" fill="none" xmlns="http://www.w3.org/2000/svg">
<path fill-rule="evenodd" clip-rule="evenodd" d="M35 46.9983C35 48.2969 36.6842 48.8068 37.4046 47.7263L52.3063 25.3737C52.8878 24.5015 52.2625 23.3332 51.2142 23.3332H39.6667V9.00139C39.6667 7.7028 37.9824 7.19285 37.2621 8.27335L22.3604 30.626C21.7789 31.4982 22.4041 32.6665 23.4524 32.6665H35V46.9983Z" fill="#008BEA"/>
<path opacity="0.3" fill-rule="evenodd" clip-rule="evenodd" d="M6.99873 14.2915C6.99873 12.8418 8.17399 11.6665 9.62373 11.6665H23.0404C24.4902 11.6665 25.6654 12.8418 25.6654 14.2915V16.0415C25.6654 17.4913 24.4901 18.6665 23.0404 18.6665H9.62373C8.17398 18.6665 6.99873 17.4913 6.99873 16.0415V14.2915ZM6.99873 42.2915C6.99873 40.8418 8.17399 39.6665 9.62373 39.6665H23.0404C24.4902 39.6665 25.6654 40.8418 25.6654 42.2915V44.0415C25.6654 45.4913 24.4901 46.6665 23.0404 46.6665H9.62373C8.17398 46.6665 6.99873 45.4913 6.99873 44.0415V42.2915ZM4.95703 25.6665C3.50728 25.6665 2.33203 26.8418 2.33203 28.2915V30.0415C2.33203 31.4913 3.50728 32.6665 4.95703 32.6665H16.0404C17.4901 32.6665 18.6654 31.4913 18.6654 30.0415V28.2915C18.6654 26.8418 17.4901 25.6665 16.0404 25.6665H4.95703Z" fill="#008BEA"/>
</svg>
