<svg width="56" height="56" viewBox="0 0 56 56" fill="none" xmlns="http://www.w3.org/2000/svg">
<g opacity="0.3">
<path opacity="0.3" d="M44.0987 53.6666C33.3654 53.6666 22.8654 53.6666 12.3654 53.6666C12.3654 53.6666 12.132 53.6666 12.132 53.4332C10.2654 47.3666 8.16537 41.2999 6.2987 35.2333C5.13203 31.0333 3.73203 26.8333 2.33203 22.3999C2.33203 22.1666 2.33203 22.1666 2.56536 21.9333C7.93203 17.7333 13.2987 13.7666 18.6654 9.56658C21.6987 7.23325 24.9654 4.89992 27.9987 2.33325C28.232 2.33325 28.232 2.33325 28.4654 2.33325C28.932 2.56659 29.1654 2.79992 29.632 3.26659C35.6987 7.93325 41.7654 12.3666 47.832 17.0333C49.6987 18.4333 51.5654 19.8333 53.432 21.2333V21.4666C51.332 28.9333 48.9987 36.1666 46.8987 43.6333C46.1987 46.8999 45.032 50.1666 44.0987 53.6666ZM27.9987 50.1666C29.3987 50.1666 30.7987 50.1666 31.9654 50.1666C34.9987 50.1666 38.2654 50.1666 41.2987 50.3999C41.2987 50.3999 41.532 50.3999 41.532 50.1666C43.8654 42.4666 46.1987 34.9999 48.532 27.2999C48.9987 25.8999 49.4654 24.4999 49.6987 23.3333V23.0999C42.4654 17.7333 35.232 12.3666 28.232 6.99992H27.9987C27.0654 7.69992 25.8987 8.39992 24.9654 9.09992C23.0987 10.4999 21.232 11.8999 19.132 13.2999C14.6987 16.5666 10.4987 19.8333 6.06536 23.3333C6.06536 23.3333 6.06536 23.3333 6.06536 23.5666C6.76536 25.6666 7.46536 27.7666 8.16536 29.8666C10.2654 36.6333 12.3654 43.1666 14.4654 49.9332C14.4654 50.1666 14.4654 50.1666 14.6987 50.1666C16.5654 50.1666 18.432 50.1666 20.2987 50.1666C22.8654 50.1666 25.432 50.1666 27.9987 50.1666Z" fill="#B2BEC7"/>
</g>
<path d="M27.9987 2.33325C28.232 3.03325 28.232 3.49992 28.4654 3.96659C28.4654 4.43325 28.6987 4.66659 28.6987 5.13325C28.6987 5.59992 28.932 6.29992 29.1654 6.76659C29.1654 7.23325 29.3987 7.93325 29.3987 8.39992C29.632 8.86658 29.632 9.56659 29.632 10.0333C29.8654 10.7333 29.8654 11.4333 30.0987 12.1333V12.3666C30.0987 12.5999 30.332 12.8333 30.5654 13.0666C31.032 13.5333 31.732 14.2333 32.1987 14.6999C32.432 15.3999 32.6654 15.8666 32.8987 16.3333C32.8987 16.5666 33.132 16.5666 33.3654 16.5666C37.0987 16.5666 40.5987 17.2666 44.0987 18.4333C45.9654 19.1333 47.832 20.0666 49.6987 21.2333C50.632 21.9333 51.5654 22.8666 52.2654 23.7999C52.9654 24.7333 53.432 25.8999 53.6654 27.0666C53.8987 27.9999 53.6654 28.6999 53.6654 29.6333C53.1987 31.7333 52.2654 33.3666 51.0987 34.9999C49.4654 37.0999 47.3654 38.4999 45.032 39.6666C43.8654 40.3666 42.4654 40.8333 41.2987 41.0666C41.2987 41.0666 41.2987 41.0666 41.0654 41.0666L41.2987 40.8333C43.1654 39.6666 44.5654 38.2666 45.9654 36.3999C46.8987 35.2333 47.5987 34.0666 48.0654 32.6666C48.2987 32.1999 48.532 31.4999 48.532 31.0333C48.7654 30.5666 48.7654 29.8666 48.532 29.3999C48.2987 28.4666 47.832 27.9999 47.132 27.2999C46.432 26.8333 45.732 26.5999 45.032 26.3666C43.8654 26.1333 42.4654 26.3666 41.2987 26.5999C40.832 26.5999 40.5987 26.8333 40.132 26.8333C40.132 27.0666 40.132 27.0666 40.132 27.2999C40.132 27.7666 40.132 28.2333 40.132 28.9333C40.132 30.3333 39.6654 31.9666 39.1987 33.3666C38.732 34.9999 37.7987 36.6332 36.632 38.0332C35.4654 39.4332 33.832 40.5999 32.1987 41.0666C31.732 41.2999 31.2654 41.2999 31.032 41.2999C31.032 41.2999 31.032 41.2999 30.7987 41.2999C31.732 41.9999 32.8987 42.6999 33.832 43.1666C34.7654 43.6333 35.932 44.0999 37.0987 44.5666C34.9987 45.2666 33.132 46.4333 31.732 48.0666C30.0987 49.6999 28.932 51.3333 28.4654 53.6666C27.7654 51.5666 26.5987 49.6999 24.9654 48.0666C23.332 46.4333 21.6987 45.2666 19.5987 44.5666C20.7654 44.0999 21.932 43.6333 22.8654 43.1666C23.7987 42.6999 24.9654 41.9999 25.8987 41.2999C25.8987 41.2999 25.8987 41.2999 25.6654 41.2999C23.7987 41.0666 22.3987 40.3666 20.9987 39.1999C19.5987 38.0332 18.432 36.3999 17.732 34.5333C17.032 33.1333 16.5654 31.4999 16.5654 29.8666C16.5654 29.1666 16.332 28.4666 16.332 27.7666C16.332 27.5333 16.332 27.2999 16.332 27.0666C15.8654 27.0666 15.632 26.8333 15.1654 26.8333C14.232 26.5999 13.532 26.5999 12.5987 26.5999C11.6654 26.5999 10.9654 26.8333 10.032 27.0666C9.0987 27.5333 8.3987 28.2333 8.16536 29.1666C7.93203 29.8666 7.93203 30.7999 8.16536 31.4999C8.16536 33.8333 9.33203 35.6999 10.732 37.3333C11.8987 38.7333 13.2987 39.8999 14.932 41.0666C14.932 41.0666 15.1654 41.0666 15.1654 41.2999H14.932C11.6654 40.3666 8.86536 38.9666 6.53203 36.6333C5.13203 35.2333 3.96536 33.8333 3.03203 31.9666C2.56536 30.7999 2.33203 29.6333 2.33203 28.4666C2.33203 27.5333 2.56536 26.5999 2.7987 25.6666C3.26536 24.4999 3.96536 23.5666 4.8987 22.6333C6.06536 21.4666 7.46537 20.5333 9.0987 19.5999C10.9654 18.6666 12.832 17.9666 14.6987 17.4999C16.332 17.2666 18.1987 16.7999 19.832 16.7999C20.7654 16.7999 21.6987 16.5666 22.632 16.5666C22.8654 16.5666 22.8654 16.5666 23.0987 16.3333C23.332 15.8666 23.7987 15.3999 24.032 14.9333C24.4987 14.4666 24.9654 13.9999 25.6654 13.2999C25.8987 13.0666 26.132 12.8333 26.132 12.5999C26.132 12.1333 26.3654 11.6666 26.3654 11.1999C26.3654 10.7333 26.5987 10.2666 26.5987 9.56658C26.5987 9.09992 26.832 8.39992 26.832 7.93325C26.832 7.46659 27.0654 7.23325 27.0654 6.76659C27.0654 6.29992 27.2987 6.06659 27.2987 5.59992C27.2987 5.13325 27.532 4.43325 27.532 3.96659C27.7654 3.49992 27.7654 3.03325 27.9987 2.33325ZM25.8987 29.1666C25.8987 29.3999 25.8987 29.8666 25.8987 30.0999C25.8987 30.7999 25.8987 31.4999 25.8987 32.4333C25.8987 34.5332 25.8987 36.6333 25.8987 38.7333V38.9666C24.9654 35.2333 24.032 31.7333 23.332 27.9999C23.7987 31.2666 24.2654 34.5333 24.732 37.7999C24.2654 37.0999 24.032 36.1666 23.5654 35.4666C23.0987 34.2999 22.632 33.3666 21.932 32.1999C21.4654 31.0333 20.9987 30.0999 20.2987 28.9333C20.0654 28.6999 20.0654 28.4666 19.5987 28.2333C19.3654 28.2333 19.132 27.9999 18.8987 27.9999H18.6654C18.6654 28.4666 18.6654 28.6999 18.8987 29.1666C19.132 31.0333 19.5987 32.6666 20.532 34.5333C21.232 35.9333 22.3987 37.3332 23.5654 38.2666C24.4987 38.9666 25.6654 39.6666 27.0654 39.6666C27.7654 39.6666 27.7654 39.8999 28.232 39.4332C28.4654 39.6666 28.6987 39.8999 28.932 39.6666C29.8654 39.6666 30.5654 39.1999 31.2654 38.9666C32.8987 38.0333 34.0654 36.8666 34.9987 35.4666C36.3987 33.3666 37.0987 31.0333 37.332 28.4666C37.332 28.2333 37.332 28.2333 37.332 27.9999C36.8654 28.2333 36.3987 28.4666 36.1654 28.4666C36.1654 28.4666 36.1654 28.4666 35.932 28.6999C35.232 30.0999 34.532 31.4999 33.832 33.1333C33.132 34.5333 32.432 36.1666 31.732 37.5666C31.732 37.7999 31.4987 37.7999 31.4987 38.0332C31.732 36.3999 31.9654 34.7666 32.1987 33.1333C32.432 31.4999 32.6654 29.8666 32.8987 28.2333V28.4666C32.6654 28.9333 32.6654 29.6333 32.432 30.0999C32.1987 30.7999 32.1987 31.2666 31.9654 31.9666C31.732 32.6666 31.4987 33.3666 31.4987 34.2999C31.2654 34.9999 31.032 35.6999 31.032 36.3999C30.7987 37.0999 30.5654 38.0333 30.5654 38.7333C30.5654 38.7333 30.5654 38.9666 30.332 38.9666C30.332 37.7999 30.332 36.8666 30.332 35.9332C30.332 34.9999 30.332 33.8333 30.332 32.8999C30.332 31.9666 30.332 30.7999 30.332 29.8666C30.0987 29.8666 30.0987 29.8666 30.0987 30.0999C29.632 30.5666 29.3987 31.0333 29.1654 31.4999C28.932 31.9666 28.6987 32.4333 28.4654 32.6666C28.4654 32.6666 28.4654 32.8999 28.232 32.8999C27.9987 32.4333 27.7654 31.9666 27.532 31.4999C27.2987 31.0333 27.0654 30.5666 26.5987 30.0999C26.132 29.1666 25.8987 29.1666 25.8987 29.1666ZM24.4987 22.8666C24.732 22.8666 24.732 22.8666 24.9654 22.8666C25.1987 22.8666 25.432 22.6333 25.432 22.3999C25.6654 22.1666 25.6654 22.1666 25.6654 21.9333C25.432 21.6999 25.1987 21.4666 25.1987 21.4666C24.9654 21.2333 24.4987 20.9999 24.2654 20.7666C23.5654 20.5333 23.332 20.5333 23.0987 20.9999V21.2333C23.0987 21.6999 23.332 22.1666 23.5654 22.3999C23.7987 22.6333 24.032 22.8666 24.4987 22.8666ZM31.4987 22.8666C31.732 22.8666 31.9654 22.6333 32.1987 22.3999C32.432 21.9333 32.6654 21.6999 32.8987 21.2333C33.132 20.7666 32.8987 20.7666 32.6654 20.5333C32.432 20.2999 32.1987 20.5333 31.9654 20.5333C31.4987 20.5333 31.2654 20.7666 31.032 20.9999C30.7987 21.2333 30.5654 21.4666 30.332 21.6999C30.0987 21.9333 30.0987 22.1666 30.332 22.1666C30.5654 22.1666 30.5654 22.3999 30.7987 22.3999C31.032 22.8666 31.2654 22.8666 31.4987 22.8666ZM27.9987 23.3333C27.7654 24.0333 27.532 24.4999 27.2987 24.9666C27.2987 25.1999 27.2987 25.4333 27.2987 25.8999C27.532 26.1333 27.7654 26.5999 27.9987 26.8333C28.232 26.3666 28.4654 26.1333 28.6987 25.6666V25.4333C28.4654 24.7333 28.4654 24.0333 27.9987 23.3333Z" fill="#B2BEC7"/>
</svg>
