<svg width="20" height="20" viewBox="0 0 20 20" fill="none" xmlns="http://www.w3.org/2000/svg">
<path fill-rule="evenodd" clip-rule="evenodd" d="M9.9987 0.833008C4.93609 0.833008 0.832031 4.93706 0.832031 9.99967C0.832031 14.4802 4.04663 18.21 8.29531 19.0084V11.5638H5.83211V8.60098H8.29539V6.41596C8.29539 3.88027 9.78642 2.49959 11.9643 2.49959C13.0075 2.49959 13.9041 2.58024 14.1654 2.61621V5.2661L12.6549 5.26683C11.4705 5.26683 11.2411 5.85145 11.2411 6.70924V8.6009H14.0659L13.698 11.5637H11.2411V19.0829C15.7161 18.4765 19.1654 14.6409 19.1654 9.99967C19.1654 4.93706 15.0613 0.833008 9.9987 0.833008ZM10.048 19.1662L9.94993 19.1662C9.96617 19.1663 9.98243 19.1663 9.9987 19.1663C10.0151 19.1663 10.0316 19.1663 10.048 19.1662Z" fill="#596C7B"/>
</svg>
