<svg width="32" height="32" viewBox="0 0 32 32" fill="none" xmlns="http://www.w3.org/2000/svg">
<path opacity="0.3" fill-rule="evenodd" clip-rule="evenodd" d="M16.0003 29.3334C23.3641 29.3334 29.3337 23.3639 29.3337 16.0001C29.3337 8.63628 23.3641 2.66675 16.0003 2.66675C8.63653 2.66675 2.66699 8.63628 2.66699 16.0001C2.66699 23.3639 8.63653 29.3334 16.0003 29.3334Z" fill="#008BEA"/>
<path d="M14.667 10.6666C14.667 9.93021 15.2639 9.33325 16.0003 9.33325C16.7367 9.33325 17.3337 9.93021 17.3337 10.6666V18.6666C17.3337 19.403 16.7367 19.9999 16.0003 19.9999C15.2639 19.9999 14.667 19.403 14.667 18.6666V10.6666Z" fill="#008BEA"/>
<path d="M14.667 22.6666C14.667 21.9302 15.2639 21.3333 16.0003 21.3333C16.7367 21.3333 17.3337 21.9302 17.3337 22.6666C17.3337 23.403 16.7367 23.9999 16.0003 23.9999C15.2639 23.9999 14.667 23.403 14.667 22.6666Z" fill="#008BEA"/>
</svg>
