<svg width="34" height="34" viewBox="0 0 34 34" fill="none" xmlns="http://www.w3.org/2000/svg">
<path opacity="0.3" fill-rule="evenodd" clip-rule="evenodd" d="M18.2671 4.90711C17.7012 3.9811 16.3469 4.00917 15.8199 4.95784L4.00258 26.229C3.478 27.1732 4.16078 28.3337 5.24097 28.3337H30.0573C31.1636 28.3337 31.843 27.1223 31.2661 26.1783L18.2671 4.90711Z" fill="#FB362D"/>
<path d="M15.5835 12.7506C15.5835 11.9682 16.2178 11.334 17.0002 11.334C17.7826 11.334 18.4168 11.9682 18.4168 12.7506V19.834C18.4168 20.6164 17.7826 21.2506 17.0002 21.2506C16.2178 21.2506 15.5835 20.6164 15.5835 19.834V12.7506Z" fill="#FB362D"/>
<path d="M15.5835 24.0839C15.5835 23.3015 16.2178 22.6673 17.0002 22.6673C17.7826 22.6673 18.4168 23.3015 18.4168 24.0839C18.4168 24.8663 17.7826 25.5006 17.0002 25.5006C16.2178 25.5006 15.5835 24.8663 15.5835 24.0839Z" fill="#FB362D"/>
</svg>
