<svg width="40" height="40" viewBox="0 0 40 40" fill="none" xmlns="http://www.w3.org/2000/svg">
<path opacity="0.3" fill-rule="evenodd" clip-rule="evenodd" d="M20.0007 36.6668C29.2054 36.6668 36.6673 29.2049 36.6673 20.0002C36.6673 10.7954 29.2054 3.3335 20.0007 3.3335C10.7959 3.3335 3.33398 10.7954 3.33398 20.0002C3.33398 29.2049 10.7959 36.6668 20.0007 36.6668Z" fill="#C39713"/>
<path d="M18.334 13.3332C18.334 12.4127 19.0802 11.6665 20.0007 11.6665C20.9211 11.6665 21.6673 12.4127 21.6673 13.3332V23.3332C21.6673 24.2536 20.9211 24.9998 20.0007 24.9998C19.0802 24.9998 18.334 24.2536 18.334 23.3332V13.3332Z" fill="#C39713"/>
<path d="M18.334 28.3332C18.334 27.4127 19.0802 26.6665 20.0007 26.6665C20.9211 26.6665 21.6673 27.4127 21.6673 28.3332C21.6673 29.2536 20.9211 29.9998 20.0007 29.9998C19.0802 29.9998 18.334 29.2536 18.334 28.3332Z" fill="#C39713"/>
</svg>
