<svg width="20" height="20" viewBox="0 0 20 20" fill="none" xmlns="http://www.w3.org/2000/svg">
<path d="M9.55054 0.844098C4.66927 1.07464 0.817266 5.10693 0.832074 9.95422C0.836582 11.4306 1.19591 12.8241 1.82977 14.0554L0.856562 18.7413C0.803917 18.9947 1.03439 19.2167 1.28825 19.157L5.91729 18.0692C7.10657 18.6568 8.44237 18.9962 9.85611 19.0176C14.8452 19.0932 19.0053 15.1637 19.1608 10.2168C19.3275 4.91397 14.9152 0.590672 9.55054 0.844098ZM15.074 14.9604C13.7183 16.3051 11.9159 17.0456 9.99871 17.0456C8.87614 17.0456 7.80139 16.7958 6.80422 16.3031L6.15957 15.9846L3.32148 16.6515L3.91888 13.775L3.60129 13.1581C3.08363 12.1525 2.82115 11.065 2.82115 9.92608C2.82115 8.02437 3.56774 6.23652 4.92339 4.89178C6.26693 3.5591 8.09879 2.80649 9.99884 2.80649C11.916 2.80653 13.7184 3.54708 15.074 4.89174C16.4297 6.23643 17.1763 8.02428 17.1763 9.92594C17.1763 11.8107 16.4175 13.6277 15.074 14.9604Z" fill="#B2BEC7"/>
<path d="M14.1218 12.0307L12.4169 11.5044C12.1928 11.4352 11.9514 11.5035 11.7881 11.6825L11.3712 12.1392C11.1954 12.3317 10.9286 12.3936 10.6959 12.2924C9.88943 11.9415 8.19288 10.3197 7.75962 9.50843C7.63463 9.27443 7.6553 8.98187 7.80877 8.76835L8.17276 8.26204C8.31537 8.06367 8.34547 7.79726 8.25116 7.56795L7.53387 5.82369C7.36205 5.40592 6.86551 5.2843 6.54112 5.57928C6.06528 6.01198 5.5007 6.66951 5.43207 7.39797C5.31106 8.68228 5.82336 10.3013 7.7606 12.2453C9.99864 14.4911 11.7908 14.7878 12.9577 14.4839C13.6196 14.3116 14.1485 13.6206 14.4824 13.0548C14.7099 12.6691 14.5302 12.1568 14.1218 12.0307Z" fill="#B2BEC7"/>
</svg>
