<svg width="24" height="24" viewBox="0 0 24 24" fill="none" xmlns="http://www.w3.org/2000/svg">
<path opacity="0.3" d="M12.9486 8.31623L11.0513 7.68377C11.816 5.38965 13.0426 3.95855 14.7574 3.52986C15.6502 3.30665 17 1.86951 17 1H19C19 2.79716 17.0163 5.02668 15.2425 5.47014C14.2906 5.70811 13.5173 6.61035 12.9486 8.31623Z" fill="#B2BEC7"/>
<path fill-rule="evenodd" clip-rule="evenodd" d="M7.81786 6.99992H16.2024C17.5586 6.7294 18.9493 7.42716 19.5263 8.72038L22.95 16.3939C23.4665 17.5515 23.1997 18.9087 22.2835 19.7846L22.1062 19.9542C20.8813 21.1253 18.9304 21.0502 17.7992 19.7884L15.2993 16.9999H8.86443L6.36458 19.7884C5.23342 21.0502 3.28244 21.1253 2.05762 19.9542L1.85757 19.7629C0.952576 18.8977 0.680136 17.5613 1.17417 16.4108L4.46134 8.75582C5.02832 7.43545 6.44087 6.71755 7.81786 6.99992ZM9.99987 11.9999C9.99987 13.1045 9.10444 13.9999 7.99987 13.9999C6.8953 13.9999 5.99987 13.1045 5.99987 11.9999C5.99987 10.8953 6.8953 9.99992 7.99987 9.99992C9.10444 9.99992 9.99987 10.8953 9.99987 11.9999ZM16.9999 11.9999C17.5522 11.9999 17.9999 11.5522 17.9999 10.9999C17.9999 10.4476 17.5522 9.99992 16.9999 9.99992C16.4476 9.99992 15.9999 10.4476 15.9999 10.9999C15.9999 11.5522 16.4476 11.9999 16.9999 11.9999ZM15.9999 12.9999C15.9999 13.5522 15.5522 13.9999 14.9999 13.9999C14.4476 13.9999 13.9999 13.5522 13.9999 12.9999C13.9999 12.4476 14.4476 11.9999 14.9999 11.9999C15.5522 11.9999 15.9999 12.4476 15.9999 12.9999Z" fill="#B2BEC7"/>
</svg>
