<svg width="24" height="24" viewBox="0 0 24 24" fill="none" xmlns="http://www.w3.org/2000/svg">
<g opacity="0.3">
<path opacity="0.3" d="M18.9 23C14.3 23 9.8 23 5.3 23C5.3 23 5.2 23 5.2 22.9C4.4 20.3 3.5 17.7 2.7 15.1C2.2 13.3 1.6 11.5 1 9.6C1 9.5 1 9.5 1.1 9.4C3.4 7.6 5.7 5.9 8 4.1C9.3 3.1 10.7 2.1 12 1C12.1 1 12.1 1 12.2 1C12.4 1.1 12.5 1.2 12.7 1.4C15.3 3.4 17.9 5.3 20.5 7.3C21.3 7.9 22.1 8.5 22.9 9.1V9.2C22 12.4 21 15.5 20.1 18.7C19.8 20.1 19.3 21.5 18.9 23ZM12 21.5C12.6 21.5 13.2 21.5 13.7 21.5C15 21.5 16.4 21.5 17.7 21.6C17.7 21.6 17.8 21.6 17.8 21.5C18.8 18.2 19.8 15 20.8 11.7C21 11.1 21.2 10.5 21.3 10V9.9C18.2 7.6 15.1 5.3 12.1 3H12C11.6 3.3 11.1 3.6 10.7 3.9C9.9 4.5 9.1 5.1 8.2 5.7C6.3 7.1 4.5 8.5 2.6 10C2.6 10 2.6 10 2.6 10.1C2.9 11 3.2 11.9 3.5 12.8C4.4 15.7 5.3 18.5 6.2 21.4C6.2 21.5 6.2 21.5 6.3 21.5C7.1 21.5 7.9 21.5 8.7 21.5C9.8 21.5 10.9 21.5 12 21.5Z" fill="#677D8E"/>
</g>
<path d="M16.2002 5.5C16.4002 5.4 16.6002 5.4 16.8002 5.3C17.3002 5.3 17.7002 5.3 18.2002 5.4C18.1002 5.3 18.0002 5.2 17.9002 5.2C17.8002 5.1 17.7002 5 17.6002 4.9C17.5002 4.8 17.3002 4.7 17.2002 4.6C17.2002 4.6 17.2002 4.6 17.1002 4.5C16.8002 4.3 16.5002 4 16.2002 3.8C16.1002 3.8 16.0002 3.8 16.0002 3.9C14.8002 4.3 13.8002 5.1 13.0002 6.1C13.0002 6.1 13.0002 6.1 12.9002 6.2V6.1C13.0002 5.8 13.0002 5.6 13.0002 5.4C13.1002 5 13.2002 4.6 13.4002 4.2C13.6002 4 13.8002 3.9 14.0002 3.8C14.2002 3.7 14.3002 3.6 14.5002 3.6C14.8002 3.5 15.0002 3.4 15.3002 3.4C15.0002 3.1 14.7002 2.9 14.3002 2.6C13.6002 2.1 12.8002 1.5 12.1002 1C11.1002 1.7 10.1002 2.5 9.10016 3.2C9.40016 3.3 9.70016 3.5 10.0002 3.6C10.2002 3.7 10.3002 3.8 10.5002 4C10.8002 4.3 11.0002 4.7 11.0002 5.2C11.0002 5.5 10.9002 5.9 10.8002 6.2C10.6002 6.7 10.3002 7.2 9.90016 7.6C9.60016 7.9 9.30016 8.2 8.90016 8.5C7.60016 9.5 6.90016 11.1 7.10016 12.8C7.20016 13.5 7.40016 14.2 7.80016 14.8C8.20016 15.4 8.80016 15.9 9.50016 16.2C9.80016 16.3 10.2002 16.4 10.5002 16.4C10.8002 16.4 11.2002 16.4 11.5002 16.4C12.3002 16.2 12.9002 15.9 13.4002 15.3C13.9002 14.7 14.2002 13.9 14.0002 13.1C13.8002 12 13.1002 11.3 11.9002 11C11.8002 11 11.8002 11 11.7002 11C11.1002 11 10.4002 11.3 10.2002 12C10.1002 12.2 10.2002 12.5 10.2002 12.7C10.4002 13.2 10.9002 13.5 11.6002 13.4C11.7002 13.4 11.8002 13.3 11.9002 13.3C12.0002 13.5 11.9002 13.8 11.8002 13.9C11.7002 14 11.5002 14.1 11.3002 14.1C10.8002 14.2 10.3002 14.1 9.80016 13.9C9.20016 13.6 8.90016 13.1 8.90016 12.4C8.90016 12 9.00016 11.7 9.30016 11.3C9.90016 10.5 10.6002 10.1 11.6002 10.1C12.3002 10.1 12.9002 10.2 13.6002 10.5C14.8002 11.1 15.6002 12.4 15.4002 13.8C15.3002 14.5 15.0002 15.2 14.4002 15.7C14.0002 16 13.7002 16.3 13.3002 16.6C12.4002 17.2 11.4002 17.7 10.3002 18.1C10.1002 18.2 10.0002 18.2 9.80016 18.3C9.20016 18.6 8.70016 19 8.20016 19.5C7.80016 19.9 7.50016 20.3 7.30016 20.9C7.10016 21.3 7.10016 21.7 7.10016 22.1C7.10016 22.4 7.10016 22.6 7.10016 22.9V23C10.0002 23 13.0002 23 15.9002 23C15.9002 23 15.9002 23 15.8002 23C15.5002 22.9 15.1002 22.8 14.8002 22.6C14.4002 22.4 14.0002 22.2 13.6002 22C13.1002 21.7 12.8002 21.2 12.7002 20.7C12.6002 20.4 12.7002 20 12.9002 19.8C13.1002 19.7 13.2002 19.5 13.4002 19.4C13.6002 19.2 13.9002 19 14.1002 18.8C14.8002 18.1 15.4002 17.4 15.9002 16.6C16.3002 16 16.6002 15.3 16.8002 14.5C17.0002 13.8 17.0002 13.2 16.9002 12.5C16.6002 10.7 15.3002 9.2 13.7002 8.5H13.6002C13.6002 8.3 13.7002 8.1 13.8002 7.9C14.5002 6.6 15.3002 5.9 16.2002 5.5ZM10.5002 19.8C10.4002 20.1 10.3002 20.5 10.1002 20.8C10.0002 20.9 9.90016 21.1 9.80016 21.2C9.60016 21.4 9.30016 21.6 9.00016 21.8C9.00016 21.8 8.90016 21.9 8.80016 21.8C8.80016 21.7 8.80016 21.7 8.80016 21.6C8.80016 21.3 9.00016 20.9 9.20016 20.7C9.50016 20.2 9.90016 19.9 10.5002 19.8C10.5002 19.7 10.5002 19.7 10.5002 19.8Z" fill="#677D8E"/>
</svg>
