<svg width="24" height="24" viewBox="0 0 24 24" fill="none" xmlns="http://www.w3.org/2000/svg">
<g opacity="0.3">
<path opacity="0.3" d="M18.9 23C14.3 23 9.8 23 5.3 23C5.3 23 5.2 23 5.2 22.9C4.4 20.3 3.5 17.7 2.7 15.1C2.2 13.3 1.6 11.5 1 9.6C1 9.5 1 9.5 1.1 9.4C3.4 7.6 5.7 5.9 8 4.1C9.3 3.1 10.7 2.1 12 1C12.1 1 12.1 1 12.2 1C12.4 1.1 12.5 1.2 12.7 1.4C15.3 3.4 17.9 5.3 20.5 7.3C21.3 7.9 22.1 8.5 22.9 9.1V9.2C22 12.4 21 15.5 20.1 18.7C19.8 20.1 19.3 21.5 18.9 23ZM12 21.5C12.6 21.5 13.2 21.5 13.7 21.5C15 21.5 16.4 21.5 17.7 21.6C17.7 21.6 17.8 21.6 17.8 21.5C18.8 18.2 19.8 15 20.8 11.7C21 11.1 21.2 10.5 21.3 10V9.9C18.2 7.6 15.1 5.3 12.1 3H12C11.6 3.3 11.1 3.6 10.7 3.9C9.9 4.5 9.1 5.1 8.2 5.7C6.3 7.1 4.5 8.5 2.6 10C2.6 10 2.6 10 2.6 10.1C2.9 11 3.2 11.9 3.5 12.8C4.4 15.7 5.3 18.5 6.2 21.4C6.2 21.5 6.2 21.5 6.3 21.5C7.1 21.5 7.9 21.5 8.7 21.5C9.8 21.5 10.9 21.5 12 21.5Z" fill="#677D8E"/>
</g>
<path d="M11.4996 4.7C11.6996 4.9 11.7996 5.2 11.9996 5.5C12.0996 5.2 12.1996 4.9 12.4996 4.6V4.7C12.4996 4.9 12.4996 5.2 12.4996 5.4C12.5996 5.9 12.6996 6.3 12.9996 6.7C13.0996 6.8 13.0996 6.9 13.1996 7C13.3996 7.3 13.5996 7.6 13.8996 7.9C13.8996 7.9 13.8996 7.9 13.9996 7.9C13.6996 7 13.5996 6.1 13.5996 5.1C13.6996 4.2 13.8996 3.3 14.2996 2.4C14.3996 2 14.6996 1.6 14.9996 1.3C15.0996 1.2 15.2996 1.1 15.4996 1V1.1C15.1996 1.9 15.0996 2.7 15.0996 3.5C15.1996 4.1 15.2996 4.7 15.4996 5.3C15.6996 5.7 15.8996 6.1 16.0996 6.4C16.4996 7 16.7996 7.7 16.9996 8.4C17.0996 8.8 17.0996 9.3 16.9996 9.7C16.5996 11.4 15.7996 12.9 14.5996 14.1C14.1996 14.5 13.6996 14.8 13.1996 15.1C12.8996 15.2 12.6996 15.3 12.3996 15.3H12.2996C12.2996 15.3 12.2996 15.3 12.3996 15.3C12.9996 14.9 13.4996 14.4 13.7996 13.8C13.7996 13.7 13.8996 13.7 13.8996 13.6C14.2996 12.9 14.3996 12.3 14.2996 11.5C14.1996 10.8 13.8996 10.3 13.4996 9.8C12.7996 9 12.2996 8.2 11.9996 7.3C11.9996 7.3 11.9996 7.3 11.9996 7.2C11.7996 8 11.3996 8.7 10.8996 9.3C10.7996 9.4 10.6996 9.5 10.5996 9.7C10.1996 10.2 9.89964 10.8 9.79964 11.4C9.69964 12.1 9.79964 12.7 10.0996 13.3C10.1996 13.5 10.2996 13.7 10.4996 14C10.7996 14.5 11.1996 14.9 11.6996 15.2C11.6996 15.2 11.7996 15.2 11.7996 15.3H11.6996C11.1996 15.2 10.7996 15 10.3996 14.8C9.79964 14.4 9.29964 13.9 8.79964 13.4C7.89964 12.3 7.29964 11 6.99964 9.6C6.79964 9 6.89964 8.4 7.09964 7.9C7.29964 7.4 7.49964 6.9 7.79964 6.5C8.29964 5.8 8.59964 5 8.79964 4.1C8.89964 3.7 8.89964 3.3 8.89964 2.9C8.89964 2.3 8.79964 1.7 8.49964 1.2C8.49964 1.2 8.49964 1.2 8.49964 1.1H8.59964C8.79964 1.2 8.99964 1.4 9.19964 1.6C9.49964 2 9.79964 2.4 9.89964 2.8C10.1996 3.5 10.2996 4.1 10.3996 4.8C10.4996 5.6 10.3996 6.4 10.1996 7.2C10.1996 7.4 10.0996 7.5 10.0996 7.7V7.8C10.0996 7.8 10.1996 7.8 10.1996 7.7C10.4996 7.5 10.6996 7.2 10.8996 6.9C10.9996 6.8 11.0996 6.6 11.1996 6.5C11.4996 6 11.6996 5.4 11.5996 4.8C11.4996 4.8 11.4996 4.7 11.4996 4.7Z" fill="#677D8E"/>
<path d="M6.6 6.8999C6.6 7.0999 6.5 7.2999 6.5 7.4999C6.4 8.0999 6.4 8.6999 6.5 9.2999C6.7 10.8999 7.3 12.2999 8.4 13.3999C8.6 13.6999 8.9 13.8999 9.1 14.1999C9.3 14.3999 9.5 14.4999 9.6 14.6999C10.2 15.0999 10.6 15.6999 10.9 16.2999C11 16.4999 11.1 16.5999 11.2 16.7999C11.4 17.1999 11.5 17.5999 11.5 17.9999C11.5 18.5999 11.5 19.2999 11.4 19.8999C11.3 20.1999 11.2 20.3999 11.1 20.5999C11 20.7999 11 20.8999 10.9 20.9999C11 20.4999 10.8 19.9999 10.6 19.4999C10.4 18.9999 10.1 18.5999 9.7 18.1999C9 17.3999 8.1 16.7999 7.1 16.2999C6.1 15.7999 5.3 15.0999 4.6 14.1999C4.3 13.7999 4.1 13.2999 4 12.7999C4 12.5999 4 12.3999 4 12.2999C4 12.0999 4 11.9999 4 11.8999C4 11.9999 4 11.9999 4.1 12.0999C4.2 12.3999 4.4 12.7999 4.7 12.9999C5.1 13.3999 5.5 13.6999 5.9 13.8999H6L5.9 13.7999C5.5 13.2999 5.2 12.7999 5 12.2999C4.9 11.9999 4.9 11.7999 4.8 11.4999C4.8 10.7999 4.8 10.0999 5 9.4999C5.2 8.7999 5.5 8.2999 5.9 7.6999C6.1 7.3999 6.3 7.1999 6.6 6.8999C6.6 6.9999 6.6 6.9999 6.6 6.8999Z" fill="#677D8E"/>
<path d="M17.9016 14C18.0016 14 18.0016 13.9 17.9016 14C18.2016 13.9 18.3016 13.8 18.5016 13.6C18.7016 13.5 18.9016 13.3 19.1016 13.1C19.5016 12.8 19.8016 12.4 19.9016 11.9C19.9016 11.9 19.9016 11.9 19.9016 11.8C20.0016 12 20.0016 12.1 20.0016 12.2C20.0016 12.6 19.9016 12.9 19.8016 13.3C19.6016 13.8 19.3016 14.3 18.9016 14.7C18.4016 15.3 17.8016 15.8 17.1016 16.2C17.0016 16.3 16.8016 16.3 16.7016 16.4C15.8016 16.9 15.0016 17.4 14.3016 18.2C13.9016 18.6 13.6016 19.1 13.3016 19.6C13.1016 20 13.0016 20.5 13.1016 21C13.1016 21 13.1016 21 13.1016 21.1C13.1016 21.1 13.0016 21.1 13.0016 21C12.8016 20.7 12.6016 20.4 12.5016 20C12.3016 19.4 12.3016 18.7 12.4016 18.1C12.4016 18 12.4016 17.8 12.4016 17.7C12.4016 17.4 12.5016 17.2 12.6016 16.9C12.9016 16.2 13.3016 15.6 13.9016 15.1C14.1016 15 14.2016 14.8 14.4016 14.7C14.7016 14.4 15.0016 14.2 15.2016 13.9C15.4016 13.6 15.6016 13.4 15.9016 13.1C16.6016 12.2 17.1016 11.1 17.3016 10C17.5016 9 17.5016 8.1 17.2016 7.1V7L17.3016 7.1C17.9016 7.7 18.4016 8.4 18.6016 9.2C18.8016 9.7 18.9016 10.2 18.9016 10.7C18.9016 11 18.9016 11.4 18.9016 11.7C18.9016 12.1 18.7016 12.4 18.6016 12.8C18.4016 13.2 18.1016 13.6 17.9016 14C18.0016 13.9 17.9016 13.9 17.9016 14Z" fill="#677D8E"/>
<path d="M15.6016 19C15.6016 18.5 16.0016 18.1 16.5016 18C16.9016 18 17.3016 18.2 17.4016 18.6C17.5016 19.1 17.3016 19.6 16.8016 19.8C16.3016 20.1 15.6016 19.6 15.6016 19Z" fill="#677D8E"/>
<path d="M12.9016 12.1002C12.9016 12.6002 12.5016 13.0002 12.0016 13.0002C11.5016 13.0002 11.1016 12.6002 11.1016 12.1002C11.1016 11.6002 11.5016 11.2002 12.0016 11.2002C12.5016 11.2002 12.9016 11.6002 12.9016 12.1002Z" fill="#677D8E"/>
<path d="M8.40156 18.9C8.40156 19.4 8.00156 19.8 7.50156 19.8C7.00156 19.8 6.60156 19.4 6.60156 18.9C6.60156 18.4 7.00156 18 7.50156 18C7.90156 18 8.40156 18.4 8.40156 18.9Z" fill="#677D8E"/>
</svg>
