<svg width="24" height="24" viewBox="0 0 24 24" fill="none" xmlns="http://www.w3.org/2000/svg">
<g opacity="0.3">
<path opacity="0.3" d="M18.9 23C14.3 23 9.8 23 5.3 23C5.3 23 5.2 23 5.2 22.9C4.4 20.3 3.5 17.7 2.7 15.1C2.2 13.3 1.6 11.5 1 9.6C1 9.5 1 9.5 1.1 9.4C3.4 7.6 5.7 5.9 8 4.1C9.3 3.1 10.7 2.1 12 1C12.1 1 12.1 1 12.2 1C12.4 1.1 12.5 1.2 12.7 1.4C15.3 3.4 17.9 5.3 20.5 7.3C21.3 7.9 22.1 8.5 22.9 9.1V9.2C22 12.4 21 15.5 20.1 18.7C19.8 20.1 19.3 21.5 18.9 23ZM12 21.5C12.6 21.5 13.2 21.5 13.7 21.5C15 21.5 16.4 21.5 17.7 21.6C17.7 21.6 17.8 21.6 17.8 21.5C18.8 18.2 19.8 15 20.8 11.7C21 11.1 21.2 10.5 21.3 10V9.9C18.2 7.6 15.1 5.3 12.1 3H12C11.6 3.3 11.1 3.6 10.7 3.9C9.9 4.5 9.1 5.1 8.2 5.7C6.3 7.1 4.5 8.5 2.6 10C2.6 10 2.6 10 2.6 10.1C2.9 11 3.2 11.9 3.5 12.8C4.4 15.7 5.3 18.5 6.2 21.4C6.2 21.5 6.2 21.5 6.3 21.5C7.1 21.5 7.9 21.5 8.7 21.5C9.8 21.5 10.9 21.5 12 21.5Z" fill="white"/>
</g>
<path d="M12 1C12.1 1.3 12.1 1.5 12.2 1.7C12.2 1.9 12.3 2 12.3 2.2C12.3 2.4 12.4 2.7 12.5 2.9C12.5 3.1 12.6 3.4 12.6 3.6C12.7 3.8 12.7 4.1 12.7 4.3C12.8 4.6 12.8 4.9 12.9 5.2V5.3C12.9 5.4 13 5.5 13.1 5.6C13.3 5.8 13.6 6.1 13.8 6.3C13.9 6.6 14 6.8 14.1 7C14.1 7.1 14.2 7.1 14.3 7.1C15.9 7.1 17.4 7.4 18.9 7.9C19.7 8.2 20.5 8.6 21.3 9.1C21.7 9.4 22.1 9.8 22.4 10.2C22.7 10.6 22.9 11.1 23 11.6C23.1 12 23 12.3 23 12.7C22.8 13.6 22.4 14.3 21.9 15C21.2 15.9 20.3 16.5 19.3 17C18.8 17.3 18.2 17.5 17.7 17.6C17.7 17.6 17.7 17.6 17.6 17.6L17.7 17.5C18.5 17 19.1 16.4 19.7 15.6C20.1 15.1 20.4 14.6 20.6 14C20.7 13.8 20.8 13.5 20.8 13.3C20.9 13.1 20.9 12.8 20.8 12.6C20.7 12.2 20.5 12 20.2 11.7C19.9 11.5 19.6 11.4 19.3 11.3C18.8 11.2 18.2 11.3 17.7 11.4C17.5 11.4 17.4 11.5 17.2 11.5C17.2 11.6 17.2 11.6 17.2 11.7C17.2 11.9 17.2 12.1 17.2 12.4C17.2 13 17 13.7 16.8 14.3C16.6 15 16.2 15.7 15.7 16.3C15.2 16.9 14.5 17.4 13.8 17.6C13.6 17.7 13.4 17.7 13.3 17.7C13.3 17.7 13.3 17.7 13.2 17.7C13.6 18 14.1 18.3 14.5 18.5C14.9 18.7 15.4 18.9 15.9 19.1C15 19.4 14.2 19.9 13.6 20.6C12.9 21.3 12.4 22 12.2 23C11.9 22.1 11.4 21.3 10.7 20.6C10 19.9 9.3 19.4 8.4 19.1C8.9 18.9 9.4 18.7 9.8 18.5C10.2 18.3 10.7 18 11.1 17.7C11.1 17.7 11.1 17.7 11 17.7C10.2 17.6 9.6 17.3 9 16.8C8.4 16.3 7.9 15.6 7.6 14.8C7.3 14.2 7.1 13.5 7.1 12.8C7.1 12.5 7 12.2 7 11.9C7 11.8 7 11.7 7 11.6C6.8 11.6 6.7 11.5 6.5 11.5C6.1 11.4 5.8 11.4 5.4 11.4C5 11.4 4.7 11.5 4.3 11.6C3.9 11.8 3.6 12.1 3.5 12.5C3.4 12.8 3.4 13.2 3.5 13.5C3.5 14.5 4 15.3 4.6 16C5.1 16.6 5.7 17.1 6.4 17.6C6.4 17.6 6.5 17.6 6.5 17.7H6.4C5 17.3 3.8 16.7 2.8 15.7C2.2 15.1 1.7 14.5 1.3 13.7C1.1 13.2 1 12.7 1 12.2C1 11.8 1.1 11.4 1.2 11C1.4 10.5 1.7 10.1 2.1 9.7C2.6 9.2 3.2 8.8 3.9 8.4C4.7 8 5.5 7.7 6.3 7.5C7 7.4 7.8 7.2 8.5 7.2C8.9 7.2 9.3 7.1 9.7 7.1C9.8 7.1 9.8 7.1 9.9 7C10 6.8 10.2 6.6 10.3 6.4C10.5 6.2 10.7 6 11 5.7C11.1 5.6 11.2 5.5 11.2 5.4C11.2 5.2 11.3 5 11.3 4.8C11.3 4.6 11.4 4.4 11.4 4.1C11.4 3.9 11.5 3.6 11.5 3.4C11.5 3.2 11.6 3.1 11.6 2.9C11.6 2.7 11.7 2.6 11.7 2.4C11.7 2.2 11.8 1.9 11.8 1.7C11.9 1.5 11.9 1.3 12 1ZM11.1 12.5C11.1 12.6 11.1 12.8 11.1 12.9C11.1 13.2 11.1 13.5 11.1 13.9C11.1 14.8 11.1 15.7 11.1 16.6V16.7C10.7 15.1 10.3 13.6 10 12C10.2 13.4 10.4 14.8 10.6 16.2C10.4 15.9 10.3 15.5 10.1 15.2C9.9 14.7 9.7 14.3 9.4 13.8C9.2 13.3 9 12.9 8.7 12.4C8.6 12.3 8.6 12.2 8.4 12.1C8.3 12.1 8.2 12 8.1 12H8C8 12.2 8 12.3 8.1 12.5C8.2 13.3 8.4 14 8.8 14.8C9.1 15.4 9.6 16 10.1 16.4C10.5 16.7 11 17 11.6 17C11.9 17 11.9 17.1 12.1 16.9C12.2 17 12.3 17.1 12.4 17C12.8 17 13.1 16.8 13.4 16.7C14.1 16.3 14.6 15.8 15 15.2C15.6 14.3 15.9 13.3 16 12.2C16 12.1 16 12.1 16 12C15.8 12.1 15.6 12.2 15.5 12.2C15.5 12.2 15.5 12.2 15.4 12.3C15.1 12.9 14.8 13.5 14.5 14.2C14.2 14.8 13.9 15.5 13.6 16.1C13.6 16.2 13.5 16.2 13.5 16.3C13.6 15.6 13.7 14.9 13.8 14.2C13.9 13.5 14 12.8 14.1 12.1V12.2C14 12.4 14 12.7 13.9 12.9C13.8 13.2 13.8 13.4 13.7 13.7C13.6 14 13.5 14.3 13.5 14.7C13.4 15 13.3 15.3 13.3 15.6C13.2 15.9 13.1 16.3 13.1 16.6C13.1 16.6 13.1 16.7 13 16.7C13 16.2 13 15.8 13 15.4C13 15 13 14.5 13 14.1C13 13.7 13 13.2 13 12.8C12.9 12.8 12.9 12.8 12.9 12.9C12.7 13.1 12.6 13.3 12.5 13.5C12.4 13.7 12.3 13.9 12.2 14C12.2 14 12.2 14.1 12.1 14.1C12 13.9 11.9 13.7 11.8 13.5C11.7 13.3 11.6 13.1 11.4 12.9C11.2 12.5 11.1 12.5 11.1 12.5ZM10.5 9.8C10.6 9.8 10.6 9.8 10.7 9.8C10.8 9.8 10.9 9.7 10.9 9.6C11 9.5 11 9.5 11 9.4C10.9 9.3 10.8 9.2 10.8 9.2C10.7 9.1 10.5 9 10.4 8.9C10.1 8.8 10 8.8 9.9 9V9.1C9.9 9.3 10 9.5 10.1 9.6C10.2 9.7 10.3 9.8 10.5 9.8ZM13.5 9.8C13.6 9.8 13.7 9.7 13.8 9.6C13.9 9.4 14 9.3 14.1 9.1C14.2 8.9 14.1 8.9 14 8.8C13.9 8.7 13.8 8.8 13.7 8.8C13.5 8.8 13.4 8.9 13.3 9C13.2 9.1 13.1 9.2 13 9.3C12.9 9.4 12.9 9.5 13 9.5C13.1 9.5 13.1 9.6 13.2 9.6C13.3 9.8 13.4 9.8 13.5 9.8ZM12 10C11.9 10.3 11.8 10.5 11.7 10.7C11.7 10.8 11.7 10.9 11.7 11.1C11.8 11.2 11.9 11.4 12 11.5C12.1 11.3 12.2 11.2 12.3 11V10.9C12.2 10.6 12.2 10.3 12 10Z" fill="white"/>
</svg>
