<svg width="24" height="24" viewBox="0 0 24 24" fill="none" xmlns="http://www.w3.org/2000/svg">
<g opacity="0.3">
<path opacity="0.3" d="M18.9 23C14.3 23 9.8 23 5.3 23C5.3 23 5.2 23 5.2 22.9C4.4 20.3 3.5 17.7 2.7 15.1C2.2 13.3 1.6 11.5 1 9.6C1 9.5 1 9.5 1.1 9.4C3.4 7.6 5.7 5.9 8 4.1C9.3 3.1 10.7 2.1 12 1C12.1 1 12.1 1 12.2 1C12.4 1.1 12.5 1.2 12.7 1.4C15.3 3.4 17.9 5.3 20.5 7.3C21.3 7.9 22.1 8.5 22.9 9.1V9.2C22 12.4 21 15.5 20.1 18.7C19.8 20.1 19.3 21.5 18.9 23ZM12 21.5C12.6 21.5 13.2 21.5 13.7 21.5C15 21.5 16.4 21.5 17.7 21.6C17.7 21.6 17.8 21.6 17.8 21.5C18.8 18.2 19.8 15 20.8 11.7C21 11.1 21.2 10.5 21.3 10V9.9C18.2 7.6 15.1 5.3 12.1 3H12C11.6 3.3 11.1 3.6 10.7 3.9C9.9 4.5 9.1 5.1 8.2 5.7C6.3 7.1 4.5 8.5 2.6 10C2.6 10 2.6 10 2.6 10.1C2.9 11 3.2 11.9 3.5 12.8C4.4 15.7 5.3 18.5 6.2 21.4C6.2 21.5 6.2 21.5 6.3 21.5C7.1 21.5 7.9 21.5 8.7 21.5C9.8 21.5 10.9 21.5 12 21.5Z" fill="#677D8E"/>
</g>
<path d="M18.2016 20H18.1016C17.7016 19.9 17.3016 19.6 17.0016 19.4C16.3016 18.9 15.8016 18.4 15.3016 17.8C15.2016 17.7 15.1016 17.5 15.0016 17.4C15.0016 17.6 15.0016 17.7 15.0016 17.8C15.0016 18.2 15.1016 18.6 15.2016 19C15.2016 19.2 15.3016 19.4 15.3016 19.6C15.4016 19.9 15.4016 20.2 15.5016 20.5C15.7016 21 15.8016 21.6 16.0016 22.1C16.2016 22.6 16.5016 23 16.8016 23.4L16.9016 23.5C16.0016 23 15.2016 22.3 14.5016 21.6C13.8016 20.8 13.3016 20 12.9016 19V19.1C12.9016 19.3 12.8016 19.6 12.8016 19.8C12.7016 20.2 12.6016 20.5 12.6016 20.9C12.5016 21.5 12.3016 22.2 12.2016 22.8C12.2016 22.9 12.2016 23 12.2016 23.1V23.2C12.2016 23 12.1016 22.8 12.1016 22.6C12.0016 22.3 12.0016 22 11.9016 21.8C11.8016 21.3 11.7016 20.8 11.6016 20.4V20.3C11.5016 20 11.5016 19.7 11.4016 19.4C11.4016 19.3 11.4016 19.3 11.4016 19.2C10.8016 20.6 9.90156 21.8 8.80156 22.8C8.40156 23.2 7.80156 23.5 7.40156 23.7V23.6C8.00156 23 8.30156 22.2 8.60156 21.4C8.60156 21.3 8.70156 21.1 8.70156 21C8.80156 20.2 9.00156 19.6 9.00156 19.1C9.00156 18.8 9.10156 18.5 9.10156 18.2C9.10156 17.9 9.20156 17.7 9.10156 17.4C8.80156 18 8.40156 18.5 7.80156 19C7.30156 19.4 6.70156 19.8 6.00156 20C6.10156 19.9 6.30156 19.8 6.40156 19.6C6.90156 19.2 7.30156 18.6 7.60156 18.1C8.00156 17.5 8.30156 16.8 8.60156 16.1C8.60156 16.1 8.60156 16 8.70156 16H8.60156C8.10156 16.2 7.60156 16.4 7.00156 16.5C6.00156 16.6 5.10156 16.4 4.30156 15.7L4.20156 15.6C4.40156 15.6 4.70156 15.6 4.90156 15.6C5.10156 15.6 5.40156 15.6 5.60156 15.4C5.50156 15.4 5.50156 15.4 5.40156 15.4C4.50156 15.2 3.80156 14.7 3.30156 13.9C3.20156 13.8 3.20156 13.7 3.20156 13.5C3.10156 12.6 3.20156 11.8 3.50156 10.9C3.60156 10.7 3.70156 10.5 3.80156 10.3C3.80156 10.3 3.80156 10.2 3.90156 10.2C3.90156 10.3 3.90156 10.3 3.90156 10.3C3.90156 10.7 3.90156 11.1 4.00156 11.4C4.10156 11.7 4.20156 12 4.40156 12.3C4.50156 12.4 4.60156 12.5 4.70156 12.7V12.6C4.50156 11.9 4.50156 11.2 4.60156 10.6C4.70156 10.3 4.80156 9.8 5.00156 9.4C5.10156 9.1 5.30156 8.9 5.40156 8.6C5.40156 8.5 5.50156 8.5 5.60156 8.4C6.10156 8 6.70156 7.7 7.40156 7.6C7.40156 7.6 7.50156 7.6 7.60156 7.6C7.50156 7.7 7.40156 7.7 7.30156 7.8C6.70156 8.5 6.30156 9.2 6.10156 10.1C6.00156 10.7 5.90156 11.2 6.10156 11.8C6.30156 12.3 6.50156 12.8 7.00156 13C7.30156 13.1 7.50156 13.2 7.80156 13.3C8.40156 13.4 9.00156 13.3 9.60156 13.2C9.70156 13.2 9.70156 13.1 9.70156 13.1C9.80156 12.6 9.90156 12.1 10.0016 11.5C10.2016 10.6 10.3016 9.7 10.4016 8.8C10.5016 7.6 10.5016 6.3 10.5016 5.1C10.5016 5.1 10.5016 5.1 10.5016 5C8.90156 5.7 7.20156 6.4 5.60156 7.1C7.70156 5.1 9.90156 3 12.1016 1C14.3016 3 16.5016 5.1 18.7016 7.1C18.4016 7 18.1016 6.9 17.9016 6.8C17.6016 6.7 17.3016 6.6 17.1016 6.4C16.8016 6.3 16.5016 6.2 16.3016 6C16.0016 5.9 15.7016 5.8 15.5016 5.7C15.2016 5.6 14.9016 5.5 14.7016 5.3C14.4016 5.2 14.1016 5.1 13.8016 4.9C13.8016 5 13.8016 5 13.8016 5.1C13.8016 6.2 13.8016 7.3 13.9016 8.4C14.0016 9.9 14.3016 11.5 14.6016 13C14.6016 13.1 14.7016 13.1 14.8016 13.2C15.3016 13.3 15.8016 13.4 16.4016 13.4C16.8016 13.4 17.1016 13.3 17.5016 13.1C18.0016 12.8 18.3016 12.4 18.4016 11.8C18.5016 11.3 18.5016 10.7 18.4016 10.2C18.2016 9.2 17.7016 8.4 17.0016 7.7L16.9016 7.6H17.0016C17.7016 7.8 18.2016 8 18.8016 8.4C18.9016 8.4 18.9016 8.5 19.0016 8.6C19.2016 8.9 19.4016 9.2 19.5016 9.5C19.7016 10.1 19.8016 10.7 19.9016 11.3C19.9016 11.8 19.9016 12.3 19.7016 12.7C19.7016 12.7 19.7016 12.7 19.7016 12.8C19.8016 12.7 19.9016 12.6 20.0016 12.4C20.2016 12.1 20.3016 11.7 20.4016 11.4C20.5016 11.1 20.5016 10.8 20.5016 10.5C20.5016 10.4 20.5016 10.4 20.5016 10.3C20.5016 10.3 20.5016 10.4 20.6016 10.4C21.0016 11.1 21.2016 11.8 21.3016 12.6C21.3016 12.9 21.3016 13.3 21.2016 13.6C21.2016 13.7 21.1016 13.8 21.1016 13.8C20.7016 14.4 20.3016 14.8 19.6016 15.1C19.4016 15.2 19.1016 15.3 18.8016 15.4H18.7016C19.2016 15.6 19.6016 15.6 20.1016 15.5C20.1016 15.5 20.1016 15.5 20.0016 15.6C19.5016 16.1 18.9016 16.3 18.2016 16.4C17.3016 16.5 16.5016 16.3 15.7016 16C15.7016 16 15.6016 16 15.6016 15.9C15.6016 16 15.6016 16 15.7016 16.1C16.0016 16.8 16.4016 17.5 16.8016 18.1C17.1016 18.7 17.5016 19.2 18.0016 19.6C18.0016 19.8 18.1016 19.9 18.2016 20Z" fill="#677D8E"/>
</svg>
