<svg width="24" height="24" viewBox="0 0 24 24" fill="none" xmlns="http://www.w3.org/2000/svg">
<g opacity="0.3">
<path opacity="0.3" d="M18.9 23C14.3 23 9.8 23 5.3 23C5.3 23 5.2 23 5.2 22.9C4.4 20.3 3.5 17.7 2.7 15.1C2.2 13.3 1.6 11.5 1 9.6C1 9.5 1 9.5 1.1 9.4C3.4 7.6 5.7 5.9 8 4.1C9.3 3.1 10.7 2.1 12 1C12.1 1 12.1 1 12.2 1C12.4 1.1 12.5 1.2 12.7 1.4C15.3 3.4 17.9 5.3 20.5 7.3C21.3 7.9 22.1 8.5 22.9 9.1V9.2C22 12.4 21 15.5 20.1 18.7C19.8 20.1 19.3 21.5 18.9 23ZM12 21.5C12.6 21.5 13.2 21.5 13.7 21.5C15 21.5 16.4 21.5 17.7 21.6C17.7 21.6 17.8 21.6 17.8 21.5C18.8 18.2 19.8 15 20.8 11.7C21 11.1 21.2 10.5 21.3 10V9.9C18.2 7.6 15.1 5.3 12.1 3H12C11.6 3.3 11.1 3.6 10.7 3.9C9.9 4.5 9.1 5.1 8.2 5.7C6.3 7.1 4.5 8.5 2.6 10C2.6 10 2.6 10 2.6 10.1C2.9 11 3.2 11.9 3.5 12.8C4.4 15.7 5.3 18.5 6.2 21.4C6.2 21.5 6.2 21.5 6.3 21.5C7.1 21.5 7.9 21.5 8.7 21.5C9.8 21.5 10.9 21.5 12 21.5Z" fill="#677D8E"/>
</g>
<path d="M18.5 17.0001C19.5 16.7001 20.3 16.1001 21.1 15.5001C21.9 14.8001 22.5 14.1001 23 13.1001C23 13.2001 23 13.2001 23 13.3001C22.9 13.7001 22.8 14.1001 22.6 14.5001C21.8 16.3001 20.6 17.7001 19 18.8001C17.8 19.6001 16.5 20.1001 15.1 20.4001C13.8 20.6001 12.5 20.6001 11.2 20.2001C11.1 20.2001 11.1 20.2001 11 20.2001C11.1 20.3001 11.1 20.3001 11.2 20.4001C11.6 20.8001 12.2 21.1001 12.7 21.3001C13.5 21.6001 14.3 21.9001 15.1 22.0001C15.7 22.1001 16.2 22.1001 16.8 22.1001H16.9C16.8 22.1001 16.8 22.1001 16.8 22.2001C16.4 22.4001 16 22.5001 15.5 22.6001C13.9 22.8001 12.3 22.6001 10.8 22.0001C8.5 21.1001 6.7 19.6001 5.4 17.4001C5 16.7001 4.7 16.0001 4.5 15.2001C4.5 15.2001 4.5 15.1001 4.4 15.1001C4.4 15.2001 4.4 15.3001 4.3 15.4001C4.2 16.2001 4.2 17.0001 4.3 17.8001C4.4 18.7001 4.7 19.5001 5.1 20.2001C5.3 20.5001 5.5 20.8001 5.6 21.1001L5.5 21.0001C5 20.7001 4.6 20.3001 4.3 19.8001C3.4 18.7001 2.9 17.5001 2.6 16.2001C2.4 15.4001 2.4 14.6001 2.4 13.8001C2.5 12.2001 2.8 10.8001 3.6 9.40011C4.1 8.50011 4.6 7.70011 5.3 7.00011C5.4 7.00011 5.5 7.00011 5.5 7.00011H5.4C4.9 7.20011 4.5 7.40011 4.1 7.70011C3.1 8.40011 2.2 9.20011 1.5 10.2001C1.5 10.3001 1.4 10.3001 1.3 10.4001C1.2 10.6001 1.1 10.8001 1 11.0001C1 11.0001 1 11.0001 1 11.1001C1 11.0001 1 10.8001 1.1 10.7001C1.1 10.5001 1.2 10.3001 1.2 10.2001C1.3 9.70011 1.6 9.20011 1.8 8.70011C2.6 7.30011 3.7 6.20011 4.9 5.30011C5.9 4.60011 7 4.20011 8.2 3.90011C9.3 3.70011 10.3 3.60011 11.4 3.70011C11.9 3.70011 12.4 3.80011 12.9 3.90011H13L12.9 3.80011C12.3 3.30011 11.7 3.00011 11 2.70011C10.7 2.60011 10.4 2.50011 10.1 2.30011C9.4 2.00011 8.8 1.90011 8.1 1.90011C7.8 1.90011 7.5 1.90011 7.2 1.90011C7.2 1.90011 7.2 1.90011 7.3 1.90011C7.8 1.70011 8.4 1.60011 9 1.60011C9.6 1.60011 10.3 1.50011 10.9 1.60011C12.5 1.80011 14 2.20011 15.4 3.20011C17 4.20011 18.2 5.70011 19 7.50011C19.2 7.90011 19.3 8.30011 19.4 8.70011V8.80011V8.70011C19.5 8.00011 19.5 7.30011 19.5 6.60011C19.4 5.70011 19.2 4.70011 18.8 3.90011C18.6 3.50011 18.5 3.10011 18.3 2.80011L18.4 2.90011C19.1 3.60011 19.6 4.30011 20.1 5.10011C20.6 6.10011 21 7.00011 21.2 8.10011C21.4 8.90011 21.4 9.70011 21.4 10.5001C21.3 12.4001 20.7 14.2001 19.6 15.8001C19.3 16.2001 19 16.5001 18.7 16.9001C18.6 16.9001 18.5 16.9001 18.5 17.0001C18.5 16.9001 18.5 16.9001 18.5 17.0001ZM8 8.90011C7.9 9.10011 7.7 9.30011 7.6 9.50011C6.4 10.9001 6.1 12.5001 6.4 14.3001C6.6 15.3001 7 16.2001 7.6 17.1001C7.6 17.1001 7.6 17.1001 7.6 17.2001V17.1001C7.5 16.7001 7.4 16.4001 7.3 16.0001C7.2 15.5001 7.1 14.9001 7.2 14.4001C7.2 14.2001 7.2 14.1001 7.3 13.9001C7.3 13.9001 7.3 13.9001 7.4 14.0001C7.7 14.6001 8 15.2001 8.4 15.7001C9.1 16.6001 9.9 17.4001 10.9 17.9001C12 18.4001 13.1 18.7001 14.2 18.5001C14.3 18.5001 14.3 18.5001 14.4 18.5001C14.5 18.5001 14.5 18.5001 14.6 18.5001C14 18.4001 13.4 18.3001 12.8 18.1001C12.4 17.9001 12 17.8001 11.7 17.5001C11.5 17.4001 11.4 17.3001 11.3 17.1001C12.3 17.4001 13.4 17.4001 14.4 17.2001C15.4 17.0001 16.3 16.5001 17.1 15.8001C17.8 15.1001 18.7 13.7001 18.8 13.2001C18.7 13.3001 18.7 13.3001 18.6 13.4001C18.3 13.8001 17.9 14.2001 17.5 14.5001C17.1 14.8001 16.7 15.1001 16.3 15.3001C16.2 15.3001 16.1 15.4001 16 15.4001C16 15.4001 16 15.4001 16 15.3001C16.2 15.1001 16.4 14.9001 16.5 14.8001C16.9 14.3001 17.3 13.8001 17.5 13.2001C18 12.1001 18.1 11.0001 17.9 9.80011C17.7 8.70011 17.2 7.70011 16.5 6.90011L16.4 6.80011C16.4 6.90011 16.4 6.90011 16.4 6.90011C16.5 7.20011 16.7 7.60011 16.8 7.90011C16.9 8.30011 17 8.70011 17 9.10011C17 9.40011 17 9.80011 17 10.1001C17 10.2001 17 10.2001 17 10.3001L16.9 10.2001C16.8 9.80011 16.6 9.50011 16.5 9.20011C15.5 7.30011 13.4 5.80011 11.4 5.60011C10.9 5.60011 10.3 5.60011 9.8 5.70011H9.7C9.9 5.70011 10.1 5.70011 10.3 5.70011C11.3 5.80011 12.1 6.20011 12.9 6.90011C13 7.00011 13 7.00011 13.1 7.10011C12.6 7.00011 12.5 7.00011 12.3 7.00011C12 7.00011 11.7 6.90011 11.4 6.90011C10.3 6.80011 9.3 7.00011 8.3 7.50011C6.9 8.30011 5.9 9.50011 5.3 11.0001C5.3 11.0001 5.3 11.0001 5.3 11.1001L5.4 11.0001C5.8 10.4001 6.3 9.80011 7 9.40011C7.1 9.20011 7.4 9.00011 7.7 8.90011C7.8 8.90011 7.9 8.90011 8 8.90011Z" fill="#677D8E"/>
<path d="M12.4992 8.6999C11.7992 8.1999 10.9992 7.9999 10.1992 7.9999C10.1992 7.9999 10.1992 7.9999 10.2992 7.9999C10.4992 7.9999 10.6992 7.8999 10.8992 7.8999C11.1992 7.8999 11.4992 7.8999 11.7992 7.8999C12.2992 7.9999 12.8992 8.0999 13.3992 8.3999C14.2992 8.8999 14.8992 9.6999 15.1992 10.6999V10.7999C15.2992 10.5999 15.2992 9.9999 15.1992 9.5999C15.0992 9.1999 14.9992 8.7999 14.6992 8.3999C14.9992 8.6999 15.2992 9.0999 15.4992 9.5999C15.6992 10.0999 15.7992 10.5999 15.8992 11.0999C15.8992 11.6999 15.7992 12.2999 15.5992 12.8999C15.3992 13.2999 15.1992 13.5999 14.8992 13.8999L14.7992 13.9999C15.1992 13.8999 15.4992 13.6999 15.8992 13.3999C16.1992 13.0999 16.4992 12.7999 16.5992 12.3999C16.4992 13.0999 16.0992 13.6999 15.5992 14.1999C15.0992 14.6999 14.4992 15.0999 13.7992 15.2999C13.0992 15.4999 12.3992 15.4999 11.6992 15.2999L11.7992 15.3999C12.0992 15.6999 12.4992 15.7999 12.8992 15.8999C13.1992 15.9999 13.5992 15.9999 13.8992 15.9999H13.9992C13.7992 15.9999 13.5992 16.0999 13.3992 16.0999C13.1992 16.0999 12.9992 16.0999 12.7992 16.0999C11.6992 15.9999 10.7992 15.5999 9.99922 14.7999C9.59922 14.3999 9.29922 13.7999 9.09922 13.2999C9.09922 13.2999 9.09922 13.2999 9.09922 13.1999C8.99922 13.3999 8.99922 13.9999 9.09922 14.3999C9.19922 14.7999 9.39922 15.1999 9.59922 15.4999C9.59922 15.4999 9.49922 15.4999 9.49922 15.3999C9.09922 15.0999 8.89922 14.7999 8.69922 14.3999C8.49922 13.9999 8.39922 13.4999 8.29922 12.9999C8.19922 11.7999 8.59922 10.7999 9.39922 9.8999C9.39922 9.8999 9.39922 9.7999 9.49922 9.7999C9.29922 9.7999 8.79922 10.0999 8.49922 10.4999C8.19922 10.7999 7.89922 11.0999 7.69922 11.4999V11.3999C7.69922 11.1999 7.79922 10.9999 7.89922 10.8999C8.19922 10.1999 8.69922 9.5999 9.29922 9.1999C9.89922 8.7999 10.4992 8.5999 11.1992 8.4999C11.4992 8.5999 11.9992 8.6999 12.4992 8.6999C12.3992 8.7999 12.4992 8.7999 12.4992 8.6999ZM10.5992 10.7999C10.1992 11.1999 9.89922 11.6999 9.89922 12.3999C9.89922 12.9999 10.0992 13.5999 10.3992 13.9999V13.8999C10.3992 13.6999 10.2992 13.4999 10.2992 13.2999C10.2992 13.0999 10.2992 12.9999 10.2992 12.7999C10.2992 12.7999 10.2992 12.6999 10.3992 12.6999C10.3992 12.7999 10.3992 12.7999 10.4992 12.8999C10.8992 13.7999 11.5992 14.3999 12.5992 14.5999C12.7992 14.5999 12.9992 14.5999 13.1992 14.5999C12.9992 14.5999 12.6992 14.4999 12.4992 14.3999C12.2992 14.2999 12.0992 14.1999 11.8992 13.9999C12.0992 14.0999 12.3992 14.0999 12.5992 14.0999C12.7992 14.0999 13.0992 14.0999 13.2992 13.9999C13.4992 13.8999 13.6992 13.7999 13.8992 13.6999C14.0992 13.5999 14.2992 13.3999 14.3992 13.1999C14.4992 12.9999 14.6992 12.7999 14.6992 12.5999C14.5992 12.6999 14.5992 12.6999 14.4992 12.7999C14.2992 13.0999 13.9992 13.2999 13.6992 13.3999C13.6992 13.3999 13.5992 13.4999 13.4992 13.3999L13.5992 13.2999C13.7992 13.0999 13.9992 12.8999 14.0992 12.6999C14.2992 12.2999 14.3992 11.7999 14.2992 11.2999C14.1992 10.7999 14.0992 10.3999 13.7992 10.0999C13.7992 10.0999 13.7992 10.0999 13.6992 9.9999C13.7992 10.1999 13.8992 10.4999 13.8992 10.6999C13.8992 10.8999 13.9992 11.1999 13.8992 11.3999C13.7992 11.3999 13.7992 11.2999 13.7992 11.2999C13.6992 11.1999 13.6992 10.9999 13.5992 10.8999C13.2992 10.2999 12.7992 9.8999 12.1992 9.5999C11.7992 9.4999 11.4992 9.3999 11.0992 9.4999H10.9992C11.4992 9.4999 11.8992 9.6999 12.2992 10.0999C11.9992 9.9999 11.6992 9.9999 11.3992 9.9999C11.0992 9.9999 10.7992 10.0999 10.4992 10.2999C10.1992 10.3999 9.99922 10.5999 9.79922 10.8999C9.59922 11.0999 9.39922 11.4999 9.29922 11.6999C9.99922 10.9999 10.2992 10.7999 10.5992 10.7999Z" fill="#677D8E"/>
</svg>
