<svg width="24" height="24" viewBox="0 0 24 24" fill="none" xmlns="http://www.w3.org/2000/svg">
<g opacity="0.3">
<path opacity="0.3" d="M18.9 23C14.3 23 9.8 23 5.3 23C5.3 23 5.2 23 5.2 22.9C4.4 20.3 3.5 17.7 2.7 15.1C2.2 13.3 1.6 11.5 1 9.6C1 9.5 1 9.5 1.1 9.4C3.4 7.6 5.7 5.9 8 4.1C9.3 3.1 10.7 2.1 12 1C12.1 1 12.1 1 12.2 1C12.4 1.1 12.5 1.2 12.7 1.4C15.3 3.4 17.9 5.3 20.5 7.3C21.3 7.9 22.1 8.5 22.9 9.1V9.2C22 12.4 21 15.5 20.1 18.7C19.8 20.1 19.3 21.5 18.9 23ZM12 21.5C12.6 21.5 13.2 21.5 13.7 21.5C15 21.5 16.4 21.5 17.7 21.6C17.7 21.6 17.8 21.6 17.8 21.5C18.8 18.2 19.8 15 20.8 11.7C21 11.1 21.2 10.5 21.3 10V9.9C18.2 7.6 15.1 5.3 12.1 3H12C11.6 3.3 11.1 3.6 10.7 3.9C9.9 4.5 9.1 5.1 8.2 5.7C6.3 7.1 4.5 8.5 2.6 10C2.6 10 2.6 10 2.6 10.1C2.9 11 3.2 11.9 3.5 12.8C4.4 15.7 5.3 18.5 6.2 21.4C6.2 21.5 6.2 21.5 6.3 21.5C7.1 21.5 7.9 21.5 8.7 21.5C9.8 21.5 10.9 21.5 12 21.5Z" fill="#677D8E"/>
</g>
<path d="M13.5984 11.0999C13.4984 11.0999 13.3984 11.1999 13.2984 11.0999C13.2984 11.0999 13.2984 11.0999 13.2984 10.9999C13.5984 10.6999 13.7984 10.2999 13.8984 9.79991C13.8984 9.79991 13.8984 9.79991 13.8984 9.69991C13.8984 9.59991 13.8984 9.39991 13.6984 9.39991C13.7984 9.29991 13.8984 9.19991 13.9984 9.09991C14.1984 8.89991 14.2984 8.69991 14.3984 8.39991V8.29991C14.3984 8.09991 14.2984 7.99991 14.1984 7.99991C13.9984 7.99991 13.8984 7.99991 13.7984 7.99991H13.6984C13.6984 7.99991 13.6984 7.89991 13.7984 7.89991C13.9984 7.69991 14.2984 7.49991 14.4984 7.39991C14.6984 7.29991 14.8984 7.19991 14.9984 7.09991C15.2984 6.99991 15.5984 6.89991 15.8984 6.89991C16.2984 6.79991 16.7984 6.89991 17.1984 6.89991C17.3984 6.89991 17.5984 6.99991 17.7984 7.09991C17.7984 7.09991 17.7984 7.09991 17.8984 7.09991C17.6984 7.09991 17.4984 7.09991 17.2984 7.19991C17.0984 7.19991 16.9984 7.29991 16.7984 7.39991C16.7984 7.39991 16.6984 7.39991 16.6984 7.49991C16.5984 7.59991 16.6984 7.69991 16.7984 7.69991C16.8984 7.69991 16.9984 7.69991 17.0984 7.69991C17.8984 7.79991 18.5984 8.19991 19.0984 8.69991C19.2984 8.89991 19.4984 9.19991 19.5984 9.49991C19.6984 9.69991 19.7984 9.79991 19.7984 9.99991V10.0999C19.6984 9.99991 19.5984 9.99991 19.4984 9.89991C19.1984 9.69991 18.7984 9.59991 18.3984 9.59991C18.2984 9.59991 18.2984 9.59991 18.1984 9.69991C18.0984 9.79991 18.0984 9.79991 18.1984 9.89991L18.2984 9.99991C18.8984 10.4999 19.3984 11.0999 19.7984 11.8999C19.9984 12.1999 20.0984 12.5999 20.2984 12.8999V12.9999C20.1984 12.8999 19.9984 12.7999 19.8984 12.6999C19.3984 12.2999 18.8984 12.0999 18.2984 11.9999H18.1984C18.0984 11.9999 18.0984 11.9999 17.9984 12.0999C17.9984 12.1999 17.9984 12.1999 17.9984 12.1999C18.3984 12.7999 18.7984 13.3999 18.9984 13.9999C19.0984 14.2999 19.0984 14.4999 19.0984 14.7999C19.0984 14.7999 19.0984 14.7999 19.0984 14.8999C18.9984 14.7999 18.8984 14.5999 18.7984 14.4999C18.5984 14.1999 18.2984 13.9999 17.8984 13.7999H17.7984C17.6984 13.7999 17.5984 13.7999 17.5984 13.9999C17.5984 13.9999 17.5984 13.9999 17.5984 14.0999C17.7984 14.5999 17.8984 14.9999 17.9984 15.4999C18.0984 15.7999 18.0984 16.1999 18.0984 16.4999V16.5999C17.9984 16.3999 17.8984 16.2999 17.8984 16.0999C17.7984 15.8999 17.5984 15.6999 17.3984 15.5999L17.2984 15.4999H17.1984V15.5999C17.1984 15.5999 17.1984 15.5999 17.1984 15.6999C17.3984 15.9999 17.4984 16.2999 17.5984 16.5999C17.6984 17.1999 17.6984 17.6999 17.5984 18.2999V18.3999C17.4984 18.2999 17.4984 18.1999 17.3984 18.0999C17.1984 17.7999 16.9984 17.5999 16.7984 17.3999C16.7984 17.3999 16.6984 17.3999 16.6984 17.2999C16.5984 17.2999 16.5984 17.2999 16.5984 17.2999C16.5984 17.2999 16.4984 17.3999 16.5984 17.3999C16.8984 17.8999 17.0984 18.3999 17.1984 18.9999C17.1984 19.0999 17.1984 19.1999 17.1984 19.2999C17.1984 19.2999 17.1984 19.2999 17.1984 19.3999C16.9984 19.0999 16.5984 18.8999 16.2984 18.7999C16.2984 18.8999 16.2984 18.8999 16.2984 18.8999C16.5984 19.9999 16.8984 21.1999 17.1984 22.2999C17.1984 22.3999 17.1984 22.5999 17.0984 22.6999H16.9984C14.1984 22.6999 11.3984 22.6999 8.59844 22.6999C8.39844 22.6999 8.19844 22.6999 8.09844 22.6999C7.99844 22.6999 7.89844 22.6999 7.89844 22.5999C7.89844 22.4999 7.89844 22.4999 7.89844 22.3999C7.89844 21.8999 7.89844 21.4999 7.99844 20.9999C8.09844 20.3999 8.19844 19.8999 8.39844 19.3999C8.59844 18.8999 8.89844 18.4999 9.09844 17.9999C9.39844 17.5999 9.69844 17.1999 9.99844 16.7999C10.5984 16.0999 11.0984 15.2999 11.3984 14.4999C11.4984 14.0999 11.6984 13.7999 11.6984 13.3999C11.6984 13.1999 11.6984 13.0999 11.5984 12.8999V12.7999C11.5984 12.6999 11.5984 12.6999 11.6984 12.6999L11.7984 12.5999C12.0984 12.3999 12.3984 12.1999 12.6984 11.8999C12.9984 11.8999 13.2984 11.5999 13.5984 11.0999C13.4984 11.1999 13.5984 11.0999 13.5984 11.0999Z" fill="#677D8E"/>
<path d="M13.0992 3.5C12.4992 3.7 11.8992 3.9 11.4992 4.4C11.5992 4.4 11.6992 4.4 11.7992 4.3C12.0992 4.2 12.2992 4.2 12.5992 4.1C12.9992 4.1 13.3992 4 13.7992 3.8C13.9992 3.7 14.2992 3.6 14.4992 3.5C14.6992 3.4 14.7992 3.4 14.9992 3.3C15.2992 3.2 15.5992 3 15.8992 2.8C16.0992 2.6 16.2992 2.4 16.4992 2.1C16.5992 2.1 16.5992 2.2 16.5992 2.2C16.5992 2.5 16.4992 2.8 16.3992 3C16.1992 3.3 15.9992 3.6 15.6992 3.9C15.6992 3.9 15.6992 4 15.5992 4H15.6992C15.9992 3.9 16.1992 3.7 16.3992 3.6C16.9992 3.2 17.4992 2.8 17.8992 2.3C17.9992 2.2 17.9992 2.1 18.0992 2.1C18.0992 2.1 18.0992 2.1 18.1992 2V2.1C17.9992 2.7 17.8992 3.3 17.4992 3.8C17.2992 4.1 17.0992 4.5 16.7992 4.8C16.6992 4.9 16.6992 4.9 16.5992 5C16.1992 5.4 15.7992 5.7 15.2992 6C15.0992 6.1 14.7992 6.3 14.5992 6.4C14.5992 6.4 14.5992 6.4 14.4992 6.4H14.5992C14.7992 6.4 15.0992 6.5 15.2992 6.5H15.3992V6.6C15.2992 6.7 15.1992 6.7 15.0992 6.8C14.7992 7 14.3992 7.2 13.9992 7.4C13.6992 7.5 13.2992 7.6 12.9992 7.7C12.9992 7.7 12.9992 7.7 12.8992 7.7C12.9992 7.7 13.0992 7.8 13.0992 7.8C13.1992 7.9 13.1992 7.9 13.0992 8C12.9992 8.2 12.7992 8.4 12.4992 8.5C12.2992 8.6 11.9992 8.8 11.7992 8.9C11.7992 8.9 11.7992 8.9 11.6992 8.9C11.9992 8.9 12.1992 8.9 12.3992 8.9C12.5992 8.9 12.8992 8.8 13.0992 8.8V8.9C12.9992 9.1 12.9992 9.2 12.8992 9.4C12.6992 9.7 12.3992 9.9 12.1992 10.1C12.1992 10.1 12.0992 10.2 11.9992 10.2C12.2992 10.2 12.4992 10.1 12.7992 10.1C12.7992 10.4 12.6992 10.7 12.3992 10.9C11.9992 11.3 11.4992 11.6 10.9992 11.9H11.0992C11.2992 11.9 11.5992 11.8 11.7992 11.8C11.7992 11.8 11.7992 11.8 11.8992 11.8C11.8992 11.8 11.9992 11.7 11.9992 11.8V11.9C11.8992 12 11.7992 12.2 11.6992 12.3C11.4992 12.5 11.2992 12.6 11.0992 12.8C10.6992 13.1 10.3992 13.3 9.89922 13.4C9.79922 13.4 9.79922 13.5 9.69922 13.6C9.39922 14.5 8.99922 15.3 8.39922 16.1C7.99922 16.6 7.59922 17.1 7.19922 17.5C6.99922 17.7 6.79922 17.8 6.59922 17.9C6.49922 17.9 6.39922 18 6.29922 18C6.29922 17.9 6.29922 17.7 6.29922 17.6C6.29922 17.4 6.29922 17.2 6.19922 17C6.09922 16.8 5.89922 16.5 5.69922 16.3C5.59922 16.2 5.49922 16 5.59922 15.8C5.59922 15.7 5.69922 15.6 5.79922 15.6C5.39922 15.3 5.29922 14.9 5.39922 14.5C5.59922 14.8 5.89922 15 6.19922 15.2H6.29922C6.39922 15.1 6.49922 15 6.59922 14.9C6.19922 14.7 5.99922 14.4 5.99922 13.9C6.39922 14.1 6.69922 14.2 7.09922 14.2C7.09922 14.1 7.19922 14 7.19922 13.8C6.99922 13.7 6.89922 13.6 6.79922 13.5C6.79922 13.4 6.69922 13.4 6.69922 13.3C6.79922 13.3 6.99922 13.3 7.09922 13.3C7.19922 13.3 7.19922 13.3 7.29922 13.2C7.39922 13.2 7.39922 13.1 7.39922 13C7.39922 12.7 7.59922 12.4 7.69922 12.1V12C7.49922 12.2 7.29922 12.3 7.09922 12.5C7.19922 12.7 6.99922 13 6.69922 13.2C6.39922 13.4 6.09922 13.5 5.79922 13.5C5.59922 13.5 5.49922 13.5 5.39922 13.4C5.39922 13.4 5.29922 13.4 5.29922 13.3C5.39922 13.3 5.39922 13.3 5.49922 13.3C5.79922 13.2 5.99922 13.1 6.19922 12.9C6.39922 12.7 6.49922 12.5 6.69922 12.3C6.89922 12 7.09922 11.7 7.29922 11.3C7.39922 11.1 7.49922 11 7.69922 10.8C7.89922 10.6 8.19922 10.4 8.49922 10.3C8.29922 10.3 7.99922 10.2 7.79922 10.2C7.69922 10.4 7.59922 10.6 7.39922 10.8C7.19922 10.4 6.99922 10.1 6.59922 9.9C6.69922 10.2 6.69922 10.5 6.59922 10.9C6.59922 10.7 6.49922 10.6 6.39922 10.5C6.29922 10.4 6.19922 10.3 5.99922 10.2C5.89922 10.2 5.89922 10.2 5.79922 10.2C5.69922 10.3 5.49922 10.4 5.49922 10.6C5.39922 10.9 5.39922 11.3 5.49922 11.6C5.59922 11.8 5.69922 12.1 5.79922 12.3C5.69922 12.3 5.59922 12.2 5.49922 12.1C5.09922 11.8 4.89922 11.4 4.69922 11V10.9C4.59922 10.9 4.59922 10.9 4.59922 10.9V11C4.59922 11.3 4.69922 11.6 4.89922 11.8C4.89922 11.8 4.89922 11.8 4.89922 11.9C4.49922 11.8 4.29922 11.5 3.99922 11.2C3.99922 11.5 4.09922 11.7 4.29922 12C4.19922 12 4.09922 11.9 3.99922 11.9C3.89922 11.8 3.79922 11.8 3.79922 11.7C3.69922 11.6 3.59922 11.5 3.59922 11.4C3.59922 11.6 3.59922 11.8 3.69922 12C3.59922 11.9 3.49922 11.9 3.39922 11.8C3.29922 11.7 3.09922 11.5 2.99922 11.4C2.99922 11.4 2.99922 11.3 2.89922 11.4C2.89922 11.5 2.89922 11.5 2.89922 11.6C2.89922 11.8 2.99922 11.9 3.09922 12C3.09922 12 3.09922 12 3.19922 12.1C3.09922 12.1 3.09922 12.1 3.09922 12.1C2.89922 12 2.79922 11.9 2.69922 11.8L2.59922 11.7C2.59922 11.6 2.49922 11.6 2.39922 11.6C2.29922 11.6 2.19922 11.5 2.19922 11.4C2.19922 11.2 2.19922 11 2.19922 10.7C2.29922 9.9 2.69922 9.2 3.19922 8.6C3.59922 8.2 4.19922 7.9 4.69922 7.8C4.59922 7.7 4.49922 7.8 4.49922 7.9C4.49922 8 4.49922 8.1 4.49922 8.2C4.59922 8.2 4.59922 8.1 4.59922 8.1C5.49922 6.7 6.59922 5.6 7.99922 4.7C8.89922 4.1 9.99922 3.7 11.0992 3.5C11.4992 3.4 11.9992 3.3 12.3992 3.4C12.5992 3.4 12.7992 3.5 13.0992 3.5ZM5.99922 8.9C6.09922 8.9 6.09922 8.9 5.99922 8.9C6.39922 9.1 6.79922 8.9 6.99922 8.7C7.09922 8.6 7.19922 8.4 7.29922 8.2C7.29922 8.1 7.39922 8 7.39922 7.8C7.49922 7.8 7.59922 7.8 7.59922 7.8C7.59922 7.8 7.69922 7.8 7.69922 7.7C7.69922 7.6 7.69922 7.6 7.59922 7.6C7.09922 7.6 6.69922 7.7 6.29922 7.9C6.09922 7.9 5.99922 8 5.89922 8.1C5.69922 8.3 5.69922 8.5 5.69922 8.8C5.69922 8.9 5.79922 9 5.79922 9C5.79922 9 5.79922 9.1 5.89922 9.1L5.99922 9V8.9ZM3.89922 9.9C3.89922 9.8 3.79922 9.7 3.69922 9.7C3.49922 9.6 3.29922 9.5 3.19922 9.7C3.09922 9.8 2.99922 9.9 2.99922 10.1V10.2C3.29922 9.9 3.59922 9.9 3.89922 9.9Z" fill="#677D8E"/>
</svg>
