<svg width="24" height="24" viewBox="0 0 24 24" fill="none" xmlns="http://www.w3.org/2000/svg">
<g opacity="0.3">
<path opacity="0.3" d="M18.9 23C14.3 23 9.8 23 5.3 23C5.3 23 5.2 23 5.2 22.9C4.4 20.3 3.5 17.7 2.7 15.1C2.2 13.3 1.6 11.5 1 9.6C1 9.5 1 9.5 1.1 9.4C3.4 7.6 5.7 5.9 8 4.1C9.3 3.1 10.7 2.1 12 1C12.1 1 12.1 1 12.2 1C12.4 1.1 12.5 1.2 12.7 1.4C15.3 3.4 17.9 5.3 20.5 7.3C21.3 7.9 22.1 8.5 22.9 9.1V9.2C22 12.4 21 15.5 20.1 18.7C19.8 20.1 19.3 21.5 18.9 23ZM12 21.5C12.6 21.5 13.2 21.5 13.7 21.5C15 21.5 16.4 21.5 17.7 21.6C17.7 21.6 17.8 21.6 17.8 21.5C18.8 18.2 19.8 15 20.8 11.7C21 11.1 21.2 10.5 21.3 10V9.9C18.2 7.6 15.1 5.3 12.1 3H12C11.6 3.3 11.1 3.6 10.7 3.9C9.9 4.5 9.1 5.1 8.2 5.7C6.3 7.1 4.5 8.5 2.6 10C2.6 10 2.6 10 2.6 10.1C2.9 11 3.2 11.9 3.5 12.8C4.4 15.7 5.3 18.5 6.2 21.4C6.2 21.5 6.2 21.5 6.3 21.5C7.1 21.5 7.9 21.5 8.7 21.5C9.8 21.5 10.9 21.5 12 21.5Z" fill="white"/>
</g>
<path d="M8.20312 13.0002C8.00312 13.0002 7.80312 13.0002 7.70312 13.0002C7.50312 13.0002 7.50312 13.0002 7.40313 12.8002C7.20312 12.5002 7.10313 12.2002 6.90313 11.9002C6.80313 11.7002 6.60312 11.4002 6.50312 11.2002C6.50312 11.1002 6.50312 11.1002 6.50312 11.0002C6.50312 10.8002 6.50312 10.6002 6.60312 10.3002C6.60312 10.0002 6.70312 9.8002 6.70312 9.5002C6.70312 9.4002 6.70312 9.4002 6.70312 9.3002C6.40312 9.3002 6.30312 9.3002 6.20312 9.2002C6.10312 9.1002 5.90313 9.0002 5.80313 9.0002C5.50313 8.8002 5.30312 8.6002 5.10312 8.3002C4.80312 7.9002 4.70313 7.5002 4.80313 7.1002C4.80313 6.9002 4.90312 6.8002 5.00312 6.6002C5.10312 6.3002 5.30312 5.9002 5.40312 5.6002C5.50312 5.3002 5.60312 4.9002 5.50312 4.6002C5.50312 4.4002 5.40313 4.2002 5.30313 4.0002C5.30313 4.0002 5.30313 4.0002 5.30313 3.9002C5.30313 3.9002 5.40312 3.9002 5.50312 4.0002C5.70312 4.1002 5.90312 4.2002 6.10312 4.3002C6.40312 4.5002 6.60313 4.7002 6.90313 4.9002C7.00312 5.0002 7.10312 5.1002 7.10312 5.2002C7.20312 5.3002 7.40313 5.4002 7.50312 5.6002L7.60312 5.7002L7.70312 5.8002C7.70312 5.7002 7.70312 5.6002 7.70312 5.5002C7.70312 5.4002 7.70313 5.3002 7.80313 5.2002C7.90313 5.1002 8.00313 5.1002 8.10313 5.2002C8.40313 5.4002 8.60312 5.5002 8.90312 5.7002C9.20312 5.80019 9.40313 6.0002 9.60313 6.1002C9.80312 6.2002 10.1031 6.4002 10.3031 6.5002C10.7031 6.7002 11.0031 6.9002 11.4031 7.1002C11.6031 7.2002 11.8031 7.3002 11.9031 7.4002C12.0031 7.4002 12.0031 7.4002 12.1031 7.4002C12.4031 7.2002 12.8031 7.0002 13.1031 6.8002C13.4031 6.6002 13.7031 6.4002 14.0031 6.3002C14.3031 6.1002 14.6031 6.0002 14.9031 5.8002C15.2031 5.6002 15.5031 5.5002 15.8031 5.3002C15.9031 5.2002 16.0031 5.2002 16.1031 5.1002H16.2031C16.3031 5.1002 16.3031 5.2002 16.3031 5.2002C16.3031 5.3002 16.3031 5.5002 16.3031 5.6002V5.7002C16.3031 5.7002 16.4031 5.7002 16.4031 5.6002C16.5031 5.5002 16.6031 5.4002 16.7031 5.3002C16.8031 5.2002 16.9031 5.1002 16.9031 5.0002C17.1031 4.8002 17.2031 4.7002 17.4031 4.5002C17.5031 4.4002 17.6031 4.4002 17.6031 4.3002C17.8031 4.2002 18.0031 4.0002 18.2031 3.9002C18.4031 3.8002 18.5031 3.7002 18.7031 3.7002C18.7031 3.8002 18.6031 3.9002 18.6031 4.0002C18.5031 4.2002 18.5031 4.4002 18.5031 4.6002C18.5031 4.9002 18.5031 5.1002 18.6031 5.3002C18.8031 5.7002 18.9031 6.0002 19.0031 6.3002C19.1031 6.5002 19.2031 6.8002 19.3031 7.0002C19.4031 7.2002 19.3031 7.4002 19.3031 7.5002C19.2031 7.8002 19.1031 8.0002 19.0031 8.3002C18.9031 8.5002 18.7031 8.6002 18.5031 8.8002C18.4031 8.8002 18.4031 8.9002 18.4031 8.9002C18.2031 9.10019 17.9031 9.2002 17.6031 9.4002C17.6031 9.5002 17.6031 9.6002 17.6031 9.8002C17.7031 10.2002 17.7031 10.6002 17.8031 11.1002V11.2002C17.6031 11.6002 17.3031 12.0002 17.1031 12.4002C17.0031 12.6002 16.9031 12.7002 16.8031 12.9002C16.8031 12.9002 16.7031 12.9002 16.7031 13.0002C16.5031 13.0002 16.3031 13.0002 16.2031 13.0002H16.1031C16.1031 13.1002 16.2031 13.2002 16.2031 13.3002C16.3031 13.6002 16.4031 13.9002 16.4031 14.2002C16.4031 14.5002 16.5031 14.7002 16.4031 15.0002C16.4031 15.5002 16.2031 16.0002 15.9031 16.4002C15.9031 16.5002 15.8031 16.5002 15.8031 16.6002C15.8031 16.9002 15.7031 17.2002 15.7031 17.4002C15.7031 17.7002 15.6031 17.9002 15.6031 18.2002C15.6031 18.4002 15.5031 18.7002 15.5031 18.9002C15.5031 19.1002 15.4031 19.3002 15.4031 19.5002C15.3031 19.8002 15.3031 20.0002 15.2031 20.3002C15.1031 20.5002 15.1031 20.7002 15.0031 21.0002C14.9031 21.2002 14.9031 21.4002 14.8031 21.6002C14.7031 21.8002 14.6031 22.0002 14.5031 22.2002C14.3031 22.5002 14.1031 22.8002 13.8031 23.1002C13.8031 23.1002 13.8031 23.2002 13.7031 23.2002C13.7031 23.1002 13.7031 23.1002 13.8031 23.0002C13.8031 22.9002 13.9031 22.7002 13.9031 22.6002C13.9031 22.3002 14.0031 22.0002 14.0031 21.8002C14.0031 21.6002 14.0031 21.5002 14.0031 21.3002C14.0031 21.0002 14.0031 20.7002 14.0031 20.4002C14.0031 20.3002 14.0031 20.1002 14.0031 20.0002C14.0031 19.7002 14.0031 19.4002 13.9031 19.1002C13.9031 18.9002 13.8031 18.6002 13.8031 18.4002C13.8031 18.2002 13.7031 18.0002 13.7031 17.8002C13.6031 17.9002 13.5031 18.0002 13.4031 18.1002C13.4031 18.1002 13.4031 18.0002 13.3031 18.0002C13.2031 17.8002 13.1031 17.7002 13.0031 17.5002C12.9031 17.7002 12.8031 17.8002 12.7031 18.0002C12.5031 17.7002 12.3031 17.4002 12.2031 17.0002C12.1031 17.2002 12.0031 17.3002 12.0031 17.5002C11.9031 17.7002 11.8031 17.8002 11.7031 18.0002C11.6031 17.8002 11.4031 17.7002 11.4031 17.5002C11.3031 17.7002 11.2031 17.9002 11.1031 18.1002C11.0031 18.0002 10.9031 17.9002 10.8031 17.8002C10.8031 17.8002 10.8031 17.8002 10.8031 17.9002C10.7031 18.3002 10.6031 18.7002 10.6031 19.0002C10.5031 19.5002 10.5031 19.9002 10.5031 20.4002C10.5031 20.7002 10.5031 21.1002 10.5031 21.4002C10.5031 21.7002 10.5031 22.0002 10.5031 22.4002C10.5031 22.7002 10.6031 22.9002 10.6031 23.2002C10.6031 23.3002 10.6031 23.3002 10.7031 23.4002C10.5031 23.2002 10.3031 23.1002 10.2031 22.9002C10.1031 22.8002 10.0031 22.6002 9.90312 22.5002C9.80312 22.3002 9.70312 22.1002 9.60313 21.9002C9.50313 21.6002 9.40312 21.3002 9.30312 20.9002C9.00312 20.2002 9.00312 20.0002 8.90312 19.7002C8.80312 19.3002 8.70312 18.9002 8.70312 18.6002C8.70312 18.3002 8.60313 18.1002 8.60313 17.8002C8.60313 17.5002 8.50312 17.2002 8.50312 17.0002C8.50312 16.8002 8.40312 16.5002 8.40312 16.3002C8.40312 16.3002 8.40313 16.2002 8.30313 16.2002C8.10313 16.0002 8.00312 15.8002 7.90313 15.5002C7.80313 15.3002 7.80313 15.0002 7.80313 14.8002C7.80313 14.2002 7.90312 13.6002 8.20312 13.0002ZM13.7031 12.0002C13.6031 12.1002 13.4031 12.2002 13.3031 12.2002C13.0031 12.3002 12.8031 12.4002 12.5031 12.5002C12.4031 12.5002 12.2031 12.6002 12.1031 12.6002C12.0031 12.6002 11.9031 12.6002 11.8031 12.5002C11.6031 12.4002 11.3031 12.3002 11.1031 12.2002C11.0031 12.1002 10.8031 12.1002 10.7031 12.0002C10.6031 12.0002 10.6031 11.9002 10.5031 11.9002C10.4031 12.2002 10.2031 12.5002 10.1031 12.8002C10.1031 12.9002 10.1031 12.9002 10.1031 12.9002C10.3031 13.2002 10.6031 13.4002 10.8031 13.7002C10.9031 13.8002 10.9031 13.8002 11.0031 13.9002C11.1031 13.9002 11.1031 13.8002 11.1031 13.8002L11.2031 13.7002C11.3031 13.6002 11.4031 13.6002 11.4031 13.8002C11.5031 14.1002 11.7031 14.4002 11.8031 14.6002C12.0031 14.6002 12.2031 14.6002 12.4031 14.6002C12.5031 14.5002 12.5031 14.4002 12.5031 14.3002C12.6031 14.1002 12.7031 13.9002 12.8031 13.7002C12.8031 13.6002 12.9031 13.6002 12.9031 13.6002C13.0031 13.6002 13.0031 13.7002 13.1031 13.7002C13.2031 13.7002 13.2031 13.8002 13.3031 13.8002L13.4031 13.7002C13.7031 13.4002 13.9031 13.1002 14.2031 12.8002C14.2031 12.8002 14.3031 12.7002 14.2031 12.7002C14.0031 12.6002 13.8031 12.3002 13.7031 12.0002ZM14.5031 11.5002C14.6031 11.6002 14.7031 11.6002 14.8031 11.6002C14.9031 11.6002 15.0031 11.6002 15.0031 11.7002C15.2031 11.7002 15.4031 11.7002 15.6031 11.7002C15.8031 11.6002 15.9031 11.5002 16.0031 11.3002C16.2031 10.9002 16.1031 10.6002 16.0031 10.2002C15.5031 10.7002 15.0031 11.1002 14.5031 11.5002ZM9.60313 11.5002C9.30312 11.3002 9.10313 11.1002 8.80312 10.9002C8.60312 10.7002 8.30313 10.5002 8.10313 10.3002C8.00313 10.6002 7.90313 10.8002 8.00312 11.1002C8.10312 11.5002 8.40312 11.8002 8.80312 11.8002C9.10313 11.7002 9.40313 11.7002 9.60313 11.5002Z" fill="white"/>
<path d="M14.2023 5.5001C14.1023 5.2001 14.0023 5.0001 13.8023 4.8001C13.6023 4.6001 13.4023 4.4001 13.2023 4.3001C13.0023 4.2001 12.8023 4.1001 12.6023 4.1001C12.2023 4.0001 11.9023 4.0001 11.5023 4.1001C11.3023 4.1001 11.2023 4.2001 11.0023 4.2001C10.7023 4.3001 10.5023 4.5001 10.3023 4.6001C10.1023 5.0001 9.90234 5.2001 9.90234 5.5001C9.80234 5.5001 9.80234 5.5001 9.70234 5.5001C9.40234 5.3001 9.20234 5.2001 8.90234 5.0001C8.80234 4.9001 8.60234 4.8001 8.50234 4.7001C8.30234 4.5001 8.00234 4.4001 7.80234 4.2001C7.70234 4.1001 7.50234 4.1001 7.40234 3.9001C7.50234 3.7001 7.70234 3.6001 7.80234 3.4001C7.90234 3.3001 8.00234 3.2001 8.10234 3.1001C8.20234 3.0001 8.30234 2.9001 8.50234 2.9001H8.60234C8.90234 2.8001 9.10234 2.7001 9.40234 2.6001C9.70234 2.5001 10.0023 2.4001 10.3023 2.3001C10.5023 2.2001 10.7023 2.2001 10.9023 2.1001H11.0023C11.8023 2.1001 12.5023 2.1001 13.3023 2.1001C13.4023 2.1001 13.5023 2.1001 13.6023 2.2001C13.8023 2.3001 14.1023 2.4001 14.3023 2.5001C14.5023 2.6001 14.7023 2.6001 14.9023 2.7001C15.1023 2.8001 15.2023 2.8001 15.4023 2.9001C15.5023 3.0001 15.7023 3.0001 15.8023 3.1001C15.9023 3.1001 15.9023 3.2001 15.9023 3.2001C16.1023 3.5001 16.4023 3.8001 16.6023 4.1001C16.5023 4.2001 16.4023 4.3001 16.3023 4.4001C16.0023 4.6001 15.7023 4.8001 15.5023 5.0001C15.2023 5.2001 14.9023 5.4001 14.6023 5.6001C14.5023 5.6001 14.5023 5.7001 14.4023 5.7001C14.4023 5.6001 14.3023 5.6001 14.2023 5.5001Z" fill="white"/>
<path d="M17.0023 13.5002C17.2023 13.5002 17.3023 13.4002 17.4023 13.3002C17.6023 13.0002 17.8023 12.6002 17.9023 12.3002C17.9023 12.3002 17.9023 12.2002 18.0023 12.2002C18.2023 12.7002 18.4023 13.1002 18.6023 13.6002C18.9023 14.3002 19.2023 14.9002 19.5023 15.5002C19.5023 15.6002 19.5023 15.6002 19.5023 15.7002C19.4023 16.0002 19.2023 16.3002 19.0023 16.6002C18.8023 16.9002 18.6023 17.2002 18.4023 17.5002C18.2023 17.7002 18.0023 17.9002 17.9023 18.1002C17.8023 18.2002 17.6023 18.4002 17.5023 18.5002C17.4023 18.6002 17.3023 18.7002 17.1023 18.9002C17.0023 19.0002 16.9023 19.1002 16.8023 19.2002C16.6023 19.4002 16.3023 19.6002 16.0023 19.8002C16.0023 19.8002 15.9023 19.8002 15.9023 19.9002V19.8002C16.1023 18.8002 16.3023 17.8002 16.5023 16.8002C16.5023 16.8002 16.5023 16.7002 16.6023 16.7002C16.9023 16.5002 17.1023 16.2002 17.2023 15.8002C17.4023 15.1002 17.4023 14.4002 17.2023 13.7002C17.0023 13.6002 17.0023 13.5002 17.0023 13.5002Z" fill="white"/>
<path d="M8.30156 19.8001C8.20156 19.8001 8.20156 19.8001 8.20156 19.7001C8.10156 19.6001 8.00156 19.5001 7.80156 19.4001C7.50156 19.1001 7.10156 18.8001 6.80156 18.5001C6.70156 18.4001 6.60156 18.3001 6.50156 18.2001C6.30156 18.0001 6.20156 17.9001 6.00156 17.7001C5.90156 17.5001 5.70156 17.4001 5.60156 17.2001C5.30156 16.8001 5.00156 16.4001 4.80156 16.0001C4.70156 15.9001 4.60156 15.7001 4.60156 15.5001C4.60156 15.4001 4.60156 15.4001 4.60156 15.4001C5.10156 14.5001 5.40156 13.6001 5.80156 12.8001C5.90156 12.6001 6.00156 12.4001 6.10156 12.2001C6.10156 12.2001 6.10156 12.2001 6.10156 12.1001C6.10156 12.1001 6.10156 12.2001 6.20156 12.2001C6.40156 12.5001 6.60156 12.9001 6.70156 13.2001C6.80156 13.3001 6.90156 13.4001 7.00156 13.4001C7.00156 13.4001 7.00156 13.4001 7.00156 13.5001C6.80156 13.9001 6.80156 14.4001 6.80156 14.8001C6.80156 15.2001 6.90156 15.6001 7.10156 16.0001C7.20156 16.2001 7.30156 16.4001 7.50156 16.5001L7.60156 16.6001C7.70156 17.0001 7.80156 17.4001 7.80156 17.9001C7.90156 18.5001 8.00156 19.0001 8.10156 19.6001C8.20156 19.7001 8.20156 19.7001 8.30156 19.8001Z" fill="white"/>
<path d="M10.9031 18.3999C11.7031 18.7999 12.5031 18.7999 13.2031 18.3999C13.2031 18.4999 13.2031 18.5999 13.2031 18.6999C13.2031 18.9999 13.2031 19.2999 13.2031 19.4999C13.2031 19.5999 13.2031 19.5999 13.1031 19.5999C12.9031 19.6999 12.7031 19.7999 12.4031 19.7999C12.1031 19.7999 11.7031 19.7999 11.4031 19.7999C11.3031 19.7999 11.3031 19.7999 11.2031 19.7999C11.1031 19.7999 10.9031 19.6999 10.8031 19.5999C10.7031 19.5999 10.7031 19.4999 10.7031 19.3999C10.7031 19.1999 10.7031 18.8999 10.7031 18.6999C10.8031 18.6999 10.9031 18.5999 10.9031 18.3999Z" fill="white"/>
</svg>
