<svg width="24" height="24" viewBox="0 0 24 24" fill="none" xmlns="http://www.w3.org/2000/svg">
<g opacity="0.3">
<path opacity="0.3" d="M18.9 23C14.3 23 9.8 23 5.3 23C5.3 23 5.2 23 5.2 22.9C4.4 20.3 3.5 17.7 2.7 15.1C2.2 13.3 1.6 11.5 1 9.6C1 9.5 1 9.5 1.1 9.4C3.4 7.6 5.7 5.9 8 4.1C9.3 3.1 10.7 2.1 12 1C12.1 1 12.1 1 12.2 1C12.4 1.1 12.5 1.2 12.7 1.4C15.3 3.4 17.9 5.3 20.5 7.3C21.3 7.9 22.1 8.5 22.9 9.1V9.2C22 12.4 21 15.5 20.1 18.7C19.8 20.1 19.3 21.5 18.9 23ZM12 21.5C12.6 21.5 13.2 21.5 13.7 21.5C15 21.5 16.4 21.5 17.7 21.6C17.7 21.6 17.8 21.6 17.8 21.5C18.8 18.2 19.8 15 20.8 11.7C21 11.1 21.2 10.5 21.3 10V9.9C18.2 7.6 15.1 5.3 12.1 3H12C11.6 3.3 11.1 3.6 10.7 3.9C9.9 4.5 9.1 5.1 8.2 5.7C6.3 7.1 4.5 8.5 2.6 10C2.6 10 2.6 10 2.6 10.1C2.9 11 3.2 11.9 3.5 12.8C4.4 15.7 5.3 18.5 6.2 21.4C6.2 21.5 6.2 21.5 6.3 21.5C7.1 21.5 7.9 21.5 8.7 21.5C9.8 21.5 10.9 21.5 12 21.5Z" fill="#677D8E"/>
</g>
<path d="M10.9988 18.7C9.89877 20.1 8.39877 21.2 6.89877 22.1C6.79877 22.2 6.69877 22.2 6.59877 22.3C6.39877 22.6 6.19877 22.9 5.99877 23.1C5.99877 23.2 5.89877 23.2 5.79877 23.2C5.19877 23.1 4.69877 22.9 4.09877 22.8C4.09877 22.8 4.09877 22.8 3.99877 22.8C4.19877 22.1 4.29877 21.4 4.49877 20.7C4.89877 20.7 5.19877 20.7 5.49877 20.7C5.59877 20.7 5.69877 20.7 5.79877 20.6C6.39877 20.4 6.89877 20 7.39877 19.7C7.69877 19.5 8.09877 19.3 8.39877 19.1C8.89877 18.8 9.29877 18.5 9.69877 18.1C9.79877 18 9.99877 17.8 10.0988 17.7C10.0988 17.7 10.0988 17.6 9.99877 17.6C9.99877 17.5 9.99877 17.5 9.99877 17.4C10.0988 17.1 10.1988 16.9 10.2988 16.6C9.99877 16.3 9.69877 16 9.39877 15.8C9.29877 15.7 9.29877 15.7 9.29877 15.6C9.29877 15.3 9.19877 15 9.09877 14.7C8.99877 14.5 8.89877 14.3 8.79877 14.1C8.49877 13.6 8.09877 13.3 7.59877 13.1C7.09877 13 6.59877 13.2 6.39877 13.6C6.29877 13.8 6.29877 14 6.19877 14.2C6.19877 14.3 6.19877 14.3 6.19877 14.4C5.29877 13.9 4.59877 13.2 3.99877 12.4C3.19877 11.3 2.79877 10.2 2.69877 8.9C2.49877 6.3 3.89877 4.2 5.59877 3V3.1C5.39877 3.8 5.49877 4.4 5.59877 5.1C5.79877 6.4 6.39877 7.5 7.09877 8.6C7.69877 9.5 8.49877 10.2 9.39877 10.8C9.89877 11.1 10.4988 11.4 11.1988 11.6C11.2988 11.6 11.2988 11.6 11.3988 11.6C11.2988 12.7 11.4988 13.7 12.0988 14.6C12.7988 13.7 12.9988 12.7 12.7988 11.6C12.7988 11.6 12.7988 11.6 12.8988 11.6C13.5988 11.5 14.2988 11.2 14.8988 10.7C15.8988 10 16.6988 9.1 17.3988 8.1C17.8988 7.3 18.2988 6.4 18.4988 5.4C18.5988 4.8 18.6988 4.2 18.5988 3.6C18.5988 3.5 18.5988 3.3 18.4988 3.2C18.4988 3.2 18.4988 3.1 18.4988 3C20.0988 4.1 21.4988 6.2 21.3988 8.6C21.3988 10 20.8988 11.3 20.0988 12.4C19.4988 13.2 18.7988 13.9 17.8988 14.4C17.8988 14.3 17.8988 14.2 17.8988 14.1C17.8988 14 17.7988 13.9 17.7988 13.8C17.5988 13.3 16.9988 13 16.4988 13.2C15.9988 13.4 15.5988 13.7 15.2988 14.2C15.0988 14.6 14.9988 14.9 14.8988 15.3C14.8988 15.4 14.8988 15.5 14.7988 15.6C14.7988 15.7 14.6988 15.8 14.5988 15.9C14.2988 16.1 13.9988 16.4 13.6988 16.6C13.6988 16.6 13.6988 16.6 13.6988 16.7C13.7988 16.9 13.7988 17.1 13.8988 17.3C13.9988 17.4 13.9988 17.6 13.8988 17.7C14.0988 17.9 14.1988 18.1 14.4988 18.3C15.0988 18.8 15.7988 19.3 16.5988 19.7C16.9988 19.9 17.3988 20.2 17.7988 20.4C17.9988 20.5 18.0988 20.6 18.2988 20.6C18.2988 20.6 18.3988 20.6 18.4988 20.6C18.7988 20.6 19.1988 20.6 19.4988 20.6C19.4988 20.7 19.5988 20.8 19.5988 20.9C19.6988 21.5 19.8988 22.1 19.9988 22.6V22.7C19.6988 22.8 19.4988 22.8 19.1988 22.9C18.8988 23 18.4988 23 18.1988 23.1C18.0988 23.1 17.9988 23.1 17.9988 23C17.7988 22.7 17.5988 22.4 17.3988 22.1C17.3988 22 17.2988 22 17.1988 22C15.8988 21.3 14.7988 20.5 13.7988 19.5C13.4988 19.2 13.2988 19 12.9988 18.7C12.9988 18.7 12.9988 18.7 12.8988 18.8C12.7988 18.9 12.6988 18.9 12.5988 18.9C12.3988 18.8 12.1988 18.7 12.0988 18.7C11.9988 18.7 11.9988 18.7 11.8988 18.7C11.6988 18.8 11.5988 18.8 11.3988 18.9C11.1988 18.9 11.1988 18.9 10.9988 18.7C11.0988 18.8 10.9988 18.7 10.9988 18.7Z" fill="#677D8E"/>
<path d="M12.7989 3.3C12.7989 3.4 12.8989 3.4 12.8989 3.4C13.2989 4.1 13.7989 4.8 14.2989 5.4C14.4989 5.6 14.6989 5.8 14.8989 6C14.9989 6.1 15.1989 6.2 15.2989 6.3C15.3989 6.4 15.5989 6.3 15.5989 6.2C15.5989 6.1 15.5989 5.9 15.5989 5.8C15.5989 5.5 15.4989 5.3 15.4989 5C15.4989 5 15.4989 5 15.4989 4.9C15.5989 5 15.5989 5 15.5989 5C15.7989 5.2 15.9989 5.4 16.1989 5.5C16.2989 5.5 16.2989 5.6 16.3989 5.6C16.4989 5.6 16.5989 5.6 16.5989 5.5C16.5989 5.4 16.5989 5.3 16.5989 5.1C16.5989 4.4 16.2989 3.8 16.0989 3.1C15.9989 3 15.7989 2.7 15.6989 2.4C15.6989 2.4 15.6989 2.4 15.6989 2.3L15.7989 2.4C16.0989 2.8 16.4989 3.2 16.8989 3.5C17.0989 3.6 17.1989 3.7 17.3989 3.9C17.4989 3.9 17.4989 4 17.5989 4C17.6989 4 17.6989 4 17.6989 3.9C17.6989 3.7 17.6989 3.6 17.6989 3.4C17.5989 3 17.3989 2.6 17.1989 2.3C17.1989 2.3 17.1989 2.2 17.0989 2.2C17.1989 2.2 17.1989 2.2 17.1989 2.3C17.2989 2.3 17.3989 2.4 17.3989 2.4C17.5989 2.5 17.6989 2.5 17.8989 2.4C17.9989 2.6 17.9989 2.7 17.9989 2.9C18.0989 3.4 17.9989 3.9 17.7989 4.3C17.2989 5.7 16.4989 6.9 15.2989 7.9C14.7989 8.4 14.1989 8.7 13.4989 9C12.3989 9.4 11.2989 9.4 10.1989 8.9C9.59887 8.5 8.89887 8 8.29887 7.4C7.39887 6.5 6.69887 5.4 6.29887 4.2C5.99887 3.6 5.99887 3 6.09887 2.4C6.09887 2.3 6.09887 2.3 6.09887 2.2C6.29887 2.3 6.49887 2.3 6.69887 2.2C6.79887 2.2 6.89887 2.1 6.99887 2C6.89887 2.3 6.79887 2.4 6.79887 2.6C6.59887 2.8 6.49887 3.1 6.49887 3.4C6.49887 3.5 6.49887 3.7 6.49887 3.8C6.49887 3.9 6.59887 3.9 6.59887 3.9C6.69887 3.9 6.69887 3.9 6.79887 3.8C6.99887 3.7 7.19887 3.6 7.39887 3.4C7.79887 3.1 8.09887 2.7 8.39887 2.4C8.39887 2.4 8.39887 2.3 8.49887 2.3C8.49887 2.4 8.49887 2.4 8.39887 2.5C8.09887 3.1 7.89887 3.7 7.69887 4.3C7.59887 4.7 7.49887 5 7.49887 5.4C7.49887 5.5 7.49887 5.5 7.49887 5.6C7.49887 5.7 7.59887 5.8 7.69887 5.7C7.79887 5.7 7.79887 5.6 7.89887 5.6C8.09887 5.5 8.29887 5.3 8.39887 5.1L8.49887 5C8.49887 5.1 8.49887 5.1 8.49887 5.1C8.49887 5.5 8.49887 5.8 8.49887 6.1C8.49887 6.2 8.49887 6.2 8.49887 6.3C8.49887 6.4 8.59887 6.5 8.69887 6.4C8.89887 6.4 8.99887 6.3 9.09887 6.2C9.29887 6 9.49887 5.8 9.69887 5.5C10.1989 4.9 10.6989 4.2 11.0989 3.5C11.0989 3.4 11.1989 3.4 11.1989 3.3C11.1989 3.3 11.1989 3.4 11.0989 3.4C10.7989 4.2 10.4989 5 10.2989 5.9C10.1989 6.3 10.0989 6.8 10.0989 7.2C10.0989 7.4 10.0989 7.6 10.1989 7.8C10.3989 8 10.4989 8.1 10.7989 8C10.9989 7.9 11.0989 7.7 11.2989 7.6C11.2989 7.6 11.2989 7.6 11.3989 7.5C11.3989 7.7 11.2989 7.9 11.3989 8.1C11.4989 8.1 11.5989 8 11.6989 8C11.8989 7.8 11.9989 7.7 12.0989 7.5L12.1989 7.4C12.3989 7.6 12.4989 7.7 12.6989 7.9C12.5989 7.9 12.5989 8 12.6989 8C12.6989 8 12.7989 8 12.7989 8.1C12.8989 7.9 12.7989 7.7 12.7989 7.5C12.9989 7.7 13.0989 7.9 13.2989 8C13.3989 8 13.4989 8 13.4989 8C13.5989 8 13.6989 8 13.6989 7.9C13.6989 7.8 13.7989 7.7 13.7989 7.6C13.8989 7.2 13.7989 6.8 13.7989 6.4C13.6989 5.7 13.4989 5.1 13.2989 4.5C13.0989 4.2 12.9989 3.7 12.7989 3.3Z" fill="#677D8E"/>
</svg>
